<!DOCTYPE svg PUBLIC "-//W3C//DTD SVG 1.1//EN" "http://www.w3.org/Graphics/SVG/1.1/DTD/svg11.dtd" [
	<!ENTITY ns_flows "http://ns.adobe.com/Flows/1.0/">
]><svg xmlns="http://www.w3.org/2000/svg" width="640" height="640" viewBox="-29.424 30.041 640 640"><path fill="#846842" d="M502.076 472.541s-25-8-24 2c0 0 2 13 15 17 0 0 31 31 24 57 0 0-9 17 10 24 0 0 29 5 19 28l-21 43s-27 5-60-8c0 0-45-97-32-169 0 0 32-26 69 6z"/><path fill="#CCB492" d="M475.743 339.208s-53.333-71.334-141.333-56.667c-88 14.667-140.667 108-108 178 0 0 17.333 30 9.333 66l-12.667 87.333s60.001.666 75.334-56.667c0 0-3.334-57.333 38-45.333 0 0 100.666-66.001 158.666-50.667 0 .001 12-57.332-19.333-121.999z"/><path fill="#BC9A68" d="M218.41 459.874s4 26 14.667 38.667c0 0 130-2 143 43l28 82s63 28 108 19l19-46s3-18-8-20l-38-7s-7-11 3-21c0 0 13-19 1-26l-48-38s-12-15 7-20c0 0 57-3 63 18 0 0 8 14-1 37 0 0-5 25 7 29l16 16s0-162-57-236c0 0 1 50-30 80-.001 0-101.667 54.333-227.667 51.333z"/><path fill="#BFA673" d="M276.41 481.874c0 12.519-4.034 18.667-16 18.667-11.966 0-24-8.814-24-21.333 0-12.518 4.034-21.334 16-21.334 11.965 0 24 11.482 24 24z"/><path fill="#997952" d="M221.076 470.541h16s-4 17 7 24l-15-1s-6-3-8-23zM272.576 469.041s160.5-.5 234.5-72.5l3.5-7.5 21 49.5 3.5 73.5-15-56-15.5-6.5s-75.834 8.5-108.834 15c0 0-74.666 20.001-120 27.667.001 0 4.334-14-3.166-23.167zM443.812 614.854s-6.387-9.258 7.655-17.435c0 0 17.222 4.611 8.482 19.875 0 0-22.783 23.438-30.271-14.361 0 0-5.282-17.964 1.081-29.634 0 0-7.82 3.607-21.7-6.201 0 0-12.503-11.378-.264-31.196 0 0 2.021-17.639-9.899-15.167 0 0-7.185 6.169-.656 8.324 0 0 .439 5.053-4.809 2.576 0 0-8.37-10.66 11.818-17.13 0 0 12.796 7.636 7.836 22.758 0 0 22.364-39.374 37.517-24.45 0 0 2.86 11.51-6.232 10.006 0 0-5.181-3.31-3.638-6.963 0 0 2.153-3.399 4.739.976 0 0 5.295-6.1-7.714-3.078 0 0-14.206 10.257-21.123 26.281 0 0-22.778 20.717 8.658 28.258 0 0 11.179-1.062 17.724-7.068 0 0 17.504-9.596 22.496 9.396 0 0 4.345 5.967 8.719-4.384 0 0-.213-5.248-4.797-2.863 0 0-3.904-.914-2.044-3.288 0 0 7.087-4.921 10.812 6.234 0 0-6.027 20.692-20.599 3.718 0 0-9.484-15.135-21.247 6.603 0 0-9.714 22.306 5.686 42.061 5.696 2.092 12.324 2.998 14.076-8.592 0 0-2.028-11.45-8.61-2.309.002-.002 3.891 9.075-3.696 7.053z"/><path fill="#997952" d="M346.076 514.541s53-30 91.5-39l.75 2.75s-47.25 12.75-88.75 38.25l-3.5-2z"/><path fill="#997952" d="M339.743 512.208s60.5-33.334 99-42.334l-1.167 2.667s-52 16.167-93.5 41.667l-4.333-2z"/><path fill="#BC9A68" d="M421.076 275.541l34-69s-107-68-232 19c0 0-64 60-65 168l51-18s24.509-147.998 212-100z"/><path d="M452.076 204.541l79.578-130.896-46.41-17.756-33.168 43.651 4.998-49.999c-34.588-6.136-79.732-8.272-132.269 2.786l-12.14 54.316-18.977-46.403c-29.411 8.768-60.742 21.774-93.517 40.404-27.787 19.912-44.095 43.897-44.095 43.897l30 64-68-29c-3.438 5.374-24 40-31.08 67.973l39.679 43.621-51.305-4.002C54.558 379 77.077 457.542 77.077 457.542l81-64c-.001-.001 42.094-244.9 293.999-189.001z"/><path fill="#BC9A68" d="M220.076 334.541l22.965 6.978s16.035-30.312 50.702-42.978l-13.667-24s-45 24.001-60 60z"/></svg>