<!DOCTYPE svg PUBLIC "-//W3C//DTD SVG 1.1//EN" "http://www.w3.org/Graphics/SVG/1.1/DTD/svg11.dtd" [
	<!ENTITY ns_flows "http://ns.adobe.com/Flows/1.0/">
]><svg xmlns="http://www.w3.org/2000/svg" width="640" height="640" viewBox="0 731.292 640 640"><path fill="#846842" d="M531.5 1173.792s-25-8-24 2c0 0 2 13 15 17 0 0 31 31 24 57 0 0-9 17 10 24 0 0 29 5 19 28l-21 43s-27 5-60-8c0 0-45-97-32-169 0 0 32-26 69 6z"/><path fill="#CCB492" d="M505.167 1040.459s-53.333-71.334-141.333-56.667c-88 14.667-140.667 108-108 178 0 0 17.333 30 9.333 66l-12.667 87.333s60.001.666 75.334-56.667c0 0-3.334-57.333 38-45.333 0 0 100.666-66.001 158.666-50.667 0 0 12-57.333-19.333-121.999z"/><path fill="#BC9A68" d="M247.833 1161.125s4 26 14.667 38.667c0 0 130-2 143 43l28 82s63 28 108 19l19-46s3-18-8-20l-38-7s-7-11 3-21c0 0 13-19 1-26l-48-38s-12-15 7-20c0 0 57-3 63 18 0 0 8 14-1 37 0 0-5 25 7 29l16 16s0-162-57-236c0 0 1 50-30 80 0 0-101.666 54.333-227.667 51.333z"/><path fill="#BFA673" d="M305.833 1183.125c0 12.519-4.034 18.667-16 18.667-11.966 0-24-8.814-24-21.333 0-12.518 4.034-21.334 16-21.334 11.966 0 24 11.482 24 24z"/><path fill="#BC9A68" d="M463.482 990.764l37-59s-105-85-230 2c0 0-76 57-66 167l25-15s73-191 234-95z"/><path fill="#756629" d="M500.482 931.764l116-131.333c-29.982-31.973-105.315-41.973-105.315-41.973L480.5 801.125l2-50s-23.829-7.7-74.018-6.361l-18.648 41.028-12.352-36.028s-115 16-195 101l19.351 32.361-40.667-2s-6.685 4.639-21.685 31.639l53.018 37.694-66-13.333s-53.333 108.667 16.982 214.639l61-51c.001 0-29.981-260.972 296.001-169z"/><path fill="#BC9A68" d="M262.5 1025.792l20 5.333s22.667-24 52.667-35.333l-6.667-25.333c0-.001-57.333 23.333-66 55.333z"/><path d="M111.101 986.385l112.732 7.406s-26.667 55.333-19.351 106.973l-61 51s-51.113-61.451-32.381-165.379zM209.167 825.791l66.667 109.333s28-18 80-23.333L332.5 760.458s-86 25.999-123.333 65.333zM428.5 915.791s28-140.667 38.667-168l15.333 3.335-2 50 30.667-42.667s77.964 9.947 105.315 41.973l-116 131.333c0-.001-53.982-13.974-71.982-15.974z"/></svg>