<!DOCTYPE svg PUBLIC "-//W3C//DTD SVG 1.1//EN" "http://www.w3.org/Graphics/SVG/1.1/DTD/svg11.dtd" [
	<!ENTITY ns_flows "http://ns.adobe.com/Flows/1.0/">
]><svg xmlns="http://www.w3.org/2000/svg" width="640" height="640" viewBox="0 731.292 640 640"><path fill="#9B9B9B" d="M531.5 1173.792s-25-8-24 2c0 0 2 13 15 17 0 0 31 31 24 57 0 0-9 17 10 24 0 0 29 5 19 28l-21 43s-27 5-60-8c0 0-45-97-32-169 0 0 32-26 69 6z"/><path fill="#D3D3D3" d="M505.167 1040.459s-53.333-71.334-141.333-56.667c-88 14.667-140.667 108-108 178 0 0 17.333 30 9.333 66l-12.667 87.333s60.001.666 75.334-56.667c0 0-3.334-57.333 38-45.333 0 0 100.666-66.001 158.666-50.667 0 0 12-57.333-19.333-121.999z"/><path fill="#C9C9C9" d="M247.833 1161.125s4 26 14.667 38.667c0 0 130-2 143 43l28 82s63 28 108 19l19-46s3-18-8-20l-38-7s-7-11 3-21c0 0 13-19 1-26l-48-38s-12-15 7-20c0 0 57-3 63 18 0 0 8 14-1 37 0 0-5 25 7 29l16 16s0-162-57-236c0 0 1 50-30 80 0 0-101.666 54.333-227.667 51.333z"/><path fill="#C1C1C1" d="M305.833 1183.125c0 12.519-4.034 18.667-16 18.667-11.966 0-24-8.814-24-21.333 0-12.518 4.034-21.334 16-21.334 11.966 0 24 11.482 24 24zM481.5 1018.792l37-59s-105-85-230 2c0 0-76 57-66 167l25-15s73-191 234-95z"/><path fill="#9F0039" d="M518.5 959.792l116-131.333s-14-16-38.667-21.333l-30.667 33.333 14.667-40-29.333-8.667-36.667 48 16-55.333s-53.145-13.006-103.333-11.667l-19 64-12-59s-115 16-195 101l13 29-27-6s-14 12-29 39l42 30-46-20s-18 28-12 44l82 19-94 14s-12 87 15 114l57-24-54 38s7 19 14 24l61-51s10-266 296-169z"/></svg>