<!DOCTYPE svg PUBLIC "-//W3C//DTD SVG 1.1//EN" "http://www.w3.org/Graphics/SVG/1.1/DTD/svg11.dtd" [
	<!ENTITY ns_flows "http://ns.adobe.com/Flows/1.0/">
]><svg xmlns="http://www.w3.org/2000/svg" width="640" height="640" viewBox="0 0 640 640"><path fill="#545655" d="M309.76 469.678s24.881 2.045 32.72-3.408c0 0 12.953-5.454 17.043-19.769 0 0 1.703-25.222 7.498-31.017 0 0-39.196-21.132-51.466-6.817-12.271 14.316-5.795 61.011-5.795 61.011zM506.423 411.395s-3.408 19.428 5.453 27.608c0 0 21.814 10.226 23.518 16.701 0 0 4.773 35.788-1.363 41.582 0 0-4.09 4.431-17.041 10.907-12.953 6.476 20.791 39.878 20.449 40.9 0 0 9.203 32.721-19.768 34.425 0 0-62.715-8.862-78.734-16.701-16.02-7.84-20.449-139.062-20.449-139.062l87.935-16.36z"/><path fill="#C6CDC9" d="M316.474 487.022s-57.713-20.947-66.842-32.966c-7.805-10.278 2.886-85.604 2.886-85.604s25.008-101.954 112.534-113.496c87.527-11.542 132.734 41.359 147.162 63.481s24.045 76.946 24.045 83.679c0 0-88.488 41.36-159.664 39.436 0 0-9.035-19.937-30.777-20.198 0 0-16.353-3.848-23.086 20.198-6.732 24.046-6.258 45.47-6.258 45.47z"/><path fill="#A0A3A1" d="M315.465 488.575s-13.466 37.512-44.245 47.129c-30.778 9.619-135.619-13.466-115.42-39.435l91.417-42.592s-.169 3.578 10.901 10.26c6.641 4.008 49.653 22.714 57.347 24.638z"/><path fill="#C6CDC9" d="M391.022 447.002s79.832-10.58 89.451-15.389l7.693 36.549s-1.924 5.772 7.695 10.581c0 0 11.543.961 18.275 2.885s9.617 42.322 3.846 48.093c0 0-23.084 18.275-26.93 35.587-3.848 17.312 19.236 26.932 21.16 24.046 0 0 12.502 50.978-35.59 43.282-48.09-7.694-119.266-63.48-117.342-94.26 0 0-7.695-26.932 3.848-36.549 11.541-9.619 25.969-26.932 25.969-26.932s5.771-7.695 1.925-27.893z"/><path fill="#A0A3A1" d="M402.122 345.308s-10.002 6.19-.238 12.858c0 0 10.477-4.048 13.572-4.524 0 0 118.111-3.81 128.826-14.287 0 0 15.717-8.812-30.004-17.146 0 0 4.525 5.238 5.238 13.335 0 0-47.863 14.526-103.346 13.335.001 0-11.191-4.048-14.048-3.571z"/><path fill="#D1B066" d="M537.151 401.58l-1.938-14.203s-120.077 41.963-167.204 43.254c0 0 6.456 5.81 7.747 11.62.001 0 116.851-5.164 161.395-40.671z"/><path fill="#D1B066" d="M317.654 487.441s-7.101-3.873-10.975-3.873c0 0 9.038-66.494 25.178-73.596 0 0 8.393-10.329 20.013-9.038 0 0 38.734-3.229 36.152 40.025 0 0-14.849 1.937-18.076 2.582 0 0-7.102-22.595-19.367-21.304 0 0-14.202-2.583-20.013 10.975s-12.912 54.229-12.912 54.229z"/><ellipse fill="#D1B066" cx="437.409" cy="521.98" rx="11.298" ry="15.171"/><ellipse fill="#D1B066" cx="482.74" cy="606.641" rx="11.298" ry="15.171"/><path fill="#D1B066" d="M356.389 250.515v12.912s34.861-6.456 49.064 2.582l-1.291-18.076c0-.001-29.697-4.519-47.773 2.582z"/><ellipse fill="#D1B066" cx="342.832" cy="352.516" rx="11.62" ry="12.267"/></svg>