<!DOCTYPE svg PUBLIC "-//W3C//DTD SVG 1.1//EN" "http://www.w3.org/Graphics/SVG/1.1/DTD/svg11.dtd" [
	<!ENTITY ns_flows "http://ns.adobe.com/Flows/1.0/">
]><svg xmlns="http://www.w3.org/2000/svg" width="640" height="640" viewBox="0 30.041 640 640"><path fill="#918349" d="M289.5 578.541s48-33 85-31c-23-70 4-110 4-110s-68-15-78 15l-11 126zM462.5 418.541s-15 57 2 79c0 0-6 55 34 102 0 0-54-22-58-61l-18-106 40-14z"/><path fill="#D8C577" d="M446.5 264.541s40 35 41 48c0 0-11 93-167 139 0 0 14 112-40 139 0 0-25 11-44-7 0 0 34-13 35-83 0 0-82-125 9-209 0 0 71-62 166-27z"/><path fill="#D8C577" d="M380.522 438.537l56-11s-15 57 13 72c0 0-5.022 61.004 39.978 114.004 0 0-108.978-1.004-108.978-175.004z"/><path fill="#F4E08C" d="M303.5 411.541s120-3 200-123l11 125 4-6 3 10-2 30-20-31s-87 33-177 38c0 0-15-10-19-43z"/><path fill="#BCAC68" d="M360.5 429.541c0 9.941-6.335 20-16 20s-20-9.059-20-19 8.335-21 18-21 18 10.059 18 20z"/><path fill="#F4E08C" d="M450.5 275.541l34-69s-107-68-232 19c0 0-67 37-68 145l54 5s24.509-147.998 212-100z"/><path fill="#9F0039" d="M481.5 204.541l107-78s-167-125-357-17c-150 95-142 268-142 268l95-7s4-243 297-166z"/><path fill="#9F0039" d="M103.833 393.874l9.333-10.666-14-1.334 17.333-6c15-3.667 73-6.333 73-6.333-23 37 5.595 112.084 5.595 112.084 13 34 5.405 103.916 5.405 103.916-9 44-39 68-39 68 18-25 24-64 24-64-11 38-36 65-36 65 17-24 28-64 28-64l-19 28 6-24-20 38 10-37c-6 54-67 70-67 70 34-30 32-80 32-80l-10 23 3-18c-15 21-15 55-15 55-6-17-4-49-4-49l10-40-5.667-42c-3.333-74 17.333-128.667 17.333-128.667"/></svg>