<!DOCTYPE svg PUBLIC "-//W3C//DTD SVG 1.1//EN" "http://www.w3.org/Graphics/SVG/1.1/DTD/svg11.dtd" [
	<!ENTITY ns_flows "http://ns.adobe.com/Flows/1.0/">
]><svg xmlns="http://www.w3.org/2000/svg" width="640" height="640" viewBox="-29.424 30.041 640 640"><path fill="#918349" d="M290.1 608.564s48-33 85-31c-23-70 4-110 4-110s-68-15-78 15l-11 126zM463.1 448.564s-15 57 2 79c0 0-6 55 34 102 0 0-54-22-58-61l-18-106 40-14z"/><path fill="#D8C577" d="M447.1 294.564s40 35 41 48c0 0-11 93-167 139 0 0 14 112-40 139 0 0-25 11-44-7 0 0 34-13 35-83 0 0-82-125 9-209 0 0 71-62 166-27z"/><path fill="#D8C577" d="M381.122 468.561l56-11s-15 57 13 72c0 0-5.022 61.004 39.978 114.004 0-.001-108.978-1.004-108.978-175.004z"/><path fill="#F4E08C" d="M304.1 441.564s120-3 200-123l11 125 4-6 3 10-2 30-20-31s-87 33-177 38c0 0-15-10-19-43z"/><path fill="#BCAC68" d="M361.1 459.564c0 9.941-6.335 20-16 20s-20-9.059-20-19 8.335-21 18-21 18 10.059 18 20z"/><path fill="#D8C577" d="M447.121 617.708c1.296 1.086 2.782 1.915 4.455 2.333a67.997 67.997 0 0 1-4.455-2.333z"/><path fill="#F4E08C" d="M450.122 529.561c-20.642-11.058-17.914-44.938-15.055-61.983-2.899.623-5.8 1.265-8.7 1.912-4.084 21.921 2.501 49.019 12.209 67.552 10 19 2 47 17 67-4-3-11-8-13-4-2.373 5.536-.354 13.558 4.545 17.667 1.435.818 2.915 1.6 4.455 2.333-1.673-.418-3.159-1.247-4.455-2.333-18.125-10.339-27.985-27.354-33.545-48.667 0-2-3-4-3-5-11.635-28.117-20.424-57.178-20.949-87.175-2.797.42-5.595.794-8.392 1.099 3.856 164.625 108.864 165.6 108.864 165.6-44.999-53.002-39.977-114.005-39.977-114.005z"/><path fill="#D8C577" d="M500.292 374.684s-4.054-6.754 2.701-14.859c0 0 4.729-8.78 10.808-7.43l8.78 18.236s2.703 15.536 1.352 30.396c0 0-2.701 7.43-2.026 13.509 0 0-12.157 3.377-15.535-4.053l-18.913-20.264s14.86 10.133 18.237 1.352l-5.404-16.887z"/><ellipse transform="rotate(-33.129 452.871 613.56)" fill="#D8C577" cx="452.832" cy="613.517" rx="5.403" ry="9.456"/><path fill="#9F0039" d="M482.1 234.564L587.076 69.541s-214-46-354.977 70.023C94.076 253.541 117.076 442.541 117.076 442.541l68.023-41.977c.001 0 4.001-243 297.001-166z"/><path fill="#F4E08C" d="M451.1 305.564l34-69s-107-68-232 19c0 0-67 37-68 145l54 5s24.509-147.997 212-100z"/><path fill="#9F0039" d="M103.563 421.799l8.836-9.746-13.254-1.219 16.41-5.482c14.201-3.351 69.113-5.787 69.113-5.787-21.775 33.81 5.297 102.419 5.297 102.419 12.308 31.068 5.117 94.955 5.117 94.955-8.521 40.206-36.923 62.137-36.923 62.137 17.041-22.844 22.722-58.481 22.722-58.481-10.414 34.724-34.083 59.396-34.083 59.396 16.095-21.931 26.509-58.481 26.509-58.481l-17.988 25.586 5.68-21.931-18.935 34.723 9.467-33.81C145.851 655.42 88.1 670.04 88.1 670.04c32.189-27.413 30.296-73.102 30.296-73.102l-9.467 21.018 2.84-16.448c-14.201 19.189-14.201 50.257-14.201 50.257-5.68-15.533-3.787-44.774-3.787-44.774l9.467-36.551-5.365-38.378c-3.155-67.619 16.41-117.572 16.41-117.572"/></svg>