<!DOCTYPE svg PUBLIC "-//W3C//DTD SVG 1.1//EN" "http://www.w3.org/Graphics/SVG/1.1/DTD/svg11.dtd" [
	<!ENTITY ns_flows "http://ns.adobe.com/Flows/1.0/">
]><svg xmlns="http://www.w3.org/2000/svg" width="640" height="640" viewBox="-4.853 -78.805 640 640"><path d="M229.507 0c-2.879 12.422-8.234 22.368-17.851 28.051C205.999 17.208 217.341 1.497 229.507 0zM405.463 0c10.464 4.836 19.547 11.052 17.851 28.051C410.431 25.633 409.43 11.336 405.463 0z"/><path d="M198.906 10.201c4.027 5.324 5.289 13.413 5.1 22.951 1.356 4.43 12.286-2.774 17.851-2.55-2.719 11.729-13.891 15.009-28.051 15.301-2.312-15.914 3.802-23.401 5.1-35.702zM430.964 15.301c11.341 2.258 6.52 20.682 7.65 33.151-13.998.398-20.914-6.288-28.052-12.75 2.347-6.95 7.972 3.561 15.301 0 7.932-.569 4.309-12.691 5.101-20.401z"/><path d="M183.606 35.701c3.79 3.86 4.108 11.191 5.1 17.851 8.766 1.116 14.293-1.006 20.401-2.55-1.234 11.515-16.329 9.172-28.051 10.2-.502-9.851-.091-18.792 2.55-25.501zM448.815 38.251c5.857 4.677 7.361 23.294 2.55 30.601-10.2-1.699-17.475-6.326-25.501-10.201 1.099-5.703 12.568-1.033 17.851-2.55 6.056-1.593-.396-15.695 5.1-17.85zM283.059 51.002v10.2c-5.792 1.858-19.895-4.595-17.851 5.1-8.044-9.045 8.125-15.564 17.851-15.3z"/><path d="M441.165 73.953c11.807 6.903 21.228.234 20.4-12.75 8.844 2.413 5.688 26.853 2.552 33.151-11.624-2.83-19.198-9.706-22.952-20.401zM290.709 66.302c-.383 6.343-8.635.747-10.2 0-26.142.195 2.499-5.822 10.2 0zM527.868 81.603h-17.851c1.848 5.802 14.541.759 12.75 10.2-17.574.573-28.475-5.528-43.352-7.65 4.299-11.49 17.33-.177 28.051-2.55-5.532-3.82-14.354-4.348-22.95-5.101 2.527-13.255 37.905-3.142 43.352 5.101zM193.806 73.953c21.794 2.241 33.328 36.199 56.102 45.901 7.801 3.25 24.208-2.107 20.4 12.75-26.751-2.818-67.812-31.233-76.502-58.651zM359.562 127.504c33.15-11.05 51.891-36.513 76.502-56.102-6.415 26.355-40.871 59.026-76.502 56.102zM527.868 81.603c23.488-5.81 70.349 7.354 99.453 12.75-30.278 12.322-77.771.264-99.453-12.75zM5.1 96.903c26.552-9.162 69.561-15.425 96.903-15.3 1.567 2.271 3.082 4.562 0 5.1-25.852 7.755-67.618 22.373-96.903 10.2zM512.567 96.903c-10.023 7.341-40.079-.59-33.151-10.2 11.634 2.814 24.609 4.291 33.151 10.2zM119.854 99.454c8.367-6.933 20.984-9.618 35.701-10.201-3.458 10.848-24.669 15.164-35.701 10.201zM186.156 99.454c-1.483-9.135 7.547-7.755 15.301-7.65.083 7.734-8.947 6.355-15.301 7.65z"/><path d="M448.815 94.353c5.77 2.729 11.214 5.788 15.302 10.201 8.03-.468 3.264-13.737 12.749-12.75-2.505 5.743-1.823 21.536-7.65 30.601-8.304-7.845-19.741-12.562-20.401-28.052zM497.266 104.554c-1.098 5.703-12.568 1.033-17.851 2.55v-10.2c5.464 3.035 14.248 2.754 17.851 7.65zM153.005 99.454v10.2h-17.851c1.365-7.987 9.512-9.19 17.851-10.2zM211.657 99.454c.491 10.713-22.445 14.623-22.951 2.55 6.356-2.145 13.662-3.337 22.951-2.55zM581.419 135.155c-32.962 15.243-60.555-14.817-86.703-22.951 23.676-14.741 58.553 17.507 86.703 22.951zM89.253 142.805c13.637-15.263 40.205-17.596 56.102-30.601 11.577 19.29-33.835 36.782-56.102 30.601z"/><path d="M543.167 142.805c-32.297 5.076-48.541-19.434-66.302-20.4-8.527-4.674 7.779-5.526 7.65-10.201 20.742 9.007 44.894 14.608 58.652 30.601zM313.66 132.604c-3.26 3.486-12.041 3.486-15.3 0 .839-5.962 3.065-10.534 5.1-15.3 6.938 1.561 9.995 7.005 10.2 15.3zM321.31 117.304c9.021-.479 12.621 12.13 7.65 17.851-13.548 2.839-10.394-11.01-7.65-17.851zM211.657 127.504c2.641-6.53 16.596-10.181 22.951-5.1-2.641 6.53-16.596 10.18-22.951 5.1zM285.609 119.854c10.5-2.535 12.171 10.477 7.65 15.301-11.441 3.476-12.38-10.271-7.65-15.301zM397.813 119.854c7.979.521 18.72-1.718 22.951 2.55-1.629 8.821-23.115 5.962-22.951-2.55z"/><path d="M275.409 122.404c10.506-1.233 3.628 12.441 0 12.75-5.968-.654-1.47-11.203 0-12.75zM351.912 122.404c8.569-2.62 3.97 7.929 5.1 12.75-5.028-2.011-9.167-8.92-5.1-12.75zM443.714 135.155c-8.687 6.823-20.266-.498-28.051-2.55 2.804-13.603 24.356-9.808 28.051 2.55zM216.757 132.604c-7.645 4.926-20.804 10.922-28.051 2.55 4.792-10.86 22.083-12.586 28.051-2.55zM385.063 124.954c10.939-.742 16.849 3.551 22.95 7.65-3.912 10.343-22.599 1.433-22.95-7.65zM247.358 127.504c-.272 7.523-14.278 14.426-20.4 7.65.797-8.551 11.554-7.147 20.4-7.65zM150.455 130.054c-2.106 7.207 3.594 6.607 2.55 12.75-6.766 5.21-24.895 12.402-35.701 5.1 5.477-11.524 22.115-11.885 33.151-17.85zM372.312 130.054c10.243.807 17.495 4.607 20.4 12.75-7.336 4.844-18.776-3.842-20.4-12.75zM515.117 147.905c-10.115 5.539-26.216-1.833-35.701-5.1-.395-6.345 4.006-7.894 5.101-12.75 11.686 4.462 26.9 5.399 30.6 17.85zM239.708 142.805c4.547-6.504 11.672-10.429 22.951-10.2-3.737 6.798-13.774 16.884-22.951 10.2z"/><path d="M410.563 132.604c6.976 2.376 10.876 7.825 17.851 10.2-3.265 10.457-19.8 2.647-25.5 0 .749-5.199 6.9-5 7.649-10.2zM229.507 145.355c-7.742 1.424-17.294 9.483-25.501 2.55 3.574-10.292 22.761-19.265 25.501-2.55zM255.008 150.455c2.043-8.158 5.937-14.464 15.3-15.3-2.02 8.178-2.122 18.279-15.3 15.3zM295.81 135.155c2.051 1.35 4.14 2.66 7.65 2.55 1.066 8.716-.77 14.531-10.2 12.75-.337-6.286-.386-12.287 2.55-15.3zM323.861 137.705v12.75c-4.119-.717-4.391 2.411-7.65 2.55-8.162-.339-11.219-5.783-10.201-15.301 9.327-.555 9.782-3.501 17.851.001zM331.511 135.155c11.662-2.231 10.21 20.131-2.551 15.3-3.044-7.61-.702-8.671 2.551-15.3z"/><path d="M351.912 135.155c.336 6.285.386 12.287-2.55 15.3-7.967 1.166-8.153-5.449-7.65-12.75 4.574.323 5.378-3.123 10.2-2.55zM362.112 135.155c10.664-2.162 10.096 6.903 15.301 10.2-4.401 8.524-18.429 3.115-15.301-10.2zM221.857 158.105c-.01-9.361 8.929-9.772 12.75-15.301 5.068.033 3.243 6.958 10.201 5.1-2.532 8.005-14.587 16.074-22.951 10.201zM395.263 142.805c8.243 1.958 13.343 7.058 15.3 15.301-13.773 3.576-13.515-6.886-22.95-7.65-.78-5.883 7.366-2.835 7.65-7.651zM260.108 153.005c-2.19 9.709-9.995 13.806-20.401 15.3-6.054-7.914 7.389-13.378 10.201-20.401 5.068.034 3.242 6.959 10.2 5.101zM272.859 147.905c6.917 1.049 10.521 12.128 5.1 17.851-7.294-.357-4.663-10.639-5.1-17.851zM354.461 147.905c5.703 1.099 1.033 12.566 2.55 17.851-9.014-2.032-7.525-14.638-2.55-17.851z"/><path d="M395.263 165.755c-13.087.336-20.443-5.058-22.951-15.3 11.622-5.788 19.195 5.703 22.951 15.3zM150.455 160.655c-4.876-1.073-10.976-.924-10.2-7.65 4.772-5.008 12.284-1.474 10.2 7.65zM339.161 150.455c2.053 1.35 4.14 2.66 7.65 2.55 1.066 8.716-.77 14.531-10.2 12.75-3.197-7.764-1.947-9.916 2.55-15.3zM362.112 150.455c6.913 4.988 13.908 9.892 15.301 20.401-16.342 3.606-20.463-9.897-15.301-20.401zM270.309 153.005c2.129 12.663-4.887 25.77-15.3 17.851 3.139-7.909 5.613-16.486 15.3-17.851zM311.11 168.306c-9.083.583-13.333-3.666-12.75-12.75 7.885-8.089 21.732 3.971 12.75 12.75zM318.76 168.306c-1.504-10.853.842-17.86 12.751-15.3.563 9.911-1.052 17.651-12.751 15.3zM415.664 155.555c9.219 3.531 14.287 11.214 25.501 12.75v15.3c-17.208-.642-22.042-13.662-35.701-17.851 2.308-4.491 9.385-4.212 10.2-10.199zM226.958 163.206c-9.998 10.404-21.016 19.786-38.251 22.951-.189-22.548 23.255-30.154 38.251-22.951zM280.509 165.755c5.574.374 5.475 6.425 5.1 12.75-2.965-.413-4.538.563-5.1 2.55-8.199-.836-5.623-14.004 0-15.3zM354.461 178.506c-10.317 2.859-12.608-7.83-7.65-12.75 7.967-1.166 8.153 5.449 7.65 12.75z"/><path d="M428.414 193.807c-18.089 8.104-26.377-13.958-38.251-20.401 10.603-15.325 34.396 5.439 38.251 20.401zM242.258 170.856c-6.786 13.168-21.272 30.88-40.801 22.951 9.524-11.073 22.295-28.953 40.801-22.951zM306.01 173.406c-1.35 2.052-2.661 4.139-2.55 7.65-5.914.812-9.791-.408-12.75-2.55v-7.65c5.362-5.599 11.336-.528 15.3 2.55zM321.31 170.856c4.082 13.512-16.831 13.512-12.75 0 7.85-1.786 4.901-1.786 12.75 0zM339.161 168.306c5.499 14.833-16.156 17.691-12.75 2.55 2.961-2.142 6.836-3.362 12.75-2.55zM183.606 170.856c6.73 7.73-2.269 21.421-2.55 30.601-15.303-.847-20.586-11.715-22.951-25.501 5.604 2.896 8.472 8.527 15.301 10.2 6.697-1.802 5.032-11.968 10.2-15.3zM446.264 170.856c4.14 4.363 7.721 9.281 7.65 17.851 8.057-1.295 11.194-7.506 20.401-7.65-3.153 13-12.146 20.157-25.501 22.951-2.146-9.756-3.331-20.471-2.55-33.152z"/><path d="M260.108 175.956c-7.688 12.267-16.934 35.218-35.701 28.051 7.159-14.27 17.11-32.937 35.701-28.051zM408.013 204.007c-22.709 2.309-23.199-17.602-35.701-25.501 15.579-11.707 29.816 11.695 35.701 25.501zM265.208 178.506c2.051 1.35 4.14 2.66 7.65 2.55-.339 19.21-8.647 30.454-28.051 30.601 1.849-16.003 15.59-20.112 20.401-33.151zM359.562 178.506c16.104 3.447 21.713 17.388 28.051 30.601-14.578 5.972-34.914-15.134-28.051-30.601zM298.36 191.256c-5.829 5.526-15.911.927-15.301-7.65 4.887-4.587 15.702-.717 15.301 7.65zM316.21 186.156c2.057-2.191 6.985-1.514 7.65-5.1 6.99.052 6.057 12.028 2.55 15.3-6.49-.311-9.888-3.71-10.2-10.2zM300.91 183.606c7.302-.503 13.917-.318 12.75 7.65-4.919 4.961-15.609 2.667-12.75-7.65zM191.256 191.256c6.526 7.949 3.191 22.129 0 33.151-10.165-4.286-23.205-5.695-25.501-17.851 7.904-.254 14.145 1.155 17.851 5.1 4.468-4.883 5.405-13.292 7.65-20.4zM436.064 191.256c7.427 3.624 6.998 15.102 10.2 22.951 5.594-2.906 10.421-6.579 20.401-5.1-3.47 11.834-16.297 14.305-28.051 17.851 1.771-14.521-4.321-21.181-2.55-35.702zM321.31 196.356c2.491 10.27-15.239 10.27-12.75 0 7.85-1.785 4.901-1.785 12.75 0z"/><path d="M354.461 193.807c3.519 6.682 11.622 8.776 12.751 17.851-10.295 10.849-18.08-3.921-12.751-17.851zM272.859 198.907c7.06 2.943 7.386 20.525-5.1 17.851-2.923-10.574 5.364-9.937 5.1-17.851zM295.81 216.757c-4.454-2.346-5.628-7.974-5.1-15.3 3.62.219 7.222.42 7.65-2.55 8.952 4.968 1.1 12.028-2.55 17.85zM323.861 201.457c7.533 3.82 4.074 12.76-5.101 12.75-2.186-8.136 4.015-7.887 5.101-12.75zM303.46 214.207c-.324-4.575 3.122-5.379 2.55-10.2 5.575.374 5.475 6.425 5.101 12.75-2.051-1.349-4.141-2.659-7.651-2.55zM204.006 214.207c6.908 6.617 9.755 28.28 7.65 35.702-10.815-2.784-21.979-5.22-28.051-12.75 5.502-7.003 11.71 2.538 17.851-2.55.304-7.348-1.393-16.696 2.55-20.402zM290.709 226.958c-10.27 2.49-10.27-15.241 0-12.75 4.779 4.855.279 6.404 0 12.75z"/><path d="M298.36 214.207c8.829-1.788 9.146 8.94 5.1 12.75-8.83 1.789-9.146-8.939-5.1-12.75zM326.411 214.207c8.828-1.788 9.146 8.94 5.101 12.75-6.605-3.279-8.015-5.274-5.101-12.75zM425.864 214.207c3.756 4.787 4.403 20.349 2.55 22.951 8.767 1.115 14.292-1.006 20.401-2.55-2.65 12.65-15.856 14.745-30.602 15.301 2.1-12.352 5.241-23.663 7.651-35.702zM290.709 226.958c8.83-1.788 9.146 8.94 5.1 12.75-5.182-1.858-10.413-7.675-5.1-12.75zM341.711 226.958c.72 6.669-.932 10.967-7.65 10.201-5.008-4.772-1.477-12.286 7.65-10.201zM313.66 229.508c11.528 8.873 1.974 38.827 5.1 56.102-17.343-8.711-.48-36.132-5.1-56.102z"/><path d="M410.563 232.058c4.725 4.069-1.006 19.25-2.55 25.501 4.231 4.271 14.972 2.029 22.951 2.55-1.017 12.583-21.237 5.962-33.151 7.65 2.986-13.164 4.736-27.563 12.75-35.701zM221.857 234.608c8.95 6.35 10.12 20.482 15.301 30.601-10.815 7.312-28.018-.807-35.701-5.1 4.077-4.423 11.478-5.523 20.4-5.101v-20.4zM354.461 234.608c9.538 4.062 9.882 17.32 17.851 22.951.469 2.169-.993 2.405-2.55 2.55-2.169-.469-2.406.993-2.55 2.55-7.682-5.917-9.301-17.901-12.751-28.051zM262.659 260.109c2.647-9.254 8.458-15.343 12.75-22.951 6.771 7.77-3.62 20.069-5.101 28.05-3.349-.901-4.01-4.489-7.649-5.099zM285.609 237.158c6.825.956 11.952 13.557 0 12.75v-12.75zM326.411 237.158h7.65c.503 7.301.316 13.918-7.65 12.75v-12.75z"/><path d="M390.163 249.909c4.54 3.067-.212 18.318-2.55 22.95 5.935 4.267 13.739 6.662 22.95 7.65-4.778 16.135-22.579.856-35.701 2.55 3.838-12.314 8.296-24.004 15.301-33.15zM242.258 252.458c10.472 4.829 11.188 19.414 17.851 28.051-10.057 7.05-24.736 9.167-35.701 2.55 4.883-4.467 13.294-5.406 20.401-7.649 1.754-10.256-2.444-14.559-2.551-22.952zM346.811 272.859h-5.1c-2.107-7.207 3.594-6.606 2.55-12.75 2.14 1.626 7.985 11.921 2.55 12.75zM272.859 280.509c-11.921 1.721-9.478-10.922-12.75-17.851 7.454 2.745 13.352 7.049 12.75 17.851zM336.611 272.859c5.384 4.498 7.536 5.748 15.301 2.551-1.158 14.705-12.061 1.229-15.301 5.1-2.48-.069-1.979-3.12-2.55-5.1 2.169.467 2.405-.994 2.55-2.551zM262.659 285.61h7.65c-1.678 18.722 3.371 44.173-2.55 58.651-10.126-3.581-2.873-39.451-5.1-58.651zM331.511 285.61c4.243 13.646 4.243 45.005 0 58.651-10.295-10.043-5.64-47.702 0-58.651zM357.011 285.61h7.65c-1.678 18.722 3.372 44.173-2.55 58.651-11.554-9.694-1.951-40.547-5.1-58.651zM285.609 290.709c13.597 8.291-.863 29.398 7.65 43.352-1.099 5.703-12.567 1.033-17.851 2.55V293.26c3.398 3.32 7.697 1.569 10.201-2.551zM298.36 290.709c9.294 7.75 5.736 41.806 2.55 53.552-10.078-7.426-5.031-41.885-2.55-53.552z"/><path d="M321.31 293.26c5.362 9.938 1.278 29.323 2.551 43.351H306.01c.234-18.084-4.517-53.183 15.3-43.351zM341.711 293.26c9.643-3.691 4.894 7.008 12.75 5.1v38.251H336.61c1.874-12.379-2.689-33.703 5.101-43.351zM402.914 295.81c-8.564 14.387-18.902 27-35.701 33.151-7.098-30.013 11.25-42.507 35.701-33.151zM244.808 323.861c-20.711 14.565-41.38-9.964-51.002-22.951 23.593-14.9 38.93 10.683 51.002 22.951zM382.512 326.411c12.835-13.335 27.732-40.778 53.552-25.501-11.363 14.015-28.512 33.385-53.552 25.501zM211.657 323.861c-20.089 9.839-37.256-5.207-45.901-15.301 15.813-18.612 34.958 5.928 45.901 15.301zM418.213 326.411c6.433-14.344 24.259-29.63 45.903-20.4-8.692 13.407-20.533 23.667-45.903 20.4zM175.956 321.311c-8.896 4.552-27.758-2.772-30.601-12.751 14.376-7.411 21.206 7.477 30.601 12.751zM471.765 306.01c6.144-1.043 5.544 4.657 12.751 2.55-5.705 9.596-16.641 13.961-30.602 15.301 3.39-8.512 11.57-12.23 17.851-17.851zM130.054 311.111c8.169 2.873 8.991.617 17.851 5.1-3.24 5.518-19.593 2.793-17.851-5.1zM499.817 313.661c-3.706 3.944-9.947 5.354-17.852 5.1 1.709-6.256 14.838-7.81 17.852-5.1zM267.759 369.762c5.22-3.389 1.377 24.026 2.55 33.151-5.22 3.39-1.377-24.026-2.55-33.151zM316.21 104.554c-5.238-.712-5.089-6.811-7.65-10.201-5.037 1.763-6.798 6.804-7.65 12.75-3.136-1.113-5.237-3.262-5.1-7.65-7.638 1.678 2.438 5.451 0 10.2 6.489-.312 9.889-3.71 10.2-10.2 3.447 2.505 5.097 6.803 7.65 10.2 4.485-.613 5.812-4.388 5.1-10.2 8.325-.675 5.406 9.896 12.751 10.2 4.716-.384 1.563-8.637 5.1-10.2 5.676 5.374 7.022 15.076 15.301 17.851-3.576 7.428-8.786-4.522-15.301-2.55-2.281 8.233 8.317 3.583 10.2 7.65.814 5.912-.41 9.792-2.55 12.75-15.161-3.245-4.844-16.842-17.851-22.951-3.733 2.217-8.084 3.818-7.65 10.201-6.488-.312-9.889-3.71-10.2-10.201-12.253 10.459-14.942.598-30.601 7.65 20.18-19.554 15.146-45.03 7.65-71.402 37.763-15.019 54 25.157 45.902 56.102-6.555-.247-3.646-9.954-10.201-10.201-3.421 1.68-4.749 5.453-5.1 10.202zm-12.75-53.552c-4.82 1.13-15.369-3.467-12.75 5.1 3.81 4.044 14.538 3.731 12.75-5.1zM175.956 84.153c18.242 11.56-7.257 29.281-15.3 38.251-1.21-6.729-5.997-20-2.55-33.151 5.299 16.424 12.024 9.944 22.951 2.55-14.952-.729-18.758-16.259-12.75-35.701 6.515.284 5.062 8.539 5.101 15.3 9.61 1.96 12.19-3.11 20.4-2.55-1.876 9.177-10.454 11.65-17.852 15.301zM132.604 79.053c10.304 6.978 22.938-3.282 28.051 0-13.171 11.037-51.457 15.637-73.953 25.501 8.104 5.987 26.864-13.602 35.701 0-18.894 8.308-36.438 17.965-58.652 22.951 19.999 1.272 44.617-14.867 63.752-22.951 4.519 2.281 3.25 10.35 12.75 7.65-27.125 9.807-51.247 34.939-86.703 28.051-2.236-8.186 6.613-5.287 7.65-10.201-10.8 2.553-27.886 4.528-38.251 0 13.75-13.453 40.883-13.517 61.202-20.4-21.528-2.879-58.509 19.589-84.153 5.1 29.832-10.933 83.53-22.462 109.653-20.401-4.522-4.216 5.188-11.898 20.401-10.2-6.034-8.572-19.188 5.743-25.501-2.55 6.812-6.53 36.213-15.679 43.352-5.101-3.011 2.937-9.012 2.887-15.299 2.551zM453.915 109.654c.432 5.528-9.045 1.155-12.75 2.55 4.595 2.204 7.996 5.604 10.2 10.201-4.468 7.543-13.587-1.475-20.4 0-.718-4.119 2.41-4.391 2.55-7.65-4.231 4.269-14.972 2.03-22.951 2.55.016-25.245 31.535 8.345 35.701-12.75 3.349.9 4.012 4.488 7.65 5.099z"/><path d="M446.264 91.803c1.851 7.8-4.4 7.501-2.55 15.3-10.255 1.756-14.556-2.443-22.95-2.55.58-14.474 12.434-2.513 22.95-5.1-2.002-5.648-15.786.485-12.75-10.201 3.964-4.198 9.937.873 15.3 2.551zM632.419 109.654c-34.228 21.103-78.287-8.617-112.202-12.75 25.817 13.283 60.438 17.766 89.253 28.051-36.476 16.471-69.423-13.547-99.453-20.4 25.645-31.041 80.613 5.393 122.402 5.099zM186.156 104.554c-.938 4.338 1.989 4.811 5.101 5.1-3.555 8.016-12.585-3.506-15.301 2.55-4.81 6.517 3.131-9.952 10.2-7.65zM221.857 117.304c-15.567 1.434-24.903 9.097-40.801 10.2 4.248-5.068-.23-3.242 0-10.2 6.333.383 10.583-1.317 12.75-5.101 3.137 1.113 5.237 3.263 5.1 7.65-.218-8.947 22.522-17.234 22.951-2.549zM163.205 135.155c6.396-3.805 8.952-11.451 12.75-17.851 8.087 12.432-6.397 24.133-7.65 35.701-9.148-6.151-16.14-14.461-15.3-30.601 7.609 12.083 15.678-3.471 10.2 12.751z"/><path d="M170.855 153.005c.484-2.894 2.559-1.415 2.55 0 3.136-1.113 5.237-3.263 5.1-7.65 7.944 10.609-4.508 22.607-7.65 30.601-8.484-5.967-16.384-12.517-17.851-25.501 5.786 7.496 22.531 18.162 17.851 2.55z"/><path d="M209.107 158.105c-13.023 9.202-24.571 3.646-28.051 12.75-7.436-4.363 5.778-9.282 2.55-17.851 10.734-6.25 21.089-9.97 25.501 5.101zM193.806 142.805c-.63 2.77-5.07 1.729-5.1 5.1-4.486-.612-5.812-4.388-5.1-10.2-5.238.712-5.089 6.811-7.65 10.2-8.428-3.825 5.299-6.235 2.55-12.75 9.867-2.217 9.072 6.228 15.3 7.65zM453.915 137.705c-4.484.613-5.812 4.388-5.1 10.2-3.773-1.327-6.428-3.772-10.2-5.1 1.035-4.913 9.886-2.015 7.649-10.2 9.401 1.648 13.376 8.726 15.301 17.851 4.217 7.399-4.086-6.913-7.65-7.65.981 8.37 7.456 11.244 10.202 17.851 8.964-.383 6.125-12.576 17.849-10.2-2.624 12.676-11.111 19.489-17.849 28.051-7.187-9.614-16.786-25.319-10.202-40.803z"/><path d="M469.215 127.504c6.161-3.347-3.982 2.819-5.099 2.55 2.865 6.719 9.883-3.421 12.749-5.1 11.161 5.375-11.63 19.903 2.55 20.401-2.309 6.988-9.386-4.976-10.2 5.1-7.641-7.66-15.136-15.465-15.301-30.601 6.712 5.653 8.59 6.445 15.301 7.65zM277.959 147.905v-12.75c11.157 3.147 19.317 20.515 15.301 30.601h-7.65c-1.97-1.743-6.639-15.19 2.55-12.75-.384-4.717-8.636-1.565-10.201-5.101zM423.314 155.555c2.304-4.498 5.705-7.896 10.2-10.2 12.992 1.459 15.816 13.084 20.4 22.951-4.006-2.02-19.987-5.312-30.6-12.751zM334.061 196.356c-3.651-2.996 1.125-19.13 12.75-15.3 2.596 11.946-7.222 11.481-12.75 15.3zM351.912 181.056c5.944 4.727-4.057 24.791-10.2 17.851 5.084-4.264 8.486-10.216 10.2-17.851zM275.409 186.156c1.096-7.058 8.021-.132 5.1 5.1 1.869 2.381 4.637 3.865 7.65 5.1-.63 2.77-5.07 1.729-5.1 5.101-5.497-2.152-2.153-13.149-7.65-15.301zM313.66 219.308c-2.429 12.526-20.747 34.665-12.75 40.801-.032 5.067-6.958 3.242-5.1 10.2-2.601-5.316-.199-10.387-5.1-17.851 11.933-6.783 7.811-25.012 22.95-33.15zM306.01 280.509c-7.161-1.125-3.014-5.376-7.65-12.75 5.471-3.028 5.953-11.047 10.2-15.301 4.825-3.695-5.227 24.862-2.55 28.051zM334.061 214.207c-2.937-3.013-2.887-9.015-2.55-15.3 14.067 6.913 14.286 21.696 20.4 40.801-8.514-8.868-11.505-20.56-17.85-25.501zM346.811 237.158v10.2c-5.18-.635-12.374 9.329-5.1 12.751-1.422 5.274-9.867-3.439-7.65-10.2 10.402 1.902.485-16.516 12.75-12.751zM349.362 244.808c6.171-4.054 17.695 22.771 7.649 28.051 3.644 5.922 8.188-8.611 12.751-10.2 7.713 3.86-2.114 11.191 0 17.851h-12.751c-8.009-8.014-7.122-27.197-7.649-35.702zM285.609 255.008c6.295-4.627-4.004 11.085-2.55 17.851-18.362.922-4.116-12.658-5.1-22.95 8.232-5.218 3.583 14.48 7.65 5.099zM331.511 262.659c4.054-7.561.714 11.717-2.551 12.751-8.738-2.313-6.108-15.993-7.65-25.501 4.154 1.997 5.357 19.872 10.201 12.75zM295.81 277.959c-8.436 6.168-15.037-1.589-15.3 12.75-2.77-.63-1.729-5.07-5.1-5.1.069-2.48 3.122-1.98 5.1-2.551.415-2.963-.563-4.537-2.55-5.1 9.796-2.932 7.266 2.799 17.851-5.101-.415 2.964.563 4.538 2.55 5.101-.486 2.895-2.56 1.416-2.551.001zM257.558 293.26c2.369-2.89 2.562 21.636 2.55 35.701-17.513-5.439-24.739-21.163-35.701-33.151 9.513-4.863 27.872.122 33.151-2.55zM448.815 349.362v22.95c4.396 6.687 13.455-16.887 17.851-10.2v51.002c-2.479 11.737-11.142-9.665-17.851-10.2v25.501H181.056v-22.951c-4.396-6.687-13.454 16.887-17.851 10.2v-51.001c2.478-11.737 11.142 9.665 17.851 10.2 1.599-7.75-3.265-21.965 2.55-25.501 85.93-1.236 161.24-.331 265.209 0zm-10.2 2.55c-81.604 1.698-170.004-3.399-247.358 2.55 11.776-2.02 7.292 2.834 10.2 5.101 6.241-12.599 38.687 6.868 28.051-5.101 8.135 4.894 41.362-4.435 30.601 5.101 10.829 1.557 6.818-9.252 12.75 0 11.587-7.618 34.529-2.697 58.652-2.55-1.98.57-5.031.069-5.101 2.55 7.072-1.25 20.423-9.316 10.2 0 9.688-4.121 35.024-7.732 35.701 0 31.523-9.751 35.386 4.862 66.304-7.651zm-249.909 68.852c-1.524-19.758 3.16-59.223-2.55-66.303 1.524 19.759-3.16 59.223 2.55 66.303zm247.358 0c15.37-7.605 6.51-52.957 5.101-68.853-5.915 12.664 2.387 53.204-5.101 68.853zm-204.006-53.552c-3.311 3.39-3.362 9.488 2.55 10.2v-12.75c-11.82-4.087-19.061.191-25.5 7.649-1.373 5.918 4.125 17.577 7.65 10.201-4.107 1.091-8.558-9.509-2.55-10.201.455 17.685 3.923-10.195 12.75-7.649-.138 4.772 1.963 5.399 5.1 2.55zm-2.551 38.251c-5.34-4.009-16.418-2.281-17.851-10.2v12.75c26.457 16.621 32.095-33.965 10.2-17.85 1.556.144 3.019.381 2.55 2.55 10.591-.352.516-1.679 0-5.101 5.621-1.075 14.065 7.638 7.65 10.2-4.511-14.55.305 10.495-2.549 7.651zm56.102-20.4c-2.304-26.604 2.853 5.145-12.75 0v-15.301c8.314-.458 12.273 5.994 12.75-5.1-8.585 1.613-23.687-3.285-28.051 2.55 12.782.423 11.043 40.087 0 40.801 6.098-1.554 18.502 3.2 20.401-2.55-8.569 2.617-3.97-7.932-5.1-12.75 7.589-.912 12.938-4.062 17.851-7.65.812-5.356.386-22.089-5.1-12.751 4.164-1.147 4.164 13.898-.001 12.751zm30.601-7.65c-.918 2.398 2.241 8.393 2.55 7.65.217-.523-3.26-11.503-2.55-12.751.076-.134 21.083-3.154 22.95-2.55 6.482 2.1 8.694 8.545 12.751 15.301 3.317-6.333-7.481-10.584 0-12.751 2.6.416 2.5 15.565 5.1 7.65-1.716-15.724-14.479-2.296-12.75-15.3-18.339-2.974-41.236 6.91-30.601 30.601.572-1.979.07-5.03 2.55-5.1 3.197 9.996 1.947 7.901-2.55 10.2 12.166 1.566 10.92 11.921 22.951 10.2-3.11-.289-6.036-.763-5.1-5.101 9.861 4.276 2.799 9.625 12.75 12.751h-86.703c-12.768 0-76.143 1.086-58.652 2.55 60.941 5.103 117.983-3.733 188.707 0h28.051c10.205 1.883 26.87-2.869 7.65-2.55h-61.202c-2.856-7.345-18.665-1.736-20.4-10.201 7.329-1.297 19.501-10.93 12.75-17.85-3.207 12.254-21.449 14.937-35.701 12.75 5.919-12.39-6.887-14.163-2.551-25.499zm73.953 0c.157 20.244 13.916 26.886 28.051 33.151-8.758-10.203-8.746-8.171-17.851-22.951 14.441 1.517-.737-10.763 7.65-15.301-.191 3.574.57 9.753 2.55 5.101v-5.101c-5.182-2.98-10.411 1.348-5.1-7.649-6.855.941-31.042-2.336-25.501 2.55 14.491-2.513 28.875 8.422 22.951 17.851-4.629-3.659-10.596 2.205-12.75-7.651zm-12.75 30.6c6.096-1.554 18.5 3.2 20.4-2.55-18.901 6.891-4.413-25.53-12.75-35.701-1.854 13.448 5.516 36.117-7.65 38.251zm73.952-20.4c4.802-4.495-3.486-7.896 5.101-10.2-5.409 2.511 5.464 16.05-2.551 20.4-.609-2.769-4.198-6.123-5.1-2.55 3.08.54 1.568 2.829 0 5.101 8.006-1.206 6.736 6.863 12.75 7.649-5.486-11.378 2.62-26.337-2.55-35.701-2.724 3.427-16.117 9.115-7.65 15.301zm-270.309 0c1.104-13.114-5.388-6.727-10.2-10.2-7.008 22.002 2.812 40.582 7.65 15.301-1.494 2.271-5.359 14.546-7.65 7.65 5.721-5.462-.861-25.999 10.2-12.751z"/></svg>