<!DOCTYPE svg PUBLIC "-//W3C//DTD SVG 1.1//EN" "http://www.w3.org/Graphics/SVG/1.1/DTD/svg11.dtd" [
	<!ENTITY ns_flows "http://ns.adobe.com/Flows/1.0/">
]><svg xmlns="http://www.w3.org/2000/svg" width="640" height="640" viewBox="-95.161 -0.058 640 640"><path fill-rule="evenodd" clip-rule="evenodd" d="M225.726 75.242c-.649-.771-1.451.409-2.026-.29.523-.363 2.169-1.092 2.026.29zM223.7 75.532c.683.424.539.61 1.447.289-.203.891-.203.556 0 1.447-1.044-.018-1.543-.58-1.447-1.736zM228.33 76.979c.468-.082.499.273.868.29-.164.705-.248 1.488-1.158 1.447.254-1.026.036-.713.29-1.737zM226.016 83.345c.793.267 1.209.912 1.446 1.736-1.056.91-1.672-.472-2.026-1.158.071-.314.576-.195.58-.578zM159.455 89.422c1.447.068-.525 1.877.868 1.736-.434.673-.708.441-1.447.29.395-.369.447-1.417-.29-1.447.118-.977 1.122.77.869-.579zM158.586 90.869c-.051.913-.203 1.726-1.157 1.736-.007-.282-.354-.225-.579-.29-.144-1.205.733-1.388 1.736-1.446zM229.487 91.737c.132-.568 2.031-.52 1.447.579-1.094.419-.555-.795-1.447-.579zM136.882 97.525c.603-.951 1.22.488 1.736.579-.246.429-.728.622-1.446.579-.024-.459.139-1.104-.29-1.158zM287.945 100.129h.867v1.158c-.422-.252-1.12-.23-.867-1.158zM236.433 102.445c1.053.104 1.632.684 1.736 1.736-.661.184-1.745.574-2.315 0-.075-.848.654-.889.579-1.736zM301.836 110.258c.246-.053.272.113.288.289.07.746.499-.397 1.158 0 .323.737.797 1.326.868 2.315-1.425-.213-2.453-.825-2.314-2.604zM329.327 114.02c.785.083 1.364.373 1.736.868-.705.334-1.235 1.212-.289 1.737-.457.716-2.025.118-2.604 0 .042-.718.054-1.405-.579-1.447 1.138-.504 1.009.148 1.736-1.158zM320.646 130.516c.34.046.244.527.29.868-.246.053-.273-.113-.29-.29-.391.703-.578.181-.867.579-1.014-.576.848-.661.867-1.157zM298.651 134.856c.119.697-.527.629-.288 1.447-.221-.455-.919-.432-.869-1.157.246-.054.273.113.29.289.294-.188.299-.665.867-.579zM158.876 135.725c.468-.082.498.273.868.29.087.762-.4.949-1.158.868-.037-.52.354-.611.29-1.158zM294.891 149.037c-.125.801-.911.015-.579-.579.547.128 1.744-.395 1.446.579-.59.172-1.594-.543-.867 0zM136.593 155.693c-.912.14-.655-.889-1.736-.579-.023-1.426 1.135-.571 2.026-.579.035.519-.356.61-.29 1.158zM149.905 155.403c.479.292.314 1.229.579 1.737-1.243.099-.783-1.054-.579-1.737zM239.326 156.271c.671.294 1.348.582 1.447 1.447-.669-.294-1.346-.582-1.447-1.447zM148.168 178.555c.672.1 1.355.187 1.158 1.158-.737-.036-1.122-.422-1.158-1.158zM347.56 201.127c.762-.088.949.4.867 1.158-.519.036-.609-.354-1.157-.29.153-.233.301-.47.29-.868zM300.678 212.125c-2.082.753-.927-2.637 0 0zM359.714 230.935c.659-.397 1.088.746 1.157 0 .72.043.085.98 0 1.158-.736-.036-1.122-.422-1.157-1.158zM303.282 244.247c-.115-1.582 1.232.094 1.447-1.158.805.546-.625 1.281-1.447 1.158zM153.088 278.395c-.429-.151-.729-.428-1.157-.579.143-.979 1.512-.562 1.157.579zM232.671 377.366c-.292-.87.645-.512 1.157-.578v.868c-.604.123-.766-.198-1.157-.29zM283.314 378.235c.129 1.725-.426 3.041-.868 4.63-.31-.559-.554-1.183-1.736-.868.562-.597 1.175-1.14 1.736-1.736.106-.492-.227-.546-.579-.579-.282-1.498 1.169-1.261 1.447-1.447zM252.061 389.522c.396 1.488-1.834 2.102-.58 3.471h-1.446c.3-.761.347-1.775.289-2.893.847.075.889-.654 1.737-.578zM205.179 420.776c-1.177-.429-1.397-.013-2.604-.29.585-.126 3.024-1.245 2.604.29zM113.442 425.116c1.277.632-.28 1.888 0 2.605-.886-.629.277-1.63 0-2.605zM210.677 426.563c.911-.139.216 1.327.868 1.447.053.246-.112.273-.289.289h-.579c.61-.785-.656-.719 0-1.736zM307.045 434.667c.571.199.771.771.867 1.446-.458-.387-1.643-.675-.867-1.446zM110.547 438.428c.371.529 1.168 2.434-.289 2.314.034-.832-.158-1.893.289-2.314zM143.249 489.361c-.649-.083-.636-1.644.289-1.736-.241.596-.246 1.3.29.579.606.812-.481 2.401-1.158 2.894-.211-.656-1.223-.513-1.736-.868.01-.417 1.82-.438.869-.868.244-.849.93.173 1.446-.001zM352.189 493.413c1.06 1.538-1.379 2.315-.868 3.473-2.344-.012-1.236-.612-3.473-.579-.08-1.546 1.238.1 1.157-1.446 1.404.436 2.118-1.382 3.184-1.448zM353.926 518.011c.752.403-.211 1.497-.29 2.026-.585-.238.183-1.526.29-2.026zM124.438 522.931c.552 1.981-5.29 3.902-8.393 3.183 3.402-.457 5.762-1.955 8.393-3.183zM352.769 531.612c.822 1.126-.037 3.04-.29 4.053-1.176-.104-2.427 1.221-3.473.289-.214-1.49.934.036.579-1.736 2.225.293 2.661-1.199 3.184-2.606z"/><path fill-rule="evenodd" clip-rule="evenodd" d="M327.881 639.266c4.318-6.975 7.691-16.416 11.576-22.862.206-3.37 3.137-4.905 3.472-9.261 1.135.369.97-.791.579-1.157.79.211.583-.575 1.157-.579.807-4.883 3.541-7.842 4.341-12.733-1.535-.256-1.56-.224-2.315-1.157.716.558 1.067-.246.29-.579 1.297.045 1.316-1.19 2.894-.867-.181-2.635 2.001-4.068 1.447-6.657 2.379-.744 1.377-3.377 2.604-4.919-.498.015-.741-.223-.868-.579.659-.401 1.121-1.001 1.736-1.447-.542-1.944 2.1-5.66 2.604-8.103.104-.506-.321-.983-.29-1.446.105-1.506 1.507-4.437 1.447-4.92-.191-1.554-.126-.571.29-1.735.283-.792-.279-2.181 0-3.185.45-1.619 2.521-2.791 1.158-4.341.454-.027 1.002.039.867-.579-.82.218-.715-2.613 0-2.894-.032-1.024-.957.615-.867-.289-.038-.52.286-.678.867-.579-.957-1.082.569-1.766-.579-2.894.339-.435.836-.708.869-1.447-.623-.797.168-1.209-.29-2.025.912-1.159 2.175-3.237 1.158-4.63.473-11.547 1.316-23.592.288-34.729-.992-10.776-4.659-20.102-8.682-29.518-1.93-.434.019-1.654-1.157-2.315.258-.084 1.269-.782.579-.867-.062.323-.321.451-.579.579.94-.915-.862-.108-.579-1.158 1.907-.177.299-5.544 0-7.235-.432-.048-1.067.104-1.157-.29-4.492-4.574-11.247-9.395-18.521-12.153-.114-.912-1.341-1.761-2.895-2.024-.35-1.002-1.458-1.243-2.604-1.449-3.562-9.267-11.454-14.205-15.917-22.571 1.118-3.428-4.638-3.452-3.762-6.656-.762-.675-2.188-.581-2.895-1.446-1.946-2.387-6.168-5.177-9.839-7.235-2.303-4.459-4.605-8.74-7.524-11.865-3.024 6.62 2.401 11.182 3.473 15.338.947.504 1.821 3.578 3.184 4.63-.526.618-.261 1.577-.579 1.736-.12-.307-1.586-.672-1.446-.29.632.519 1.059 1.034.578 1.448-3.626-1.358-2.669-6.153-6.656-6.367-.724 1.206.186 4.044-.578 5.209-.225-.063-.571-.008-.579-.29-.065-.579 1.291-1.171.289-1.735-.521.25-.907.637-1.157 1.158.229-1.129.299-1.501-.289-2.315h1.446c.345-1.213-1.219-.517-1.446-1.157.025-.457.738-.227.578-.869-.108-.318-1.157-1.101-1.446-.288 1.424-.253-.748 1.235-.58.578.809-.419.494-1.393 0-2.026.684.372.539-.037 1.448.29.051-.992-.978.025-1.158-1.157 1.763 1.062.836-1.342.868-1.447.252-.806 1.094.148.868-.868-.155-.703-.999-.776-1.157-1.447 1.228.165.883-1.104 0-2.025 1.141-.715.751 1.507 1.157.579-.621-.742.267-1.642-.289-2.026 0 .16-.234.328-.289 0 .427-.151.729-.429 1.157-.579-.312-1.48.023-2.01-.29-3.183.498-.114.743.43.869 0-1.002-1.857 1.16-5.671-.29-7.814 1.78-.142.938-2.855 0-3.473 2.244.324-.347-.713 1.158-.867-.329-1.336.149-1.74-.58-2.315.959.065-.002-1.03.869-1.447-.225-.065-.571-.008-.579-.29.74-.27.845-1.705.579-2.604-.062.324-.321.45-.579.578.013-.398-.136-.635-.29-.868 1.368.138.54-.361.29-.868.341-.044.822.05.869-.29-.656-.597-1.029-1.479-1.447-2.314.416-.154.705 1.128.868.29-.697-.522-.337-2.869-.868-3.763 2.562-.012.909-3.344 2.025-4.631-.34-.045-.822.051-.868-.289 1.221.05-.005-.444 0-.868.342.043.656.516.868 0-1.291-1.862 2.082-2.818.579-4.341 1.47-1.278 1.71-3.482 1.736-4.92-.065.225-.008.572-.29.579-.207-1.882 1.035-2.226 0-3.473 1.708.098-.046-.444 0-1.157h1.158c-.019-.849-.885-.853-1.158-1.447.337-.048.314-.457.29-.868h.868c-1.386-1.928.606-2.756 0-5.209 1.099-.113 1.214-1.937.578-1.736 2.444-.544.235-.268.29-.868-.018.194 1.177-2.104.289-2.314 1.636-.364.204-.358 0-1.158.769-.1.977-.76 1.157-1.447-.34-.045-.822.051-.867-.289 1.353-1.882.336-5.995 1.736-7.235-.342-.044-.822.051-.869-.29.394-.66 1.307-5.617-.289-4.34.261-.511.698-.845.868-1.446-1.046-.039-.534-2.463 0-1.447.118-.697-.528-.63-.289-1.447-.498-.114-.742.43-.868 0 .515-.14-.126-.309-.289-.578.341-.141.655-.31.867-.579-1.233.403-.591-1.937-2.025-.868.798.547-1.64 2.828-1.447 4.051-1.694.648-.837 1.748-2.025 1.736.226.064.336.243.289.579-.997-.558-1.011 1.096-.867 2.025-.844.502-2.056 2.645-2.316 3.473-.07.055-1.092 2.146-2.315 2.895.516.14-.125.309-.289.579.455.027 1.004-.039.869.579-.884-.319-1.919.881-2.026 2.025-.789.025-.583-.482-1.157 0 .084 1.444-.541 1.633-.579.868-.554.574-.804 2.985-1.447 1.736-.216 2.403-2.924 2.428-2.025 3.762-.59-.505-.567.215-1.157-.289-.013.398.137.635.29.868-.721.031-.896.542-1.448 0-.228 1.262.07 2.193-1.736 2.314.444 1.986-1.338.066-.578 1.736-1.097.168-1.304 1.396-2.025 1.158.323.061.449.321.579.578-.603.634-.937-.254-1.448.29-.064.547.326.638.29 1.157-.575-.481-.368.026-1.157 0-.398.659.745 1.088 0 1.158-.283-.959-.572.322-.869.289-.033-.354-.086-.686-.578-.579-.161 1.354-.677.675-1.446 1.157 1.036-.04-.03.743.578 1.447-.91-.145-1.132.632-1.736 0 .326 2.732-4.582 1.571-3.474 4.341-1.129-.76-.553.062-2.025-.579-.086.569.391.574.579.869-.91.331-.703-.455-1.157-.579-.144 1.301 1.502.812 2.025 1.446-1.004.233-1.112-.43-2.025-.289.214 1.451-1.067-.386-1.158.579.524 1.323-.765-.208-.867 1.447-.334-2.074-2.972 1.979-4.342 1.446.407.075.33.636.579.869-.825-.835-1.138 1.03-1.736-.29-2.027 3.269-5.127 2.404-7.524 5.209.062-1.34-1.032.284-1.447-.579-.49 1.832-.643.627-1.446 2.315-.719.376-1.405-.646-1.448 0 .817.291-.919.273 0 .868-1.476.551-3.282.769-4.051 2.026-.29-.399-.478.123-.868-.579.081.66-.069 1.088-.578 1.157.376-.385.381-1.077-.29-1.157-.112.314-.348.694 0 .289.551.028-.18 1.129-.578 1.157.136-.848-.779-.437-.868-.289.304.471-1.767 2.042-2.315 1.158-.26.847-.26.889 0 1.736-.761-.753-.228.467-1.158.288.002-.289-.234-.344-.288-.578.224-.064.569-.008.578-.289-1.503.209-1.106 3.616-2.894 2.604-.254.932.954.398.868 1.158-1.05-.769-1.741.973-2.604.29-.013.398.136.635.289.867-.29.001-.344-.233-.579-.289-.499.496.425 1.139-.868 1.158.04.539.19.968.579 1.157-.037-.724-.552-.906.289-1.157.492 1.658-.606 2.188.29 2.894-1.799-.062-1.663 1.809-3.473 1.736.493.118-.061.372 0 .869 1.261.185 1.924.968 2.894 1.446.152 1.093.406 1.359-.29 2.024.369.74 1.418-.267 1.447.29-.478.005-.162.803-.579.868-.033-.352-.087-.685-.579-.578-.322 1.479.662 1.653 1.157 2.315-1.338.75-.1 1.481.29 2.604.568.087.574-.39.868-.578-.043 1.213.15.696.579.29.239.817-.407.749-.289 1.446 1.558.099 1.546-.021 2.314.868-.761-.086-.228 1.122-1.157.868-.05.725.647.703.869 1.157.063-.548-.327-.638-.29-1.157 1.408-.443 1.089.84 2.025.868.986-.195-1.274-.962-.289-1.157.821 1.515 1.649.149 2.894.579-.919.951 1.117.582.868 1.736-.369-.017-.4-.371-.868-.29-.044.958-.596 1.255.29 1.736.948-1.236 1.062-.492 1.735-2.315.225.065.571.008.579.29-.856.479.399 1.154-.868 2.025-.061-.325-.32-.451-.578-.579-.39.817 1.533.726.578 1.158-.177-.085-1.113-.72-1.157 0 1.043-.119.396.527-.289.289.036.725.552.906-.29 1.158-.045-.342.05-.822-.289-.869.255.93-.954.396-.868 1.158.433.049 1.068-.104 1.157.289-1.705.506-1.645-.369-2.894-.868v1.447c-.341.045-.821-.051-.868.289.225.065.57.009.579.29-1.334.635-.556-2.309-1.157-1.447-.571 1.975-1.03.357-2.026.868.564-.143 1.041 1.436 0 1.158.729-.888-.849-.071-1.158-1.158-.061.324-.321.45-.579.579-.029-.325.421-.451 0-.579-.283.886-.975-.129-1.158-.29-.369.725.147.906-.289 1.158-.291-.002-.344.234-.579.29.15-.429.427-.73.579-1.158-1.284-.028-1.585-1.045-1.736 0-.432-.341-.34-1.203-1.158-1.157-1.164-.201-.71 1.219-1.736 1.157-.146-.592 1.439-1.341.579-.868-.398-.013-.635.137-.868.289.018-1.378-2.4-.628-2.894-.868 1.416.097-.44.297-.29.868 1.094.419.555-.796 1.447-.578-.141.341-.309.655-.579.867-1.263.025-1.79-.366-2.315 0 .947.239-1.43 1.015-.289 1.448-.001-.161.234-.329.289 0-.757.761-.887-.582-1.736-.579.242 1.899-.562.965-1.157 2.025.43.245.419.933.579 1.447-.341.044-.822-.051-.869.289.455.027 1.003-.039.869.578-.909.137-.765-.778-1.447-.867.252 1.003-.446.991-.868.579-.087.567.39.573.579.867-.903-.481-1.401 1.076-.868.29.433.049 1.068-.104 1.158.289-.622.573-2.753.727-2.026 1.736.577-.039 1.264-1.386 2.604-.868-.075.45-.634.201-.868 0-.426 1.101 1.293.057.868 1.157-1.729-1.02-2.24.184-3.183.868.451.075.201.635 0 .867.724-.368.906.147 1.157-.288-.71-.273.372-1.139.868-1.158.005.424-1.22.918 0 .869.266-1.339 1.158-.252 1.736-1.158-.57.201.071 1.614-.579 1.735-.069-.313-.476-.693-.578-.288.386.288.567.782 1.157.868-.252-.928.446-.905.868-1.157-.055 1.405-.665 1.022-1.447 2.604.016-.498-.223-.741-.578-.868-.032.72-.543.896 0 1.447 1.147-.01 1.198-1.117 1.736-1.736.296.283.585.572.869.868-1.141 1.073-.812 2.337-2.026 2.894 1.221-.655-.086-.921-.578-1.446.34-.045.821.049.868-.289h-1.158c-.229 1.336.321.827.579 1.157-.045.34.05.821-.289.868-.644-.226-1.569-.167-1.737-.868.89-.666-1.25-1.533.29-2.026.184.632-.82.921.29.869.643-.121.278-1.587-.29-1.447-.271.846-1.604.431-2.025.289.983-.571.283-.571-.29 0 .568-1.773-.08-1.931 1.158-3.473-.723.077-.967 1.086-1.736.289.036.725.552.906-.29 1.158-.498.015-.742-.224-.868-.579 1.119.328 1.261-1.8 1.158-1.736-.017.177-.044.342-.29.29-.017-.178-.044-.344-.29-.29-.199.909.033 1.183-.289 1.446-1.016-.078.726-1.077-.29-1.156.254.596-.955 1.096-.868.578.152-1.005.783-1.531 1.158-2.314.061.324.32.449.579.577.321-.562.135-1.479-.29-.867.176.017.343.044.29.29-.682.006-.853-.499-1.736-.29-.049.434.103 1.068-.29 1.157-.003-.382-.507-.265-.579-.578.101-.326 1.427-.832.579-1.158a1.465 1.465 0 0 1-.868.869c-1.903-2.965.176-2.89-2.315-4.342.253 1.349-.751-.398-.868.579.816.291.725.424 1.158.579-1.32.702-3.027-1.136-2.894-2.025-.031 1.315-1.46-.025-1.447-.579.59-.173 1.594.543.868 0-.526-.379-1.746-.824-2.315-.29.013-.398-.137-.635-.29-.867.845-.469.318-.713.29-1.736-.713.037-1.395.043-1.736-.29-.282 1.149 1.617.119 1.446 1.157-1.946.943-2.435-.13-2.604 1.447-1.115-.236-1.405-1.296-2.315-1.736-.382.725 1.144.906.289 1.158-.892.216-.352-.998-1.446-.579-.023.884 1.279.421 1.736 1.446-.547.065-.639-.325-1.157-.289-.255 1.023.743 1.491-.29 1.737-.453-.636-1.32-.418-2.315-.29 1.1-.187-.271 1.214-.868 1.157.21-.474-.575-1.26-.579-.579 1.075 1.188-1.193 1.496-2.026 1.736.638.261 1.243-.042 2.315.29.049-.434-.104-1.068.29-1.157.033.353.086.684.579.579.045-.342-.05-.821.289-.869.54.039.968.191 1.158.579-.538.276-.967-.867-1.158 0 .297.283.586.571.869.868-1.771.253-.886.307-2.315.289-.713.342.593 1.094-.29 1.447.002-1.054-1.466-.357-.289-1.157-1.95-.883-.405 2.071 0 2.313-.605.632-.826-.144-1.737 0-.595.479-1.264 2.388-2.315 1.448.802-.071 1.018-.436 1.447-1.448-.929.242-.6.248-1.158-.288.19 1.469-.868 2.175-1.158.868.065.547-.326.638-.29 1.157.54.04.967.19 1.158.578-.394.614-1.027 1.235-.289 1.737-1.074-.205-1.242.494-2.315.289-.497-.74.331-1.013-.29-1.446-1.304-.348-3.698-2.896-4.341-.29-.8-1.026-2.303-1.212-3.761-.579-.115-.498.429-.741 0-.867-.639.446-2.793.232-2.605-.869-2.558.643.571.462-.868 1.447.659.396 1.087-.746 1.157 0-.747.024-.305 1.239-1.447.868.828-1.412-1.102.834-1.157-.579 1.695.361.811-1.312.289-.578.659.619-1.052-.377-1.157.578.16-.001.328.235 0 .289-.062-.349-.321-.178-.579 0 .167-.175.677-1.373 0-1.446-.099 1.116-1.671.285-1.447-.289-.477.487-.629 1.3-1.158 1.735-.772-.576-1.479 1.126-2.025 0 .021.505-.064.9-.29 1.157.498.115.742-.429.868 0-.136.756.223 1.152-.289 2.026.064-.547-.327-.638-.29-1.157-.547-.065-.639.325-1.158.289-.305 1.077.976.567 1.158 1.157-.896-.289-1.124 1.541-1.737.58.498.015.742-.224.869-.58-.504-.267-1.553.011-1.447-.867.763.458 1.008.213.29-.29.553-.121 1.246-.104 1.158-.868-1.438-.183-.957 1.553-2.315 1.447.137-.563-.78-1.479-.869-.868.326.373.984 1.88.579 2.026-.342-.141-.656-.31-.868-.58.325-.06.451-.321.579-.578-.504.021-.9-.064-1.158-.289-.478.644.062 1.569-.29 1.736-.456-.026-.226-.738-.868-.579-.025.79.482.583 0 1.157.398-.013.636.136.868.29.065-.225.008-.572.29-.579.016.37.372.4.29.868-1.433-.014-2.184-.711-2.604-1.736.4.778.82.426 1.157-.29-.508-.166-1.7.352-1.736-.289-.332-.91.455-.703.579-1.157-1.472.218-.791-1.717-1.736-2.026-.07.51-.498.66-1.158.58.623-.506-2.109-2.896-.579-2.896-.13-1.044-.742-1.399-.29-2.313-.91.331-.703-.455-1.158-.579-1.1 1.082.261 2.524-1.157 2.893.494-.958.296-1.974-.579-2.313.87-.06.733-1.796 0-1.736.022 1.113-.797-.58-1.737.579 1.023-.157 1.491.244 1.737.867-1.086.876-.721.94-2.026.869.827.334-.468.334-.579 0 .273 1.504-.098 2.438-1.158 3.183.2-2.652-.013-3.271.29-4.919-.341-.046-.822.049-.869-.29.591-.3.684-1.147.579-1.446.136.301-1.57.06-1.736-.29-.397-.66.746-1.088 0-1.158-.702.392-.18.579-.579.869-.004-.479-.803-.163-.868-.579 1.392.107.833-1.365.29-1.736.398-.013.635.136.868.289.086-.569-.391-.574-.579-.868.433-.049 1.068.104 1.158-.289-.505.021-.9-.064-1.158-.289-.032 1.068-.53.836-.868.289-.19.984-1.324.817-1.157 1.447-.707-1.062-1.797.8-2.315 0-.045.34.049.82-.29.867-1.867-.815-4.385-.257-6.367-.578-.076.847.654.889.578 1.736-.335-.244-.776-.381-1.446-.289.086 1.166 1.283-.193 1.446 1.157-3.13.527-4.812-.068-8.102.868.328 1.42.551 2.01 1.158 2.604-.778-.199-.56.599-.869.868.979.11.455-1.281 1.736-.868v.868c-2.758.38-4.411 7.251-4.34 10.707-1.26.116-1.606-.231-1.158-1.157-.612-.385-.855.143-1.737-.29.195 1.006-2.375.122-2.026 1.158-2.498.008-3.344 1.417-4.919 2.314-14.826 8.448-30.052 17.882-48.329 20.547-5.882.857-9.223 2.059-12.444 4.92 2.558-1.743 2.734-1.151 5.499-2.025-.608 1.32-1.917 1.941-2.315 3.473.897-.405 1.002 1.693 2.025.868.15-.13.221-.977 1.158-1.157-.317.647-.479 1.449-.868 2.025 1.222.257 1.634-.296 2.026-.868-.013.398.136.636.289.868-1.67.883-2.269.266-3.183.579.433.338 1.184.359 1.447.867-.87.531 1.6 5.025 1.736 2.895.325.061.451.321.579.578-.059.906-.952.978-.868 2.026.989.217.368-1.176 1.447-.868.003.382.507.265.579.578-.195 1.729-.528 2.021.868 2.605-1.343.498.494 1.216.579 2.025-.553.135-1.246-.893-1.158.29.296.667 1.938-.009 1.736 1.157-.659-.209-1.478-.258-2.026-.579.001 1.025 2.522.4.868 1.446.924-.248.896.456 1.447.579.14-.341.309-.655.579-.867-.43 2.095.007.721 1.158 1.446-1.08-.115-1.698.231-1.736 1.157 1.202.04.059.191 0 .579.336.243.776.382 1.447.29.569 1.639-.317 1.892-.29 3.472 1.303-.201.773.596.29.868 1.045-.273.403 1.141.579 1.736.384.291 1.077.273 1.158.868-.225.064-.571.009-.579.29 1.463-.22.589.758.289 1.157.498.114.742-.43.869 0-.246.848-.932-.173-1.447 0v1.736c1.538.446 2.348 2.125 1.447 3.473.513.355.838.898 1.447 1.157-.647.125-.117 1.427-.29 2.026 1.236.211 1.655 1.239 2.315 2.025-.729.236-1.151.777-1.736 1.157 1.521-.141 1.611 1.596 2.315 1.447-1.164.854.722 1.962-.579 3.184 1.487-.343 1.162.676.869 1.447.432.049 1.067-.104 1.157.288-1.384.685.299 2.524-.29 3.185 2.862-.183.465 2.686 1.158 3.762.177.401 1.114.043 1.158.578.343 2.48 3.176 4.908 4.63 7.235-.9.452-.188.243-1.157.869.099 3.083 2.047 4.317 3.473 6.076-.683-.089-.539-1.005-1.447-.868 1.452 1.662 1.448 6.233 3.184 6.656 11.587 24.87 21.949 52.023 38.488 70.322 8.484 12.835 19.816 25.329 30.966 36.463 2.386 1.376 4.005 3.519 6.945 4.341.3 1.438 1.574 1.899 3.473 1.737v.289H.008C0 426.172 0 213.099 0 0h442.479v639.266H327.881zM244.535 78.715c-2.346.357-3.325-1.663-5.209-.868-.242-.336-.381-.776-.289-1.447-1.459.21-1.468-.371-3.184.289.017-.371.371-.401.29-.868-1.328.464-1.864-.081-3.473 0-.05.433.104 1.068-.29 1.158-.555-.704-2.114-1.667-2.025-.579-.601-.557-1.979-.336-2.604-.868v-.579c2.117.589.82-1.79 2.604-.868.236-1.036-.616-1.437-1.157-.868.169-1.134-1.19-.739-1.447-1.447-5.011.283-8.224-2.772-12.154-2.604.155.205.204 1.358 0 1.736 1.139.463.101-1.25.868-1.158.086.431 1.218-.313 1.447.579-.828-.057-1.579-.036-1.447.868 1.167.28 2.091.804 2.315 2.026.424-.516-.182-1.134.579-1.736 1.566-.45 2.638.622 1.736 1.736.74.496 1.013-.332 1.447.29-.312.57-2.4.494-2.025-.58-1.134-.165-1.805 1.004-2.605.29-.119 1.18.296 1.825 1.447 1.736.463-1.139-1.25-.101-1.158-.868.398.012.635-.136.868-.289.819.242.985 1.137 1.447 1.736.076-.407.635-.33.868-.579.302 1.048 1.358 1.342 1.157 2.894 1.491.291 2.119.105 3.474-.29-.004.575-.791.368-.58 1.158 1.176-.082.653.105.58.868.567.606 1.446.696 1.735.868-.369.016-.4.371-.868.29-.546-.033-.201-.957-.867-.868-.744.575-1.682.429-2.895-.29 1.021.611.227 2.922.579 3.473.003-.292.507-.364.579 0-2.509 1.061-4.572-.641-7.813 0 .205-.394.288-.667 0-1.158-.845-1.445-1.855-4.407-3.472-5.788-1.27-.016-1.551.957-2.605 1.158-.161-.707-1.119-.617-.868-1.736-2.125.156-4.285 2.048-3.762 4.63 1.884-.334 3.169-1.269 4.341-2.315-.488 1.151-1.798 1.482-1.447 3.473.969 1.057 1.255 2.796 2.604 3.473-.925.522-1.721 1.173-1.736 2.604 2.027 1.184 3.314-2.226 4.919-1.447-.703.586.813.518.868 1.736-.909.481-1.183-1.076-1.447-.29.364.119.591.373.579.868-.564-.322-1.479-.136-.868.29.438-.905.915 1.185.29 1.447 1.49.004.097-1.803 2.026-1.736.565 1.093.097 3.954.868 6.077-1.673 1.822-5.474 4.752-7.524 3.473-.141-1.202 1.668-.454 1.737-1.447-1.402.461-2.382-.105-3.184.579-1.609-.32-2.262-1.299-1.447-2.604-1.337-.585-2.453.467-3.473-.579-.026-.79.482-.583 0-1.157 2.234-.304 2.683-2.214 4.63-1.447 1.108-1.202-1.354-2.027-.29-3.183-1.035-.691-1.682-2.252-2.604-3.762-2.04-.4-2.632.648-4.341.579-1.423 2.54-2.054 5.498-.868 8.682-.706.184-2.708 1.471-1.447.289-5.394-.184-8.784 1.635-12.155 3.473-2.263-.535-3.27-2.326-3.763-4.63.611-1.525 2.373-3.281 1.158-4.919.798-1.487-1.419-2.167-2.026-3.184-.998-1.443-.69-3.243-1.736-4.341-2.814-2.958-9.143.008-10.417 2.894-1.975.146-3.479.766-4.92 1.447.205 4.021.276 4.794 1.447 7.235-1.233-.172-.901 1.222-1.447 1.736-4.055-1.554-2-5.784-.29-8.682-4.96-1.871-9.458.113-10.997 4.051-1.19-1.219-2.691 2.082-4.052 2.604-7.261-.025-14.657-4.607-21.125 0-4.696.225-8.331 4.016-11.576 6.656-.391 3.574 1.085 5.281 2.894 6.656.241.929.246.6-.29 1.158 1.208 1.091 3.026 1.126 2.604 3.183 1.3-.051.716-1.985 2.315-1.736.694 1.525 4.218.219 5.209 1.447-.338.049-.315.458-.291.868.672-.156.998 1.466 1.448.579 1.251-.839 2.751-4.381 2.893-5.788.074.677 1.272.167 1.447 0 .276-.539-.867-.967 0-1.157.467.048 1.492.971 1.736.289-.187-.278.006-1.685-.579-2.315 1.175-.369 1.39-1.697 2.895-1.736-.967 1.276 1.586 3.012 1.447 1.736 1.574.87.972.315 1.736 2.315-.498.114-.742-.429-.868 0 1.17.473.84 1.132 1.157 2.026.902-.374 3.079.097 2.315 1.158-.672.156-.997-1.466-1.447-.579.509.445-1.022 1.467-1.736.868a7.11 7.11 0 0 0 2.026 2.026c.251-1.12-.707-1.03-.868-1.736 1.304.265 2.978-.915 4.341-.868-.837-.871-.783-.913-1.447-1.736-.641.417.364.707-.29.868-1.358-.86-.76-3.677-3.473-3.183.742-.738-.064-1.404-.578-1.736.896.318 2.07.358 1.446 1.447.86-.394 1.998-.51 2.315-1.447.284.467.773.666 1.158.289-.815 1.36 1.366.17 1.736 1.447-.243.335-.381.776-.29 1.447 1.245.588 2.434-.067 1.736 1.447 1.001.037.423-1.507 1.158-1.736-.718.044-1.201-.149-1.447-.579 1.105.214.331-1.067 0-1.158-.07.314-.477.695-.579.29.528-1.372 2.271.217 3.184-.579v1.157c1.237.026 2.12.58 3.183 0v-1.447c-.953-1.234-2.637-.045-3.473-1.158 4.188-1.082 5.304 1.849 7.235 3.473.211-.657-.521-2.258.579-2.025-.183 1.487.52 2.17 1.158 2.604-.718 2.16-.989 4.526-4.63 4.341.078-2.547-2.492-4.294-5.499-3.473.801.124.015.91-.579.579.221 1.418.87 2.41 1.736 3.183-.423-.415-.917-.222-.868.579 2.094-.217 6.069.139 5.209 3.183 1.119-.155 1.413.517 2.604.29 1.245-1.681 4.225-.383 4.341 2.025-.291.001-.344-.234-.579-.289v1.158c1.446.58 3.247.805 4.052 2.025 1.428-1.119 2.602 1.371 2.604 0 .602.162.614.452.29.868 1.167-.183 1.137-1.564 2.604-1.447.065-.547-.326-.639-.29-1.158 2.179-.602 3.837 2.753 5.209 2.894-.67-.503.556-1.548 1.158-1.736 1.27.679.941 1.502 2.605 2.026.284 1.944 1.097 4.503 2.026 7.235-.406 3.63-1.229 8.232-.58 13.022-1.066 1.641-1.534 2.474-1.446 6.077 1.097.388.716 1.183 1.446 2.315-1.003.251-1.428 1.08-1.736 2.026 1.091.408 2.538 3.265 3.473 1.158.401.612 1.129 2.927-.579 2.894.002.769-.11 1.653.289 2.026-.353.032-.685.086-.579.579 1.017.051.952-.978 1.736-1.158.168.701 1.093.644 1.736.868.254-.929-.75-.6-.868-1.158 1.264-.797.929-2.61 0-3.183.892-.468 1.377-2.856 2.604-2.026-1.177 2.135.093 1.173.29 3.473-.417-.324-.706-.312-.869.29.995.877.329 1.979.29 3.473 1.311.215-.443-.795.868-.579.086-.569-.391-.574-.579-.868.183-.16.875-1.176 1.158-.29-1.586.268.72.528.869.868-1.4-.125-.285.611-1.157 1.158 1.069.032.837.531.289.868.742.313 1.38-.879 1.736 0-1.859.993-2.202 2.834-5.209 3.762-.276.539.867.967 0 1.158-.456-.026-.227-.738-.868-.579-2.381 2.831-8.619 5.404-10.998 3.762-.239 1.005-2.705.663-2.604 1.447-1.625-.463-1.855-.604-2.894-1.736.914-.822 1.731-1.742 3.183-2.026.06-2.836 2.637-5.658 3.762-8.392-.631.053-.92-.237-.868-.868.547-.065.638.326 1.157.289.633-1.394 1.449-2.603 1.736-4.341-1.392-.042-1.125 1.574-2.315 1.737-2.12-.861-4.381.631-5.788 1.447-3.015-.668-6.104 2.447-9.26 4.051.477 1.485.147 2.322-.868 2.315.292.003.364.508 0 .579.253-.929-.751-.6-.868-1.158.498.015.741-.223.868-.579-1.549.616-3.181 2.022-4.052 1.736.276-1.235 2.751-2.485 1.447-3.473.924-.129 1.418-.406.579-.868 1.186.221.997-.933 1.158-1.736.342.368 1.093.123 1.447-.29-.466.124-.971-1.079-.29-1.158.065.225.008.571.29.579-.453-2.555 3.503-5.413 2.315-7.235.667.088.322-.836.868-.868.345 1.519 1.733.543 2.026 1.736.045-.34-.05-.822.29-.868-.254.596.75 1.299.868.579-.23-.032-.877-.957-.29-.868.23.668.581-.929 1.447-.579 1.18.867 2.898 1.697 3.472.579.2.571.772.771 1.447.868.296-2.031 1.782.635 2.604-.868-.377-.562-1.532.58-1.736-.579.94-.168 1.347.197 2.026.289.538-.511-.125-.845-.29-1.447.882.082 1.126-.927 1.736-.29v-1.157c.691.545 1.12-1.024 2.026-1.158.013-.398-.136-.635-.289-.868.656-.284 1.051.1 1.157-1.158-.726-.51-.203-.478-.579-1.158.34-.045.821.05.868-.289-1.549-.923 1.172-5.787-2.604-6.945.412-1.107.888-1.861 0-2.026.032-1.069.53-.837.868-.29-.644-1.508-.23-1.635-.29-3.183-1.456-.668-1.304.06-1.447-1.736-2.79-1.121-4.124-3.858-7.813-2.604-.114.498.429.742 0 .868-3.079.258-5.699.585-6.945 1.736.784.262-.244 1.065-.579 1.158-.792-.111-2.063-.356-2.894-1.158.503.992-1.256 1.798-1.157.579.594.585.577-.118.868-.579-1.91-1.332-1.404.869-3.183 0-.428.788-1.119 1.31-2.026.868-.425 2.38.965 3.111 1.447 4.919.22.824-.465 2.794-1.157 4.052.309-.27.09-1.068.868-.868-.138.91.412 1.131.579 1.736-1.592.435-1.449-.865-2.315-1.158-1.089 1.356-1.706 4.563-2.894 6.656.003.576.79.368.579 1.158-2.515 4.354-3.733 10.587-2.894 15.627-.858.493-.72 1.982-1.447 2.604 2.374.623 1.067 1.072 2.894 2.025-1.429-.271-.236 2.079-1.447 2.026-.062 2.474 1.675 3.148 2.894 4.341-.115 1.755.796 2.484 1.736 3.184.086.262.284 4.497-.868 3.183.302 2.258.005 3.295-2.025 3.183.077.944-.9.836-1.158 1.447-1.615-.851-2.647.642-4.341.29-.173-.515.848-1.202 0-1.447-.523.944-1.062.076-2.315.29-.376.718.646 1.404 0 1.447-.309-.27-.09-1.067-.869-.868.158.594-3.183.625-1.447 1.737-.458-.799.751-1.299.869-.58-.542.833-1.325.633-2.315.58-.216 1.31.794-.443.579.868-.434.049-1.068-.103-1.158.29.844-.426.844 1.293 0 .867.096.678.348 1.196.579 1.736-.498-.016-.742.223-.868.579.755 1.031.043 2.716 1.447 3.762-.927-.252-.905.446-1.158.869.34.045.822-.05.868.289-.417.19-1.835.829-1.157 1.158.016-.176.043-.343.289-.289-.001.16.235.329.29 0-1.077-.084.852-.72.579 0-.672.59-1.311 1.388-1.736 1.447.226.064.336.243.29.579.937.358.22-.936 1.158-.579.307 1.08-1.085.458-.868 1.447 1.293-.331.368-.171.868.579-.29.001-.344-.234-.579-.29.384.862.297 1.468-.289 2.025 1.18.073 1.825-.735 1.736.868-1.891-.167-.364 1.697-2.026 2.026 2.329 2.058.121 6.547-1.736 7.524.743 1.741-.258 5.083.29 6.367 1.076.098 1.046 1.096 1.157 1.447.94-.94 1.632 2.869 3.184 2.026-.951.21-.443-.575 0-.579 2.529 2.735 3.147-1.925 5.788-2.315-.315.899-1.08 1.348-.579 2.315 2.46-.89 2.937.574 5.209-.289.553-.947.455-1.68 1.447-.868-.35-1.214.2-1.745 1.158-2.315-.069.413-.477.488-.579.868 1.665.497 2.644-1.648 4.63-1.737-.706 1.1.703.211 1.447.29-.645 1.072 1.615.129.29 1.447 2.524.147 3.46-.418 5.209-.579-.525 1.979.758.482 3.183 1.447 1.416.563 4.146 2.415 4.919.868.698.915 2.112.75 1.736 1.448.57.086.574-.391.868-.579.119 1.037.991.296 1.447.29.001.29-.234.344-.289.579.708-.289 2.408-.509 1.157.29.722.244 1.551.378 2.605.29-.505.59.215.567-.29 1.157 1.933.357 2.36 2.602 2.315 4.051-.206 6.675-4.36 19.187-1.447 27.492-.639 3.938-2.081 8.637-2.604 12.443.434.049 1.068-.103 1.157.291-3.132 1.309-3.26 7.732-1.736 10.417-.29.001-.344-.234-.579-.29.145.973 1.46 1.802 2.315 1.158-.161.59-.87.567-.289 1.158.547.065.638-.326 1.158-.29.224 1.697 1.8 1.766 2.604 1.158 1.083 1.648 3.932 1.681 6.077 2.026.054.008-.281.582-.289.578.964.4 2.312-.295 3.183-.868 4.275 1.162 8.43 1.508 12.733 3.183.194 1.395 3.115 2.455 2.604 4.052-1.308-.107-.182.742-1.447 1.447-3.183-.502-4.098-.285-6.657.29.225.065.571.008.58.29-1.004-.232-1.113.431-2.026.289.208 1.462-1.766.743-1.447 2.315-.576-.482-.369.026-1.158 0-1.266 2.509-1.594 4.182-3.763 5.788.68-.906-.756.087-.868-1.158-.985 1.283-1.306 1.472-3.184 1.736.202 1.07-.458 1.278-1.447 1.158-.774 1.735-1.395 3.677-1.447 3.473.211.822 2.779.995 1.447 3.183 4.143 3.024 7.953 2.276 12.733 3.762.113.414.347.489 0 .868 1.165-.113 1.286.539 1.736-.29-1.202 1.831-2.69 2.221-5.499 3.184-.964.331-10.411 2.039-8.971 2.894-1.067-.026-1.853 1.186-2.894.29-.146 1.354.7 1.551 1.737 2.316-.91.198-1.183-.034-1.448.289 1.791 2.89 3.962.245 6.945 2.605 1.499-.261 4.857-.149 6.078-.869-.413-.102-.989-1.474-.29-1.736 1.756 3.544 6.821 1.33 8.103 2.315-.225-.065-.571-.007-.579-.289 4.056 1.092 4.292 1.335 5.498 4.051-.391-.091-.553-.412-1.157-.29.228 1.017.813.952 0 1.736.269.31 1.067.091.868.869-1.28-1.647-4.044.247-5.208 0 .899.137 1.085-.779.289-.869-3.478 3.001-10.112 1.29-14.759 2.315-.931.207-1.732 1.073-2.604 1.157-.077.008.021-.709-.29-.578-.114.048.11.801 0 .868-1.196.746-4.838.854-4.63 2.315-1.642-1.053-1.777 1.837-3.473.867.192 1.129-1.718.935-2.315 2.025.881-.108.492 1.053 1.157 1.157-1.013-.355-.911.17-1.447.29.23.425-.369.767 0 2.026-.177-.084-1.114-.72-1.158 0 .64.036.124 1.228.29 1.736.421.158 1.496-.338 1.447.289-2.021.89 1.208 1.527.579 3.763.42-1.28.425-.452 1.157 0-.044-.817.819-.726 1.158-1.157-.941.7-.498 1.279-.579 1.736-.473.025-1.259-.483-.579 0 .889.681 2.716-.168 3.184-.869.017.178.044.343.289.29-.326.349-.826.524-.579 1.446 1.771.414.994.08 1.158-.578.24.629 1.093.645 1.158 1.447-.336-.243-.776-.383-1.447-.29-.021.876 1.589.081.289 1.157 1.755-.487 1.824-.687 2.895-.578-.389.19-.539.618-.58 1.157.653.217 1.653.239 1.158 1.447.575.482.368-.027 1.158 0 .049.433-.104 1.068.289 1.157.522-.667 1.906.021 1.158.868 1.468.324 2.015-.229 2.894.579.045-.341-.049-.821.29-.868-.379.894.821 1.642 1.157.868-.498.016-.743-.223-.869-.579.291.001.345-.233.579-.289.383.003.265.507.579.579-.016-.542.222-.613.579-.29-.287-1.191 1.189-1.382 1.736-.868.08-.848-1.159-1.075 0-1.447.03.325-.421.451 0 .579-.155-1.474 2.304-.654 1.448-2.025.551.123.523.827 1.447.579.358-.937-.937-.223-.579-1.158.96.092 1.093-.644 1.736-.868-.149-.433-.479-1.208-.29-1.446.313.48.604-1.5 1.447-1.447.037.713.043 1.394-.29 1.736 1.343-.067 1.483 1.481 2.026 2.604.06-.325.32-.45.579-.579-.309.743 1.723 2.223 2.315 1.447v1.157c.574-.125 1.885-.665 1.158.29 2.583-.162 2.904.596 3.473 1.446.406-.463.997-.74 1.736-.868-.733.403.917 1.525 1.158.868-.473.211-1.259-.575-.579-.579.845-.071.998.545 1.447.869.965-1.142 1.747.211 2.604-.869 1.893 1.578 4.62-.15 7.234 0-.012-1.072 1.085-1.036 1.447-1.736 2.056.581 3.796-3.052 5.209-2.025-.554.701-2.063.445-2.026 1.736.739.574 1.331-.3 1.736.289-.353.033-.685.088-.578.579.649.565 2.177.252 2.894 0-.27 1.757 1.454-.332 2.895-.868 2.304-.857 3.323-.021 4.63-1.157-.473.21-1.258-.575-.579-.579.304.185 2.481.574 1.736 0-.454-.027-1.003.039-.868-.578.782.143 2.92.621 1.736-.29 1.646.934 2.079-1.902 3.184-.579-.774-1.678 1.826-.744.867-1.736.551.493 1.601-.167.579-.578 1.194.403 3.408.151 4.052-.868.033.353.087.686.58.579.003-.383.506-.265.577-.579-.497-.114-.741.43-.867 0 .297-1.063 1.348-.827 1.157-.29.797-.77-.212-1.014-.29-1.736 1.355.951 1.776 1.056 2.315 0 .066 1.213.918-.17 1.157.869.051-.434-.103-1.068.29-1.158-.277 1.399 2.029.045.868-.289-.032.353-.087.685-.578.578.491-1.079-.172-.457-.29-1.446.602.189 1.979 1.081 2.605.289-.73-.196-.514-.962-.29-1.158.768-.092-.271 1.621.868 1.158-.232-1.288-.498-1.022.578-.578-.223-1.285.958-1.165 1.447-1.737.05.434-.104 1.068.29 1.157.249-.61.901-.798 1.446-1.736 1.495.459 4.625-1.038 4.342-2.314.448.712-.983.851-.869.29 1.204-.664.636-.849 1.736-.29-.264.079-.769 1.281-.288 1.157-.132-.806 1.577.227 1.446-.579-.498.016-.742-.222-.868-.578.912.229.823-1.123 1.736-.579.087-.569-.392-.574-.578-.869.891.218.352-.996 1.446-.577-.586.595.118.577.578.867-.302-1.565 1.481-1.218 1.158-2.024.722.509 2.481-1.771 3.763-1.448-.655-.161.351-.45-.29-.867 1.08-.185 1.419-1.28 2.604-.579.424-.517-.183-1.134.579-1.736.027.455-.04 1.004.578.868.195-.77.455-1.474.868-2.025.32 1.566 1.308-1.771 2.315-1.158.141-1.612-.077-2.562 2.314-2.314 1.76-1.754-.635.094-1.736-.869 2.155-.158 2.029-1.873 3.763-.867.146-.904-.683-1.402.289-.869.137-.908-.778-.764-.868-1.447 1.771.638 1.945-2.632 3.763-2.894-.038-.713-.044-1.395.289-1.736-.386-.29-.873-.477-1.157-.868 1.186.071 1.998 1.908 2.894.579-.339-.715-1.203.702-1.157-.579.992.386 1.788-1.163.868-1.447.546-.065.639.326 1.157.29-.454-1.611.682-1.634 1.447-2.026-.074-2.829 2.719-4.511 2.315-7.524 2.743-3.139 2.667-9.309 4.919-12.154-.777 1.107 1.085.292 1.447 0 .327.83 1.24 1.073 2.315 1.157 4.294-1.237 11.232.649 15.048-1.736-.341-.045-.822.05-.868-.289 2.093.26 1.805-1.861 2.894-2.605 2.608-.457 4.533-2.89 4.342-5.208 2.074-.048 2.533-1.712 2.894-3.473 2.223-.383 3.026-3.398 3.762-4.341 1.236-.28 2.213-1.465 1.736-2.604 2.702-.686 3.459-4.042 4.92-6.367 1.256-1.996 3.323-3.779 3.473-6.366.978-.276.79-1.718 1.736-2.025-1.34-.523.082-1.865.579-2.316-.929.241-.601.247-1.158-.289-.049.433.104 1.068-.289 1.157-1.235-.21-2.519-.928-3.184-.869.751-1.052-.654-2.422-1.157-3.183-.064.225-.008.571-.289.579-.35-1.001-.88-1.821-2.315-1.736-.124.821-.727-.28-1.447.868-1.008-2.868-.287-5.838-2.025-6.945.324-.061.45-.321.578-.579-1.33.114-2.072-.356-1.446-1.447-1.979.259-2.502.463-4.052.868-.225.644-.168 1.569-.868 1.736-1.1-.55-1.068.267-2.604.29-.09 1.663-2.08 1.573-3.184 1.446-.084.978-1.089 1.035-.867 2.315 2.467 2.13 4.044 2.139 5.209 4.92.088.667-.836.321-.869.867.539.277.968-.866 1.157 0-.517.591-1.067.082-.578 1.158-.42.158-1.496-.338-1.446.29.751-.174 1.041.115.867.868-.908.142-.765-.999-1.446-.29-.45 1.221 1.606-.063 1.157 1.158-.906.043-1.599-.457-2.026-.29.722.117.018 1.122-.578.868-.145-.954-3.645-3.127-3.762-2.025-.122-1.091-1.511-.005-2.025-.579.816-.29-.919-.273 0-.868-.909.321-.765.135-1.447-.291-.39.673.04 2.163-1.157 2.026-.05-.433.103-1.068-.29-1.158-.382 1.183-1.355-.225-1.735 0-.141-.912 1.326-.217 1.446-.869-.179-.401-1.115-.043-1.158-.578 1.016-.482.335-.783 0-.868.903-1.633.226-1.585-.579-2.894 2.337-.176-.437-2.077 1.158-2.604-.309-.687-1.333.621-1.736-.29.595-.273.599-1.138 1.446-1.157-.085.59-.783.568-.868 1.157.673-.099 1.357-.187 1.158-1.157-.385-.708-1.077.318-1.158-.29v-1.158c1.145.706-.214-.323.579-.579.702 1.468.354.949 1.158 2.314.1-.671.187-1.355 1.157-1.157.022-.504-.064-.9-.289-1.158 1.224-1.209 2.458-1.634 2.604-2.894 1.115 1.011.137-.684 1.446-.289.397-.66-.745-1.088 0-1.158.915.181 3.216-2.625 4.342-3.183 1.146-.569.681.269.288-.579 2.667-.813 5.041-.95 5.209-1.736 3.193-.681 6.653.25 10.13 0-.536.51.074.896.578 1.158 2.987.36 7.018 3.501 7.813 6.077.504.022.9-.064 1.157-.289.937 1.096 1.336 3.254 1.447 4.341 1.161-4.151-1.646-8.825-2.314-13.022.531-.958 1.193-1.839.578-2.604-1.783 2.996-4.914-.296-4.63-2.605 2.696.565 2.656-2.35 3.473-4.34-.531-.494-1.202-1.025-.29-1.447-.726-1.166-1.55-.5-2.314-.29.88.29.369.477 0 .868.225.065.57.008.578.289-1.281.666-.051 2.393-2.604 2.026-.688 1.724-2.127 2.696-4.631 2.604-.229-1.128-.298-1.5.289-2.315-1.499.186.348-1.379-.578-1.447v.579c-.937-.791-1.668.475-2.604.579-.046-.34.05-.821-.29-.868-.258 1.005-1.694 1.005-1.446 1.736-.478-.005-.163-.802-.579-.868-.085.257-.783 1.267-.868.579.313-.069.695-.476.29-.579-.185 1.051-1.354-.671-1.448.29.474-.211 1.26.575.579.579-1.866-.249-1.783-1.083-3.762-.579.094-1.058-.779-1.15-1.447-1.447.397.824-.519 1.74-.867.869.806.463.8-1.25.288-1.158-1.18.298-1.773.258-2.314-.29-.539.513-.65 1.173 0 1.447-1.955-.06-3.417 1.708-3.183 2.894-1.134-.108-.739 1.489-1.448.289.236 1.001-.54 1.222 0 1.737-1.266-.021-1.688.465-.867 1.158h-1.446c.002.769-.11 1.652.289 2.025-1.388-1.043-.12 1.393-1.447.29.14 1.177.134 1.83-.579 1.447.352 1.605-.75 1.758-1.158 2.604.364.119.593.373.58.868-.995-.82-.165 1.398-1.157.578.775 1.016-.214 2.325-.869 3.473-.357.938.937.222.578 1.158-1.276-.407-.005 1.732-.868 1.737-.048-.433.104-1.068-.289-1.158-.841.626.663 1.8-.578 2.026-.013-.398.137-.635.289-.868-1.203-.688-1.46.693-2.026 1.447-.004-.479-.802-.162-.868-.579.846.076 1.112-1.123.29-1.158-.064.225-.008.571-.29.579-.456-1.578 1.201-.306 1.158-.868-.27-.309-1.067-.089-.868-.868.59.162.567.871 1.157.29.167-.773-.855-1.808 0-2.315.033.354.087.686.578.578-.381-.897.858-1.604 0-2.025.211.473-.575 1.259-.578.579 1.295-5.819 4.621-9.685 9.261-13.312-.977-.222.374-.801-.578-1.737.671.16 1.222-.051 2.024-.289-.352-.921-1.088.193-1.157-1.158 1.217.588-.001-.489 0-1.158.547-.216.202-.863.869-.289.33-.91-.455-.703-.579-1.157.34-.045.821.049.867-.29-.923-.633.064-1.582 0-2.315 1.472.54.188-2.715.869-3.762-1.574-1.393-.164-2.157.289-3.763-1.029-.45-.175.983-.868.869.393-1.515-.69-.819-.868-1.157.793-.417.334-.729 0-1.447 1.471-.128.339-.61.29-1.447.342.042.655.515.867 0-.934-.344-1.669-2.023-.867-3.184-.434-.803-1.185.502-1.448-.289.725.048.907-.445 1.158-.868-.386-.709-1.077.317-1.158-.29-.13-.806 1.578.227 1.448-.58-2.224-.064 1.454-.612-.29-1.157.548-.064.638.326 1.157.29.24-.929.246-.601-.289-1.158 1.488.625 1.322-.622 2.315-1.158-.664-1.849 1.062-3.428.579-4.63-1.166-1.315 1.202-2.46 2.894-3.183.026.456.737.227.579.868 2.396-.823 1.153 2.689 2.024 2.894.224-.757 1.286-2.168 2.315-1.158-.755.833-1.36 2.546-1.446 3.184-.808-.446-.046-1.044-1.157-1.447-.064.226-.243.336-.579.29.492 1.079-.172.458-.29 1.446 1.056.044 2.636.248 3.763 0 .254.512.917.845.289 1.447.752-.173 1.042.117.868.868 2.068-.688 1.989.933 3.184 1.737.14-.342.309-.657.579-.868-.545 1.276 1.804 2.383 3.183 1.735.565 1.059 2.896 1.625 2.604 2.605.884.208 1.055-.296 1.736-.29-.086.569.391.574.579.869-.367.267-.142 4.04.578 2.026-.866 2.931-2.257 4.029-1.446 7.524 1.397.406 2.855 2.068 2.025 3.762.763.339 1.008.359.29.868 3.021-.313 4.246 1.108 5.498-.29 3.021-.319 6.473-1.369 9.55-2.895 2.068.333 3.033-.439 3.763-1.446 1.547.94-.494-.666 1.156-.579-1.021-1.921-.634-3.341-.288-5.788-1.366-2.124-3.784 1.142-4.341-.29-.05 3.064-5.625 2.616-7.235 2.315-.233-1.342-.212-1.589.579-2.604.671.842 1.3.051 1.736.868.202-.891.202-.557 0-1.447 1.046-.279 3.288-.968 4.051-1.447-.398-.028-1.129-1.129-.578-1.157.582.672 1.196 1.311 2.025 1.736.739-.369-.269-1.418.289-1.447.831.276.189.96.579 1.158.907-.984.725.23 2.315-.29.755-.499.197-2.312 1.157-2.605.556 1.254-1.071 1.792-.29 2.316.491-1.343 2.429-1.238 2.026-3.474 2.369.15 1.468-2.969 3.183-3.473-.051-3.613-2.995-4.335-5.209-5.787-.634-4.285-3.219-6.621-5.787-8.972.088-3.277-.186-7.643-1.736-10.128-.419.835-.79 1.717-1.447 2.315.104-.861.461-1.468.868-2.025-1.348.388-1.752 1.721-1.736 3.472-3.827 3.38-6.776 7.941-8.103 13.023.207.853.33 1.791.868 2.315-.504-.022-.9.064-1.157.289.816 2.576-1.019 7.122-3.763 4.052-.379-2.321-.768-4.634-2.315-5.788 1.818-1.901-3.068-3.165-2.314-4.919.064.225.007.572.289.579-1.946-5.154-7.681 3.045-8.393 0-1.23-.119-2.339-.361-2.604-1.447-.858.396-1.261-.169-2.605 0-1.035-1.768-1.137-1.999-2.894-3.472.363-.119.591-.373.578-.869-.902.138-1.4-.361-.867-.868-1.78-.702-2.919.734-3.763-.29-.349.45-.925 1.128-.289 1.736-.949.017-1.105.824-2.314.579-.173-.997-.855-1.178-.869-2.026-.062.325-.321.451-.578.579.23-1.749-1.716-2.881-2.314-4.63-.05.337-.458.314-.869.29.376-.386.178-.874-.29-1.158.027.917-1.45.381-1.736.29.797-.002 1.533-.52.869-1.158-1.139.908-1.833.978-3.763.29-.357.936.937.221.578 1.157-.51-.538-.844.126-1.446.29.069-.413.477-.488.578-.868-.547-.065-.637.326-1.156.29-.12-.997-.939-2.322-1.736-1.736.143-1.929-1.349-2.243-.869-3.762.065.224.008.571.29.579.78-.733 1.123-.228 2.025-.579 2.492 1.61 5.636.196 8.393.868 1.882 1.042 3.555 3.737 5.498 3.762.046.34-.05.821.29.868.662-.314 2.652-.225 3.183-1.447 3.826.611 6.364 2.511 8.972 4.341-1.375.135.981.731 1.157 1.158-.142-1.428 2.5-1.426 2.604-.29 2.198.173 2.067-1.983 4.052-2.026.839-4.496 5.875-3.903 7.523-5.788.709.683-.432.539-.289 1.447.812.667 1.562-.583 2.604-.579.497-.739-.331-1.013.29-1.447 1.011.645 1.583.354 2.894 0 .045.34-.049.821.289.868 1.661-1.829 4.246-.163 5.499.868.923-7.141-1.816-13.535-6.367-17.074-1.053-.82-3.231-1.421-3.473-3.183-1.76-.217-2.61.477-4.051.579-.386-.289-.874-.477-1.157-.868 1.493-1.891 1.464-6.582-.579-7.813-.311.655-.657 1.272-1.158 1.736-.089-.88-1.078-1.731-.289-2.604-4.23-.36-.809 5.213-4.92 5.499-.116.752-.863.872-.868 1.736.208.046.238 1.088.579 2.026.917-.615 1.544 1.533 2.604 1.736-1.177-.094-1.546.221-3.184 0-.125.646-.511 1.032-1.157 1.157-.029-.325.42-.451 0-.579-.636.619-1.438 1.07-2.025 1.736.086-.47-.391-.781-.579-.29.379.004.368.803 0 .868-.041-1.202-.19-.059-.579 0-2.81-2.01-5.767-7.939-2.604-11.576-1.176.006-.89-2.954-1.736-2.315.226.064.336.242.29.579-2.881-.232-1.788-5.894-5.209-4.63.823-.879-1.369-.399 0-1.157-1.043-.101-1.395-.443-2.315 0-1.615-1.086-2.378-3.024-3.473-4.63 1.294-.524 1.586-2.308 2.315-2.604.088-.905-.836.736-.868-.29 1.668-.327.062-.333 0-1.157 1.269.621 1.361-.869 2.604 0-.209-1.449.209-1.735-.869-2.315.498.959-.175 1.256-.867 1.736-2.325-.96-1.741-1.876-1.736-3.183v.579c1.328-.075 1.397-.308 2.604 0 .137-.908-.778-.765-.867-1.447 1.175.082.652-.106.578-.868 1.691.079 5.822-1.062 7.813 2.026-.104.835-.268.684-.868 1.447 2.137-.313 3.262.413 4.631.868.026-.455-.039-1.003.578-.868.954 1.223 2.645 3.189 1.158 5.499.34.045.82-.05.867.289-.421.158-1.495-.338-1.446.29 4.376-.582 3.202 5.159 4.92 6.367-.968 1.529-.739 1.127-1.447 2.604 1.618-.158.99.232 2.025.289-.682-.078-.177-1.281.29-1.157-.378.385-.179.874.289 1.157 1.854-1.515-.015-7.285 1.158-7.524v-.579c-.062-.325-.322-.451-.58-.579-.496.372-.006 1.73-.867 1.736-.536-2.376 1.613-3.253 1.736-4.63.076-.859-.787-1.435-.869-2.315.003.025.58.214.58.29-.004-2.478-1.732-4.95.578-7.235.013.848.783 4.278.579 2.604.52-1.932-1.152-5.032-2.315-5.209.47-.086.78.391.289.579-.793-.567-1.422-.753-1.736.29.481-.909-1.076-1.182-.289-1.447.504-.022.9.064 1.157.289.034-2.963-3.973-4.957-4.919-9.26-.046.34.049.822-.29.868 1.385-5.262-7.092-7.123-10.128-6.077 1.271.107 1.405 1.799 2.314 1.447-1.146.34-1.516.166-2.894.579-.314-1.037-1.146-1.555-1.736-2.315.061.851-1.722 1.339-.869 2.026.086-.27.784-.27.869 0-.351.061-.179.321 0 .579-1.005-.232-1.113.431-2.025.29.242-.336.381-.776.289-1.447-.974-.105-.483 1.254-.869 1.736.916-.046 1.747-.01 2.026.579-1.622-.175-2.268.626-2.894 1.447h-1.157c-1.047-2.897-4.09-6.268-5.499-6.945.497.686-1.802-.131-1.737-.868.925-.248.896.456 1.447.579-.519-2.664-1.925-4.441-3.472-6.077-2.951-.033-5.583-.496-6.945 0 .313.069.693.477.289.579-.304-.854-1.859-.456-2.604-.868-.401.178-.044 1.114-.579 1.158-2.647-.688-5.933-.557-8.393-1.158-.335-.082-.761-.99-1.157-1.157-1.452-.611-1.833-.059-2.604-.868.063.066-1.255-1.79-2.315-1.158.324-.417.312-.706-.289-.868-2.71-1.085-5.625-2.925-8.971-2.604 1.356.044-.144-1.173.579-1.447-.734.058-2.806.256-2.315.579.659-.081 1.087.069 1.157.579-.599 1.043-2.979.695-4.63 0 .34-.046.821.049.867-.29-1.264-.003-3.563-.626-4.051.868 1.486-.409 3.321.001 4.051 1.158-.033.738-.054 1.488-.867 1.447-.065-.547.325-.638.289-1.158-.908-.137-.765.778-1.447.868-.403-.638-1.749-1.29-2.604-.579.276-.539-.867-.967 0-1.158.604.167.826.717 1.736.579-1.109-1.733-5.561-1.728-7.524-3.473.026-.456.738-.227.579-.868-.922-.248-1.099.252-1.447.579-.579-.674-.866-1.643-2.315-1.447-.141-2.74-4.498-2.527-4.341-4.63-.075.45-.635.2-.867 0-.239.817.407.749.289 1.447-.277-.228-2.903-.037-2.315-.868.376.799 1.383-.142 1.451-.588zm-64.534 72.637c.065.547-.326.639-.289 1.158.91.331.704-.455 1.158-.579.016.176.042.342.289.29.087-.763-.401-.95-1.158-.869zm-30.096-18.81v.868c-.291 0-.344-.234-.579-.29-.216.891.794.556.579 1.447-.739-.322-1.239-.884-1.447-1.736.224-.065.571-.008.579-.289h-1.736c-.729 1.668.538 1.707.29 2.894.737-.762 2.232-.12 3.183-1.157-.13-.74-.407-1.332-.869-1.737zm58.457-57.01c.323-.469 1.725-1.337.868-2.026-.304.487-1.456 1.605-.868 2.026zm7.235 15.916c-.512-.259-.369-1.175-1.447-.868-.444 1.05 1.06 1.603 1.447.868zm-102.155 17.074c.832.86.064 1.463-.291 2.604 1.384-.446.702.214 0 .579.336.243.777.381 1.448.29-.761-.687.471-4.583-1.157-3.473zm10.996 3.473c.515.257.735.808 1.736.579-.021-.504.065-.9.291-1.158-.818.239-.75-.407-1.448-.289.087.568-.391.573-.579.868zm-11.287 5.498c-2.173.052-1.876-2.369-3.183-3.184-1.177 1.813-5.022.959-7.813 1.158-.818 1.501-2.052 4.117-1.447 6.077.609-.741.616-2.085 1.158-2.894.928-.252.905.446 1.158.868-.538.234-1.17.375-1.447.868-.537 1.975 2.779 2.231 1.447 3.184.175.5 1.374-.022 1.447.579-.23.734-.832 1.098-.868 2.026 1.799-.05 2.238.324 3.762 0 .506-.555.34-1.782 1.447-1.736-1.046.553 0 2.752.868 3.183.664-.59.589-1.919 1.157-2.604-.718-.535-2.18-.327-2.315-1.447 4.002-.029 3.312-3.541 4.629-6.078zm0 1.157c.354.805 1.778.538 2.895.579-.123.552-.826.523-.579 1.447.897.067.904 1.027 1.157 1.736.505-.021.901.064 1.158.29.85-1.83-.795-3.504-.289-5.499-1.439-.429-4.261-.378-4.342 1.447zm36.175-1.446c1.016-.347.952-.423 1.736-.579.359-.837.147-1.32-.868-1.447.402 1.885-1.102.187-.868 2.026zm1.736.578c.748.699 1.284 1.61 2.604 1.736 1.671-2.731-2.171-4.951-2.604-1.736zm-2.025.29c-.36.583-.127-1.195 0-1.447-1.369.208-1.629 1.254-2.604 1.157.086-.569-.391-.574-.579-.868-2.565.507-5.873 1.904-7.235-.289-2.371.341-5.041-.548-6.656 0 2.894.884 3.165 2.334 4.052 5.209.669-.644-.098-1.128 0-2.026 1.349-.384 1.284.645 1.736 1.158.356-.879.995.313 1.737 0 .309-.27.089-1.068.868-.868-.013.398.136.635.29.868-.75-.465-2.018.549-2.605 1.157.969-.271 1.937.927 1.158 1.447-.071-1.464-2.603-1.713-3.762-1.158.755 2.197-.512 1.396 1.447 2.604-.401.178-.044 1.114-.579 1.158-.418-.01-.438-1.82-.868-.868.177.016.343.043.29.29-1.722.067.752 3.511-1.447 4.341.701.089 1.28 1.781 1.736 1.157-.594-.837 1.471-1.208 2.025-1.157-.942-2.818 2.86-3.894 4.052-1.736-.429.086-1.246 1.218-.579 1.447.061-.325.32-.45.579-.579.112 1.141.206.885.579 2.025.929.254.6-.75 1.158-.868-.378.894.821 1.642 1.158.868-.494-.119.061-.373 0-.868-1.029.45-.175-.983-.868-.868-.061.35-.321.178-.579 0-.466.872-.251.147-.579 1.158-.917-.952.721-3.28 1.447-1.736.265-1.34-.679-2.089.29-2.604-.089.35.836.998.868.29-.727-.125.481-.624.868-.579v-2.025c-.34-.045-.821.05-.868-.29.638-2.161 3.045-4.088 3.47-5.5zm187.236 11.286c1.562.957.377 3.174 2.894 4.63-.474-4.794-.467-8.3-3.184-10.708.136 1.989.435 3.811.29 6.078zm-13.891.289c-1.094-.419-.556.795-1.446.579-.483-.575.026-.368 0-1.157-1.455-.081-2.252-1.89-3.473-.579.517.352 1.683.053 2.025.579-1.431.1.24.759 0 1.447-.391.284-.578.772-.868 1.158 1.145 1.441 1.282 4.308 1.736 4.919.817-1.086 2.455 2.214 2.025 1.447.161-.804-.028-1.957 1.157-1.736-.383-1.518-1.152-2.396-.867-3.183-1.028.45-.176-.983-.869-.868.212.473-.574 1.259-.578.579.252-1.643.78-2.096 1.158-3.185zm-214.15 1.158c.081-.757-.106-1.245-.868-1.158-.081.757.105 1.245.868 1.158zm2.894 11.576c-.617-1.054-.095-4.303-1.158-3.473v-.868c1.167.204 1.336-.593 2.025-.868-.601-.162-.613-.452-.289-.868-4.697-.234-4.434-6.933-9.261-6.077.296 3.193-.268 5.014 0 7.524.341.045.821-.05.869.289-.894 1.846 2.785 1.397 2.604 3.473-1.004-.232-1.112.431-2.026.29-.068 1.561 1.799 3.183 1.736 1.447.325.061.451.321.579.579-1.147.884-1.941 2.627-.289 3.473.018 1.457-.881 1.463-.868 1.447-1.953 2.369 1.92 3.664 1.447 5.209.604-.772 1.382.721 2.315.579.809-1.091-.2-2.367-.579-3.184.273-.884 1.408-.907 1.447-2.025-.178-.401-1.114-.044-1.158-.579.862-.853 1.202.658 1.737.29-.515-.141.125-.309.289-.579-.951.21-.443-.575 0-.579-.026.79.482.583 0 1.158 1.057-.06 1.983-1.278 2.895-.579.086-.569-.391-.574-.579-.868.511-.538.845.126 1.446.289.085-1.573.179-1.348.869-2.315-1.084-1.766-2.903-1.227-4.051-3.185zm32.412-7.525c.053-.631-.236-.92-.868-.868-.135 1.312-1.368 1.525-1.736 2.604.908-.135.816.728 1.158 1.158-.876 1.214-1.196 1.223-2.026 2.315 1.158.506 1.516.075 2.894 0 .349-1.217-.467-1.269-.579-2.026 1.273-.369.972-.806 1.736-.579a1.463 1.463 0 0 1-.868-.868c1.597.592 1.19-1.916 1.447-2.315-.017.026 2.437-1.397 2.026-2.894-.381-.372-1.067-.372-1.447 0 .449 1.697-1.35 1.009-1.737 3.473zm193.893 3.763c-.429.343-.45 1.093-.868 1.447-.085-1.077-.72.852 0 .579.771-1.891 1.793-.48 2.604-1.736-.591-.688-1.146.396-1.736-.29zm1.447-4.052c-1.155 1.22-.611-.639-1.158-.289-.167.939.197 1.346.289 2.025-.27-.177-1.067-.673-.867.29 1.16.1.788.567.289 1.736.37.016.401.371.868.29-.263-1.807 1.02-2.066.579-4.052zm-244.247 4.341c1.403-.141 2.767-.321 3.184-1.447-.199-3.442-4.918-1.655-3.184 1.447zm49.775-1.737c1.201-.604 2.093.668 1.158 1.158.586-.645 2.017.602 1.447 0-.026-.456-.738-.226-.579-.868 1.544.098 1.549-1.345 2.315-2.026-.809 1.215-3.416.635-4.341 1.736zm-.289 2.605c.342.333 1.023.328 1.736.29.081-.66-.07-1.088-.579-1.158.464 1.139-1.249.101-1.157.868zm-24.887 2.315c.484.384.969.767 2.025.579.253-1.351.325-1.085 1.158-1.736-.226-.064-.336-.242-.29-.579-1.164.38-2.789.298-2.893 1.736zm22.572 1.447c-.867-.19.276-.619 0-1.157-.42.158-1.496-.338-1.447.289 1.703.021-.063.104.29 1.158.723-.37.905.147 1.157-.29zm2.026 1.158c-.122-.649-.621-.922-.868-1.447-.076.45-.634.201-.868 0-.053 1.668-2.316 1.415-2.315 3.183-.694.115.16-1.318-.869-.868v1.447c-.922-.247-1.098.252-1.447.579-.668-.488-1.746.459-1.158-.579-1.658.174-1.604 2.062-2.315 3.184 1.142.163 2.342-1.111 3.184-.29-.69.418-.711.439-.869.868-1.136.632-1.597-.601-2.315 0-.622 1.49-.194 6.047-2.026 7.524 1.025 3.704-.075 7.418 2.604 9.26-.688.615-.056 2.354 1.158 2.026.649-1.255-.885-1.721-.868-3.184.325-.029.451.421.579 0-1.059-2.782-.892-5.792-.289-7.524.341.045.821-.049.868.29-.317 2.027 1.086 4.615.289 6.367.341.045.821-.05.869.289-1.114 2.655 2.409 5.952 3.473 5.499.033.738.054 1.488.868 1.447.851-.596.255-2.639 1.157-3.183-.66-.397-1.088.746-1.157 0 .293-.65.429-1.903-.579-2.315.395.016.235-3.408-.289-3.762.015.498-.223.742-.58.868.538-.512-.125-.845-.289-1.447.341-.045.821.05.869-.289-.817-.291-.726-.424-1.158-.579.049-.433-.104-1.068.289-1.157-.087 1.183.4-.049 1.157.289-.52-1.148-1.733-1.979-2.026-.868-.851-1.21.641-2.134.58-3.473-1.244-.137-.371.779-.869.868-.539-.276-.967.867-1.158 0 .597-.51.253-.896.579-1.157.722.204 1.189.285 1.737-.29-1.355.081.372-1.268-.579-1.736 1.66.117.712-2.375 2.026-2.604-.225-.065-.571-.008-.578-.29.398.012.634-.136.868-.29.096-1.157-.517-1.606-.29-2.894 1.101-.562 1.054-.536 2.026-.868-.092-.652 1.351-2.482-.29-3.184.399-.012.635.136.869.29zm-45.145 4.341c.038-.713.044-1.394-.29-1.736-.42.158-1.495-.338-1.447.29 1.205-.145.836 1.284 1.737 1.446zm-6.946 1.736c-4.208-.328-9.005 1.163-9.839 5.788 2.168 1.197 1.988 1.669 3.762 2.604 1.098-.714 3.384.038 3.473-1.158.061.324.321.451.579.579.123-.648.621-.922.868-1.446.411 1.059 1.895-.075 1.158.289-.225-.065-.571-.008-.579-.289.55-1.166.57-.72 1.157-1.447h-1.157c-.334-2.087-.001-1.771-1.447-2.894.201-.571 1.614.071 1.736-.579-.417-.641-.706.364-.868-.29.276-.495.96-.583 1.157-1.157zm-4.63 12.444c.157 1.58 1.586 1.886 2.315 2.894 1.781-.179 2.588-1.774 2.026-3.473-1.686-.046-3.398-.117-4.341.579zm5.788.868c1.178-.021 1.371.945 2.894.579.367-1.883-2.041-.788-2.894-.579zm36.463 10.418c-.699-.326-.748-1.479 0-1.736-.34-.045-.821.05-.869-.289.342-.14.657-.309.869-.579-1.647-1.074.05-2.121-1.736-2.604.568 1.086-.273.631-.579 1.447 1.26 1.044.891 3.559 2.315 3.761zm-10.128 1.158c-.414-.112-.488-.348-.869 0 .482.937.423.618.289 2.025.499.115.742-.429.868 0-1.018.655.931 1.273 0 1.736-.508.082-.53-1.729-.868-.868.391.989 1.441 1.764.868 2.894.552.543.524-.171 1.447 0-.376-.719.849-1.201 0-1.447-.065.225-.008.571-.29.579.028-1.023.556-1.268-.29-1.736.323-.571-.057-.571.869 0-.372-1.315.326-2.007-.869-2.604.435-.366.519-1.534 1.159-.868-.749-1.475-.565-2.513-1.159-3.762-.079 1.016-1.078-.727-1.156.289 1.113.815-.662 3.057-.869 2.604.119.558 1.123.228.87 1.158zm243.666 30.675c.434-.638 2.272-2.6.869-3.183-.534.635-1.812 2.031-.869 3.183zm1.448 27.493c-.151-.74-.384-1.013.289-1.447.028.456-.038 1.003.579.868-.662-1.147.321-.394.868-.868.317-.274 1.003-2.469 2.315-1.736.229-1.336-.322-.828-.579-1.158 2.226-5.22-2.006-10.969-6.945-11.865.233 3.814-5.797 4.085-4.341 7.235-.659-.081-1.088.069-1.158.579-.423 2.119 1.584 4.538.869 6.656.725.382.905-1.144 1.157-.29.088.668-.836.322-.868.869.507.08 1.444-.815 1.736 0-.354.032-.685.086-.578.579 1.102-.234.888.849 1.735.868.508-1.034.602-.683 1.447-.289.993-.605-.139-1.087.29-1.447.861 1.054 2.372.222 3.184 1.446zm-210.098 7.524c-1.04-1.02-1.36 1.133-2.026 1.447-.362-.318-2.258.287-3.473.579.369.403 1.417.126 1.447.868.891.215.556-.794 1.447-.58.293.31 1.668 1.887 1.158 1.158-.016-.37-.371-.401-.289-.868 1.239.155 1.582 1.885 1.446 2.894-.35-.061-.178-.321 0-.579-.822-.049-.564.979-1.736.579-.375.718.646 1.404 0 1.446-2.137.067-4.648-.181-7.234-.868-1.042-.276-2.858-.552-2.894 0-.249-.909-1.191-1.124-2.026-1.447-.26 1.225 1.635.294 1.447 1.447-.644-.225-1.129-.607-2.025-.579-.065.226-.243.336-.58.289 1.403 1.518-2.339.331-1.157 1.448.048-.337.458-.314.868-.29-.013.399.137.636.289.869-1.137.347-1.597-.307-2.315.579.632-.053.921.237.868.867-1.174.371-1.14 1.948-1.736 2.895-.032-.23-.957-.877-.868-.289.893.793-.221 2.016.868 2.314-.162.602-.452.614-.868.29.05.854.779 1.792.29 2.315.539.04.967.191 1.157.579-.953-.492-1.446-.016-2.025.579 1.182-.088.154.604.289 1.158.421.158 1.496-.338 1.447.289-.323.602-.312.613.289.29.092.671-.046 1.111-.289 1.446.719.536 1.575.934 2.315 1.448-.42.883.922 1.537-.579 2.604 1.885-.265.852 1.104 2.026 0 .025 1.082.324.825 0 1.736 1.348-1.078 1.447.323 2.604.868-.923.247-1.098-.252-1.447-.578-.065.546.326.638.29 1.157 1.768-.06 2.17-.308 3.183.579-.504-.021-.9.064-1.157.29 1.139-1.109-2.014-.48-.579.29.22-.387 1.134.969 2.315.579.065-.547-.327-.639-.29-1.158.414.113.488.348.868 0 .15 1.104 1.815.701.579 1.736.389.309 2.501.362 1.447 1.158-.065-.224-.008-.571-.29-.579.473 1.174 1.697.53 2.315.868-.388.191-.539.618-.579 1.157 1.731.9 1.209 1.608 3.183 2.316-1.272 1.208.782 1.673.579 2.894.401-.178.043-1.114.579-1.158.04 1.202.19.059.579 0-.504 1.308-.195 1.208.579 1.447-.498-.015-.742.223-.868.579.798.069.66 1.076 1.158 1.447.332-1.567.741-1.312 1.447-2.315-.023 1.078-.434.935.29 1.447-.74-.152-1.013-.384-1.447.29.18.783.148.051.869.579-.049.337-.458.314-.869.29-.044.816.818.725 1.158 1.157-.237-1.104.616-1.12 1.158-1.447.053 1.197-.959.878-.29 2.026-.433.339-1.183.359-1.447.868.659-.397 1.088.746 1.157 0-.68-.003.106-.79.579-.579.064.547-.327.639-.29 1.158.864-.004.984-.752 1.736-.868-.065.547.326.639.29 1.158-.292-.001-.344.234-.579.29.042-.342.516-.656 0-.869-.048.337-.457.315-.868.29.239 1.511.677 1.886 1.158 2.604h-.868c-.254.929.75.6.868 1.158-.29-.002-.344.234-.579.29.086-.569-.391-.574-.579-.868-.006-.682.499-.853.29-1.736-.354-.033-.685-.087-.579-.579-.726-.049-.703.648-1.158.868.433.049 1.068-.104 1.158.29-.504-.022-.899.064-1.158.29-.175 1.139.427 1.503.868 2.026.049-.337.458-.315.868-.29-.331.91.455.703.579 1.157-.034.834.158 1.895-.289 2.315 1.827.119-.09-1.786.868-2.315-.06 1.161.073 1.294.579.579-.746 1.235.749 1.945.579 2.604.064-.226.243-.337.579-.29-.378 1.246.821.915 1.157 1.447-.291-.001-.344.235-.579.29-.062-.325-.322-.451-.579-.579.193.803 1.024 1.891 0 .868-.248.922.252 1.098.579 1.447-.83.508-1.595.023-2.315-.868.998.141.192-1.597 0-.868.705.679-.323.647-.579 1.158 1.333.177.693 2.503 2.026 1.157-.449 1.38-.102.385 1.158.579-.012.398.136.635.289.868-.332-.089-1.912-.567-1.157 0 .697-.119.629.529 1.447.289-.284-1.964.274-1.814-.579-2.315.104-1.045 2.133.041 1.447-.579-.428.009.054-1.456.578-1.447-.356 1.014.168.911.29 1.447.162-.688.871.321.29.579.42-.158 1.496.338 1.447-.29-.757.082-1.245-.105-1.158-.868 1.141.542.922-.409 2.026-.579-.45-1.209.687-.794-.579-1.447.75-.371.13-1.378.579-1.447.719.784.421-.244 0-.579.369.016.401.371.868.29-1.176-1.598 1.674-6.353-.868-6.367.16-.001.328.234 0 .29-.005-.479-.803-.162-.869-.579.698.119.629-.528 1.447-.29.381-1.316-.161-2.432.579-2.894-.417-.641-.707.364-.868-.29 1.139-.432-.054-.341 0-1.158 1.292.57.288-.08.29 0-.026-1.075 1.356-4.245-.579-3.473.352-.42 1.155-.388 1.157-1.157-.528-.437-1.622-.307-2.026-.868.509-.167 1.7.35 1.736-.29-.542.016-.613-.223-.289-.579-.498-.114-.743.43-.868 0v-.579c.512-.066 1.449.292 1.157-.579-.659-.397-1.088.746-1.157 0 .671-.081.665-.773.29-1.158.575-.003.368-.79 1.157-.579.305-1.076-.976-.567-1.157-1.158.416-.161.706-.452.868-.868a1.46 1.46 0 0 1-.868-.868c.369.016.401.371.868.29.45-1.029-.982-.175-.868-.868.35-.061.178-.321 0-.579.369.016.401.371.868.29-.452-.966-.274-.767-.868-1.447 1.197-.905.054-3.092 1.446-4.052.049-.821-.979-.564-.579-1.736.725.135.744-2.685.29-3.473.498.016.742-.223.868-.578-.65-.122-.007-1.536-.579-1.737 1.283-1.482.948-2.833 1.158-5.209.291-.001.344.234.579.289.407-.828-.897-1.579.29-1.447-.032-.72-.542-.896 0-1.448-.433-.049-1.067.104-1.157-.289.271-1.023 1.615-1.554.578-2.315.342.042.657.516.868 0-.304-.016-.228-.371.29-.289.306-1.078-.609-.935-.868-1.447.575-.944.663 1.024 1.158 0-.838-.162.444-.451.289-.868-2.218 1.051-1.703.727-3.183.579-.441-1.606.591-1.645-1.157-.868-.508-1.024.972-1.491.29-1.737-.63.545-.804 1.34-.868 1.737-.13-1.027-.977-1.338-1.158-2.315 1.489-.561 1.824-1.292 2.894-1.736.065.225.008.571.29.579.115-1.29-1.231-.911-1.447-1.158.059-.368.841-1.418.29-1.447-.044.72-.98.084-1.158 0-.045.34.05.821-.29.868.305-1.076-.976-.567-1.158-1.158.225-.064.571-.008.579-.289h-.868c-.397.66.746 1.088 0 1.158-.511-.634-1.005-.839-.579.289-.385-.709-.873.522-1.157-.289 1.756-.537-1.38-.31-.29-1.447-1.089.905-2.702-.436-3.183 0 1.029 1.134-1.023-.203-1.158.578.225.064.336.243.29.579-1.273-.732-1.711.912-1.158 1.736-.743-.322-2.589 1.488-1.447 2.315-.79.249-1.525-1.786-1.158-.868.068.969.62 1.824-.292 2.315zm-17.653 21.993c.033.353.087.685.58.58.049.432-.104 1.067.289 1.157.655-.69-.133-1.568-.869-1.737zm214.439-25.466c-.621-.344-.676-1.253-1.158-1.736-.243.335-.382.776-.289 1.447.676-.248 1.247 1.011 1.447.289zm10.418 8.971c.413-.113.488-.348.867 0 .799-1.509.625-3.623-1.156-4.052-.48 1.189.638 1.736-.29 3.183.455.028 1.004-.039.868.579-.307-.012-.734.137-.289.29zm-14.18 3.762c.297-.282.586-.572.868-.868-.342-.333-1.022-.328-1.736-.29.122.554.105 1.246.868 1.158zm3.183 2.605c.165-1.419-1.047-1.462-2.026-1.737-.579 1.137.678 1.704 2.026 1.737zm.579.868c.564 1.685 1.271 4.34 3.183 3.761.47 1.283 2.065 1.588 1.736 2.895 2.079.512 3.223.69 4.631-.579-.314-1.807-.838-3.405-2.604-3.762.458.799-.751 1.299-.869.579.18-.361 1.853-1.459.58-1.447-.597.079-.069 1.282-.869 1.159-.004-.842-1.635-.685-2.025-.29.42-1.094-.795-.556-.579-1.447-1.144.384-1.286-.195-.579-.29-1.186.247-1.021-1.225-2.605-.579zM225.146 405.438c.369-1.229.462-.488 1.447-.289.024-.816-1.371-1.691-2.026-.869 1.452-.214-.384 1.066.579 1.158zm.29.578c1.099-.036.812 1.31 1.737 1.447.015-.861-.852-1.469-.29-2.025-.516.159-1.202.148-1.447.578zm-20.257 2.316c-1.2-.079-1.127.38-2.025 0-.14 1.436 1.795.67 2.025 0zm80.74 2.605h1.157c-.267.703.433 2.547 1.736 2.604.79-2.479-1.654-4.098-3.183-5.209-.235 1 .54 1.222 0 1.736.886.335.924-.136.29.869zm-81.608 1.446c.667.573.321-.073.868-.289-.381 1.037.019 1.06-.289 2.025.796-.102.334-.867 1.157-1.446-.93.253-.397-.954-1.157-.869-.004.382-.508.265-.579.579zm-46.882 3.473c-.429-.054-.266-.699-.29-1.158-.34.046-.821-.049-.868.29.712-.451.851.982.29.868.086-.471-.391-.781-.579-.289.343.084 1.093 1.165 1.447.289z"/><path fill-rule="evenodd" clip-rule="evenodd" d="M333.379 150.484c.309-.382 1.75.548 2.026 1.157-1.331-.327-1.222-.304-2.026-1.157zM230.066 78.715c.817-.047.673.869 1.447.868.146-.373.305-.599.578-1.447.356.126.595.37.579.868.911.14.655-.889 1.736-.579-.507-1.355 3.235-.925 3.473.29.611.708-.305-.433-.869-.29-1.192.615.357 1.078-.288 1.736.161.356 1.119-.216.867 1.158-.929.254-.396-.955-1.157-.868-.38.102-.455.509-.868.579 1.711 1.133 3.441.739 4.052 3.184-.849.019-1.074.661-1.447 1.157.127.43.371-.114.868 0-.756.497-.574 1.934-1.447 2.315V85.66c-2.987.735-3.866-1.639-5.498-2.604-.385.29-1.077.273-1.157.868-.795-1.328-1.376-2.869-2.895-3.473.129-.421.255.029.579 0-.085-.361.847-1.326 1.736-.579.247.053.273-.114.29-.29-.189-.294-.666-.299-.579-.867zM241.062 84.502c.454.102-.253.509.29.579-.78.473-1.124-.033-2.026.579.524-.441-.054-1.985 1.157-1.736-.488.732.063 1.283.579.578zM242.22 86.528c1.232-.739 2.749.716 3.185 1.736-1.363-.277-1.438-1.843-3.185-1.736zM243.668 92.316c1.985 1.016 3.223 1.478 6.077 2.604.032.013-.36.466-.29.579 3.591-.064 3.862.678 5.21-.289 1.071.665 1.779.49 2.894 1.447.249-1.36.549.504 1.736.579.071 1.24-2.129 1.714-1.157 2.894-.08.683-1.078-.026-1.158-.289-.811.284.42.771-.29 1.157-.681.007-.851-.499-1.735-.289v-.868c-1.435.282-2.63.142-3.184-.579-.665 1.622-4.286.663-5.498 1.736-1.369-1.465-3.004-.3-3.763-.579-.339-.046-.244-.528-.29-.868-.915.397-.966.063-2.024 0 .759-.821-1.155-.277-1.448-1.447-1.205.77.85.661.579 1.447-.335-.047-.515.063-.579.29-.129-.734-1.018-1.344-2.604-.868-.08-.508.815-1.444 0-1.736-.865-.456 1.059-.322.579.579-.254-1.682 2.253.165 2.314-1.736.259.225.653.311 1.158.289-.072.314-.576.196-.579.579.025.547 1.239-.07.867-.868 1.227-.07 1.473-.312 2.315 0 .295-.188.3-.666.869-.579-1.209-1.163-1.438-.592-2.315-1.157 1.002-1.504.907-1.222 2.316-2.028z"/><path fill-rule="evenodd" clip-rule="evenodd" d="M236.144 105.338c.353 1.779 5.037 3.486 7.524 2.315-.574.667.072.321.29.868 1.478-1.633 3.41-1.165 5.208-.29.327 1.492.906 2.989.289 4.63-2.102-3.128-11.938-.241-14.181-3.762-.338.047-.242.527-.288.868-.505-.261-1.115-.647-.579-1.158-1.156.581-1.662.608-3.473.868v-1.447c.257-.225.653-.311 1.157-.29-.083-.337-1.642-.836-.289-.868-.118-.558-1.122-.229-.868-1.157-2.416.822-4.67-.888-5.209-2.894-2.185.121-4.15-2.381-6.945-2.604-.222-1.804-1.123-2.929-.869-5.209 2.673-1.016 5.165-1.981 8.104-2.026.811 1.17-.479 2.295-.29 3.762 2.762 2.046 6.396.357 8.103.868.405-.103.025-.509-.289-.579.904-.389 2.057-.349 2.314.868-.683-.425-.538-.611-1.446-.29-.114.694 1.317-.16.867.868-1.106-.046-2.294-.172-2.314.868-.515-.212-.042-.526 0-.868-.874.669-2.436.65-3.473 1.158.381.275.95.129 1.736 0-.671.756 1.104.82 1.736 1.157-.37.047-.37 1.767 0 .868.549.239-.875 1.015.29 1.447-.128.42-.254-.03-.579 0 .762.781.184 2.904 2.315 2.315-.545-1.222.356.461 1.159-.286zM228.04 111.416c1.17.853-1.37 1.29-2.024 1.447.803.945-1.157 1.073-1.737 1.447-.117.168.51.366.58.29-1.595 1.758-5.48 1.603-5.499 3.762-1.585.207-1.734.05-3.184.289.827.978.258.094-.289.29-1.962.7-5.141 2.623-7.235 2.026 1.363-.794-1.835-.811-1.447.868-.496.013-.75-.215-.868-.579-.364 1.325-1.581.101-1.447 2.026-.259-1.45-1.116-.581-1.448-1.736-.233.249-.792.171-.868.579-3.836-1.618-4.706-4.612-8.392-6.077-.114-2.054-.638-4.964.579-5.209-1.494-2.575 1.755-4.987 0-8.392.056-1.006 1.023-1.099 1.158-2.026.303.558.153 1.547 1.158 2.026-2.522 2.768-.562 6.8 1.446 8.971.519.037.61-.354 1.157-.289 1.387 1.797 3.646 2.722 5.499 4.051 3.519-2.641 9.448 2.16 11.865-1.736 5.212 1.342 8.563-1.923 12.444-2.894-.5.271-.474 1.068-1.448.866zM285.63 100.998c-.258.225-.653.312-1.158.29-.056-1.52 1.698-.572 1.737.29-.493.105-.547-.227-.579-.58zM291.996 100.708c.258.178.518.35.579 0 .246-.053.272.113.289.289v.579c-1.738-.702.079 1.475-.579 2.025-.783-1.113-.74-1.298-.289-2.893zM290.549 101.287c.438-.505-.097.972.29 1.736-1.566.32-.682-1.473-.29-1.736zM122.991 103.602c.397 1.458-1.948.174-1.446 1.736-.247.053-.273-.113-.29-.289h-.579c.441-.814 1.596-.912 2.315-1.447zM255.243 121.255c2.44-1.514 6.495-1.417 8.972-2.894-.153-.233-.303-.47-.29-.868.492-.106.546.225.579.579 1.461-1.349 1.508-.792 1.447-2.894.761-.085.227 1.123 1.158.868.047-.242 0-1.137-.29-1.736.61-.795.502.779 1.447 0-.125-.455-.91-.247-.579-1.158.48-.484 1.698-.23 2.604-.289-1.638.708-.867 2.11-2.315 2.894.008-.282.354-.225.579-.29-.091-.393-.725-.24-1.158-.29 1.093 2.839 2.653.871 4.631.868-1.651-1.662.879.629 1.447-.868.118-.697-.529-.629-.29-1.447.773.673 2.807.088 2.894 1.447h-1.157c.151.428.429.73.579 1.158 1.005-.352 1.098-.701 2.025 0-.251.423-.229 1.121-1.157.868.896.303 2.515.157 3.183-.29.319.935.696 1.812 1.158 2.604.896-.418 1.123.047 1.736.579.052 1.109-.236.105-.869.289.152 1.006.971 1.345 1.448 2.026.513-.259.369-1.174 1.446-.868.21.885-.499.851-.289 1.736.807-.25 3.298-.916 2.894.868-.232-.153-.469-.302-.867-.289.054.234.289.288.289.579.724.049.906-.445 1.157-.868-.104 1.157 1.859.052 3.473 1.158.081.757-.105 1.245-.868 1.157.282 1.164 2.204.69 2.315 2.026.812-.004-.689-.79.579-.579-.054 1.017.684 1.246 1.157 1.736-.201.571-.771.771-1.447.868.71.385-.521.874.29 1.157-.191.389-.62.539-1.158.579-.335-.428-.335-.729 0-1.158-1.866.262-2.041.943-3.473.29-.216.891.794.556.579 1.447-.52.037-.61-.354-1.157-.29.152-.232.301-.47.289-.868-.576.292-1.236.5-1.447 1.158-3.582-1.272-8.83.583-9.261-4.341-.233.153-.47.302-.868.29-.027-1.298-1.044-.465 0-1.736-.936-.358-.221.937-1.157.579.3-1.185-.484-3.215-.868-5.209-.741.684-2.852-1.59-2.026-1.447-1.683-.489-3.948-.732-5.209.29-1.972-1.279-3.305.318-6.655.868.482 1.259-2.342 1.443-2.604 2.894-2.02.135-3.23 2.143-5.209 2.604-3.785-.354-3.784.223-6.078-.868 1.312 1.199-1.071-.068-1.735-.29-.331-1.499 2.255-1.587 1.735-2.315.047-.339.528-.244.868-.29-.053.247.113.273.289.29-.071.314-.574.196-.577.579 1.692-.099.577-1.409 2.314-1.158-.188-.294-.666-.299-.579-.868.417.163.706.452.868.868.314-.829.785-1.052 1.736-.579-.566-.591-1.452-.863-2.604-.868.009-.281.354-.225.579-.29.036-.519-.354-.61-.29-1.157.866-.05 1.383.193 2.895-.29.878 1.748 1.465.308 2.892 1.449zm18.812-.579c.225.064.335.243.288.579.671-.092 1.111.047 1.447.29.474-1.142-.774-1.332.579-2.026-.479-.583-.366-1.756-1.157-2.025.292-.003.363-.508 0-.579-2.256.963.6 2.783-1.157 3.761zm1.735 4.92c.713-.039 1.395-.044 1.736.289-.654-1.319-.926-1.72-2.025-2.894.243.721.379 1.551.289 2.605zM177.397 116.335c-.258.225-.654.311-1.158.29-.061-.496.493-.75 0-.868.19-.389.619-.539 1.158-.579.024.458-.14 1.104.289 1.158-.054.328-.29.16-.289-.001zM332.222 120.387c-.517.879-1.134-1.069-1.736 0-.942-.532 2.043-1.671 1.736 0zM333.669 119.519c.662.318-1.288 3.021-1.447.868.518.082.594-.273.289-.289-.207-.786 1.364.207 1.158-.579zM324.408 120.966c.2-.778-.599-.56-.869-.868 1.181-.782 2.302.969 3.185 1.447-.072.314-.576.196-.579.579-.891.216-.557-.794-1.447-.579.065-.417.863-.101.868-.579-.191-.867-.619.277-1.158 0zM203.153 139.487c.475 1.862 2.039 2.189 2.025 3.473.233-.153.47-.302.868-.29.036-.519-.354-.61-.29-1.158.429.408.623.923.579-.289.34 1.062 1.581.125 2.026.579-1.297.86.005 1.112-.579 2.315 1.221.033.636 1.871 2.026 1.736.06 1.854 1.087 1.974 1.447 4.051 1.65.32 2.799 3.538 4.919 4.341-.202.891-.202.557 0 1.447 2.403.202 2.459 2.75 4.919 2.894.016.462-2.04.74-.578.868-2.244.695-5.648-2.167-9.261-2.604 1.224-.6-.824-.985-1.736-1.157.12-1.51-.962-1.359-2.025-2.315-2.003-1.801-3.8-4.825-4.63-5.209-.249-.115-.674 1.333-.579-.29-1.072.026-2.521.31-2.026-.289-1.3-.045-1.433 1.076-2.315 1.447-.185-.631.82-.921-.29-.868.283-.392.975-.375 1.158-.868-.008-.281-.354-.225-.579-.29.972-2.176 2.237-2.292 2.315-5.209 1.524.159.748-1.67 2.606-2.315zM160.902 140.065c-.537.557-.531.229-.29 1.158-.605.814-1.087-.047-1.447.868.19.867.619-.277 1.157 0-1.297 1.5-2.549 3.045-4.919 3.473-1.069-4.02 2.678-4.539 5.499-5.499zM302.992 146.143c.045-.823 1.771 1.325 1.737-.289.513.723.368.312 1.446.289-1.376.753.979.83 1.447 1.447.356-.127.594-.371.579-.868 1.268.692 1.725 1.151 3.473.868.877.763 1.155 2.125 3.183 1.736-.117.557-1.121.229-.867 1.158.967-1.348 2.499.692 2.604 2.026-.683.708-.538-.432-1.446-.29-.234.055-.289.29-.578.29 1.849.453 2.524 1.127 4.051 2.315-.153.232-.303.47-.29.868.802-.036.994-.552.579.29.98.136 2.985.276 2.026 1.447 1.417-.291 2.055.359 2.604-.579.357.126.595.37.579.868 1.045-.017 1.401-.721 2.315-.868-.226-.258-.312-.653-.289-1.157.989-.217.367 1.175 1.446.868-.497 2.474-4.497 2.726-2.894 6.366-.725-.042-1.965.433-2.315 1.447-2.172 1.187-5.049-1.647-6.076-.579-.609-.549-1.482-.833-2.315-1.157 1.42-.037-3.259-2.413-4.342-.868-1.667-.089-2.314-2.56-3.762-1.158.856-1.145-1.602-1.47-1.447-.29-.632-.195-.008-1.518.868-1.157-.087-.782-1.217-.519-1.447-1.158-1.394.851-5.319-1.617-7.523-1.736.516-.989-2.433-2.518-4.052-3.762-.812.003.689.79-.578.579-.037-.52.354-.611.289-1.158-.52-.037-.61.354-1.157.29-.687-.839-.851-2.869-2.315-3.184.524-.247.798-.746 1.447-.868-.135.906.252 1.292 1.157 1.158.372-.496.951-.786 1.736-.868-.938.567.754.932.868.289.441 1.65 1.883.537 2.895 1.447.43-.126-.115-.371 0-.868 1.103.922 2.514 1.537 3.761 2.315-.143-.86.989.103 1.736-.868-.4-.467-.244-1.492-.867-1.736 1.021-.76 1.969-2.025.579-2.894 1.103-.234.888.849 1.736.868.688-.086-.323-.783-.581-.869zM138.619 153.957c-.008.281-.354.224-.579.289.008.282.354.225.579.29.062 1.219-1.295 1.02-1.736 1.736-.572-.78.757-2.126 1.736-2.315zM149.905 160.323c.812.48 1.925 1.245.868 2.026-.419-.901-.676-2.282-2.026-1.447-.609-1.92.828-.777 1.736-1.158.828.15-.466.428-.578.579zM306.755 176.818c-.323.912-.026.655 0 1.737.234-.055.289-.291.579-.29-.129-.257-.255-.518-.579-.579.628-1.065.645.866 1.447.579-.008.282-.354.225-.579.29.09.393.725.24 1.157.289.438.528.307 1.623.868 2.026-.244.554-1.269.783-1.736.289.127-.355.371-.594.868-.579-.071-.314-.575-.196-.578-.579-.694-.114.16 1.318-.868.869-.265-2.265-3.107-2.8-3.184-5.789.337.047.516-.064.579-.289.701.662.35 1.025.289 2.025.294-.188.3-.665.868-.579.501.751-.424.91.869.58zM281.867 193.024c-.393-.089-.239-.724-.29-1.158-.44.446-1.983.515-1.735-.579.417-.641.706.364.868-.289.429.125-.114.37 0 .868.617.135.552-.413.578-.868.891.267.375 1.941 1.737 1.736-.196 1.336-.962-.442-1.158.29z"/><path fill-rule="evenodd" clip-rule="evenodd" d="M285.34 193.892c-.047.34-.527.245-.868.29v-.868c-.213.751-.949.979-1.157 1.736-.575-.003-.368-.789-1.157-.579.079-.596 1.078-.272 1.157-.869-.79-.536.88.075 0 .579 1.537.077-.625-2.806 1.447-1.158.222.179-.185 1.212.578.869zM285.919 201.706c-.553-.201.312-.451.29 0 1.228-.941-1.177-1.653-.29-2.315-1.244-.137-.371.779-.869.868-1.386-.093-.812-3.063-1.157-2.605-.849-.246.377-.728 0-1.447.621.73 1.45 1.251 1.157 2.895.113-1.533 1.347-.626 1.737-1.447.33 1.194 3.764.877-.578 1.158.232.479 1.767-.033 1.736.867.486-1.112 1.278.275 2.604 0 .202 1.568 1.592.649 2.895 2.026-.128.258-.255.518-.579.579 1.552.48 2.362 2.227 3.763 2.025-.226.997.161 1.381 1.157 1.158.013.74-.215.353-.579.289.825.563.979 2.018 1.446.869.774.335.026 1.536-.867 1.158.089.392.725.24 1.157.289-.324.912-.026.656 0 1.737-1.081.026-.824.324-1.736 0 .056.234.29.288.289.578 1.059-.062 1.11-.397 2.026 0-.071.364-.576.292-.579 0-1.025.033.615.958-.29.869-.517.081-.593-.274-.288-.29-.735-.231-1.098-.832-2.026-.868.086-.783 1.218-.519 1.447-1.158-.194-.517-1.797.903-.869-.579-.761-.086-.228 1.123-1.157.868v-1.446c-.333 1.261-1.211-.538-1.736.289-.41-.493-.54-2.03-.289-2.315-.633.043-.621.729-.578 1.447-.321 1.179-.37-2.184-.579-.29-.627.048-.131-1.026-.29-1.447-.908 1.306-.82-1.723-1.736 0-.604-.167-.826-.718-1.736-.579.044-.536.98-.178 1.158-.579-.125-.455-.911-.248-.579-1.158-.201.571-1.615-.071-1.736.579-.956-.435.601-.708.29-1.447-.047-.339-.528-.245-.869-.29.008.282.354.224.579.29-.103.379-.51.455-.579.868-.327-.055-.16-.291 0-.289.133-.906-.729-.815-1.16-1.157zM294.891 200.259c-.766-.307-1.787-2.416-2.605-.868-.469-.303.638-1.465 1.736-1.158-.795.881 1.338.586.869 2.026zM301.836 200.259c.518.085.018-1.123-.579-.868 2.504.392 3.675 4.62 6.366 5.788-.169.602-.608.936-.868 1.447.495.012.749-.215.868-.579 1.021.499-.835.474-.289 1.447 1.354-1.117.039.449 1.446.29-.522.905.089.148.868.579-.322.356-.252.594.29.579-.823 1.91 1.175 1.675-.867 2.604-.131.473 1.576.473 1.446 0 .701.662.349 1.026.289 2.026h-1.158c1.712 1.16.433.875.869 2.315.335.046.515-.064.579-.289.854.251-.672.433-.29 1.157-.321-.547-.722-1.015-.868-1.737-.789.267.404.906 0 1.737-.766.342-.898.25-.579 1.158-2.122-.376-.558-2.535-1.157-4.052-.52-.036-.61.354-1.157.29-.083.623 1.894 1.418.289 1.736.055-.235.289-.289.289-.579-.043-.535-.979-.178-1.158-.579.169-.797.722-1.21.869-2.026-.294.188-.299.666-.869.579.813-.344-1.003-2.162.29-2.025-1.552-2.203-3.092-6.377-5.788-7.235.072-.315.576-.197.579-.579-.126-.429-.37.114-.868 0-.052-.944.68-1.393-.578-1.447.007.282.354.224.578.29-.089.393-.725.24-1.157.289-.135-.906.251-1.292 1.157-1.157-.495-1.09-.438-1.226-.578-2.315.556-.123 1.044.198.578.29.08.593 1.078.271 1.158.866zM344.087 199.102c.026.438.687.992.867 2.026.455-.125.248-.91 1.158-.579-.023 1.374 1.564 1.135 1.157 2.894-.91-.145-1.131.631-1.736 0 .203.891.203.556 0 1.447 2.105-.863 1.336 1.039 2.894.289-.46 1.446-1.859 2.918-3.762 2.026.103-.38.511-.456.579-.868-.713.247-1.967.288-2.026-.868 1.348.913-.453-1.127-.578-1.447-.948-2.434-.717-3.706 1.447-4.92zM136.882 205.179c.329.055.161.291 0 .29-.086.761 1.123.228.868 1.158-.948-.915-.898.802-1.447 1.157 1.082.309.825-.718 1.736-.579-.134 1.38-1.503 2.174-2.894 1.447.041-1.848 1.725-2.408 1.737-3.473zM198.522 212.125c-.008.281-.354.224-.578.289.283.392.975.375 1.157.868-.165-.774 2.234-.434 2.894 0 .653-.163-.351-.451.29-.868 1.247.618 2.046-.458 2.894 0-.072.314-.575.196-.579.579.579.746.845-1.258 1.736-1.158-.325.866 1.886-.215 3.762.29-.047-.34-.528-.245-.869-.29.197-.485 3.405-.576 2.315.29.726.049.703-.648 1.158-.868.314.071.196.575.579.579.654-.162-.351-.452.289-.868.755 1.45 3.129-.451 3.184.578.256-1.85 2.746.863 3.473-1.158 2.564.921 5.214-.605 7.235.869.271-.213.438-.527.578-.869 2.585.852 4.005.734 5.499 1.737.364-.072.292-.576 0-.58.607.484 3.097.888 3.184 2.026.255-.821 1.436-.428 1.446.579.259-.128.519-.254.578-.579.333.466 1.137.916.579 1.446 1.362-.108 1.455-.365 2.026.58.854-.252-.672-.434-.29-1.158.424.252 1.121.23.869 1.158 1.045-.986.332.027 1.736 0 .046-.337-.064-.516-.29-.58.961-.112 1.993.489 2.026 2.026.908-.322.764-.136 1.446.29-.065.417-.863.101-.868.579.686.065 1.15.512 2.315.29-.481.575.026.368 0 1.157.281-.008.224-.354.29-.579.333.635 1.622 1.186.867 2.025.862-1.479 2.094 1.255 2.895.579.785.264-.295 1.015-.289 1.447-.076-.579 3.326.235 3.183 1.158-.604-1.214-.794.308-1.447-.29-.432 1.054-.679 1.22-2.315 1.447.357.879.996-.313 1.736 0-2.424 1.223-3.746.288-5.786-.579.305-1.929-2.915-1.606-1.738-3.473-1.257 1.207-2.191-.473-2.894-1.447-5.846-2.655-13.78-6.631-20.257-3.762-.078.416-.796 1.314-.29 2.315.339-.047.245-.528.29-.868 1.212 1.803 4.128 1.174 6.077 1.736.514.147 1.443 1.227 2.315 1.446.719.181 1.335-.241 1.736 0 .303.182-.072 1.439 1.157.579.249.234.172.793.579.869-1.189.982-2.092-.79-3.762-.29 1.061 1.308-4.062-.513-4.342 1.736-.892.217-.353-.998-1.446-.579-.655.162.35.451-.29.868-.336-.047-.515.063-.579.29-.339-.046-.244-.528-.29-.868-.356.323-.594.252-.579-.29-.423.928-.87 1.831-2.026 2.026.416-.509.266-.66-.578-.579.645.61-2.713 1.255-1.158 1.736-.482.949-1.57-.529-.868-.868-.356.323-.594.252-.579-.289-.434.366-.87 1.182-1.447.579-.424.053.388 1.559-.868 1.447-.053-.246.113-.272.29-.289-.262-.32-.647-.2-1.158 0 .003.812.79-.689.579.579-.818.239-.75-.408-1.447-.29.153-.233.302-.47.29-.868-.884-.015-.694 1.042-1.736.868 1.183-1.115-1.557-1.117-.579-2.025-1.667.302-.975.718-2.026.868-.628.049-.131-1.026-.29-1.447-.393.09-.24.725-.29 1.158-.423.005-.917-1.22-.868 0-1.248-.955-1.922.199-2.894-.29 1.274-.432-.548-.368-2.026-.579v-1.446c-.339.046-.244.528-.289.868-.576-.004-.368-.79-1.158-.579.046-.339.527-.244.868-.289-1.072-.375-2.367-.528-3.473-.869-.292-.87.645-.512 1.158-.579-.118-.558-1.326-.025-.869-1.158-1.339 1.065-1.644-.96-1.157-2.314-.27.211-.438.526-.578.868-.133-1.08-.473-1.067-.868-2.315-.779.744-.713-.988-1.447-1.157-.053-.632.237-.921.868-.868-.247-.85-.729.376-1.447 0 .334-.112.334-1.406 0-.579-.866-.19.276-.619 0-1.157.724-.05.906.444 1.157.867.338-.434.836-.707.869-1.446.822.239.753-.408 1.45-.288zm51.801 9.838h.58c.016-.37.371-.401.288-.869-.91.332-.702-.454-1.157-.579-.239.82.408.751.289 1.448z"/><path fill-rule="evenodd" clip-rule="evenodd" d="M197.365 211.835c.279.019-.586 1.32-1.446 1.158.543-.552-.172-.524 0-1.448.531.713.721 1.043 1.446.29zM217.622 225.436c.51.069.66.498.579 1.158-.281-.008-.224-.354-.29-.579-.679.376-.648-.147-1.157.579-.636.648.401-1.085.868-1.158zM237.88 222.542c.43.343.45 1.093.867 1.447.05.888-1.471-.333-.578-.29-.188-.294-.665-.3-.579-.868-.379.371-1.066.371-1.446 0 .48-1.225.777.457 1.736-.289zM311.386 217.044c.928-.254.6.75 1.158.868-.456.22-.434.917-1.158.868.61-.784-.657-.72 0-1.736zM305.019 244.247c-.982.754-.562 2.91-2.026 3.183.164-.602.828-.936.29-1.447-.332.103-.734.509-.29.579-.042.535-.979.178-1.156.578.188.295.665.3.578.869h-.868c.436 1.034-.144 1.187-.868 1.736.372.808 1.377-.132 1.446-.579.85.246-.376.728 0 1.447-.538.041-.966.191-1.157.579.103.405.511.025.579-.289-.45 2.03-1.502 5.634-3.473 6.077.381 2.794-3.121 2.4-4.341 4.63-.887-.188-1.452.498-2.314.868-.357-.126-.595-.37-.579-.868-2.183 1.408-3.644-2.412-3.473-3.763.75-.957 1.816-.044 2.894-.868.429.126-.114.371 0 .868.934.26.406-.943.868-1.156 2.73.83 3.857-.527 5.209-2.026.258.225.653.311 1.157.29-.055.234-.29.289-.289.578.234-.054.288-.29.579-.289-.94-.776-.009-1.281-.579-2.025.72.482 1.652-.634 2.895-1.158-.056-.235-.291-.289-.29-.579-.575.004-.367.79-1.158.579-.053-.247.113-.273.29-.291.43-.125-.114-.37 0-.867.257.178.519.35.579 0 .294.188.299.665.867.579.271-.212.439-.527.579-.869-.364-.433-1.182-.87-.579-1.447-.232.153-.47.302-.867.289.188.294.665.299.579.869-.381-.103-.456-.51-.869-.579 2.799-1.891 2.39-5.128 5.787-5.498zM217.912 308.202c.29-.398.477.124.869-.579-.748-.94-.906-.775-1.158-2.315.341.431.727.817 1.158 1.158.653-.163-.351-.452.289-.869.293 1.539 2.972.694 3.473 2.026-.335-.243-.776-.381-1.447-.29.293.479 1.229.314 1.737.579.393-.089.24-.725.29-1.157.077.463 1.604 1.708.289 1.736.323.099.94 1.537.868.289.628-.048.131 1.027.29 1.447-.189-.637-1.898.371-.579.29-.418.834-1.835-.52-1.158-.868h-.579c-.479-.124.026 1.079.29 1.157-.089.393-.725.241-1.157.29-1.151-2.229-1.671.131-3.184-1.736-.026-.459.137-1.104-.291-1.158zM165.821 415.856c.314.071.196.574.579.578-.126.43-.37-.114-.868 0-.419 1.095.794.556.579 1.446-.246.054-.273-.112-.29-.288-.339.046-.244.528-.289.868-.639-.037-.123-1.228-.29-1.737h-.868c.008.282.354.226.579.29-.178.258-.35.518 0 .579-.126.429-.37-.115-.868 0 .323.355.252.594-.29.578.017-1.045.722-1.399.868-2.314.54-.276.968.866 1.158 0zM230.935 402.543c.053-.943-.681-1.393.579-1.446-.506.589.216.567-.29 1.157.233-.152.47-.301.868-.289-.293-.883-.476-1.668-1.446-1.158.455-.22.432-.918 1.157-.867-.45.711.982.851.868.289.539.714.273 2.652-1.736 2.314zM220.227 389.232c.43.126-.114.37 0 .868-.744-.028-.414-1.13-1.158-1.157.065-.417.863-.102.868-.579.746.069-.397.498 0 1.158.247.052.273-.113.29-.29zM152.799 420.196c.669.297.599 1.331.579 2.315-.575-.482-.368.027-1.158 0 .482-.733 1.31-1.119.579-2.315zM156.561 420.486c.661-.623.049 1.534-.29 1.736-.294-.188-.299-.665-.868-.579.118-.654 1.696.153 1.158-1.157zM207.783 423.958c-.727-.542.481-.032.868 0 .106.492-.226.546-.579.579.246.848.932-.173 1.447 0 .274 1.046-1.14.404-1.736.578.105-.492-.226-.546-.579-.578-.273-.535 1.657-.177.579-.579zM109.39 473.734c.266-3.337-.8-4.71-.579-7.813-.069-.509-.498-.66-1.157-.578.64-2.896-1.642-4.675-.29-8.972 1.743.49.767 1.919 2.604 2.314-.206 1.502.063 3.062 1.158 4.921.336 2.032-1.831 4.532.579 5.209-.555 3.608-.213 2.855-2.315 4.919zM106.207 476.917c.773-.001.629.914 1.447.868.387-.15-1.066-1.739.868-1.447-.188-1.045-1.314-.101-1.736.289-.635-1.223 1.219-2.439 2.604-2.604-.421 2.041-.557 3.058-.869 5.208-1.188-.748-1.23-.278-2.604 0 .482.575-.026.368 0 1.158-.649-1.002.451-2.75.29-3.472zM110.258 485.599c.417-.066.101-.864.578-.868 1.163-.102.764 1.358 1.448 1.736 5.483 1.012 9.878 2.66 14.758 3.184.458-.604.943-1.179 1.158-2.026 1.527-.478 1.625 1.604 2.315.29 1.038 1.661 4.164 1.057 4.341 2.314.547-.32 1.368-.369 2.026-.578.082.467-.274.498-.29.867 1.173-1.042 1.753 1.147 1.737 2.026.926.059 1.251-.484 1.447-1.157.742.028.465 1.078.869 1.446 2.201-1.895 1.697 2.327 4.34 1.736.339 1.603-1.018 1.682-.29 2.894-2.219 1.146-2.756 3.238-4.63 4.342-1.177-.265-1.398-.625-2.604-.29.075-.943-.344-1.393-1.158-1.446.253.418-1.022.608-.579.868-1.467-.007-3.825-.312-5.499-.29.09-.393.725-.24 1.158-.289-1.089-.732-2.702-.45-4.341-1.158-.099-.804-.844-1.575-1.736-2.314-1.71-.1-4.556-.783-5.499-1.158-.408-.161.02-.228 0-.578-4.124-.503-9.418-1.236-13.022-1.158.644-1.107-.41-1.268-.868-2.025-.365.999-.75.625-1.447.868.088 2.205 2.072 5.197 4.63 3.763.682.559-.569 1.579-1.158.867-2.589 1.956.994 4.541-.289 6.367.042 1.797 2.385 2.816 1.736 4.341.633.029 1.282 1.544 1.736 2.605-.851-1.101-1.095.24-2.315.289-2.594-7.157-5.811-15.206-5.498-24.31.234.056.288.29.579.289-.195-1.515.234-1.24.579-3.183-.589.966-.625.23-.579-.868.833.688 1.54-.603 1.736-1.447 2.291.526 3.05-.617 4.63.868-.744.911-.022 1.697.001 3.183zm-5.788 2.894c-.172.727-.232.97-.579 2.025.425.683.611.539.29 1.447 1.964-.192.713-2.55 0-1.736.854-.567.742-2.6-.29-2.894-.091.391-.412.553-.29 1.157.499.115.743-.428.869.001zM138.908 509.04c-.689-.63.591.146 1.158 0-.032.547-.957.201-.868.868-3.288-.009-2.961-1.05 0-.578.053-.247-.114-.274-.29-.29zM109.39 516.853c-.087.763.401.95 1.157.869-.448 4.305 3.907 3.81 4.919 6.655-2.713-.764-7.396-4.976-8.103-8.103-.171-.757-.235-2.552.579-3.183-.635 2.124 1.661 3.452 2.894 3.761-.244.85-.931-.172-1.446.001zM355.083 546.083c.103-.454.51.253.579-.29.528.318-1.452 4.347-.868 2.894-.161-.706-1.12-.616-.868-1.736.528.011 1.851-.612 1.157-.868zM283.314 100.998c-.19.389-.618.539-1.157.579 1.03.415 2.497.396 3.183 1.157-1.076 1.687-2.574-1.414-4.052-.289-.273-1.592.934-2.025 2.026-1.447zM288.812 253.796c.314.072.196.575.579.579-.237.917-2.242 1.314-2.025-.29.433.459 1.183.214 1.446-.289zM311.097 438.139c-.451.514-.815 1.115-2.025.867.282-1.009 1.312-1.856 2.025-.867z"/></svg>