<!DOCTYPE svg PUBLIC "-//W3C//DTD SVG 1.1//EN" "http://www.w3.org/Graphics/SVG/1.1/DTD/svg11.dtd" [
	<!ENTITY ns_flows "http://ns.adobe.com/Flows/1.0/">
]><svg xmlns="http://www.w3.org/2000/svg" width="640" height="640" viewBox="-91.397 -20.627 640 640"><path fill-rule="evenodd" clip-rule="evenodd" d="M138.729 47.849c-1.576 2.338-1.666 6.158-2.709 9.027-2.595-2.183-1.044-9.322 2.709-9.027zM129.7 51.761c-.248.85.424.779.301 1.503-.402.537-1.742.932-2.407.302v-1.505c1.044.242 1.158-.447 2.106-.3zM125.487 56.274c2.815 1.298.596 7.63 4.213 8.125-3.306.396-4.656-3.767-4.213-8.125zM113.451 56.876c-.586.618-1.672.736-1.806 1.805-.92.219-.885-.52-1.805-.3.482-1.113 2.037-2.45 3.611-1.505zM167.918 58.983c-.934 1.47-3.437 1.599-5.417 1.204.196-.307.692-.312.602-.904 1.903 1.257 3.48-1.04 4.815-.3zM111.043 61.39c.447.354 1.344.26 1.204 1.204-.881.309-1.507.404-.904 1.505-1.477.173-2.217-.391-2.407-1.505.84-.262 2.026-.18 2.107-1.204zM120.071 61.691c.093-.407.754-.249 1.204-.301v2.106c-.54-.461-.243-1.764-1.204-1.805zM104.724 64.099c-1.115.39-2.461.548-3.611.902.545-1.21 2.222-1.318 3.611-.902zM213.359 76.438c.623-1.312 1.761 1.832 0 1.204-.287-.562.901-1.007 0-1.204zM84.562 93.891c-.031.935.945.86.603 2.107-.937.268-1.403 1.004-2.408 1.204.706-1.187-.568-.921-.602-2.107.889-.315.883-1.523 2.407-1.204zM79.144 95.396c1.481.045-.658 1.842.904 1.806-1.784 1.526-1.619 5.001-4.213 5.718.364-2.312 1.276-5.957 3.309-7.524zM69.816 109.84c-.112.512.233.568.6.602-.039 2.074-3.343 1.698-3.309-.301 1.24.237 1.545-.461 2.709-.301zM272.944 114.656c.927-.46.927 1.964 0 1.504v-1.504zM68.611 118.567c.266.967-.991.412-.902 1.204.846 2.159-.751 5.18-2.709 6.32-2.787-.994-2.362-7.491-1.805-9.931 1.86-.722 4.385.012 5.416 2.407zM65 130.905c-2.763.848-2.664 4.558-4.815 6.021-.331-3.411 1.461-6.35 3.611-8.728 1.353-.05.816 1.792 1.204 2.707zM99.307 142.342c.787-.086 1.294.108 1.204.901-.656.193-.958-.852-.903.302-.408-.093-.249-.754-.301-1.203zM195.304 143.845c.684 1.25-.638.566-1.504.302-.962-.784 1.87.189 1.504-.302zM69.816 145.953c.916.652 1.361 2.597-.604 2.407-.328-1.333.511-1.496.604-2.407zM60.185 146.253c1.19.098.653 3.108-.3 3.01.081-1.023-.233-2.44.3-3.01zM215.767 161.601v1.204c-.709.387-.56-.04-1.505.3.032-1.036-1.037-.969-1.204-1.806 1.093-.371 1.916.23 2.709.302zM232.016 172.734c-1.44-.266-2.395.137-3.007-.3.635-1.157 2.992-1.749 3.007.3zM135.118 172.734c.485-.084.519.285.902.302-.533 1.464-.55 1.79-.902 3.611h-1.204c-.102-1.809.753-2.658 1.204-3.913zM207.642 172.734h1.204c-.077.793-.619.988.602.903-.044.658-.758.647-1.504.602.122-.724-.551-.654-.302-1.505zM268.129 173.939c-.091 1.153-1.231 2.386-2.105 1.806-.06-1.362.892-1.715 2.105-1.806zM112.849 195.907c.536-.181 1.249.882 1.504 0 .404.198.561.644.602 1.204-1.221.117-2.097-.111-2.106-1.204zM91.481 199.518c.942.562 2.092.918 3.011 1.505-.326 1.092-3.279-.032-3.011-1.505zM86.667 205.536c.253.751.395 1.613.302 2.709-1.729-.681-2.576-2.239-3.311-3.913 1.454-1.08 1.644 1.243 3.009 1.204zM112.849 212.158c-1.395-.633-2.342.79-3.61-.302.616-1.692 3.349-1.596 3.61.302zM101.413 216.371c-.665-.417-.901-2.26-.602-2.709.638.567 1.034 1.375 1.204 2.408-.35-.049-.536.066-.602.301zM113.451 219.078c-2.95.04-3.737-2.081-5.116-3.611-1.098-.268-1.603.531-2.107 0 2.207-1.886 6.309.706 7.223 3.611zM108.334 219.379c1.603.104 2.921.491 2.709 2.408-.97-.735-2.175-1.236-2.709-2.408zM151.067 220.884c.743.568-1.017 1.17-1.204 1.805-.864-.691.895-1.293 1.204-1.805zM148.66 221.787c.7.451.459.736.3 1.505-.787.084-1.293-.11-1.203-.903.514.012.779-.224.903-.602zM125.188 228.407c-3.266.334-7.271.133-8.728-2.708.383.409 1.474.463 1.505-.302.792.413 1.14 1.268 2.105 1.506.793-.339-.404-1.167-.602-1.506 2.217-2.281 4.102 1.873 5.72 3.01zM166.415 225.7c-.275.527-.56 1.045-1.505.901.374-.506.875-1.536 1.505-.901zM135.118 238.337c.915-.012 1.98-.174 1.806.904-.8.319-1.713.226-1.806-.904zM360.515 241.347c-.862.06-1.643.038-1.506-.901.698-.701 1.602-.075 1.506.901zM352.992 241.949c-.697.097-1.154-.048-1.503-.3.053-.925 1.62-.631 1.503.3zM343.363 247.667c1.091 1.123-.374 1.381.301 2.709-1.683.479-.118-2.291-1.505-2.107.071-.529.518-.686 1.204-.602zM317.482 248.871c.641-.325 3.533-.331 3.011 1.505-1.907.401-1.848-1.165-3.011-1.505zM363.828 250.074c.799.003 1.717-.113 2.105.302-.719.284-.894 1.114-2.105.902v-1.204zM368.039 250.074c.7-.096 1.156.048 1.505.302.086.781-2.035 1.045-1.505-.302zM340.955 254.287c.766.038 1.166.438 1.204 1.204-1.204-.099-1.671.537-3.008.302.351-1.195 1.944.412 1.804-1.506zM278.664 255.491c1.12.283 2.659.149 3.31.903-.822.914-3.398.781-3.31-.903zM372.551 256.694c.927.079 1.356.653 2.109.903-.576.751-1.307-.375-2.109.3v-1.203zM279.566 257.296c1.038.219.198.907 0 1.505-1.151-.557-3.717.304-4.215-.904 1.316-.089 3.583 1.026 4.215-.601zM317.482 258.199c.541-.039.635.369 1.204.301-.128.574-.858.545-.601 1.505-.771-.034-.597-1.008-.603-1.806zM310.86 259.403c-.05-.653 1.07-.137 1.506-.3-.037.54.37.635.301 1.204-1.163.261-1.07-.736-1.807-.904zM281.071 263.918c-1.197-.308-1.49-1.523-2.108-2.407 1.246-3.865 4.761 1.382 2.108 2.407zM303.94 260.307c.809.395 2.441-.034 2.105 1.504-1.263-.041-1.68.547-2.705 0 .339-.362.859-.546.6-1.504zM310.259 261.209c-.372.547-2.789.602-2.406-.602 1.397-.116 1.86-.501 2.406.602zM290.7 260.908c.613-.883 1.573.408 2.105.603-.434 1.312-1.446-.333-2.105-.603zM347.875 260.607c1.005.201 1.637.773 1.506 2.107-.74-.041-1.449-.046-1.804.3-.361 1.3.985 1.688.298 2.408-.693.698-.97-.557-2.105-.301-.417.485-.853.952-1.204 1.503 1.363-.825 1.472.771 3.012.603-1.889 2.364-4.124-.238-6.622 1.204-.522-.881-.961-1.847-2.105-2.106-.121-.721 1.369.167.902-.903.665.738 1.938.872 2.709 1.505.544-.697-.623-1.608-1.506-1.806-.007-.709.52-.886.302-1.805 1.391-.208 1.391-1.531 3.007-2.107-.695.944-.752 2.244-.9 3.009.916.014 1.168-.635 1.806-.902.122-.726-.55-.655-.301-1.505 1.633.233 1.913-.893 3.005-1.204zM378.871 261.209c.868.036 1.972-.165 2.407.302-.681 1.072-1.106 2.432-2.705 1.805-.175-.978.205-1.401.298-2.107zM297.319 261.811c1.405-.202 1.731.678 2.407 1.204-.592.571-2.631.039-2.407-1.204zM325.907 263.616c-.947.148-1.06-.541-2.105-.3.05-1.053 2.529-1.466 2.105.3zM357.206 262.714c.417-.591 2.553-.368 3.007 0-.192.304-.69.311-.6.901-1.412.309-1.711-.493-2.407-.901zM277.758 264.52c.395.307 1.11.294 1.505.602-.136.59-2.111.541-1.505-.602zM282.574 269.634c.574.129.755.648 1.505.603-.246.918-.847.723-.302 1.805-1.099.195-1.603-.202-2.105-.601.287-.615.615-1.191.902-1.807zM373.755 269.634c.535.271.88.728 1.505.904-.274 1.143-1.21.218-2.105.3-.218-.82.597-.605.6-1.204zM337.343 272.343c1.428.93 1.596 1.982 2.709 3.611.716-.188-.046-1.853.602-2.106 1.458-.054-.424 3.232 1.505 2.708-2.604.86-5.015-.877-8.426-.602 1.225.018 2.709-2.301 3.61-3.611zM371.951 274.148c.351.45 1.25.355 1.204 1.204-.942.14-1.344-.261-1.204-1.204zM370.446 275.955c.562.34 1.448.356 1.204 1.505-1.111-1.081-1.565-.112-2.71.3.433-.674.968-1.241 1.506-1.805zM335.239 278.664c.684.086.524 3.646.901 2.105 1.079.719-.883.893-.302 2.107-2.532-1.377-6.012-1.812-8.728-3.009 2.193-1.143 5.174-1.624 8.129-1.203zM368.641 280.469c-.249 1.57-2.143 1.218-2.708.3.267-.739 2.106-.815 2.708-.3zM361.718 280.469c.333.67 1.798.21 1.505 1.503-.354-.345-1.063-.34-1.807-.3-.037-.539.371-.634.302-1.203zM345.769 285.885c.302.414.498-.128.902.602-.268 1.116-2.706.685-2.106-.902h1.506c.055.255-.118.283-.302.3zM269.031 304.543c.632-.128.799.205 1.204.301.128.629-.205.797-.299 1.205-1.057-.134-1.278-.634-.905-1.506zM259.402 305.446c.202.957 1.048 2.342.604 3.01-1.011-.494-.622-2.389-2.108-2.406.045-.661.757-.648 1.504-.604zM250.075 316.58c.227 1.836-1.758 1.455-3.011 1.808-.364-1.874 1.744-2.533 3.011-1.808zM241.347 323.502c1.509.595 3.683.53 4.212 2.106-2.188.554-4.42 1.991-5.416-.604 1.692.235.777-.994 1.204-1.502zM235.929 326.209c.273.964-.211 2.728-1.805 2.709-.739-1.195-.08-3.178 1.805-2.709zM255.489 329.521c.787-.086 1.295.109 1.204.902-.787.084-1.293-.108-1.204-.902zM234.423 330.423v1.204c-1.421.373-1.691.893-2.706 0 .319-.923 1.606-2.012 2.706-1.204zM284.981 331.627c.454-.402 1.299-.097 1.807 0v.901c-1.164.263-1.071-.733-1.807-.901zM260.907 333.132c.349.252.806.395 1.506.302-.01 1.011.414 1.589.902 2.105-.255.447-.971.436-1.506.601.404 1.604-.42 2.164 0 3.912-.538-.037-.635.37-1.203.303-.648-2.844-.065-5.59.301-7.223zM233.522 334.936c-.42 1.284-2.118 1.291-1.805 3.312-.615-.289-1.19-.616-1.807-.905 1.229-.752 1.555-3.412 3.612-2.407zM255.191 338.849c-1.064-.242-.771-1.835-2.109-1.805.725-1.426 2.419.305 2.109 1.805zM322.598 339.75c.47 1.235 1.365 2.047 1.505 3.611-.811-.916-2.267-2.025-1.505-3.611zM214.864 340.052c.403.199.561.644.603 1.204-.351-.05-.536.065-.603.302-.703-.078-.173-1.322 0-1.506zM324.103 343.664c.881 1.125 1.727 2.286 2.106 3.913-1.542-.779-1.504-1.855-2.106-3.913zM254.587 345.47c.771.333.709 1.732-.601 1.506-.257-.961.263-1.145.601-1.506zM106.529 345.773c.61.338-.5 1.479-1.204 1.502-.127-1.03.902-.902 1.204-1.502zM105.024 352.994c-.976 1.13-.741 3.472-2.707 3.611-.134-.268-.265-.537-.603-.604.595-1.51 1.568-2.643 3.31-3.007zM97.502 354.797h.901c.258.962-.473.931-.602 1.506-.644-.45.217-.737-.299-1.506zM100.511 357.808h1.806c-.131.878-1.436 1.483-2.107.902.159-.242.313-.488.301-.902zM103.82 357.808h1.204c-.188.716-.404 1.4-1.204 1.506v-1.506zM99.909 360.215c.888.716-.364 1.823-.301 2.71-1.658-.053-2.107 1.101-3.31 1.502.457.846.628 1.981 2.105 1.807-.345 2.606-4.412-.09-5.114 1.804.589-2.858 4.329-6.653 6.62-7.823zM192.896 362.322c-1.418-.115-1.888.722-2.709 1.204-1.362-1.687 2.084-3.024 2.709-1.204zM102.918 361.721c.207 1.008-.505 1.098-1.204 1.204.036-.769.437-1.17 1.204-1.204zM156.184 375.562c-1.639-.031-2.343.867-3.913.905.024-1.876.087-3.798.902-5.117-.258-.743-1.115-.892-1.504-1.505-.264-.968.781-.625.902-1.204.007-1.412-1.938-.87-1.806-2.407-1.527-.161-.004 1.067-1.204.902-.726-.696.239-1.035.603-1.506-1.457-1.428-4.813.613-7.522-.299 1.776-.329 4.039-1.364 5.716-.603 2.008-1.12 9.633-1.496 13.242-.902 2.854.47-.516.383-3.009.601-1.268 1.976-.859 3.68-.904 6.021-1.421 1.135-.676 3.08-1.503 5.114zM166.714 363.526c-.066.936-1.497.509-2.407.604.069-.937 1.5-.511 2.407-.604zM79.144 365.63c.709.256-.249 1.322-.3 1.808-.527-.274-1.044-.56-.903-1.505.476-.025 1.146.146 1.203-.303zM75.232 370.449c.339-1.166.586-2.424 1.204-3.312.851-.248.78.426 1.504.302-.404 1.498-1.135 2.674-2.708 3.01zM291.001 368.038c-.454.353-.737.871-1.505.905.227-.653.731-1.682 1.505-.905zM462.533 368.34c1.372.13 1.438 1.573 1.805 2.709-1.46-.047-1.389-1.624-1.805-2.709zM71.622 369.845h.902c-.271 1.042-.89 3.238-3.009 3.31.123-.725-.549-.653-.302-1.503 1.401-.006 2.243-.569 2.409-1.807zM75.533 371.35h-.901c-.057.255.116.283.3.302-1.26.672-.434-.507-.3-1.505.439.262.951.451.901 1.203zM94.19 371.35c-.626.653-.972-.037-1.505-.301.027-.895 1.795-.805 1.505.301zM92.385 371.652c-.744.778.293 1.475 0 2.706-.942.062-2.209-.202-2.709.302-.092 1.738 1.232.501 1.505 1.505-.983 1.023-2.391 1.624-3.611 2.408-.032-2.855 1.888-4.454 3.009-6.921.632-.224 1.173-.224 1.806 0zM74.329 372.554c-.486.522-.827 2.093-1.805 1.204.396-.606.987-1.02 1.805-1.204zM142.039 373.155c.689.718.678 2.133.603 3.61-1.869-.003-2.743-.215-3.913-.298.396-.688 1.378-1.167.3-1.808.795-.708 1.29-1.719 3.01-1.504zM72.523 374.961c-.059 1.145-1.275 1.132-1.503 2.105-1.053-.033.072-2.599 1.503-2.105zM82.455 375.263c.85-.249.778.423 1.505.299-.34.464-.865.74-1.204 1.203-.944-.205-.393-.803-.301-1.502zM64.7 377.369c.527-.084 1.501.847 1.805 0 .652-.05.137 1.067.301 1.506-1.516-.314-2.09.317-2.106 1.502.268.346.84-.184.603 1.203-.327-.071-.205-.597-.603-.6-.152.84.412 2.858-.904 3.912-2.556-.351-2.41 2.003-3.309 3.31-1.355.221-3.064-.38-3.311 1.506-1.2.298-.907-.899-2.107-.604.754-2.786 3.821-4.177 4.816-7.523 2.015.086 3.425-2.704 4.815-4.212zM103.82 378.573c1.272.376.103 1.626.302 2.709-2.014.323-1.174-2.48-.302-2.709zM69.816 378.875c.359 2.348-1.86 1.654-1.505 3.309-.802-1.217-.216-3.618 1.505-3.309zM86.969 378.875h.901c-1.037 1.318-.116 1.956.302 3.309-.676.678-1.509-.019-2.107-.301-.24-1.548 1.354-1.255.904-3.008zM252.482 380.678c.628-.128.796.208 1.203.302-.105.395-.531.473-.604.902-.528-.072-.683-.516-.599-1.204zM79.745 380.98c.212.927.212.578 0 1.505-1.247.345-1.172-.634-2.105-.603.4-.6 1.336-.669 2.105-.902zM67.407 382.485c.269.134.54.265.602.601-.402 1.502-1.289 2.522-2.407 3.312-.724 2.868-1.518 7.136-4.213 8.124.637-3.564 1.65-5.921 3.913-7.522-.356-2.565.911-3.504 2.105-4.515zM252.783 383.99c.62.082.283 1.12.902 1.204-.423.682-1.219.989-1.505 1.805-1.779-.632-.438-2.607.603-3.009zM85.164 384.289c.536.77 1.602 1.008 3.009.905.133 1.338-.815 1.593-1.204 2.407-1.347-.36-1.766-1.648-3.009-2.108-.149-.949 1.493-.113 1.204-1.204zM247.064 384.892c.077-.706 1.321-.174 1.505 0-.236 1.055-1.051.349-1.505 0zM113.451 386.096c.37-.914 1.034.326 1.806 0-.243 1.111-1.24.249-1.806 0zM82.455 390.008c.708-.006.886.517 1.805.299.698.441-.588.955.602.905-.455.949-.818 1.987-1.805 2.407.25 1.798.208 2.416-.602 3.611-1.253.05-2.512.103-3.01-.604-.192-1.923 1.855-2.438 1.204-3.913 1.124-.994 1.799-.589 1.806-2.705zM55.671 390.911c.163.289 1.235.743 2.107-.302.44.262.954.451.903 1.203.632-.195 1.338-.796 1.806-.301-.004.6-.821.382-.602 1.203-1.037-.752-2.331-.488-2.709.905-.945.141-.794-.812-1.505-.905-.415.688-.613 1.596-.901 2.41-1.229-.177-2.532-.276-2.408-1.807 1.266-.64 3.709-.102 3.309-2.406zM249.169 391.511c.329.074.205.6.604.603-1.173 1.637-.498 3.328-2.105 4.215.634-1.142-.118-1.881 0-3.312.444-.558 1.554-.452 1.501-1.506zM253.082 393.016c.442.262.955.451.905 1.204-1.633-.426-3.312 1.063-3.614-.601.536-.364 2.112.339 2.709-.603zM58.078 395.423c.693.426-.021 1.963-.902 1.808-.309-1.214.468-1.338.902-1.808zM34.908 397.831c.69.236.292 1.863-.603 1.506-.258-.962.474-.931.603-1.506zM50.254 398.736c1.201.165.907.165 2.107 0 .05 1.254.104 2.51-.602 3.008-.973.373-.229-.974-1.204-.6-8.051 10.677-15.218 26.349-18.96 43.032-.34 1.523-.157 3.303-.601 4.814-1.055 3.583-2.717 6.917-3.31 10.53-.194 1.188.066 2.934-.302 3.913-.222.591-5.597 7.878-7.222 7.523-2.979-.646-1.138-5.331-.602-6.92 1.166-3.462 2.511-7.468 4.814-9.629 2.173-8.867 6.184-16.45 7.524-25.28 1.424-.883 1.58-3.035 3.01-3.912-.874-1.578 1.419-2.694.602-4.212 4.626-7.686 7.741-15.389 15.047-21.367-.624-.166-.636-.469-.301-.9zM59.885 400.54c-.313 2.168-2.008 3.27-1.505 5.418-.961.044-.893 1.113-1.805 1.204.174-.977-.206-1.399-.302-2.106.807-.198 1.145-.864 1.805-1.206-.628-1.255.381-3.139 1.807-3.31zM27.686 401.144c.645.678.703.227 1.204 1.202-.208.595-.802.804-1.505.902-.148-.948.541-1.063.301-2.104zM130.303 403.249c1.975.731 2.035 3.381 4.814 3.31-1.739 2.251-5.594-.147-4.814-3.31zM27.084 403.55c1.247-.044.914 1.493 1.204 2.407-.57.598-1.421.146-2.107 0-.154-1.255.684-1.523.903-2.407zM77.94 403.55c-.216 1.356.099 1.502-.3 2.407-.961.259-.932-.476-1.506-.604.241-.96.701-1.706 1.806-1.803zM29.491 403.849c.934.171 1.847.361 1.805 1.505h-2.107c-.095-.696.048-1.153.302-1.505zM243.151 404.151c.601.003.383.821 1.204.604-.256.444-.757.646-1.502.6-.128-.629.205-.797.298-1.204zM473.965 404.151h1.505c1.406 1.412.795 4.354-.301 5.72-.72-1.525-1.872-3.751-1.204-5.72zM52.662 407.761c.441.262.955.451.903 1.204-.268.233-.68.323-1.204.302-.122-.725.55-.653.301-1.506zM116.76 408.965c-.381.78-1.084 2.308-2.105 1.505.796-.407.452-1.953 2.105-1.505zM75.533 409.569v1.204h-1.504c.056-.846.523-1.281 1.504-1.204zM18.356 412.278c1.764.028 1.599.806 3.31 0 .137.939-.644.961-1.505.901-.115 1.018.521 1.285.902 1.805.054 1.057-1.015.992-1.204 1.807 1.272 3.331-2.107 6.535-2.105 10.531-1.964 1.95-1.356 6.469-3.611 8.127-.775 2.937-.907 6.516-3.009 8.124-.134-1.944.775-3.745 0-5.415 2.138-2.69 2.519-7.253 4.213-11.437 1.684-4.164 6.405-9.051 3.009-14.443zM105.326 412.577c.35-.803 1.597-.025 1.204.905h-1.204c.208-.243.468-.825 0-.905zM113.451 412.877c-.923.405-2.39 1.45-3.611.604.605-.898 2.645-.936 3.611-.604zM50.254 415.286c1.436.758-.7 2.82-.901 3.912-1.561-1.536.891-2.202.901-3.912zM151.969 416.791c.744-.82 1.423.968 2.407.902-.508 1.318-1.62-.645-2.407-.902zM52.662 417.092c.629-.128.797.206 1.204.299-.148 1.257-1.123 1.686-1.504 2.709-1.54-.445.392-2.062.3-3.008zM71.622 417.693c.241.158.489.313.902.302.139.938-.642.96-1.503.902.154-.445.443-.76.601-1.204zM128.798 417.995c.734-.812 1.963.429 3.311 0 .421 1.318.087 1.856-.602 2.708-1.375.069-2.103-.506-3.011-.901-.214-.753 1.325-1.239.302-1.807zM120.975 420.1c.323-.595 2.496-.514 2.105.603-.569-.332-1.421-.385-2.105-.603zM476.976 420.1c.525.276 1.046.56.902 1.505-.902.021-1.527-.887-.902-1.505zM112.247 420.703c-.443 1.462-2.115 1.699-3.611 2.106-.382-2.706 1.652-2.404 3.611-2.106zM52.06 421.907c-.901 3.512-1.461 7.365-3.61 9.629-.673-.221.801-2.568-.602-2.709 1.984-1.726.974-6.448 4.212-6.92zM252.18 422.507c-.252.352-.398.809-.303 1.505-1.352.915-5.221 1.648-6.018-.302.925-2.297 3.997-2.068 6.321-1.203zM69.212 422.208h1.204c-.024.426-.048.853.303.902-.441.803-1.652-.127-1.507-.902zM132.409 424.314h-1.806c-.164 1.064 1.065.74.903 1.804-1.671.205-4.878-2.015-6.622-.6-.661-.887-.51-1.023-.901-2.407 2.427-.908 7.017-1.736 8.426 1.203zM101.714 424.616v1.204c-.539.037-.634-.371-1.204-.302.262-.441.452-.955 1.204-.902zM127.594 426.721c2.427.383 4.591 1.026 6.32 2.105v2.408c-2.611-.998-4.537-2.684-6.32-4.513zM100.811 427.624c-.718 1.188-1.033 2.78-3.009 2.709-.686-.84.303-1.487-.3-2.408 1.241.037 1.883-.522 3.309-.301zM109.84 427.924c2.87 2.262.281 4.69-1.204 6.623-3.292-.485-2.681 2.936-3.912 4.512-1.783-.239-1.438.977-1.204 2.106-.258 1.347-1.64 1.57-1.806 3.011-.724.121-.655-.551-1.505-.302.621-2.814.399-5.446 2.407-6.32-.001-1.3-1.418-1.188-1.806-2.105-1.114 1.894-2.278 3.738-5.417 3.61.796-1.548-.262-2.901-.602-4.214.77.535 1.315 1.294 2.407 1.506 1.091-.312 1.916-.893 2.709-1.506a8.222 8.222 0 0 1 3.309 1.506c1.981-3.278 3.4-7.184 6.624-8.427zM104.724 428.227c.129.571.649.756.602 1.505-.574.127-.756.647-1.505.601-.501-.884-1.057-2.336.903-2.106zM244.657 429.128c-.106.396-.529.474-.601.902.513.013.777-.224.901-.601 1.191 1.238 4.69 2.619 2.71 5.117-3.412-.473-4.638-1.91-5.117-4.815.041-.86 1.254-.549 2.107-.603zM157.989 432.139c-2.443 1.235-1.949 4.83-1.505 7.521-.722.685-1.658 1.151-3.009 1.204-2.56 2.227-2.382 5.785-3.311 9.931.516.289.606 1.002 1.203 1.204-.129.473-.945.258-.602 1.204 2.3 1.112 3.311 5.488 2.407 7.224-1.093-3.902-2.46-6.326-5.417-8.727.008-.293.368-.233.602-.302-.708-2.626-4.432-2.364-6.921-2.407-.358-1.617-1.282-5.11-2.708-3.011-.434-.068-.106-.896-.602-.902 2.082-3.147 12.349 1.49 12.338-5.717 1.518-.675 3.308-1.371 4.514 0 .672-.13.122-1.483.301-2.107-.878-.626-1.855-1.154-2.407-2.106-.301-3.117 3.471-6.284 5.117-3.009zM66.806 430.933c1.083.215.423 1.414 0 1.807-1.025-.637-.113-.873 0-1.807zM46.946 432.438c.791-.091.987.417.901 1.204h-.901v-1.204zM46.946 434.845c1.572.933-.514 2.442-.603 3.611-1.205-.199-.874-1.935-.903-3.31.436-.163 1.555.353 1.506-.301z"/><path fill-rule="evenodd" clip-rule="evenodd" d="M137.224 436.652c.995.309 2.3.309 3.009.902 1.737-1.654 7.393-1.838 6.921 2.105-1.436 1.136-5.575 1.369-6.018-.901-1.114-.212-.751 1.054-1.204 1.505-1.587-.821-2.438-2.376-3.311-3.912-.706.096-1.129.476-2.105.301.456-1.53 2.759-2.752 2.708 0zM246.762 436.955c.939.783 1.91-.321 3.312 0 .143.945-.43 1.175-.604 1.804-1.455.252-2.127-.28-3.008-.601.235-.268.325-.681.3-1.203zM95.094 439.66c.456.75 1.182 1.226 1.204 2.407h-1.806c.09-.699.643-1.293-.302-1.502-.119-.722 1.371.165.904-.905zM44.237 441.467c.44.261 1.164.239.903 1.203h-.903v-1.203zM44.237 444.776c.218.921-.52.887-.302 1.808-1.227.125-1.897-.308-1.805-1.506.706-.097 1.13-.476 2.107-.302zM92.686 446.885c1.228-1.012 2.617.379 2.107 2.105-.91-.494-1.151-1.657-2.107-2.105zM161.6 448.088c-.191 1.113-1.69.918-3.009.902.037-.541-.368-.635-.301-1.203 1.444.099 2.522-.775 3.31.301zM111.343 448.991c-.978 3.657 6.39 2.649 4.515 7.222-2.512.205-2.717-1.897-4.213-2.709-3.565-.525-5.592 1.406-8.427 2.407.496-2.127 2.011-4.722 3.613-6.618.869-.147 3.102.108 4.512-.302zM40.925 449.292c1.074-.068 1.574.433 1.505 1.502-.725-.121-.655.551-1.505.302-.41-.386-.41-1.422 0-1.804zM59.885 449.591c.52.252-.134 1.85-.302 2.407-.382-.719-1.318-.887-1.204-2.106.384.41 1.475.467 1.506-.301zM448.987 449.892c.75.047.091 1.021 0 1.204-.923-.212-.574-.212-1.502 0 .156-.445.444-.759.601-1.204.242.208.825.47.901 0zM92.084 450.497c.745.768-.915 2.933-1.806 2.104-.031-1.334 1.563-1.045 1.806-2.104zM450.493 452.904c.296-.71 1.739-.271 2.109-.905.487-.05.606 1.968-.302 1.505-.04-1.434-.681-.398-1.807-.6zM137.825 453.503c-.194-1.026 1.879-.477 2.107.603 2.602-.307 5.001-.817 7.222-1.505.342 1.966 2.619 1.997 2.709 4.215h-1.805c.073.806 1.268 1.142.602 1.804-.896.013-2.405-.896-2.709.302-.381-2.028-2.267-2.548-3.912-3.312-.618.088-.601.806-.902 1.207-.4-.305-1.12-.286-1.204-.905-.773.031-.431 1.176-1.204 1.204-1.71-.796-2.034-2.98-2.709-4.814 1.133-.133 1.372.636 1.805 1.201zM89.676 452.904c.21 1.113-.476 1.327-1.503 1.202.387-.516.622-1.184 1.503-1.202zM40.625 454.708c-.966.265-.624-.781-1.204-.902.531-1.238 2.236-.132 1.204.902zM157.989 453.805c-1.178.326-2.221.79-3.613.902.366-1.051 2.63-1.431 3.613-.902zM59.583 454.708v1.505c-.722.382-1.303.905-2.105 1.204 1.152.565.083 1.132-.302 1.807-.242-.162-.488-.314-.903-.302-.025-.477.145-1.147-.301-1.204 1.266-.438-.163-3.573 1.806-3.309-.756 1.265 1.131-.47 1.805.299zM89.676 454.708c.742-.038 1.451-.044 1.805.302-.011.904-2.134.873-1.805-.302zM40.023 456.212c-.16.242-.314.488-.302.902h-.602c-.158-.243-.314-.489-.301-.902.823.029.607-.501 1.205 0zM108.936 458.921c-.72.181-1.373.433-2.407.302-.14-1.667 2.326-1.95 2.407-.302zM44.537 458.62c.981-.077 1.449.358 1.505 1.204-.633-.272-1.796-.01-1.505-1.204zM143.242 458.921c.333 2.302-1.873 3.453-3.61 2.709.941-1.166 2.153-2.058 3.61-2.709z"/><path fill-rule="evenodd" clip-rule="evenodd" d="M144.748 459.521c1.841.902 1.59 1.867 1.203 3.913.738-.268.327-1.679 1.506-1.505.58 4.148-4.213 5.377-6.622 7.523-2.604-1.688-4.941-.41-7.522-.3-1.78-5.834 5.889-5.809 10.231-6.923.587-.714.759-1.85 1.204-2.708zM88.173 469.754c3.037.557 7.573 2.282 5.716 5.716h-2.708c-1.162-1.745-2.108-3.706-3.008-5.716zM130.604 470.958c2.678 1.18 2.555 3.642 6.32 2.407 1.659-.543 3.6-2.976 5.115 0-2.702 2.423-8.225 3.409-10.532 0-2.961 1.655-5.663 3.568-6.622 7.223-1.125-.178-2.136-.47-2.105-1.805.515-.015.779.224.902.601 1.213-2.791 5.98-4.386 6.922-8.426zM18.958 471.561c1.167-.232 1.825 1.92.301 1.804.219-.92-.518-.883-.301-1.804zM5.115 472.463c-.184 1.021-.083 2.322-1.504 2.104.174-.976-.205-1.398-.301-2.104.704-.093 1.243-.591 1.805 0z"/><path fill-rule="evenodd" clip-rule="evenodd" d="M96.899 473.063c3.963 1.957 5.935 9.695 11.435 7.226.614.488 1.23.976 2.107 1.203.15-1.257-.88-1.328-.602-2.709 2.256 1.452 5.024 2.399 8.125 3.008.651.054.135-1.066.3-1.502 3.417 4.181 8.086 1.788 14.445 1.804-3.337.635-9.673 6.162-12.939.901-3.342 3.244-6.47-.089-10.835 1.204-1.215-1.396-2.547-3.576-5.116-2.706-1.592-1.418-2.468-3.552-4.513-4.516-1.801 1.101-3.668 3.431-6.922 2.109 1.77-1.009 4.39-2.415 3.009-4.817.286-.616 1.552-.255 1.506-1.205zM18.656 474.268c.63.273.918.889.904 1.806-.574.127-.544.859-1.505.602-.459-.55.141-1.862.601-2.408zM3.009 477.581h1.204c-.026.425-.05.852.3.9-.441.803-1.65-.125-1.504-.9zM18.055 478.18c1.671.889-.639 2.911-.902 3.011-.436-1.87 1.765-1.567.902-3.011zM2.106 480.587c1.778.128 2.413 1.398 3.31 2.406-1.521 1.593-.582 3.969-1.204 6.622-.777-.025-.317-1.287-1.505-.902 1.034-2.121-1.089-2.795.302-4.814-.78-.745-1.119.647-2.107.602.092-.695-.87-.334-.902-.902.327-1.379 2.09-1.319 2.106-3.012zM12.639 481.191c.59.413.163 1.844.601 2.407-1.061.312-2.042 1.032-2.707.902-.421-1.029 1.977-1.827 2.106-3.309zM107.131 484.5c.292.009.233.369.301.603-2.251 3.266-3.945 7.088-10.232 6.317 1.944-3.673 8.086-3.148 9.931-6.92zM17.453 484.801c1.213-.312 1.338.47 1.806.902-.483.753-1.776-.204-1.806-.902zM12.639 486.005c.399.635-.148.889.301 1.803-1.188.218-2.331.48-3.311.905-.518-1.227 1.785-2.22 3.01-2.708zM11.736 489.918c1.454 2.453-.91 6.04-4.214 5.716-1.304-3.93 3.507-2.578 4.214-5.716zM9.027 495.936c.444.155.758.444 1.204.6-.159.243-.314.489-.3.905-.652-.23-1.683-.731-.904-1.505zM38.518 516.7c1.497.511 2.966 1.049 3.311 2.709-1.079.467-2.107-1.697-3.913-1.505-.219-.822.599-.608.602-1.204zM20.464 529.039c-3.064-.851-5.7-2.129-8.125-3.611 2.716-.731 9.751-.943 8.125 3.611zM22.269 525.126c.85-.249.779.425 1.503.301-.707 3.875-.324 6.65-1.204 9.327-1.329-2.559.659-6.625-.299-9.628zM39.12 530.543c1.042.964 2.376 1.636 3.912 2.105-.567.535-1.214.993-2.407.902-.584-.921-1.234-1.772-1.505-3.007zM164.307 537.765c-.811.293-1.167 1.038-2.105 1.204-1.058.052-.991-1.018-1.806-1.204 1.271-.936 2.934-.615 3.911 0zM22.871 538.667c1.023.379 1.538 1.272 1.503 2.709-1.198-.206-.856-1.951-1.503-2.709zM29.189 546.19c-1.006 1.979.195 2.607 0 5.117-3.02.645-3.127 2.561-3.309 5.717-1.874-1.583-1.045-3.776-1.806-5.717-.42-1.069-2.127-1.487-1.505-3.011.825 1.101 1.737.255 2.408 1.506 1.533-.331.224-1.633 1.204-2.408.96-.258.931.473 1.505.604-1.298-1.22.295-3.26 1.503-1.808zM30.694 553.413c.942.783 2.008-.42 3.01.302.172 1.478-.391 2.218-1.506 2.407-.634-.769-1.517-1.29-1.504-2.709zM30.995 557.024c1.183 2.224.812 8.008-2.708 7.523.264-2.874-1.221-3.994-1.806-6.018 1.62.569 4.704.669 4.514-1.505zM119.771 565.453c-1.212-.396-2.917-.296-3.311-1.505 1.362-.278 3.465-.787 3.311 1.505zM82.154 568.762c1.533.441-.016 2.441-1.505 1.803.332-.772 1.733-.473 1.505-1.803zM144.447 571.168c-5.397 1.222-11.354 1.889-17.154 2.709-.659-.444-1.558-.65-1.504-1.807 5.493 1.391 11.851-1.151 18.658-.902zM33.402 572.972c-.517.094.392 1.045-.901.905-.385-.942.362-1.31.301-2.407 1.078 1.166.938 1.027 2.106 2.105.725.124.654-.55 1.505-.301.017.889.625.883.602 2.407-.35.252-.807.397-1.505.301-.388-1.317-1.364-2.045-2.108-3.01zM121.876 572.373h.602c-.285 2.88-3.468 1.972-5.417 2.105-5.053.345-10.998 1.213-16.551 1.505-3.658.192-7.525.771-10.233-.301 11.039-1.547 22.754-.737 31.599-3.309zM145.65 575.682c-.102 2.369-2.242 1.101-3.612 2.407-16.262.252-35.72 3.679-52.964 3.913-1.166-.44-1.361-1.849-2.707-2.106 17.501-1.011 38.149-3.212 55.671-4.214.476-.928 2.618-.311 3.612 0zM144.748 578.994c-2.191 2.622-5.477 2.233-8.728 2.707-11.551 1.688-28.712 1.818-39.422 3.312-2.934.407-4.815 1.477-6.019-1.205 17.331-1.519 39.342-3.664 54.169-4.814zM81.853 583.507c-.159.241-.314.487-.301.901-.977.175-1.4-.205-2.106-.302.099-1.416 1.667-1.277 2.407-.599zM83.659 583.808h1.505c1.146 2.161 1.875 4.744 2.707 7.223-3.683-.031-9.519-.51-10.833-3.913.901.702 1.751 1.46 3.31 1.506.325-1.538 3.993-2.318 3.311-4.816z"/><path fill-rule="evenodd" clip-rule="evenodd" d="M89.074 584.409c7.415 4.718 3.285 20.978 2.709 27.688-2.245 1.98-5.383 3.766-8.727 5.415 1.888-1.926 4.293-4.934 4.514-7.523 5.358-7.05 5.033-17.244 1.504-25.58zM74.631 618.114c3.525-.55 6.135-4.889 4.512-7.825 1.123-1.051 3.765-.207 5.117.303-.552 2.659-2.233 4.187-3.311 6.319-.921.119-1.483-.522-1.806 1.203h-4.512zM154.376 610.591c.353 2.391-3.264 2.046-3.31.3 1.353.148 2.257-.15 3.31-.3zM101.113 613.601c-.865 1.539-3.964.713-5.116.6 1.163-1.027 3.004-.025 5.116-.6zM93.29 614.201c.224-.678 1.687-.118 2.406-.3-.457 1.098-1.951.365-2.406.3z"/><path fill-rule="evenodd" clip-rule="evenodd" d="M157.387 618.114c-1.263-.444-2.293-1.115-3.613-1.505 1.376-2.202 4.441-3.446 5.719-5.418.066-.103-.893-1.307.601-.902-.253-3.051-.583-7.358-4.212-7.221-2.74.103-3.248 3.396-5.417 4.813-.093 1.012.401 2.61-.904 2.407-.462-1.907-1.225-3.882-1.204-6.32.083-9.118.602-17.438 3.009-26.48 3.905-.093 4.686 2.939 6.622 4.815 3.769-.441 4.108-4.317 6.62-6.018-.392-.635-1.991-2.859-2.407-1.506-.596-2.075-2.417-5.089-6.622-4.513 1.424-1.12 5.861-2.32 6.622-2.109 1.211-.575.629-1.33.3-2.407 1.122-.985 3.44-.773 4.514-1.803 1.361.571 3.656.97 4.515-.303-2.928-3.446-3.546-6.668-3.913-12.037 1.402.404 3.55.06 4.815.602 2.534-1.879 3.323-5.506 6.319-6.92-.74-1.808.768-2.458 2.107-3.011.037-.539-.369-.636-.301-1.204 2.247-.258 2.337-2.678 4.514-3.008-.134-.268-.265-.538-.602-.603-.12-.722 1.37.167.901-.902 7.469 1.583 10.776-3.888 17.153-5.117.181-.779-.119-1.082-.902-.901 1.809-1.198 3.09.712 4.213 1.203 2.269.405 2.63-1.952 2.107-2.708 2.481-.249 5.805-2.525 9.329-.902.543-.731.748-1.835 1.806-2.709-.478-1.661-.796-2.417 0-3.611.673.43 1.781.426 1.504 1.805.863-.709-.299-1.705.301-2.407-.199-.401-.644-.56-1.204-.602-.007-1.511.751-2.258 1.504-3.011-.872-1.8-.115-4.03-1.504-4.814.033-.768.55-1.051.902-1.505-1.068-5.291.949-11.173 0-15.346.801-1.509-.532-2.33.903-3.912.198-1.081-.97-2.334.301-2.709-.221-.28-.547-.455-.902-.602 2.083-3.505-1.146-8.577 1.504-12.038-1.861-4.105.053-8.36-.3-11.434 4.066-7.841-.248-19.769 3.611-28.59 2.199 2.393 1.839 6.787 2.708 10.531.998 4.308 2.854 8.192 5.116 10.836-.423 1.31-.725 1.904 0 3.008-.485.084-.516-.283-.902-.302.517 4.255-1.63 10.954-1.505 17.153.04 2.012.746 3.402.603 5.115 0-.018-.524-.568-.301-.901-.858 1.282.83 4.709.6 7.826-.127 1.771-1.498 2.957-.6 4.21-1.145-.441-.06 1.347-1.204.905.759 3.204 1.104 6.968-.901 9.328.071.327.597.205.6.603-1.94 7.462-1.767 20.092-1.505 27.685.162 4.606-1.735 13.337-.3 18.658.418 1.548 2.097 2.479 1.504 4.214-3.125.585-4.703 1.651-8.125.601-.679.168.365.47-.301.902-.896-.508-1.679-1.13-2.708-1.503-.884.74-.1 3.057-.903 4.514.457 1.747 2.43 1.98 4.514 2.105 4.549 4.264 13.637 1.859 19.86 2.107 6.494-2.198 12.039-1.72 15.349-6.319 2.65 1.086 4.634-.942 5.717-2.407.541-.041.634.367 1.203.299 3.446-2.557 8.053-3.092 9.629-6.92 3.614.003 4.128-3.096 7.226-3.61-.265-1.344.653-2.504 1.503-1.808.565-.572-.179-.545 0-1.502 1.458-.022 4.422-3.008 5.719-5.117-1.176-.932-1.387-2.827-2.407-3.913-3.636.203-6.36 1.564-9.331-.9-2.565.908-2.963 2.232-5.415 3.007-.254-.348-.397-.806-.301-1.505.893 1.29.974.232 2.105.603.302-1.004-.417-.986-1.204-.901.159-.243.314-.489.303-.905-.05-1.269.463.006.901 0 .184-1.123-1.21-1.463-.601-2.105.396.605.958 1.048 1.204 1.808 1.611-1.633-1.157-2.172-1.808-3.312-2.391.78-5.676-.355-6.622 1.807-.874-.847-1.731-.279-3.007 0 1.17-1.136-1.9-1.702-.302-2.407-1.757-.081-1.903.867-3.611.301.01.293.37.234.604.3-2.311 1.465-5.2 4.513-9.33 5.115-.629-1.845.45-3.794-1.203-4.813.342-.057.168-.302 0-.302.03-.765 1.122-.71 1.505-.3-.125-.728.55-.656.302-1.505.606.421 1.797.948 1.803-.603 8.737-1.673 11.304 1.177 17.153-2.709-.565-1.099-.087-1.375-1.204-1.805.172-.279.838-.457.303-.603.42-.78 1.558.221 2.105.301.245-.057.301-.301.604-.301-1.107-2.29-4.009-4.67-5.721-4.514.965-4.323-4.341-8.165-4.813-10.233-.532.069-1.506-.301-1.204.604-.896-.007.426-2.229-.902-1.808-.497-.127.028 1.123.302 1.203-.419.874-1.486-.083-1.807-.298.171-.682.47.364.905-.302-.535-1.492-.296-2.245-1.808-3.011-1.017.124.8 1.166-.6.905.083-.538-.286-.619-.302-.303-.404-.207.148-.801-.302-1.505.961-.176.93.566 1.505 0-.575-.646-1.57-.659-2.407-.301-1.032-1.083.172-1.972 0-2.709-.516-2.225-2.56-2.635-3.312-3.91-.295-.504.156-1.567-.298-2.407-.265-.484-1.319-.742-1.506-1.206-.603-1.481-.155-3.698-.901-5.415-.962-.444-1.711-1.098-2.407-1.808 1.234-.585.05-1.667-.604-2.105.398-.141.796-.144.604-1.505-.514-.109-.569.235-.604.604-.476-.206-.74-2.725.604-2.105-1.553-.508-1.409-2.458-.905-3.913 1.123-.321.974.632 1.505.901-.55-1.856-.202-4.612-1.804-5.418-.317.542-.131 1.315 0 2.407-1.145.444-.059-1.344-1.203-.9 1.384-3.03-1.21-6.861-4.215-8.729 4.487 1.53 11.368 3.348 18.055 4.214 2.79.362 5.219.532 4.814-3.312-.128-1.226-2.279-3.798-3.008-6.317-.826-2.854-1.57-5.062-3.309-6.621.016-1.086.749-1.455.901-2.407.433-.162.734 1.172.902.302.815.265-.252 1.334-.601.6.706 1.469 1.527-.967 3.008-.6 1.732 1.972 5.044-1.042 6.924 1.502 1.02-.927 1.062.09 2.705 0 .38-.074.306-.597 0-.6 1.829-.085 3.552-2.222 4.517-.303 1.231-.242-.159-1.237.6-1.804.66.044.647.756.604 1.503 4.171-.262 6.289-1.73 9.328.301-.321-.718 1.502-.712.902-.901 3.23 1.523 9.905-.924 12.338 0 .031.013-.37.485-.299.601 3.219-.202 6.882.739 9.629-.902.784.239-.858.504-1.203.604.606 1.169 2.09-.155 3.007.902-.336-1.235 2.576.117 2.109-1.506 1.173.55 2.646-.769 3.61.302.062-.517-.513-.78 0-.902.803.299 1.385.821 2.105 1.204-.696-.441.589-.955-.6-.905.202-.83 1.576.84 1.203-.902 1.17.236 2.455.354 2.706 1.506.88-.273.087-1.107.604-1.203 1.394-.259.313.472.902.6.245-.056.301-.302.604-.299.992-.451-1.009-.354-.604-1.203 1.145.243 3.529 2.74 4.214.6.883.641.062 1.12.902 1.808.286-.196.117-1.369.901-1.808 1.11.152.013 1.59 1.204 2.106-.221.537-.548.043-.902 0-.103.606.062.941.604.905-.514 1.567-.703-1.027-1.506 0-.093.792.629.773 1.204.901 1.741-.645-.476-4.786 2.105-3.61-.093.516-1.045-.393-.901.901 1.558.7 3.113-.105 3.611 1.808-.533.556-.934-.078-1.205-.604-.792-.086-.235 1.17-1.203.902.545-.942-.093-.152-.902-.6-.245.056-.301.302-.604.302-.608.963 1.192.938.303 1.203.628-.373 1.816.292 3.309.601-1.014-.942 2.81-3.512.303-5.117-.558.047-.188 1.021-.604 1.204-1.371-1.198-2.73-.557-3.31-2.407.448.679 1.491.896 1.808-.299.942-.143.794.81 1.502.902-.672-1.133-1.353-2.259-1.804-3.611 1.39.653.647-1.819.302-2.709 1.315-.42 2.161 1.981 3.91 2.105.077 1.499.127 1.282.301 2.407 2.709-1.614 3.409-4.409 7.524-3.61.712-1.873 3.24-.367 3.912-3.611 1.639-.152 2.215.071 3.008-1.203.992.012.722 1.287 1.807 1.203.517-1.633.998-5.564-.902-5.116.032-.565.995-.208.902-.902-.296-.842-.802.438-1.203-.301.793-1.839-.159-1.882.301-4.212-1.717.155-1.228-4.348-2.406-4.214-.921-.557.345-1.431 0-2.407-1.63-1.527-.7-6.019-2.709-6.32-.265-.968.991-.41.901-1.204-1.119-3.865-2.886-6.516-3.913-9.028-1.788.149-2.681-.314-3.908 0 .089-2.081 1.729-.827 2.706-2.105-.109-1.207-.106-2.028.603-3.008-1.032-1.654-2.296-2.108-2.407-5.116-1.53-.522-2.128-2.007-1.807-3.011-.76.259-.76-1.235-1.804-1.506.531-9.881-3.126-19.003-4.815-28.585.622.615 1.412.6 2.106 2.104 4.643 10.06 8.45 25.277 12.938 35.812.081 2.025.558 3.657 1.505 4.814-.006 3.419 1.941 4.88 2.106 8.124.899 1.21 1.005 3.21 2.108 4.214-.427 2.044 1.31 3.687 1.506 6.02.262.232 1.331-.115 1.203 1.203-.669.164-.43-.575-.904-.601 1.243 5.677 3.041 14.111 4.516 21.666.961 4.93.793 10.493-.604 15.646-1.546 2.062-3.217 3.758-2.709 6.622 2.854-.864 7.81-1.266 9.633-.901 2.668-4.653 10.12-4.525 11.735-10.232 2.592.376 3.881-4.448 6.318-4.215-.143-1.527 1.845-.874 1.204-2.105 1.443-.031 2.021-3.07 4.214-3.31-.003-2.649.782-3.835 1.204-5.418 5.26-.467 7.813-5.791 11.131-6.319-.131-.445-.383.121-.901 0-.09-.794.417-.986 1.203-.902-1.287-.532 1.596-2.696 2.108-1.505.042-3.191 3.247-5.487 5.717-7.223 2.884-4.641 5.885-5.812 9.03-9.931 1.694-.019 3.347.311 3.909-1.505.171.311.295 1.193 1.203 1.505-1.083-1.063.775-2.137.604-1.505.135-.498-1.048-1.627.302-1.804-.373.755.892.802.601 1.804.681-.168-.365-.47.302-.902.711.454 1.477.09.902 1.203.849-.351 1.277-.059 2.108.302.115 2.343.012 2.679 1.502 2.71-.106.395-.529.473-.6.901.276.525.938.662 1.803.601-.594-.595-.594-1.322 0-.299.84-.264.998-1.21 1.204-2.108 1.811.554 1.61-2.249 2.407-3.31.541-.716 3.879-1.813 2.709-3.611 1.216.336.749-1.229 1.204-1.807.104-.134.814.143.905 0 1.488-2.352 2.513-6.295 3.909-8.426.272-.414 1.008-.181 1.203-.6.088-.184-.441-1.12 0-1.808a5.156 5.156 0 0 1 2.71-2.105c-1.052-1.512.224-2.948.603-4.215 1.573.464 2.442 2.097 1.804 3.913-1.113-1.607-1.234.604-1.203-.601-.535-.616-.853 1.537-1.506 1.805.581-.128 1.089.208.604.301-.028.337 1.833.057 1.808-.6.682.32-.865.911-.604 1.804-.514.111-.57-.233-.604-.601-1.262 1.344 2.011 3.008-.6 3.31.074-.327.597-.205.6-.604-.311-.578-1.191.79-1.502 1.204.271.821.673-.915 1.204 0-1.785 3.72-6.507 4.459-6.622 9.33-.326-.074-.204-.601-.6-.604-1.432 2.737-3.936 4.642-4.215 8.128-.629-.128-.796.205-1.203.299.516.771-.346 1.054.302 1.505-.639.87-1.914 1.098-2.71 1.807.004.597.821.383.601 1.203-.685-.083-1.129.072-1.203.601.049.354.55.256.905.303-1.674.858-2.296 2.534-3.312 3.309.093.411.756.252 1.203.302-.279.812-1.355.541-.298 1.203-.39 1.521-1.684 2.131-3.312 2.407-.224 2.986-3.263 3.157-3.913 5.721-1.141.242-3.038 1.306-3.31 3.309-2.892 1.035-5.398 5.017-9.028 6.32.295 1.396-.39 1.816-.6 2.709-1.661-1.469-.947 2.37-3.011 1.203-.038.467-1.055 1.745-.299 3.008-.735-.631-1.55.476-1.506-.6-1.278.913-2.218 1.303-2.106 3.007-.379-.074-.304-.597 0-.6-.581.031-2.357 1.445-3.011 2.406 3.721.505 5.339-2.668 7.524-5.115.292.009.233.366.302.6.952-.752 1.537-1.872 3.31-1.804 2.379-2.534 5.21-4.622 8.124-6.622 4.12-4.506 8.062-9.193 12.039-13.843 1.906-.097 2.597-1.412 2.706-3.31.821.221.606-.598 1.203-.601 1.036-4.684 5.033-6.403 6.021-11.134 1.96-.147 1.377-2.834 3.31-3.012 1.075-4.743 5.471-7.769 5.717-12.338 2.264-3.353 3.978-7.259 5.418-11.437-.034-.574-1.008.354-1.808 0 1.015-2.102 1.851-3.828 3.312-4.813-.221-.28-.548-.455-.905-.601.532-1.241 1.788-.824 2.108.298.961-.69-1.412-2.167-1.806-1.502-.71-.084.345-.806.301-1.203-.649-.679-1.025.249-2.105 0-.843.295.436.802-.302 1.203-.581-.625-1.26-1.15-2.105-1.505-.765-2.616 2.05-5.107.6-6.019 1.917-1.241 3.108 1.801 4.515 2.407.307-.196.311-.694.903-.604.274.666 2.079.598 1.204 1.506 1.761-.346 2.73-1.484 3.61-2.709 4.1 1.947.182 6.643 2.408 10.533.047.747-.473.931-.604 1.506 1.058.072 1.234 3.017 2.408 3.909 1.019 3.428-.656 6.818.603 9.331-1.452.05-.634 1.735-.902 2.407.075.379.597.306.6 0-.076 1.819.735 5.394-2.405 5.717.275.336.559.097 1.505.302-.69.112-.401 1.203-.902 1.505 1.664.115 2.846 2.572 5.112 3.008.558-.525.037-1.045-.901-.902.819-.883 1.696.893 2.104.604.384.915-.133 2.105-1.5 2.105-.209 3.381-4.153 3.677-4.518 6.019-.604.104-.939-.062-.9-.6.334 1.306-1.479.927-1.507 1.203-.108 1.079 2.467.861 1.204 2.706 1.177.609 2.473 2.295 3.913 2.709-1.53 2.302 1.197 3.524 2.104 6.319 1.406.202 1.733-.678 2.411-1.203-.264-.89-.45.7-1.208.302.875-.834 1.687-1.726 3.313-1.808.155 1.652 1.431 2.181 2.407 3.011.598-.379-.473-1.623.302-2.407-1.063-.715-3.005-1.744.601-1.807.133.268.265.538.604.604-1.307 4.08.165 6.926 3.611 6.92.64 1.075-1.011 2.229.6 2.709 1.341-.451-.495-.538.303-1.204h.603v181.462l-326.211-.001zm296.116-161.902c1.92 1.674 2.579 3.813 2.407 6.32-1.042-.24-1.271.332-1.806.6.055-.656-.246-.954-.902-.902-.532 1.692.56 1.97 0 3.012-.06-1.012-1.867-1.154-1.805 0 2.854.451 4.298 2.32 6.619 3.309.685-1.415 2.462-2.843 1.203-5.116-1.109.464-.317 1.086-1.203 1.505-2.103-3.847-1.729-12.247-1.805-16.25 1.533-1.775 3.191-3.428 3.31-6.622-1.765-1.545-3.465-3.153-5.717-4.211.741 1.359-1.338 2.125-.302 3.31-.414-.013-.662.143-.901.302-.348 2.811 1.995 3.884.901 6.32-.528.174-1.77-.365-1.807.301.366.034.713.087.604.601-.445-.61-2.744.488-1.808 1.203.02-.316.387-.236.302.303-.302 0-.357.242-.6.302-.619-1.382-1.773-.57-3.312-1.204-.532 2.009-2.015 3.691-.303 5.415-.28.323-1.106.093-.9.901.59-.087.597.408.9.604.054-.451-.104-1.11.303-1.203.339.062.47.332.603.6-.407.299-.603.806-.905 1.207.297 1.773.761 4.896.303 6.618.69.314 1.816.193 2.407.604.846-1.328 1.763-1.922.604-3.611 1.312-1.072.081-3.438 2.104-3.61-.584.118-.438-1.371.303-.905-.363.773 1.608 1.634 1.203.297zm-55.672.903c-.401.047-.908-1.222-1.204-.299.828.441.636.634-.301.299.221.82-.597.605-.6 1.203.413-.012.659.144.9.302.051-.868 2.229-1.16 1.507-1.804-.019.184-.047.354-.302.299zm.603-.601c.396.004.274.525.6.601.082-.619 1.332-.072 1.205-.902-.953-.451-2.371-.373-2.71.604.413.011.662-.145.905-.303zm43.332 1.203c.864.062 1.529-.077 1.807-.603-.623.183-2.089-.485-1.807.603zm12.039 1.506c-.339-.065-.47-.336-.603-.604.279-.32 1.109-.093.902-.902-.847.057-1.282.523-1.205 1.506.52-.121.773.445.906 0zm-14.446 2.407c.346.946-.473.731-.602 1.204 1.631.273 3.009.802 4.515 1.203.258-.939.88-1.297 0-2.108-.441.137-2.764-.286-3.009.905-.151-.592.656-1.923 0-1.204-.123.514-.388-.065-.904 0zM179.656 564.248c2.236 1.199 4.452 1.793 7.222 1.805.958-.797-.211-1.96 1.504-2.104-.953-2.59-7.891-5.747-8.726.299zM126.691 0c-.277.891 1.634 1.581-.902.903.032-.569.995-.208.902-.903zM121.576 64.4c2.384.515 4.378 2.885 7.522 3.311 1.818.246 5.063.236 7.223-.302.304-.076.222-.888.3-.902.354-.066.185.6.302.603 1.084.004 1.979-.905 3.009-.904 1.291.003 2.33 1.184 3.611.904.152-1.362-2.371-2.643-2.407-4.816-1.971-2.54-2.273-8.088-.302-11.134 1.384-2.136 4.363-2.458 4.815-4.513-.253-1.352-1.519-1.692-2.409-2.407.543-.763 1.478-1.132 2.409-1.505.816.488 1.696.913 2.106 1.805.802-.28.981-2.179 2.107-1.204.049-.351-.067-.535-.302-.602.619-.686 2.599-.01 3.312-.602.375 2.735-8.336 8.518-3.312 11.134.522-3.791 3.717-4.909 4.815-8.125 3.358-.044 6.118-1.289 9.029-1.204.353-.048.253-.549.3-.902 4.165 1.118 7.562 1.216 12.038 1.805.407-.295.39-1.015.902-1.204 3.55.63 2.138 4.07 0 5.115.92 1.249 2.689-.327 3.913-.602.435-1.137-.828-.577-.603-1.504 1.299-.381 1.109.529 2.408-.302-.924.898.89.386 1.204.904-.131-.371-.384-.619-.902-.602.356-.62 1.303.314 1.806-.602.83-.129.281 1.121.901 1.204.667.165.43-.576.904-.602 6.05 2.175 11.005 5.446 16.551 8.126-1.476.405-1.849.357-3.311.3-.58.031.468 1.121-.3 1.505 4.304-.776 6.594-1.425 9.329.602-.01-.292-.369-.235-.602-.302 1.19-1.072 1.414 1.381 3.009.904 3.821 5.708 13.758 5.299 15.949 12.638 5.715-.664 4.549 7.04 9.929 5.718-.096 1.317 1.077.447 1.808.901 2.333 1.456 3.147 4.743 5.116 7.524 2.774 3.922 6.587 6.545 9.931 9.931 1.53 5.225 2.494 9.157 3.008 15.348 1.679 1.631 4.339 2.283 6.019 3.913 1.223 3.908 2.652 8.317 1.505 12.94-2.043.91-.964 3.359-2.407 4.514 1.475 5.603.551 13.442.604 21.366-.635.469-1.092 1.117-.905 2.407 2.037 2.078 2.806 5.421 4.215 8.126.114 12.688-4.398 21.513-6.32 33.403-2.535 3.383-4.376 7.458-7.825 9.931-1.092-.942-1.636.589-2.407.902-.248.85.426.78.302 1.505-1.203 2.104-3.061 3.558-5.116 4.814-.747 2.524-1.055 4.559-2.706 6.621.918 2.733.532 5.494-.302 8.427 2.858 6.192 1.512 15.347-3.312 19.26.168 11.883 3.355 22.25 5.72 34.004 1.203.1 1.789-.418 1.805-1.503.979.698 1.563-.985 2.709 0 1.271-1.619.202-3.855-.902-4.814 1.287 0 .23-2.013 0-2.408 1.073-.865 1.776-.593 3.007-.904-.366-2.275 1.463-2.35 1.505-4.212 4.688.738 6.327-3.831 8.427-5.417.246-.187.675.245.603.3 2.678-2.037 4.233-2.978 7.223-4.514.311-.161.432-.593.603-.903 2.716-.195 5.31-2.055 5.717 1.505-1.526-.524-.699 1.305-1.807 1.204-.062-1.031-.992-.905 0-1.505-.168-.281-.837-.456-.299-.603-.688 1.225-5.498.921-5.418 3.913-2.189 1.324-5.881 2.741-6.319 4.815-.255.446-.756.646-1.506.602-.249.851.426.779.302 1.503-.725-.122-.652.551-1.505.302 1.844 1.026-.604 2.72.301 4.814-1.414.192-2.279.932-3.61 1.204 5.648 2.717 13.23.341 19.861 0 7.089-.362 13.011.162 18.356-3.31 3.605.787 9.483.276 11.437-2.708-2.653.045-4.416-1.798-6.018-3.611.655-.902 2.379.168 3.309 1.204.13-.596 1.695-.957.902 0 1.422-.106.283-.902 1.204-1.505.594.558 2.217.447 1.807-.902 1.123.619 1.474-.521 2.708-.602.122.58 1.166.238.903 1.203 2.164.159 3.408-.603 5.115-.903.579-.03-.466-1.122.299-1.504 1.045-.482 2.313 1.129 2.41-.302 1.186.72 2.156 1.655 3.611 2.107-.128 1.077-.961 1.448-2.108 1.504-.013.515.224.78.603.904-.13.673-1.483.121-2.105.3-.302 1.504.934 1.474.902 2.709-1.453 1.759-3.556 2.864-6.019 3.611-.407-.939-.264-1.589 0-2.408-1.082-.522-2.998-.212-3.312-1.505 3.049-1.362 5.15 2.143 7.226-.602-.339-.696-1.167.426-1.506-.602-.708.095-.181 1.427-1.203 1.204-.051-.952.799-1.004.6-2.105-1.324-1.334-3.113-1.083-5.116-.602-.218.92.52.884.302 1.805-1.61-1.391-1.16 1.29-2.406 1.204 1.259 2.608 1.542 4.523 3.01 6.62-6.146 1.529-15.06.125-19.262 4.212-.466 3.084 1.839 4.634 4.215 3.913 2.481 2.224 11.57.122 15.647 2.408 1.851-.843 2.951.685 4.814 0 1.798 1.213 4.236.314 6.019 1.806.292-.008.233-.369.302-.602 7.33 2.194 13.663 4.147 21.668 5.718 4.511 6.521 10.672 11.395 15.647 17.453 3.456.128 3.938.118 6.92.302-.344.355-.338 1.063-.298 1.807-.75-.047-.934.474-1.506.601.547.765 2.255 1.944 3.008 1.506.713.392.582 1.626.905 2.406 1.275.175 1.2-1.007 2.105-1.203 1.004 1.804 3.244 2.373 3.611 4.814.094.407.753.249 1.203.302.622 1.574.479 3.039.601 4.514-12.067-4.482-19.028-14.071-27.382-22.27-6.55-.986-13.61-3.257-21.67-4.815-6.621-1.281-14.428-3.548-21.363-5.116-4.087-.922-9.032-1.615-12.64-.902 4.615 5.48 8.366 9.996 13.24 15.047-1.063.65-2.42-.982-3.31-1.505-.473.131-.258.945-1.203.601.097.709.476 1.132.299 2.108 1.318-1.229-.215 1.421.301 2.709-.528-1.272-2.716-3.163-.902-3.913-.311-1.11-1.194.038-1.505-.603-.109-.511.236-.566.604-.601-.899-.606-1.338-1.673-2.108-2.408.009-1.57-1.167-3.69-1.805-4.813-2.18-3.843-5.169-6.535-7.523-9.631-1.539.166-1.533-1.543-2.709-.904-.622-2.216-4.572-4.215-6.319-3.31-.747.047-.931-.473-1.503-.602-2.308.262-6.08 1.193-5.417 4.815.319 1.754 2.015 2.553 3.007 3.911 2.252 3.079 4.746 6.298 7.825 9.629 3.984 4.308 9.449 10.258 13.24 12.941.396 1.365.181 2.936-.601 3.913-1.794-2.535-5.818-5.515-6.018-6.924-.075-.376-.601-.302-.604 0-5.337-6.397-11.087-12.385-15.345-19.86-.978.228-1.91.5-1.808 1.806-1.872-.605-3.972-2.217-6.018-.903 1.19 2.118 3.163 3.457 4.214 5.718.205.809-.621.581-.905.902.306.4.287 1.119.905 1.204.492-1.715 2.112-2.299 2.706-3.91.646.236 2.211 1.092.905 1.502 4.221 2.592 3.938 9.651 7.822 12.641-.98 2.637 2.158 4.933.604 8.124 1.337-.436.513-.05.901 1.206-.37-.134-.619-.386-.6-.905-.619.085-.604.806-.905 1.204.093.41.756.252 1.204.302-.34.463-.865.74-1.204 1.203.69 1.176.836-1.347 1.505-.301-1.038.901-.7 1.666-1.804 2.108.809.084 1.671 1.932 2.407 3.008-.954 3.405-3.468.32-3.912-1.804 2.074-1.055.755-3.764-.902-4.517.131-3.315-2.631-7.741-2.709-10.833-2.306-1.163-2.401-6.988-5.116-8.728-.766.037-1.167.438-1.204 1.204-.557-.646-1.772-.635-1.505-2.106-.306.196-.312.691-.902.602.937-2.032-1.935.015-1.505-2.106.581.719 2.45.853 3.01 0-1.355-.451-2.143-1.468-3.312-2.105-.149.915.286 3.512-1.505 3.61-.703-.313-1.261-2.332-.601-3.01-.168-.677-.47.367-.902-.298-.006-1.007.762-1.246 1.204-1.807-.168-2.512-1.979-3.695-2.109-5.718 3.623.135 5.629-2.935 6.021-6.922h1.203c-.444-1.446.75-1.255.602-2.408.708 1.019 2.192-.872 3.912 0-2.781-2.01-7.778.053-8.728 2.709-.827-1.463-2.286 2.604-3.011 3.01-.638.357-1.499-.361-1.203 1.505-1.319.219.242-.599-.601-.603-.821.277.42.941 0 1.806-.746-.775-1.073.203-1.506.602.132.446.386-.118.902 0-.407 1.559-.335 3.376-1.203 5.716a24.748 24.748 0 0 1-.902-.902c-.572.8-1.335 1.968-1.804 3.611.484.88.951.118 1.502.604-.696-.442.588-.955-.601-.906.541-.877 1.981.828 1.204-.901 1.337.628.762 2.979 1.804 4.513-.065.436-.896.105-.902.603-1.377-.628-2.167-1.844-2.709-3.309-.706.093-1.129.472-2.104.298-.461-1.141-1.618-1.592-2.106-2.707-.752-.051-.942.461-1.203.903-.847-.005.715-.821-.604-.602.652-1.057 1.919-2.758.302-3.612-1.204 1.193-3.136.092-3.611-1.204-.448.255-.435.968-.603 1.505.849.456.854 1.754 1.505 2.408h1.807c-1.014.71-.603.984-.603 2.709-1.245.146-1.083.47-1.506 2.105-.747.497-1.375-.933-1.502.902-.899-.104-1.099-.908-1.506-1.503-1.822.688-3.079 3.537-3.312 4.815-.525-.031-.622.593-1.502.901-.056.85 1.129.7.299 1.505-.353-.05-.252-.55-.299-.904-1.621 1.35-3.764 3.163-5.116 5.115-.734 1.062-1.005 3.023-1.808 3.913-2.87 3.186-5.691 7.425-8.725 10.833.185-.267.364-.538 0-.601-.528.877-.656 2.153-1.806 2.407.506 1.819-.631 3.496-2.106 4.215-.236-1.241 1.441-.566 1.204-1.807-1.359-.921-4.261 1.987-3.611 3.912-.029.572-1.174-.187-1.204-.604-2.521 3.183-4.026 4.404-10.231 5.72-2.263 1.471-5.123 3.875-8.727 3.008-4.491 1.747-8.61 4.547-14.746 3.011-.595.208-.802.802-.904 1.505-1.11-.242-.249-1.241 0-1.807-1.221.933-1.447 1.26-1.805 2.709-2.184.688-2.262-1.359-4.515-.604.604 1.35-.498.427-1.204 1.506 1.295.127-.648.898-1.504.901-.333.003-.389-.861-.602-.901-.162-.031-.695.562-.602.603-2.664-1.147-6.108-6.024-8.427-6.621.219-.92-.519-.886-.3-1.807h-1.204c-.726.524-.591 1.505-2.108 1.807-.965.265-.624-.781-1.204-.902-.485-.087-.518.283-.901.299-.263.967.461.942.901 1.207-2.411 1.396-1.385-3.48-3.009-4.517 1.14-.065.955-1.452 2.407-1.203-.731-.407-.188-.601-.602-.902 1.276-.964 1.265 1.935 2.407 2.105.061-.716.89-.143 1.806-.302-.475-2.742-2.418-2.976-3.31-5.716.401.301.591.814 1.204.901-1.649-1.216-3.204-6.466-5.718-3.913-.574-.027.239-1.119.3-1.502-3.308-4.224-9.092-7.551-11.134-12.039-.47-.631-1.055-1.15-1.806-1.503.107-.395.53-.475.602-.904-.367 1.098-1.618-.898-1.806-.902-.156-.003-.903.769-.602.902-2.33-1.029-2.749-3.851-5.417-5.113-.316-3.136 1.39-5.959-.602-7.225.26.167-1.234 1.767-1.204 0-.286.619-.972.837-1.505 1.203-.167-1.079-1.695-2.208-2.408-3.611-3.222.737-5.337-2.827-3.009-5.115-1.173.444-.959-.072-.3-.602-1.21.456-2.367-1.006-3.913-1.806-1.841 1.614 1.173 5.574-.602 8.427-1.303-3.368-.734-5.584-2.107-8.729.653-1.594 1.545-1.634 2.107-2.105-.008-.292-.369-.233-.602-.302.296-.484.802-.692 1.204-.3-.9-1.225.016-2.564-1.505-2.406.221-.282.547-.458.903-.603-.52-.885-.529-2.28-1.806-2.409.106-.395.53-.473.602-.902-.54-.039-.635.369-1.204.302.777-.485-.226-2.551-.602-1.807-.179-1.119.16-2.985-1.805-3.009.02-3.02-2.395-7.296-1.806-10.833-1.775-4.445-6.035-6.404-9.028-9.63.017-.987.857-1.15.602-2.408-2.301-4.571-8.851-7.463-6.318-14.144.703.1 1.243.362 1.806.602 1.884-2.57-1.756-3.792-1.806-6.318h-1.204c-.905 1.415.78 3.633-.301 5.417-3.448-1.816-5.231-6.051-5.417-10.233.268.134.539.265.602.603.566-.113-1.186-1.6.602-1.504-.346-.88-1.933-2.279-.602-3.009.156 1.969 2.221 4.042 2.407 6.922.851.047.702-.905 1.505-.904-.281-1.266-.091-1.443-.602-2.709.243.058.299.304.602.302-.275-1.631-1.743-2.802-2.406-4.815-1.03-.227-.383 1.222-1.506.902-.684-.904-.233-2.683.602-3.009-.782-1.324-1.262-2.95-2.107-4.213-.905.789.521 4.142-.602 4.815-1.375-.301-3.475-3.874-2.407-6.62 2.019.361 2.848.854 5.116.3.212 1.224.75 2.584.3 3.612 1.145-.121 1.143-1.383 2.409-.603 1.065-.239.356-2.251 1.805-2.106-.191-1.939-.338-2.195.603-3.61.943.733 2.838.166 3.911.602.58.907-.764 1.068-1.504 1.204-.176 1.579.53 2.278.3 3.911-.978.175-1.4-.205-2.106-.301-.586 3.712-1.916 7.528-.602 11.736 2.632-.384 4.83 1.348 6.62 2.709-1.01 1.463 1.14 1.956 2.105 2.407.062-1.266-1.143-1.264-1.203-2.407.961-.179.931.564 1.505 0-.835-1.071-1.984-1.828-3.311-2.409.732-1.408 3.606-.083 4.214.603-1.221-3.294-3.926-5.101-5.115-8.426 1.477-.245-.212-1.797.3-3.009.832-.171 1.689-.318 1.505-1.505 2.25 1.061 4.784 1.836 6.32 3.612 1.561-.59 2.713.042 3.309 1.204-1.59 4.091 2.415 4.398 4.815 5.417-1.184.721-2.479 1.331-3.01 2.708 1.114 3.765.29 8.091-.3 10.834.97.161 1.81-2.396 2.407-3.611 1.082-.174 2.512.171 2.709-1.505 2.271 1.138 2.787 4.034 5.716 4.514.433-1.043-1.544-2.259-3.009-2.407-.061-1.546-.794-2.416-.901-3.913 2.706 1.9 4.527 1.464 7.522.301-.006 3.235.317 3.153-.902 5.716-2.463.259-3.076 2.893-5.116 2.709.93 1.98 2.681 3.139 4.814 3.913-.103-1.302-1.464-1.343-1.204-3.011.54-.037.636.369 1.204.302.045-.747-.155-1.249-.602-1.505 2.829-.669 6.042-.211 9.329 1.204-1.067-1.832-2.213-2.273-1.805-5.115 1.278-.275 1.514.492 1.805 1.204 1.174-.471 4.708-.307 5.718.602a2.71 2.71 0 0 0 1.204-1.203c1.457 1.208 2.353-.285 3.611-.904-.78.279-1.134-.861-1.806-1.503-.667 1.163-2.869 1.034-3.912.3.699-2.037-1.209-.67 0-2.708.9.905 1.732 1.879 3.311 2.106-.163-.808 1.381-.382 2.107-.3.812-.09.54-1.267 1.203-1.506 1.345.314 1.953 1.442 3.611 2.108 1.485-.422 2.022-1.792 2.709-3.009.86.042.549 1.255.601 2.105.599-.501.384.028 1.205 0 .216-.28.007-1.208 1.504-.901-.983.597 1.065.688 0 1.204 1.175.441 3.864-.288 4.814.602.999-.007.307-1.702.903-2.108h1.504c2.239-2.567 7.1-5.47 12.038-3.61.802-.726-.417-1.6.602-2.107.569.034.208.995.901.903-.061-1.337 4.868.918 3.913-2.107.54.305 1.848 1.153 2.107 0-.816-.078-3.177-.426-3.611-1.805-8.094 2.609-12.603-5.122-18.959-7.824-.775 1.633-2.374 2.441-4.513 2.709-.554-.426.471-1.462-.302-2.107-1.283-.46-1.801 1.381-2.708.3.252-1.251 2.347-.661 3.01-1.503 1.364.14 1.784 1.226 3.309 1.204-1.368-.782.627-.421.904-1.204-.964-1.945-2.431-3.387-4.213-4.514-5.209 1.062-10.905 1.488-14.144 1.505-1.658-2.054-4.515-2.909-6.32-4.814.268-.134.538-.265.602-.602 3.367 2.933 8.813.322 14.143 0 1.872-.114 3.429.354 4.815-.602-.462-3.224-5.528-5.612-9.629-5.418-.611.029-.915.735-1.506.903-4.059 1.154-10.124.927-11.134 5.417-.597.501-.383-.026-1.204 0-1.229 4.081-2.044 8.807-4.514 12.338-3.219.517-5.796-.57-7.824-2.709 1.661-.155 2.836.173 4.212.302-.102-2.109-4.578-2.441-5.716-4.515.794.609 2.762.046 3.611.602-.747-1.862-2.781-2.436-2.408-5.417.35.05.535-.066.602-.299 1.168.335 1.331 1.676 3.309 1.203.408-.296.602-.804.903-1.203-.471-.434-1.048-.759-1.204-1.506-.224-.927.826-.579.603-1.505.976.175 1.399-.204 2.105-.3-.16-1.166.539-1.47.302-2.709-.45-.366-1.256-1.418-1.505-.3.431-2.381 4.013-3.291 4.515-6.019 1.49.406 1.308-.621 3.009 0 .138-.941-.642-.963-1.504-.903.606-.898 1.567-1.442 2.407-2.107 1.638.77 2.72 2.095 4.213 3.011.395-.108.473-.531.902-.602-.425-1.851-.676-.792-1.504-2.409.72-1.373 2.975-.582 3.009 1.204.724-1.007.307-.448 1.805-.902.216-1.421-.626-1.781-1.204-2.408.792-.617 2.874-1.57 3.312 0 .516-1.188 2.015-1.394 2.707-2.407-.92.1-.533-2.851-1.504-3.611.426.025.852.05.902-.302.331-1.535-2.136-.271-1.805-1.806-.562.242-1.102.502-1.805.602-.158-.445-.445-.759-.603-1.204-1.483 1.479-2.095-1.061-3.61-.902.604-3.132-3.213-4.883-3.311-7.524-.106-2.844 3.488-3.382 3.311-6.921.597-.004.382-.822 1.203-.603-.133-.267-.264-.538-.602-.602.846-.794 1.567-1.43 2.408-1.505.178-.959-.564-.93 0-1.504 3.708.303 10.965 1.527 12.94-2.709.597 1.315 1.557.37 2.407.904.861-1.409.107-5.075-.602-4.816.062-.857 1.969-3.74 0-4.513 1.112-1.323-.35-4.371 1.805-5.116-1.314-1.313.833-3.028 1.505-4.213-.359-2.623.779-7.38 0-12.64h1.204c-.238-.87-.846-1.658 0-.602 3.081-2.449-1.742-8.539.603-12.338 1.998-.221 6.223.23 7.824-1.805.536.166 1.25.155 1.505.602 1.792-1.79 6.057.721 9.329-.902-.093-1.396.527-2.08 1.805-2.107-.009.293-.368.233-.602.302.937 1.35 3.185.907 4.213 0-.749 1.042.741 1.927 1.805 2.106.327-.075.204-.599.602-.603-.048-.351-.549-.253-.903-.3 3.219-1.536 8.48 1.757 11.736.3-.348.447-.348.76 0 1.204 1.539-.323 2.089.025 3.311-.3-.285 1.441 1.79 1.265 2.407 2.407.498-.321-.768-.913 0-1.805 1.527.078 3.216.529 3.611-.602.75.045.088 1.019 0 1.204.754.051.731-.673 1.204-.903-1.042-.636.837-1.702-1.204-2.708.468-.994.805 1.093 1.505 0-1.019-.893-1.862-3.549-3.311-3.009-.75-.123-.017-1.168.602-.903-.989-.916-1.409-2.402-2.106-3.611-.518.093.39 1.045-.903.902.663-1.186-1.053.518-2.107-.3.831-.805-.354-.655-.3-1.505-1.482.078-2.543-.266-2.709-1.504-4.314-1.599-7.678-6.467-10.833-9.631-3.42-3.429-7.626-6.34-12.038-9.027-2.052.182-5.611-.78-7.824-2.106-.554.852-1.555 1.253-1.504 2.709-2.229-.021-3.562.853-4.815 1.805-1.068.036-2.425-.217-2.408.904-7.624 2.892-14.055-.73-21.065-1.806-1.46-1.491-3.108-1.215-5.115-1.806-7.712 2.219-10.407 9.456-16.25 13.542-.268.635-.917.89-.903 1.806-1.76 1.304-5.53 1.671-7.824 1.503-.175-.32-.305-.913-.602-1.806-1.964-.276-2.673 2.028-4.212 1.204-.586 3.328-1.699 7.73-3.009 9.329-.134.437-.264-.031-.602 0-3.37 3.953-4.152 10.494-4.815 17.152.106.473.529-.262.602.302-1.267 6.995-2.25 15.727-3.913 22.871-.919.986-2.843.969-4.815.902.892.88 1.492 1.839 2.708.903 2.246 3.557-.483 7.637 0 10.533-.913 2.196-2.387 3.83-3.61 5.716.255.65 1.552.255 1.805.903-1.697 1.513-2.89 3.53-3.611 6.019.058.342.302.168.302 0-.988 1.473.876 4.738-.904 6.32.158 1.044.814 1.592 1.204 2.407-.922 1.185-.401 3.812-1.805 4.515 1.152 2.401-.206 4.102.602 5.718-.931.793-1.615-.028-2.106 1.204-2.645-1.569-3.074-5.353-6.622-6.019-2.681-4.742-4.922-11.312-3.911-16.852-1.955-1.155-4.175-2.045-5.117-4.214 1.702.606 2.462 2.152 4.515 2.409-1.33-.838-2.41-3.557-4.515-4.515-.447.255-.435.969-.601 1.504-1.851-.103-1.252-3.53 0-3.009.107-1.438-.644-2.422-2.108-3.009.296-.922 1.016.134 1.204.301.137-.847-1.409-2.597-2.105-3.611-.055-.658.245-.958.901-.903.13-2.398-2.562-2.546-3.611-4.515 1.52.767 3.081-.083 4.213-.603.295.408.804.603 1.204.904.627-.177.974-.633 1.505-.904-.921-.016-1.877-.638-2.408-1.805.991-1.215 3.319-1.094 3.611-3.009 1.14.605 2.592.353 2.105-1.504 1.781.375 2.104-.706 2.709-1.505-.441-2.066-1.413-3.602-3.009-4.515 1.243-.599 2.05-.764 2.709-2.407-.253-1.351-1.42-1.791-1.805-3.009-1.219.323-2.094.323-3.311 0-2.103-5.227 3.468-8.95 3.01-15.047 1.058-.686 1.101-2.759 2.709-3.611-.831-1.518.635-2.3 1.204-3.309-.296-.844-.805.437-1.204-.302-.284-2.555-1.932-6.513.901-7.222.156-1.96-2.794-.816-3.009-2.407h1.505c.188-1.625-1.732-1.602-2.106-1.805.528-.985 2.487-2.115 1.805-3.311 2.625.287 2.505 5.919 3.311 9.027-.401.081-1.344.143-2.107.602-.662 2.668 1.249 2.763 3.009 3.01.842-.734-.729-1.786 0-2.407.407.294.39 1.014.904 1.204 1.065.162.74-1.066 1.805-.903.795 1.011 2.238 1.373 3.611 1.806-.3-1.404-2.136-1.275-2.107-3.009 1.607-1.392 1.75 1.424 3.912.3-1.961-1.681-1.404-6.181-1.203-8.426 1.517-.49 2.125-3.412 3.912-4.514 3.148-.241 5.796-3.142 9.932-2.408.936-.066.508-1.498.602-2.407-.988.503-1.776.031-1.806-1.204-3.049 1.832-7.739.257-10.232 2.407.052-1.454.955-2.054 1.505-3.009-1.852-2.645 2.705-5.107 3.31-8.125h.903c.381-3.553.396-4.536.902-6.62-.159-.243-.312-.489-.3-.903-2.04-.113-2.997.289-3.611-.903 3.132-1.482 7.509-1.719 9.028-4.814-.235.77-.095 2.334.302 3.309 1.357.054.742-1.864 2.407-1.503-1.636-1.292 2.584-2.494 3.911-3.611.107.396.53.473.602.902-3.345 4.811-6.438 9.158-6.92 15.047-.35-.05-.537.067-.602.3-1.328-.276-2-1.21-2.408-2.407-.047 1.638-.277 4.246 1.504 5.117.092.693-.87.334-.902.903.539 1.165 1.178 2.231 2.106 3.01.975-.998-.661-1.934-.602-3.01 2.654 1.352 3.381-1.79 4.213-2.108-.356-.385-1.494-2.946.301-2.708-2.099.194-.92-2.891-2.106-3.611.048-.353.548-.254.903-.3-.016-3.928 3.044-4.781 4.213-7.523 5.847-1.901 10.422-7.074 13.542-12.641-.291-.717-.994-1.926-.3-2.707-1.708-.189-3.66.381-4.515-1.204 2.473-2.243 7.686-1.746 10.231-3.913-1.447 1.764-1.752 7.274-4.213 9.026-.383 2.423-1.715 4.479-2.407 5.719.042.862 1.255.55 2.107.602.216.921-.309 1.097-.302 1.806 1.775-.233 2.273-1.739 3.311-2.708-.117-.789-.155-1.654-.601-2.109zm65.302 160.997c.473-.027 1.043.041.902-.602-.078-.423-.659-.343-.902-.602-.647.776.291 1.446-.302 1.805-.655-.547-1.382-1.024-2.407-1.204-1.015 5.065 2.213 6.663 2.107 10.834 1.134-.071 1.273-1.133 2.407-1.203 2.176 1.103-1.092 3.625-.301 4.213 1.901-2.7 4.95-4.514 4.815-8.428-.83-.429-1.77.168-2.708-.602-.051.451.107 1.11-.302 1.203-1.08-.668-1.614-4.235-.902-5.716-.685.413-1.132-.776-1.204 0 1.351.795-.504-.045-.602 1.204-.422-.077-.343-.658-.601-.902zM157.085 51.158c.405-1.248 2.627-1.434 1.805-3.009-6.251 2.049-7.483 15.729 0 15.648-2.112-.696-3.059-2.558-3.911-4.514 1.148-.396 2.497 1.291 3.01.302-.117-.157-1.462-.446-.602-.602 1.14.103 1.908 1.709 1.503 2.407.411-.195 3.477 1.262 2.108 0 7.394 1.914 10.64-3.216 14.444-4.212.27-1.373-.501-1.707-.603-2.709-1.298-.456-3.377-.208-3.309.602-2.146.53-6.063 2.579-8.728 2.107-1.728-.307-2.026-2.041-3.61-1.806-.002 2.211 2.696 3.315 2.707 4.512-2.947-.421-4.591-4.59-4.814-8.726zm18.959 2.409c.648 1.759 2.424 2.391 3.912 3.309.12-.782.897-.907.904-1.805-1.207-.557-.241-2.122-.301-3.31-.899-.306-1.926-.483-2.709-.904-.543.962-.683 2.326-1.806 2.71zm8.727 3.911c-.359-.842-.331-2.076-.3-3.309-.825-.48-1.82-.79-3.01-.904-.882 2.152.716 5.513 3.31 4.213zm-40.925 17.455c1.786-1.123 5.395-3.03 7.823-4.515 4.683-1.311 8.27 1.317 11.737.903-2.333-.516-6.628-3.385-8.426-3.311-.685.029-.526.761-1.205.602-2.271-.529-2.855-2.039-4.513-3.611-.225.979-1.006 1.401-1.805 1.806-3.356-1.989-3.676-6.295-3.913-10.231-1.884 3.632-.566 10.142 2.407 11.736-3.057.596-9.636.928-10.532 3.611-.509-1.277-2.354 1.417-3.912 0-.173 1.86-4.251-.568-5.418.3v2.408c-.698.204-.805 1.001-1.504 1.204-4.175-.339-5.791 3.627-9.93 1.505-.511.591-1.4.807-2.408.902-1.861 3.997-8.009 6.309-5.718 11.737.518.119.771-.448.903 0 .515.604.437 2.438-.301 2.708-1.044-.499-1.602.261-2.709-.3-.339 1.163-1.527 1.482-2.105 2.407-.673.219.664.905.602 1.503 1.78.142 2.494-.503 3.913 0 1.479-5.01 2.146-10.417 6.018-12.338.592.51.113 2.094 1.204 2.107 1.549.008 1.044-1.372 2.708-.602 1.168-4.051 3.85-8.917 10.232-8.728.177-.625.579-1.026 1.204-1.204.977-.174 1.4.205 2.107.301.627-.087-.448-.814.601-.902 4.654 1.004 10.742-1.656 14.445-2.407-.47.836-.743 1.869-1.505 2.409zm53.263-15.348c.042-.685 1.812-1.166.904-1.805-.153.574-1.837 1.141-.904 1.805zm-5.416 4.212c-.725-2.369-1.266-4.826-3.311-5.116 1.094 1.716.183 5.436 3.311 5.116zm-41.529-3.008c-.035-.768-.056-1.549-.902-1.505.279.523-.012 1.615.902 1.505zm24.676-1.204c-2.476-.348-.244 2.477 0 0zm24.074 5.416c.948.345.731-.473 1.204-.602.416 1.02 1.387 1.946.602 3.311 3.06.617 2.126 3.456 3.913 5.114.938-1.11 1.485.703 2.408.602-.021-1.833-.167-4.679-.603-6.62-.56-.288-1.006.902-1.204 0 .095-.708 1.426-.179 1.204-1.204h-.602c-.017-.184-.045-.356-.3-.301.09.793-.628.776-1.204.902.103-.927-1.98-1.204-1.203-1.805.799.204 1.429.576 2.105.903 1.639-1.216-.965-2.648-2.105-3.01-.146.356-.322.682-.604.903-.067-.569.339-.664.302-1.204-.715.176-1.401.46-1.505-.602.168 0 .342-.244 0-.302-1.077 1.031-2.958 1.257-2.408 3.915zm-49.955-2.106c-.579-.122-.237-1.167-1.203-.902-1.144.921.869 2.337 1.203.902zm2.71 1.204c1.026.569 2.057 2.431 3.311 1.806-.412-1.48-1.266-2.786-1.205-3.913-.557.846-1.431 1.378-2.106 2.107zm69.515 3.31c.582-.645-1.453-2.433-2.105-1.805.916.385.803 1.802 2.105 1.805zm-36.111 4.815c-.235-1.464-3.686-1.523-4.213-3.611-1.707-.543-2.909-1.192-5.116-1.805-4.255 1.364-7.073 4.162-10.533 6.32.7 1.106 2.494 1.117 3.311 2.106 1.548-2.541 5.81-6.581 9.629-3.912-2.608-.401-3.962.451-5.718.902.097.698-.049 1.156-.301 1.505 5.275-2.717 10.229.347 12.339 4.213.822-1.561 1.859.807 2.707 0 .228-1.394-1.149-.419-1.203-.904.547-1.246-2.263-3.595-.902-4.814zm13.541-3.31c.487-.637-.255-1.975-1.505-1.805.423.679.267 1.938 1.505 1.805zm-13.541 1.204c2.779 3.338 5.037 7.2 9.629 8.727.782.432 1.405 2.592.603 3.61-1.071.254-1.803-.872-2.106.3 1.661.546 2.149 2.264 3.911 2.709-.181-1.487 1.566-1.043 2.108-1.806-.121-1.422.096-2.511.3-3.61-1.93-2.081-5.502-3.792-5.716-6.622-2.238-1.354-4.869-1.858-5.719-3.911-.893.211-1.311.896-2.709.602-1.067-.137-.79-1.618-1.805-1.806-1.014.937.789 1.6 1.504 1.807zm28.286 1.504c.257-.25.825-2.352-.301-2.105-.393.953-.83 1.527.301 2.105zm-102.316.302c1.192 1.842 5.49.72 5.717-1.204-2.138.167-2.888 1.726-5.717 1.204zm101.715 1.805c-.087.53 1.416.931.601 1.204-.937-.604-.15 1.483-1.505 1.805.181-.782-.119-1.082-.901-.903-.665 1.203 1.265 2.042 1.503 3.31 1.258-.154 2.041.168 2.709.602.822-1.358-.483-1.755-.602-3.009 2.006 2.441 5.544 1.667 7.824 1.204.249-.851-.423-.78-.3-1.504-1.412.439-2.067-.692-4.213-.301-1.861-.583-3.824-2.79-5.116-3.611.776.071-.413.517 0 1.203zm-58.08.3c-1.49.567 2.676 1.232 3.913.603-1.109-.396-2.33-.681-3.913-.603zm7.222 1.806c-.8.171-1.531-1.239-2.105-.301.725-.094 1.456 1.313 2.105.301zm59.886 6.319c.91 2.359 3.884 1.238 4.815-.3-1.066-.522.132-2.25 0-2.709.995.208 1.693.716 2.71.904-.287-2.176-2.281-2.295-3.914-2.408.051 1.19-.462-.096-.902.602-.228 1.129 1.149.655 1.204 1.504-.568.857-1.61 2.952-3.913 2.407zm-102.317 2.709h1.806c.212-2.496 1.999-3.418 3.913-4.213-2.875-1.757-4.374 2.495-5.719 4.213zm83.66-1.204c.06-.861.037-1.642-.903-1.505-.237 1.039.281 1.324.903 1.505zm42.731 14.144c0-.302-.243-.357-.301-.602h1.203c-.336.434-.323.733.302.901-.122-2.429-2.525-3.433-1.204-5.416-.295-3.087-4.516-4.359-3.912-8.125-.853-.051-.588 1.019-1.805.602.181 1.501-1.194 1.775 0 2.709-.821.026-.606-.5-1.203 0 .28 2.039-.939 4.482 1.203 5.718-1.408.303-1.001-1.207-2.407-.904.075.93.305 1.701.601 2.407 3.281-.367 3.819 3.602 6.621 2.709-1.206-.297-2.379-.631-2.709-1.805 2.14-.526 2.678 2.126 3.611 1.806zm-30.996-7.221a1.513 1.513 0 0 1-.902.901c-2.398-.009-3.167-1.649-6.018-1.203-.612.963-.346 1.06-.602 2.107.962-.442 1.513-1.297 3.309-.904.984 2.105.997 3.403 2.107 5.719-2.517.193-3.216 2.2-4.213 3.912 1.201.98 1.861-.589 3.009-.603 7.438-.863 8.933 5.333 15.046 6.622-2.352-2.763-7.13-3.101-7.222-8.125 1.418.157 1.013-.589 2.106-1.204.981-.151.638 1.496 1.504.602-.067-7.188-8.666-13.231-16.249-12.939 2.72 1.69 7.506 1.32 8.125 5.115zm17.455-3.914c.927.564-.349 1.43-1.204 1.205-.317 1.69 2.501.575 1.505 2.107 1.431.228 1.648-.759 2.408-1.204-1.779.474-.33-2.279-1.204-2.709-.535.166-1.25.154-1.505.601zm3.61 12.038c1.234-2.616-.043-7.18-1.204-8.425-.043 2.14-.606 6.598 1.204 8.425zm-4.512 8.125c-.044-1.209.771-.796 1.505-.602 3.318-3.895.134-8.007-2.108-11.134-2.155-.25-3.089.723-4.212 1.505.612 2.498 3.824 2.396 4.514 4.815-1.651.542-2.258-.833-3.913-.603.432 2.64 2.221 2.216 4.515 2.71.39.705-.155.672.602 1.203-.767.604-1.228 1.307-.903 2.106zm4.814-3.309c.662-1.206.413-3.726-.902-3.914.053 1.29-.917 3.546.902 3.914zm-141.739-.603c2.131-.386 4.291-.431 4.513 1.806-.774.528-.774 1.833-.902 3.009 2.424.86 2.868-2.434 3.611-4.212-1.454-2.242-4.457-3.917-7.825-3.312.167.938.246 1.961.603 2.709zm146.252 4.513c1.922-1.661 2.877 1.408 5.116.302.386.395.386 1.109 0 1.504 1.145-.632 2.156.392 3.011-.3-.901.021-1.526-.885-.904-1.506-2.542-.87-3.375-5.046-6.619-4.212.836 1.687-1.087 2.606-.604 4.212zm-141.437 3.913c-.037-.767-.438-1.168-1.204-1.204-.206 1.01.504 1.1 1.204 1.204zm143.546.602c.064-.235.251-.35.6-.302.084-.686-.071-1.131-.6-1.204-.448.553-.81 1.021 0 1.506zM77.94 116.16c-.848-.054-.375-1.43-1.504-1.204-.284 1.441.918 2.276 1.504 1.204zm138.731.601c.066 2.039.257 3.956 1.503 4.815-.138-2.478 2.051-.118 2.709-.902a24.018 24.018 0 0 1-.301-5.116c-1.344-.521-2.412.971-3.911 1.203zm18.054.904c.529.072.688.518.604 1.204-.82-.028-.606.501-1.204 0-.18.959.563.931 0 1.504 1.288.236 1.227-.044 2.408.301.118-.518-.448-.771 0-.903 1.549.104 2.04 1.679 3.007.301-1.972-.735-2.124-3.291-4.211-3.913.046.75-.473.932-.604 1.506zm5.717 3.009c1.356 2.248 5.067 1.151 6.924 2.106 2.238 1.153 3.869 5.073 6.92 5.418.736-1.024 1.626.037 2.709.3-.037-1.042 1.325-.682 1.505-1.503-1.284-.421-1.583-1.831-2.105-3.011 1.941-.897.364-5.124-1.505-5.115-.022 2.524.578 4.487.302 6.018-3.879-1.037-6.73-3.098-10.233-4.514 1.021-1.689 3.617-1.798 4.212-3.911-4.823-.51-4.692 3.934-8.729 4.212zm17.455 0c.37-.935 1.399-1.209 1.203-2.709-.436.166-1.556-.351-1.502.302.934.288-.265 2.489.299 2.407zm-182.364.3c.176 2.019.353 3.167 0 5.117.451.051 1.11-.108 1.204.302-2.815 3.453-8.332 10.128-3.611 14.143.052-.351.477-.327.904-.301-.192-1.748.922-2.057 1.805-1.204.193-1.196-.382-1.624-.903-2.105.205-.899 1.199-1.01 2.407-.904.148-.95-.541-1.062-.3-2.107 2.025.436 2.327-1.39 4.213-.901-1.016-4.711-3.963-9.303-4.515-12.64-.046.556-1.019.184-1.204.6zm151.669 1.505c-1.697-.614-5.001-1.212-6.019-1.505.59 2.032 3.898 3.369 6.019 1.505zm-148.66 0c1.636.964 2.791 1.092 5.117.902-.814-1.412-3.806-2.537-5.117-.902zm148.66.902c-.358.896 1.269 1.294 1.505.602-.451-.379-.905-1.229-1.505-.602zm34.909 4.215c.062-.867-.078-1.529-.604-1.806-.062.362-.333.184-.601 0 .187.816.598 1.409 1.205 1.806zm-31.596 5.716c1.078.625.96 2.447 2.406 2.709.121-.377.386-.615.902-.602.108-2.466-.89-4.571-.902-6.018h-.905c-.373 1.431-1.409 2.203-1.501 3.911zm21.362 9.931c2.101 1.233 3.301-1.987 3.913-1.503v-1.506c-2.612-.306-3.547 1.065-3.913 3.009zm-55.068 3.311c.484-1.488-.051-.819 0-2.107.003-.096.619-.029.602-.602-.087-2.741-7.034-2.562-9.028-.602.852 1.013.162 1.695.301 3.311.613.392 1.839-.611 3.009-.602.031.337-.437.468 0 .602.846-.559 2.854.047 2.709-1.505.165.438-.352 1.555.3 1.505.499-1.144 1.98.775 2.107 0zm41.527 2.106c2.062.886 2.417-1.269 5.116-.301.174-.976-.205-1.399-.302-2.106-1.598-.003-2.249-.961-3.611-1.204.126 1.73-.152 3.057-1.203 3.611zm-6.32-1.504c1.44-.232.529 1.881 1.506 2.107.273-.53 1.106-.498 1.203-1.205-.92-.283-.942-1.463-2.105-1.504-.003.398-.529.275-.604.602zm-41.828 55.673c-.317 1.804.279 2.668-.902 3.61-.267-.737-1.681-.327-1.505-1.505-1.568.072-.986 2.014-2.708 1.204-.476 1.619.137 2.863.3 3.612.855-2.858 5.395-2.029 6.922-4.215.734.855.9 1.813 1.805 1.806-.367.034-.712.09-.602.602 1.071-.031.689-1.518 1.806-1.504.004.798-.167 1.771.601 1.805 1.057-1.32 2.182-1.009 3.611-2.106-.873-1.233-.44-3.773-2.106-4.213.298-1.029-.127-.904.603-1.503-.736-.58-1.198-1.61-1.204-2.107-.292.353-2.375-1.255-1.505-2.107-.682-.296-1.094.104-1.204-1.204-2.392.284-2.599-1.614-3.309-3.009-.92-.218-1.098.308-1.807.301.321-1.124-.747-.857-.602-1.805.625-.178 1.026-.58 1.204-1.204-.517-.12-.772.447-.902 0 2.106-1.327-.786-1.516.602-2.409-.185-.816-.597-1.409-1.204-1.805.039.542-.298.704-.904.601 1.258-.853-.414-1.201.302-2.105-.434-.665-.734.379-.904-.301.364-.062.185-.333 0-.602 3.323-.517 5.686 2.328 3.611 4.514 2.444 1.257 2.743-2.747 2.709-3.311 1.25.708 2.765.837 3.311-.602.105 1.153 1.802-.201 2.407.903.238-.665 1.053-.753 1.504-1.204.201.803.905 1.102 1.505 1.505.199-1.325-.049-1.232.603-2.106-.959-.256-1.143.261-1.505.601-.686-.681.205-1.323.602-1.805.304 1.304 2.299.911 3.311 1.504-.68-1.223.559-1.305.903-1.504-.569-.226-.21-.899-.903-.302.679-.893.772-1.318-.301-1.805.952-.643 2.082-1.567.902-2.708.973-.373.23.973 1.204.602.529-1.134-.384-1.372 0-1.806 1.238 1.326 3.312-.476 3.312-.903.474.027.234.768.901.602-.173-1.477 1.902-.706 2.107-1.805-.106-.375-1.736.248-2.709 0 .047-.749-.473-.932-.602-1.505.355-.383 1.136-.127 1.505.302-.491-.09-.812.406-.302.602-.214-.818 1.42.215 1.204-.602-1.093-.204-1.738-3.231-.3-3.312-.569 1.816 1.659 2.246 2.106 3.913.029-.473-.041-1.043.602-.903.032-1.28-.57-1.274-.903-2.707.318-.781 1.638-2.683.603-2.709.367-1.092.807-.968.902-1.806 1.781.376 2.886-2.528 5.116-1.805.281-.997-.003-1.364 1.505-1.505-.321-1.123.747-.857.603-1.806-2.094-1.77-1.147-3.827-1.204-6.62-1.116-.79-1.331-2.48-2.709-3.009-.236 1.341.206 2.002.602 2.709-1.069-.468-.181 1.021-.901.902-.826-.169-3.198-1.043-3.913 0-.714-1.003-2.416-2.116-3.611-.902 1.005-1.04-4.213.396-2.709-1.805-3.479.594-6.683-1.488-9.629-2.409.184-.017.356-.044.299-.3-2.839 1.331-5.597.779-8.425-.302-5.068 2.61-15.501-.879-19.56 0-.266 1.402.99-.202.902.602v.602c-.926.225-.579-.826-1.504-.602.77 1.587.216 1.86-.302 3.311 2.56.191.972 1.584.603 3.009.354.048.853-.052.903.302v1.204c-.385-.017-.417-.386-.903-.302v3.009c.704.03 1.787.845 1.204 2.407 1.845 2.092 2.166 4.768 3.009 7.826.067-.235.252-.351.602-.303-.31 1.027-.169 3.899 1.204 4.213-.203 1.577-1.034 2.569 0 3.913-.354-.043-.681-.535-.902 0-.115 2.368.021 4.885 1.805 6.319-.28 2.931 1.693 8.055-.903 10.231-.445-.156-.757-.444-1.204-.602.221 1.604.322 2.263.302 4.515 2.044-.058.922-2.171.902-3.311 1.322.584 1.947 1.866 2.407 3.311-.122.58-1.166.237-.902 1.204.272.53.674.932 1.204 1.204.608-.655.408-2.119.603-2.407.447.755 1.269 1.138 2.106 1.505-.045-1.33.735.028 1.504-.301.739-.401-.542-.908.302-1.204.882.02 1.117.687 1.504 1.204-.947.847.387 2-.602 3.611 2.644.361 4.152-1.807 6.015.902zm40.927-53.868c.034-1.137-.588-1.617-1.505-1.806.292.814.843 1.365 1.505 1.806zm24.374.302c-.718-.184-1.371-.434-2.407-.302.053 1.969 1.751 1.055 2.407.302zm-188.382 6.92c.799-.305 1.712-.494 1.805-1.503-.384-.017-.417-.386-.904-.302.015.916-.633 1.171-.901 1.805zm9.931-.902c-1.993-.402-5.161-1.504-4.814 1.806-.947-.345-.732.473-1.204.602.784 4.023-2.143 5.157-.904 8.728h-1.204c-.467 2.099-1.28 6.721 2.709 6.62.032-.368.089-.713.602-.602-.244-1.762-.895-3.118-1.204-4.814.471-.13.256-.947 1.204-.602v-2.107c3.343-1.84 7.766-4.335 7.824-9.329-.868-.135-.94-1.065-2.107-.902-.474.025-.235.765-.902.6zm151.67 3.01c.896-.105 1.832-.174 2.105-.903-.349-.05-.326-.476-.298-.902-.75-.391-1.251.884-1.506 0-.019-.183-.046-.355-.301-.302-.066 1.1-.414 1.155 0 2.107zm-.602 7.523c1.127.779 4.156-.345 4.514 1.204-3.502.607-8.071 4.276-6.019 7.222.757-.447 1.004-1.403 2.107-1.505-.289 3.578-5.353 3.719-2.709 7.223 1.503-.949 2.849-3.511 5.418-2.407-.212-1.416 1.216-1.191 1.505-2.107 2.414 3.505-3.968 2.633-3.61 4.814-.619-.607-.604.123-.905.602.438.165 1.555-.352 1.505.302-2.13-.125-2.566-.077-4.514-.302-.887 1.415-.632 1.984.602 2.408-1.955 2.438-1.965 4.265-2.408 8.426-2.095.512-1.869 3.347-3.911 3.912.228 3.367 2.113.751 3.911.301.224-2.618 3.818-3.359 4.815-4.213-.052-1.799.824-1.942 0-3.611 1.226-.78 1.026-2.985 3.011-3.01 1.266 1.357.709 1.322 2.407 3.01-.529.072-.688.518-.604 1.204 1.294-.214.562-2.449 1.808-2.709.024.532.41 1.611 1.203.904-.84-.573.056-1.929.302-2.409-.858-.482-.725-1.899-1.505-2.708.09.364-.872 1.037-.903.3 1.217-.707-.241-.5-.301-1.504.259-1.011 1.176-1.423 1.804-.602-.218-.822.6-.606.604-1.204-1.269-.322-1.113-1.601-2.106-1.506 1.345.142.657-1.749 1.503-2.105-.681-.737-1.321-.108-1.804-.602.843-.923 1.014-4.134.301-4.214.225-1.483.225-1.825 0-3.309 2.386-3.145-2.257-3.396-3.609-4.212.301-.005.375-.529 0-.602-.381 1.431-2.559 1.058-2.412 3.009zm5.718-3.912c.114-1.37-.756-1.585-1.505-2.709-1.696-.365-2.864.975-3.913.302.118 1.128.13 1.963.302 3.611 1.93.15 3.321-1.751 5.116-1.204zm-2.407 34.606c.171.53-.364 1.769.301 1.806-.429-1.532 1.63-.574 1.204-2.107-.728-.123-.657.551-1.505.301zm-149.564 2.108c1.011.67 1.935-.878 1.204-1.505-.302.6-1.332.473-1.204 1.505zm131.506.6c.356.146.683.322.903.603-.002.533-1.689.871-.602 1.504.247.045 1.986-.742 1.807.602-.544-.391-1.521.271-2.409-.3-.211 1.693-1.427 2.382-2.407 3.309.932.292 1.475.756.904 1.806.952-.048 1.006.801 2.106.602.562-.504.491-2.547 1.204-1.204-.071-.997-.984-2.053 0-2.408-.747.045-1.249-.155-1.505-.601.488-.517 1.259-.747 2.408-.603-.16-1.163.537-1.47.3-2.708-.973-.374-.228.974-1.203.603.001-.304-.243-.359-.301-.603 1.333.218-1.043-1.975-1.204-1.204.364.064.185.335-.001.602zm9.028.904c-.947-.145-.681.923-1.805.602.345 1.247-.633 1.173-.602 2.107.648.723 1.79 1.286 1.806 1.805 1.756-.451 1.584-2.829 3.009-3.611-.532-.271-.878-.728-1.503-.903-.666.434.378.733-.302.903-.073-.43-.495-.508-.603-.903zm-21.366 6.319c-.271.751 2.123.949 2.408 0-.548-.162-1.86-.162-2.408 0zm-8.125 2.106c.161 1.414.604.802.602 2.107 1.04.238 1.271-.334 1.806-.602.15-.947-.657-1.177 0-1.806-.95.353-1.321-.185-2.408.301zm21.667 1.205c-.642-1.063-2.462-.95-3.61-1.506-.048 2.351 2.241 1.033 3.61 1.506zm-27.083 4.513c1.5.112 3.51-1.371 3.911-3.31-.354-.146-.681-.321-.902-.603-1.947.166-3.127 2.685-3.009 3.913zm13.842-.901c.569.024-.071 1.288-.902.901.349 1.345.902 2.361-.301 3.009 2.901-.294 4.6-3.162 5.718-5.717-1.543.221-2.018.342-3.009.602.35.05.327.476.302.902-1.294.335-.386.142-.903-.3-.006.497-.837.169-.905.603zm8.727 3.61c1.931.714 5.003.937 6.018-1.203-.587-1.418-2.995-1.018-4.512-1.506.315 1.72-1.49 1.319-1.506 2.709zm-21.967 1.806c1.952-.7 1.512-1.925 2.709-3.311-1.838-.627-2.697 1.989-2.709 3.311zm-3.311 1.805c-.297.615-1.25 1.021-1.504 2.407 1.947.176 1.952.659 4.213.903.582-2.223-1.768-4.253-3.311-4.515.187-1.791-.839-2.37-1.805-3.009-.612 2.277.519 3.915 2.407 4.214zm23.774 1.204c2.461.447 3.081-1.542 5.115-2.408-.332-.272-.209-.673 0-1.204-2.656.253-4.649 1.169-5.115 3.612zm-19.26 1.805c.771 1.851 3.975-.004 4.515-1.204-1.138.044-3.592-.471-4.515 1.204zm-95.396 1.204c.063-.864-.076-1.529-.6-1.805-.001.979-.632 1.62.6 1.805zm19.26 7.524c-1.056-1.853-2.06-3.757-4.814-3.913.821 1.891 3.195 3.822 4.814 3.913zm-.602 2.707c-.006-2.304-2.32-3.893-3.912-3.611 1.349 1.159 2.388 2.628 3.912 3.611zm88.775 0c1.322.392 2.676 2.331 4.214 1.505-.693-.409-1.679-.528-1.505-1.805-1.473.643-2.099-.798-2.709.3zm-31.597 4.215c-.646-.559-1.603-.806-2.709-.904.236 1.239-.461 1.545-.302 2.709 3.177-.866 4.809-2.64 7.826-2.709-1.08-2.159-3.847.134-4.815.904zm-61.391 8.123c.338.064.468.334.602.603 3.607-.707 4.986-3.642 5.116-7.824-1.648.399-1.804-.044-3.311-.3.579 2.789-1.722 5.019-2.407 7.521zm64.401-5.115c-.259 1.949-1.982 2.433-2.107 4.514 2.515-.524 4.315-2.766 6.62-1.807.345-1.247-.633-1.173-.602-2.105.38-.724 2.373.166 2.709-.602-.467-.272-.157-1.109 0-1.204.233-.068.594-.009.601-.301-2.993-.083-4.457 1.362-7.221 1.505zm11.736 1.204c-.202 1.305 1.396.811 2.407.902.007-1.782-1.045-.72-2.407-.902zm-66.205 6.32c2.412.796 3.736 2.682 6.319 3.309-.325-1.347-4.569-5.309-6.319-3.309zm.601-1.204c-.469-.735-.539-1.869-1.204-2.409h-2.407c-.764 3.584.114 6.771 3.31 7.825-.253-1.552-1.709-1.901-2.106-3.311.11-1.447 1.539-.904 2.407-2.105zm15.347.301c-.197-1.105-1.108-1.5-1.805-2.106.227 1.076.697 1.911 1.805 2.106zm-5.416 7.823c1.35-.341 1.344 1.579 2.407.602.116-1.017-1.333-.473-.902-1.806 1.085.017 1.456.751 2.407.903-.418-1.589-2.245-1.767-3.612-2.407.67 1.346.531 1.708-.3 2.708zm122.779 17.155c1.029.546 1.446-.042 2.709 0 .149-.945-1.036-.796-.299-1.505-.948-.151-1.179.656-1.807 0-.13.572-.647.755-.603 1.505zm-.6 4.212c5.968.603 12.154 1.498 18.356.902 2.45-.235 5.286-1.327 8.425-1.503 3.785-.216 7.919.816 9.33-1.505-10.972 1.17-22.778 1.402-36.111 2.106zm7.824 5.417c-1.051-.822-2.015-.942-3.61-.602-.246 1.04.56 1.271 0 1.805-.825-.338-1.932-.185-2.709.302.366.034.712.088.6.602-2.982-.075-4.08 1.736-5.115 3.611.755-.053.73.673 1.203.901-.684-.084-1.129.073-1.203.603 1.471.235 2.519.894 4.214.903.392-.747-.672-1.461 0-1.506.568-.067.662.339 1.204.302 1.557-2.247 4.254-6.25 5.416-6.921zm-132.41 12.036c.634-.468 1.092-1.115.901-2.407-.752.037-.94.576-1.204-.301.563.016.638-.231.302-.602.853.051.587-1.019 1.805-.602-.09-.593.406-.598.602-.903-.812-.091-.54-1.266-1.204-1.504-.146.354-.32.681-.602.901.063-1.166-.835-1.37-1.505-1.805-.162 1.065.487 1.319.904 1.805-.445.157-.759.447-1.204.603-.069-.233-.01-.594-.302-.603-.065.235-.252.351-.602.302.479 1.149.479.354 0 1.504.754-.051.731.675 1.204.903-.752-.037-.941-.574-1.204.301.564.073-.171.496.301.601.798-2.079.23 2.886.603 1.505.046-.354-.054-.853.3-.903.303.403.497.91.905 1.205zm124.887-2.105c.337-1.341-.924-1.082-1.505-1.505.152.851.855 1.15 1.505 1.505zm-123.986 5.116c-.238-1.131 1.268-.866 1.806-1.505-.952-.351-1.229.096-1.504-1.204h-1.505c.7 1.169.799 2.068 1.203 2.709zm50.257 47.848c.932-.302 1.168 1.602 1.806.604-.514-.125.063-.389 0-.905-1.017.017-1.285-.542-1.806.301z"/><path fill-rule="evenodd" clip-rule="evenodd" d="M133.613 58.381c.616.989 1.611 1.599 1.806 3.009-1.018-.587-1.565-1.645-1.806-3.009zM107.733 62.292c1.039.104-.851 2.038-1.204 2.709-.913.01-.75-1.057-.902-1.806.442-1.226 1.928.464 2.106-.903zM83.659 86.368c-.058.341-.302.167-.301 0-.7 1.494-1.186 2.333-3.311 1.805.694-.994 2.745-1.955 3.612-1.805zM232.016 103.522c.566-.574-.177-.547 0-1.506.542.039.635-.368 1.204-.3.175.529-.364 1.768.302 1.806-.044.669-.759-.393-1.506 0zM126.089 120.373c.585.026-.634 1.289.904.903.679-.169-.365-.469.3-.903 1.478 1.939 4.854-1.09 6.02.602.14.643-.431.574-.903.602-.136.838 1.641-.235 1.505.602 2.123-1.786 4.207-5.583 6.921-2.106 1.62.014 1.796-1.415 3.311-1.505 1.441-.127 1.075 1.733 2.407.903-.735.709.449.56.301 1.504-.446.157-.758.447-1.204.602-.054.656.246.958.902.903-.556 1.149-1.251 2.159-2.407 2.708.085 3.549.711 8.612.301 12.639-.397 3.9-2.121 6.173-4.514 8.426-9.564 1.612-12.016 7.397-23.774 7.223-.224-1.104 1.333-2.675.602-2.106 1.742-1.355 4.499-.389 5.418-2.106 1.208 1.331 2.452-.583 4.213.3.435-.366.402-1.201 1.203-1.204-.123-.58-1.166-.238-.903-1.204 1.874-.535 4.356-.458 5.418-1.805-3.21-1.833-8.864 1.426-12.338-.904.253-1.033.399-1.841 0-2.407.564-.04 1.016-.739 1.504-.299.518-.747.653-1.873.903-2.107-2.181-.504-5.908-.746-6.922 2.407-.088.806 1.168-.799.902.602-.536-.083-.618.285-.3.302-.168.871-.47-.462-.904-.302-.893 1.013-1.641 2.171-3.911 1.805-1.109 4.869-5.933 1.022-8.125 1.806.784-1.24.012-3.11-.302-4.213-.604-.103-.941.062-.902.602-5.34-1.624-.636-5.705-.301-8.426 1.099.133.567-.88 1.204-1.805.883-1.283 2.572-1.654 3.913-2.709.688-.541 2.062-1.777 2.709-2.407.036-.035-.458-.642-.302-.901 1.165-1.944 4.893-.222 5.719-3.011 1.576.55 2.454-.127 2.407-1.203 1.545.499 4.845.308 5.718-1.504.411 1.164 1.459-.054 2.105.602-.034-.987.783.095 1.202-.906zm-14.143 7.523c-.966.264-.624-.781-1.204-.902-1.524 2.23-3.075 4.849-3.611 7.221.168.435.47.734.904.902 1.514-1.393 2.419-3.396 5.114-3.611.737-.709-.449-.56-.3-1.503 1.803-.306 2.499-1.714 3.611-2.71-.961.258-.932-.474-1.505-.602-.047.354.053.854-.3.904.104-1.209-1.415-.795-1.806-1.505.146 1.597-1.065-.999-1.505.302.717.127 1.748 1.251.602 1.504zm.301 8.727c1.975-1.737 6.09-3.938 10.533-4.213-3.917-2.598-9.844 1.632-10.533 4.213zM216.067 162.202c.529-.568.625.079 1.506.301-.198.404-.644.56-1.204.602.027-.428.05-.852-.302-.903z"/><path fill-rule="evenodd" clip-rule="evenodd" d="M121.876 147.457c.35.253.807.397 1.506.302v.902c-.532.068-1.78-1.111-1.204-.301-.108.471-.53-.262-.602.301-1.1-.474.699-.451.3-1.204zM133.011 178.152c-.805-.09.799 1.167-.602.902.294.307.595.609.903.903-.729-.227-.463 1.533-1.806 1.504 2.216 1.266-1.845.249-2.408 0 .112-.512-.236-.567-.603-.602.722-1.291 2.361-3.25 2.408-4.213.754-.83 2.253.138 2.107 1.204.735-.3.641-.1 1.805-.3-.196.305-.692.311-.602.902-.475-.025-1.146.145-1.202-.3zM127.292 181.162c.305.474.364 1.076.602 1.805 1.118-.621.787.431 2.107.301-.58.551.257 1.02.602 1.505-.105.395-.53.473-.602.901-.725.125-.655-.548-1.505-.3.84.875.497 2.249 0 3.311-2.284-.28-2.444 1.566-4.512 1.504-2.137-1.488-.683-3.646-1.204-4.515.338-.791 1.166.405 1.504.604.844-.004-.717-.822.602-.604-1.067-.918.28-.942-.3-2.105.474.129.257.947 1.204.602-.107.395-.53.473-.601.902 1.883.345 1.082-2.947.901-3.009.083-.62 1.12-.283 1.202-.902zM121.576 189.889c.792.751 1.14.199 2.106.902-.242 1.09-1.865-.159-2.106-.902zM87.269 202.527c-.72-.12.168 1.372-.901.904-.243-1.765-.65-3.364-2.107-3.913 2.572-3.734 2.832 3.532 4.814 4.212-.596.77-1.198-.987-1.806-1.203zM115.556 217.575h1.806c.239 1.667 1.539 2.271 2.409 3.309-2.031-.478-3-2.016-4.215-3.309zM297.319 247.365c-.809.878-2.759 1.941-4.212 1.205 1.869-.722 1.623-1.461 4.212-1.205zM358.409 256.093c-.618-.383-1.527-.479-1.505-1.504 1.194-.618 2.722-.244 3.309.602-.153.326-1.913-.428-1.804.902zM282.275 256.694c2.111-.571 6.099 1.556 8.727 2.409-.342.983-1.008-.075-1.207 1.204-2.849-.862-4.438-2.985-7.52-3.613zM298.224 257.898c1.228-.689 2.877.434 3.007 1.805-.69.279-2.796-.604-3.007-1.805zM368.34 263.918c.071-.102 1.12-.577 1.505 0 .034-.994 2.566-3.994 3.008-.904-1.564.342-2.722 1.09-3.913 1.806-.433-.069-.102-.897-.6-.902zM335.239 271.742c-1.553 2.229-5.027.626-7.826-.3-.883.021-1.116.687-1.506 1.204 1.479-.538 1.97.547 3.913.301v1.203c-.585.62-2.78-.373-2.407 1.204-.865.062-1.527-.075-1.807-.601-.429 1.455-5.859 1.934-6.92-.603-1.267.383-1.264.467-2.408.603.501-.597-.028-.382 0-1.204.784-.385.908-.66 1.808-.3.563-.574-.181-.546 0-1.505 1.045-.564 1.142.343 2.105.602.619-1.011.622-.212 1.506 0-.152-.751-.803-1.004-.905-1.805-.943.334-.793.142-1.502-.301.749-1.761 3.091-3.734 1.502-6.019.13-.673 1.483-.122 2.108-.3-.843 1.305-.852 2.422-.302 4.213h-1.204c-.099 1.802 1.668 1.743 2.407 2.708.324-2.048 1.802-1.101 3.913-1.204-.7-2.665.374-4.209 2.407-5.416 2.162 2.356 6.003 2.091 6.921 5.116-1.188.871-1.938-1.583-1.804-1.505-1.151-.675-4.803.561-4.517-2.106-.803.199-1.101.904-1.503 1.504-.033 2.063 3.257 1.736 4.815 3.01.084.486-.286.519-.302.903 1.134-.9-.474 1.168 1.508.598zm-2.11-.301c-.877-.792-1.133-.334-2.407-.603.031 1.35 1.767 1.379 2.407.603zm-11.133.902c-.004 1.21.97 1.439 2.107 1.505.109-1.27-1.147-2.244-2.107-1.505zM311.463 274.451c-.547.456-1.036.968-1.807 1.204.05-.351-.065-.538-.299-.603-.286-.557 1.72-.185.601-.602.37-.433 1.036-.571 1.807-.602.134 1.269 1.422 1.386 1.804 2.408-.92.217-.883-.52-1.804-.302-.027-.426-.05-.853.299-.902-.071-.326-.597-.205-.601-.601zM118.266 287.691c-.436 1.138.827.576.602 1.505-.395.306-1.109.294-1.505.601.661.268.874 1.283-.3 1.204.27-1.536-.396-2.754 1.203-3.31zM380.376 300.932c.852-.261 2.158-.236 2.106 1.204-.612-.488-1.229-.976-2.106-1.204zM237.132 312.369c.498.04-.313 1.253 0 2.105-1.193.091-1.433-.774-1.804-1.505.641-.834 1.64.556 1.804-.6zM313.569 325.005c-.473.131-.255.948-1.203.604.497 1.789.951 2.199 1.506 4.211.541.041.634-.367 1.203-.299.09.794-.629.775-1.203.902.833.74 1.408-.352 2.105.302-.387.152-.622.316-1.506.601-.373 2.326 1.064 5.39-.299 5.418.084.618.803.6 1.204.901-.396 3.069.948 5.253 1.505 7.825-.8.003-1.772-.167-1.807.601-.438-.134.031-.265 0-.601-.642-.14-.572.43-.604.902-.56.289-1.004-.902-1.2 0-.653.05-.138-1.066-.302-1.505.628.659.917-.358.902-1.204.516-.971.006 1.564.901 1.204 1.318-1.933-1.848-1.954-1.204-4.212-.292.006-.233.367-.298.601-.42-1.738-1.963-4.904-2.411-6.619 1.229.091.162-.628.302-1.203.663.69 1.201-.075 1.204-.905-.292.01-.233.37-.302.604-.174-2.861-2.463-4.295-1.204-7.523-.771-.181-.181-1.516-.901-.902-.121-2.653-4.417-6.08-7.222-8.728.096-.641 1.427-.064 1.203.601.693.093.336-.867.901-.901 1.074-.069 1.574.432 1.507 1.505.773-1.353 1.306-3.431.603-4.517 2.134.138 4.108 5.16 6.32 9.029.951 1.667 1.865 2.498 2.407 4.215-.315.487-1.36-.829-2.107-.907zM240.442 319.892c1.396 1.113 3.674 1.344 6.021 1.502v1.808c-2.463 1.284-4.537-1.755-6.021-3.31zM206.438 483.598c-.444.348-.758.348-1.204 0-1.995 5.539-8.326 1.9-13.24 2.105.356.682-1.394 3.055-.301 3.31-4.286 2.597-3.456 8.473-4.815 13.243-.126.441-1.566 3.05-2.107 4.21-1.521 3.272-1.79 8.473-3.01 9.932-4.747 5.682-11.887-4.749-17.754-3.007-2.274-.993-.846-7.18-3.611-6.32-.42-.382-.13-1.474-.903-1.505-.269 1.819-.246-.562-1.806.301-1.864-2.612-.939-4.696-1.503-9.331 4.553-4.329 11.655 1.095 17.755-.6 3.316-.925 4.06-3.315 7.523-5.115 1.663-5.621 4.182-9.26 5.716-15.351 2.376-.313 1.251 2.404 3.312 1.506-.488-2.08-1.359-2.071-1.505-4.211 5.239 1.367 4.398-4.755 8.727-3.312 2.813-4.805 4.33-11.427 5.117-15.647.292.01.233.367.302.604.114-3.527.017-6.706 2.708-8.429-.782-.883.527-1.993-.3-2.706.168-.628.468-.638.902-.302 1.72-3.2 1.069-6.547 1.506-9.931.193-1.499 1.343-5.446 2.105-6.622.028-.04.553.417.602.302.357-.85.011-2.743 1.204-3.31-.194-.308-.692-.311-.602-.904 1.564-.709.88-1.91 2.106-2.706-.075-.33-.598-.206-.601-.604-.051-1.191.461.097.902-.6.556-6.955 5.214-11.859 3.913-17.757 2.163-3.028-.333-7.297 3.31-9.931.08-1.082-.556-1.449-.602-2.407.778-1.58 1.057-2.52 2.707-3.611.005-2.13.324-4.354 2.408-5.418-.346-.354-.341-1.063-.301-1.804.401.588 1.642-2.88 1.204-3.912.871-1.241 2.395-3.416 1.505-5.418.601-.896 2.252-2.632 1.506-4.814.485.083.517-.283.901-.302.451-4.763 3.754-5.854 3.912-11.135 1.503-.336.119-.914 1.503-.902.461-5.505 2.861-8.236 5.418-12.938-.877.053-.118-.562-.302-2.108 4.441-2.821 4.469-7.761 6.924-12.037 1.032 6.404-1.768 15.116-2.71 21.065-1.437 2.358-2.752 4.855-3.61 7.825-3.076 10.615-7.256 20.976-10.534 31.898-1.735 1.596-1.297 3.9-1.804 6.32-2.32 2.314-1.065 5.271-3.01 7.523.751 1.387-.221 1.695-.602 3.008-.619 2.14-.346 4.948-.902 6.621-.238.716-1.062 1.023-1.204 1.805-.1.547.564.746.602 1.203.083 1.052-1.569 3.054-1.805 4.815-.134.994.583 3.277-.603 2.41.506 2.354-2.235 4.18-.903 5.414-2.228 2.796-2.464 7.701-3.31 11.135-.05.352-.549.255-.903.302-.512 7.15-3.452 13.94-5.117 21.367a217.512 217.512 0 0 0-1.805 9.025c-1.241 6.894-1.202 12.911-3.011 17.758zM317.482 331.326c.187-1.388-.675-1.732-.601-3.008 1.08.824.662 3.144 2.105 3.61-.652 1.109-.667-.901-1.504-.602zM117.965 359.613c-.294-.006-.234-.367-.302-.601.11 2.494-.048 4.317-.602 7.222-1.688.273-4.945-.363-6.922 0-1.354 1.353-2.188 3.229-3.009 5.116 1.256.078-.411 3.086-1.805 3.31-.148.949.542 1.063.302 2.105-1.436-.43-.749 1.26-2.107.905.615-7.642.204-10.428 3.611-15.349-.787-1.539.102-3.061 1.204-3.611-1.761-2.52 2.404-3.358 1.505-6.92 4.106-4.208 6.579-11.145 10.533-15.65.245-.233.031-1.456.602-2.105.821-.218.604.597 1.204.603-.855-1.368 1.113-2.948 2.105-2.41-.382 2.426-1.202 4.416-3.009 5.418.131.37.386.619.903.604 1.13.227.207-1.599 1.504-1.204.182 4.538-1.546 5.307-2.106 9.026-1.464-.629-.222.245-.602 1.204-.188.473-2.433 2.718-2.709 4.214-.115.622.471.901.3 1.505-.584 2.08-2.267 3.513-.6 6.618zm2.708-18.055c.083-.619.804-.601 1.203-.902-.126-.575-.109-1.297-.902-1.203-.33.297-1.13 1.638-.301 2.105zm-2.107 4.815c.444-1.263 1.626-1.785 1.505-3.611-1.886-.096-2.61 2.485-1.505 3.611zm-7.824 16.851c1.812-.299 2.323-3.487 2.107-4.815-.953 1.297-2.337 3.285-2.107 4.815zM318.987 333.732c.7.106 1.409.196 1.204 1.204-.426-.024-.852-.05-.901.302-.405-.208.145-.803-.303-1.506zM319.587 335.841c.693-1.331 2.105.846 2.109 2.105-1.374-.624-.497-1.57-2.109-2.105zM157.085 345.773c-.799.907-1.816.232-2.709.6.618-.697 1.9-.909 2.709-.6zM212.157 346.071c.434.454-.967 1.627-2.107 1.506-.037-.539.369-.636.302-1.204.527-.174 1.767.363 1.805-.302zM315.075 346.674c.093.068 1.969 3.414.902 4.211.046.557 1.02.187 1.203.604.934 4.846.016 7.539 1.506 12.037 1.561.049.04 2.854.604 4.214-.812-.538-.582 1.325-.905.298-.317.062.811 2.091-.601 2.411 1.623 1.109-.777 2.08-.604 3.61-.905-.397-1.856-.752-2.105-1.807.612.09.591.815 1.203.902.035-4.05-.861-5.686-.301-10.229-.047-.354-.548-.256-.902-.303.709-5.101.097-10.359-2.105-15.948.936.258 1.292.88 2.105 0zM102.015 349.082c.905-.777.384 2.36-1.204 1.804-.289-1.11 2.055-1.13 1.204-1.804zM91.481 356.605c1.167-.924 1.781-1.405 3.011-.302-.165.939-1.258.949-1.203 2.105-1.03.228-.383-1.222-1.506-.902-.056.256.117.284.301.302-.266.809-.84-.522-.603-1.203zM138.127 365.63c.914-.688 3.223.016 3.911-.901.533 1.692-3.161.385-3.611 2.407-.998-.095.793-1.312-.3-1.506zM128.196 365.63c.776.075-.413.521 0 1.204.693.093.334-.868.902-.901.538-.085.617.286.301.301.272 1.015.674.034 1.204.601-.195 1.879-2.2.225-3.611.604-.14-1.163-1.66-.949-2.408-1.505 1.166-.773 3.233-.139 3.612-.304zM470.958 392.114c-.513.112-.568-.233-.603-.603-.977.521.783.789.301 1.807.305-.196.311-.69.902-.604.794.942-.221 2.009-.303 3.011.274.821.676-.914 1.208 0 .537 1.808-.211 1.474-.604 3.31 1.491-1.058.438 2.357.902 4.516-.725.277-1.126.88-1.507 1.505-3.477-3.455-1.373-10.648-4.21-14.748 1.593-1.888.693-3.748 1.203-6.019-.87-1.654-2.319-4.848-1.506-6.319-1.927-1.151-.97-3.344-2.708-5.415 1.559-.641 2.47 2.896 2.408 3.913.258.053.285-.119.3-.303 1.605 4.37 4.33 9.816 4.217 15.949zM94.19 372.554c.336.273.096.561.302 1.505-.942.138-1.343-.261-1.203-1.203.426.025.851.05.901-.302zM64.398 374.358c.757.846-.271 1.732-.3 2.709-.291-1.368-2.91-1.667-3.311-1.203-.997.033.336-1.298.302-.302.421-1.083 2.218-.79 3.309-1.204z"/><path fill-rule="evenodd" clip-rule="evenodd" d="M62.292 376.765c-1.32.156-.989.097-2.107.302.055-1.31 1.431.36 1.204-.902.725-.123.654.552 1.505.303.051.752-.464.941-.904 1.203-1.024-.324.839-.093.302-.906zM151.969 376.467c.119 1.122-1.878.124-2.106.901-.537-.314 1.613-1.564 2.106-.901zM97.2 388.503c.564-.575-.179-.544 0-1.505.851.251 1.858.348 2.709.603 1.023-.481.35-2.659 2.408-2.108-.089 1.226-1.058 1.751-.302 3.011-3.246.382-5.445 1.082-7.522.6.382-1.55 1.823-.162 2.707-.601zM247.966 396.929c.171 1.166.649 2.146-.299 2.708.121.579 1.166.236.901 1.204-2.255.615-2.571 5.129-1.807 6.92 1.661-1.402 4.336-.6 5.418.905-.407 1.297-3.058.352-2.709 2.407-1.459-.348-2.464-1.146-3.31-2.108-1.421 2.821.084 6.096 0 9.633-1.204.783-1.747 1.766-1.807 3.008-.747-.623-.501-.069-1.502-.903.54-3.993-.387-7.693 1.804-11.134-.003-.597-.821-.383-.601-1.204.853.01 1.126-1.872.299-1.807 2.625-2.049-.293-5.604 1.807-8.124-.131-.37-.385-.618-.901-.604 1.637-.711.736-.606 2.707-.901zM151.669 406.86c.275.817.561-.803 1.504-.302.215.988 1.143 1.266 1.807 1.807-.099.703-.362 1.244-.603 1.805-.977.174-1.4-.206-2.106-.299.073 1.229 1.611.995 1.504 2.407-.97-.833-1.547-2.065-2.708-2.709-.057.444.077 2.071-1.805 1.505.235 1.369 1.028 2.181 2.105 2.706.008.709-.518.887-.3 1.807-1.561-.568-2.229 2.122-3.61 2.709-2.407-.989-4.151-.127-5.719 1.204-.143 1.331.414 1.496 0 2.407-1.464.161-1.409-1.2-2.407-1.505.166.534.154 1.25.602 1.505-1.013.532-1.799-.053-3.311.302-.267-.637-.916-.89-.901-1.807 1.191-.625 2.13-.535 3.611-.302-.103-1.102-1.032-1.378-1.806-1.805.367-.541 1.847.34 3.009 0 .076-1.182-1.088-1.119-.903-2.406.561-.044 1.006-.199 1.204-.604-.741-1.795-4.16-1.35-3.911.902-3.076.099-5.556 1.116-7.825-.299 1.088-.896 2.651-2.318 4.514-1.506 1.144-2.644 4.324-1.751 6.62-.901.317-3.879 6.447-.423 9.029-2.408-.096-.709-.476-1.132-.302-2.108.574-.563.756-.031 1.506 0-.078-1.381-.32-1.453 0-2.709-2.204.37-2.841-.091-4.515-.601.414-.951.066-1.004 0-2.105 1.987.712 1.996-.591 3.611-.905-.242 1.688 1.538 2.078 2.709 1.808-1.194.363-.75 2.233-.603 2.407z"/><path fill-rule="evenodd" clip-rule="evenodd" d="M137.525 405.055c-.414-.693-1.239-.97-1.805-1.505 2.841.535 6.888.013 9.329 1.505-.204 2.374-3.104 1.621-5.117 1.201-1.662.846-2.167 2.852-3.311 4.214-2.802-3.129-6.645 4.644-9.329.604a13.738 13.738 0 0 1 3.913-.301c1.661-2.312 6.3-2.706 6.32-5.718zM158.29 412.577c-.18-2.387 1.565-2.847 2.106-4.514-.098-1.405-2.334-.675-2.407-2.105 4.135-1.3 5.108 3.291 3.309 7.524.542.559 1.787.419 1.505 1.804-1.782-.557-2.169-3.667-4.513-2.709zM123.984 406.86c-.804 1.34 1.001 1.238 1.503 2.105.041 1.145-.787 1.421-1.805 1.505.811-3.586-4.054-2.749-4.815-3.008 1.612-.913 2.868-.745 5.117-.602zM158.29 414.082c2.539 1.475 5.466 2.561 6.921 5.116-2.347-2.156-5.793-1.565-6.921-5.116zM164.909 419.801c1.419-.118.572 2.034 2.107 1.805-.838.721-2.01-.784-2.107-1.805zM144.146 421.303c.622-1.387 2.738.575 3.311 1.204-.555.24-2.388-.811-3.311-1.204zM148.358 423.111c.171-.166 5.057 1.229 1.204.901-.296-.407-.803-.6-1.204-.901zM473.366 423.71c.548.766-.837 2.165-1.808 2.407.243-1.159 1.53-1.277 1.808-2.407zM93.589 427.624c.63-.575 1.437-.971 2.408-1.204.185 2.192-1.516 2.498-2.707 3.312.566-.7 1.232-1.272.299-2.108zM146.252 431.536c.418.482 1.485.321 1.806.902-1.658 1.446-3.541-2.734-6.02-1.505-.64-.763-.231-2.576-1.504-2.706.577-.628 1.154-1.254 2.107-1.506 3.159 1.704 6.905-.206 10.231.601-.062.868.076 1.53.602 1.807-1.033.474-2.35.66-3.311 1.204-.332 1.537 2.138.271 1.805 1.807-1.957-.875-3.35-2.172-5.716-.604zM136.322 442.67c-1.545-2.668-6.175-2.251-7.524-5.116-.95.146-1.062-.541-2.107-.301 1.081-2.069-1.536-2.812-3.009-3.31-1.994.37-2.635 4.073-4.815 2.407-.992 1.483.205 4.45-2.107 5.116-.144 2.507-.088 3.347-.602 5.418-1.295-.395-1.182.622-1.503 1.203-.924-.357-1.471.109-2.408-.604-3.259 2.806-8.596-.429-7.223-6.018 6.169-.153 6.284-6.357 10.232-8.728.249-.849-.425-.781-.302-1.505 1.549-.859 1.739-3.077 3.611-3.611 1.533.373 2.303 1.509 4.214 1.505 2.467 3.953 7.515 5.325 10.833 8.426 1.745-1.13 6.863 3.582 2.71 5.118zm-17.455-7.221c1.507.202 1.804-.803 2.408-1.505-1.037.266-2.532.077-2.408 1.505zM480.888 431.235c-.009.292-.369.232-.603.301.899.606 2.998 1.275 2.104 2.709-.986-.621-4.056-2.413-1.501-3.01zM451.998 448.991c.343.056.169.302 0 .302.452.992.738-.625 1.506-.302v.901c-.242-.158-.488-.313-.901-.301.131.369.382.618.901.604.225.927-.827.577-.604 1.505-.942-.949-1.014.51-2.105.299.025-.427.049-.853-.302-.902 1.077.082.622-1.033 1.505-2.106zM94.492 464.336c-.199-1.098.65-1.154.602-2.106-.94-1.318-4.688-1.259-3.913-3.309-1.655.152-1.499 2.112-2.408 3.008-1.154-.881-.06-3.307.603-4.212 1.208.196 2.804.003 3.009 1.204 1.316-.395.64-1.412.602-2.709 2.16-.146 2.689-1.925 3.311-3.611 1.767 1.646 2.871 3.951 3.31 6.92-.749-.046-.932.474-1.504.604 1.258 1.946-1.965 3.383-1.505 4.513-.161.523-1.45-.327-2.107-.302zM130.001 458.019c-.205-.407-.916.262-1.204-.603-.771.03-.484 1.123-.903 1.505-.568-.034-.208-.995-.902-.902 1.109-.668 1.014-.749 1.204-2.108 1.426-1.583 5.636-.383 7.524-1.502-3.638 8.298-8.26 15.612-14.445 21.364-.048.351.066.534.301.603-1.218-.376-5.326-1.228-6.02 1.205-2.299-.008-3.646-.968-6.318-.604-.845.296.437.803-.302 1.204-3.361-2.376-6.597-6.074-6.921-10.532 1.532 1.27 3.906-.052 4.515-1.505 1.101.905 4.912.921 6.018 0 .712.084-.345.803-.3 1.204 2.518-1.264 6.096-2.669 8.125-2.709.778-.426.542-1.866 2.106-1.506-.911-.746 1.477-1.082 2.407-1.804.701-.544.524-1.527.903-1.808.97-.714 3.369-.392 4.212-1.502zM44.237 461.027c.393 1.673 1.945 1.011 3.61.902-2.141 8.409-3.279 17.343-5.116 23.474-2.381 1.23-3.328 3.896-4.814 6.018-1.44-.971.447-3.143 0-4.814-.102-.377-1.201-.807-1.204-1.203-.008-.928 1.918-2.847 2.407-4.815.398-1.599-.095-1.779 1.203-2.407-1.199-1.51-1.179-4.237-2.707-5.415.669-.333 1.476-.531 1.503-1.505-1.184-2.43-3.269-3.954-5.718-5.117.414-1.492 1.758-2.056 3.311-2.407.556 1.623.622 2.438 0 3.007.423 1.083 1.011 2 2.407 2.11.672-2.017 2.272-3.586 1.203-5.721 1.036.688 1.532-.846 2.107.302-.61-2.97-4.159-1.648-7.523-1.204-.142-.945.81-.792.903-1.505-.256-.444-.757-.646-1.505-.6.242-1.046-.448-1.157-.3-2.106 5.328-1.961 6.066 4.865 10.233 3.006zm-3.612 9.028c1.125-.18 2.136-.47 2.105-1.806-.524.023-.934-.066-1.204-.299.002 1.002-.977 1.027-.901 2.105zM52.06 472.163c-.586 1.336.228 2.216-.602 3.308-.267-.184-.538-.359-.601 0 .144-.168.177-3.022 1.203-3.308zM13.24 476.074c.596-.693-.32 1.462 0 2.407-.578-.128-1.085.206-.601.302-1.254.414.11-2.124.601-2.709z"/><path fill-rule="evenodd" clip-rule="evenodd" d="M12.338 509.176c-.216-2.895-3.081-3.138-5.418-3.913-1.631-1.878-2.877-4.142-2.408-8.124 1.354.152 2.078.934 1.806 2.709 3 .261 5.477-2.528 6.622-5.115 1.318-.318.987 1.017 2.105.901.741-.864.906-2.305 1.806-3.008 1.928.221 2.625-.787 2.407-2.708-.254-.569-1.55-1.634-1.806-1.205-.861-.711.3-1.703-.3-2.407 1.075.43 1.35 1.658 2.407 2.106.875-.262.339-.452.3-1.204 2.784.305 4.095-.152 5.719-1.505 1.421.433 2.934.852 3.61-.902-.699-.799-1.62-.481-2.708-.301-.031-.934.948-.859.603-2.106 2.074.37 2.106-1.303 3.309-1.807 1.42-.013 1.838.974 3.312.904.9 4.05.457 8.488 1.805 12.037-.851 2.06-2.778 3.038-3.611 5.117 4.73.608 6.839-3.1 11.134 0-.552 2.92-3.912 2.795-5.718 3.61-2.504 1.129-3.814 2.759-6.018 4.21v-.9c-1.956-.082-2.378 2.742-4.212 1.806-.921 1.086-1.359 2.653-1.505 4.515-.351-.051-.536.064-.602.3-4.459-1.803-.168 6.775-5.718 7.523.478-1.43 1.137-2.677 2.107-3.61-1.272-.883-.432-1.564-.302-2.708-1.015-.891-1.476-2.336-3.009-2.71-1.975.601-1.932 2.423-3.009 3.31-.574-1.777.027-4.52-2.708-4.815zm16.851-19.56c.288-1.618 1.997-1.816 2.107-3.61-1.276.435-3.012 1.992-2.107 3.61zm-3.61-.903c-.116 1.957 2.469-.033 1.505-.603-.257.448-.758.648-1.505.603zm-.903 15.048c2.343-1.618 4.007-2.301 5.716-4.215-1.486.52-2.412-.588-3.611-1.806-.852-.051.25 1.856-.602 1.806-.302 0-.358.243-.602.302-.604-.5-1.398-.809-1.504-1.807 1.656-.149.09-2.27 1.204-3.309-.938-.67-1.778-1.431-3.009-1.808-1.978 4.197.059 8.433 2.408 10.837zM26.481 534.154c1.398-.709-.599 8.035-.602 2.709-.001-1.048.068-3.741 1.204-3.913-.893-.929-.164-1.916.3-3.011-.262-.438-.45-.951-1.204-.9.743-2.069.969-3.188 0-5.117 1.019.198 2.043-.6 3.009-.902-.049-1.253-.104-2.513.603-3.01 3.274.235 5.497 1.527 6.019 4.516-1.13-.808-1.965-.405-3.613-.301-1.36 2.45-2.472 5.149-2.707 8.726-1.137.921-1.731.515-3.009 1.203zM233.522 551.608c1.138-.665 1.748.567 3.011 0-.747.797-1.132 1.283-.604 2.71-1.446.441-1.257-.753-2.407-.604-.427-1.994.37-1.383 0-2.106zM126.089 563.042c.708-.094 1.131-.473 2.107-.3-.524.791-1.249 1.559-1.805 1.505-.454-.263.082-.45-.302-1.205zM111.343 564.547c-.061.716.686 2.249.302 1.808-.875.428-.338.229-.302-.604-1.024.693-2.837-.541-3.911 1.808-.946-.81-1.805.056-3.01-.604-2.378 1.648-6.265 1.969-9.629 1.203-.048.352.066.538.301.604-1.719.487-6.878.945-8.727.6.18.516-1.535 1.393-2.107.301-.776.025-.317 1.288-1.504.902.317-.846 1.191-.373.602-1.502 2.787.908 4.88-2.619 7.222-1.203 2.756-2.937 7.83-1.726 10.533-3.312 3.833.201 8.035.108 12.338-.3-.24 1.064-1.727.887-2.108.299zM31.596 564.547c1.299-.393.374 1.434 1.505 1.203-.553 1.052-.058 1.278.3 2.109-.349-.051-.535.065-.6.298-.931-.149-.678-1.865-.904-1.203-.572-.022.187-1.399.603-.6.115-1.021-1.333-.472-.904-1.807zM155.28 570.267c-1.89.128-5.242 1.163-7.824.601 2.284-1.372 6.448-.773 7.824-.601zM53.565 575.682c-.628-1.095-.199-1.388-.602-2.71.484 1.624 3.719.495 3.911 2.408 1.062-.303.552-.519.904-1.203.851-.251.779.425 1.505.301.942-.209.392-.804.3-1.506 4.625-1.27 8.068.128 12.94-1.502 1.065-.034-.639-.996.302-.905 1.044-.447 4.414.732 5.417.303.083.991-.686 3.723-1.204 5.115 2.822 1.819 7.56-.733 10.833.6-2.898.515-5.758 1.064-9.329.905-.962.543-.344 2.666-1.204 3.31-12.119 3.027-30.229 3.173-43.333 1.506-.412-1.005-1.867-2.192-.904-3.61-.177-.625-.579-1.027-1.204-1.205.686-.718 1.322-1.485 2.107-2.107-1.017 1.641.928 1.949 1.805 1.202.084.489-.284.521-.301.905.096.515.931-.276 1.204.602.556-.044.185-1.018.602-1.204.392.899 3.403-1.148 5.116.603.447-.13-.118-.385 0-.905 1.709-.518 3.248.667 3.913-.9.529.074.686.519.603 1.203.195-.529 1.973-.679.602-.303 1.361.235 4.422.791 6.017-.903zM90.278 617.511c-.073.438-1.497-.277-1.204-1.205 3.174-1.468 7.447.888 10.835-.6-2.242 2.456-6.515.934-9.631 1.805zM25.278 407.462h1.204c-.178.958.564.931 0 1.503-.865-.037-1.429-.376-1.204-1.503zM162.202 420.703c1.298-.195 1.687.52 2.407.903.038.54-.369.634-.302 1.203.256.883.969-.181 1.505 0-.944 2.873 2.857 2.463 2.407 5.717-3.82-.794-4.138-5.089-6.017-7.823zM50.556 475.773c1.698 2.382-2.633 6.359-1.805 10.833-.675.901-1.764 2.064-.904 3.613-1.513.062-1.505 2.316-1.204 3.31-1.35.053-1.752 1.055-2.708 1.505-.725-1.237.814-2.789 1.205-3.913-1.11-2.904.519-6.425 2.708-8.425-.024-.479.145-1.148-.3-1.204 1.868-1.039 1.498-4.321 3.008-5.719z"/></svg>