<?xml version="1.0" encoding="utf-8"?>
<!-- Generator: Adobe Illustrator 14.0.0, SVG Export Plug-In  -->
<!DOCTYPE svg PUBLIC "-//W3C//DTD SVG 1.1//EN" "http://www.w3.org/Graphics/SVG/1.1/DTD/svg11.dtd" [
	<!ENTITY ns_flows "http://ns.adobe.com/Flows/1.0/">
]>
<svg version="1.1"
	 xmlns="http://www.w3.org/2000/svg" xmlns:xlink="http://www.w3.org/1999/xlink" xmlns:a="http://ns.adobe.com/AdobeSVGViewerExtensions/3.0/"
	 x="0px" y="0px" width="640px" height="640px" viewBox="-60.055 1.638 640 640" enable-background="new -60.055 1.638 640 640"
	 xml:space="preserve">
<defs>
</defs>
<path fill-rule="evenodd" clip-rule="evenodd" d="M251.623,37.921c1.542,0,3.083,0,4.624,0
	C256.973,41.824,251.286,41.081,251.623,37.921z"/>
<path fill-rule="evenodd" clip-rule="evenodd" d="M211.85,46.247c2.599,1.483-2.004,3.457-1.85,5.55
	c2.846,0.688,1.777-2.539,4.625-1.85c-2.91,8.14-11.503,0.629-15.725-0.923c0.678-0.866,1.683-1.403,2.776-1.851
	C205.231,47.9,209.279,50.087,211.85,46.247z"/>
<path fill-rule="evenodd" clip-rule="evenodd" d="M234.973,49.023c-2.017,3.195,0.65,4.561,2.775,4.623
	c0.333,5.376-4.592,4.626-8.325,3.699c-3.178,2.411-4.394,3.796-4.624,7.399c-1.786-0.373-0.081-4.233-3.7-2.773
	c0.638-1.828,2.467-2.465,4.625-2.776C222.088,54.779,227.42,47.916,234.973,49.023z"/>
<path fill-rule="evenodd" clip-rule="evenodd" d="M222.95,51.796c-0.128,6.347-4.471,8.479-5.552,13.874
	c-2.545-2.243-1.669-5.847-4.623-9.249C214.23,51.328,217.236,50.923,222.95,51.796z"/>
<path fill-rule="evenodd" clip-rule="evenodd" d="M201.677,51.796c-0.841,1.934-2.73,2.82-5.552,2.774
	C196.967,52.637,198.856,51.751,201.677,51.796z"/>
<path fill-rule="evenodd" clip-rule="evenodd" d="M175.778,84.168c0.592,2.492,3.57,2.597,3.7,5.551
	c-2.976-0.418-4.771-2.013-5.55-4.625C175.002,85.245,175.573,84.889,175.778,84.168z"/>
<path fill-rule="evenodd" clip-rule="evenodd" d="M262.722,121.166c-0.843,1.607-3.241,2.391-4.625,0.925
	c6.221,5.934-8.926,8.282-5.55,16.649c-5.992-0.134-9.522,2.194-15.724,1.85c-2.943-1.274,3.269-0.915,4.625-0.924
	c0.156-2.006-3.28-0.42-4.625-0.926c1.951-2.366,4.343-4.291,4.625-8.325c-4.625-2.049-8.21,0.344-13.875-0.924
	c2.992-3.099,11.701-3.571,16.65-1.85c-7.918-12.854-26.678-0.871-28.674,9.25c-0.333-15.755,22.757-31.275,36.997-19.424
	C257.557,114.574,258.743,120.302,262.722,121.166z"/>
<path fill-rule="evenodd" clip-rule="evenodd" d="M160.979,143.364c1.232,0,2.465,0,3.7,0
	C165.407,146.925,160.25,146.925,160.979,143.364z"/>
<path fill-rule="evenodd" clip-rule="evenodd" d="M199.825,183.137c4.207,0.15,3.171,7.082-0.925,6.475
	C197.676,186.858,197.953,184.919,199.825,183.137z"/>
<path fill-rule="evenodd" clip-rule="evenodd" d="M193.352,184.986c2.354,0.113,3.586,1.347,3.7,3.699
	C194.155,189.114,192.922,187.882,193.352,184.986z"/>
<path fill-rule="evenodd" clip-rule="evenodd" d="M206.3,203.486c0.674,2.523-1.838,1.861-1.849,3.7
	c2.846,0.688,1.777-2.539,4.625-1.85c0.165,2.546-6.277,6.55-1.85,7.398c-0.557,1.91-1.43,3.502-4.626,2.774
	c2.016-5.007-1.569-6.902-1.849-12.022C202.913,203.2,204.572,201.673,206.3,203.486z"/>
<path fill-rule="evenodd" clip-rule="evenodd" d="M220.174,208.11c0.134,2.6-2.265,2.668-4.625,2.775
	C216.396,209.263,217.269,207.671,220.174,208.11z"/>
<path fill-rule="evenodd" clip-rule="evenodd" d="M219.249,216.434c0.095,5.173-8.083,4.402-9.249,5.55
	C205.505,216.22,216.261,217.789,219.249,216.434z"/>
<path fill-rule="evenodd" clip-rule="evenodd" d="M228.5,224.759c4.29,0.508-0.183,5.997-0.926,7.399
	C224.436,229.844,230.11,228.601,228.5,224.759z"/>
<path fill-rule="evenodd" clip-rule="evenodd" d="M255.322,233.082c2.377,3.616,1.575,7.511-0.926,10.175
	C250.699,242.681,256.16,236.806,255.322,233.082z"/>
<path fill-rule="evenodd" clip-rule="evenodd" d="M283.07,234.008c2.632,1.233-0.715,4.112-0.926,5.55
	C278.299,238.453,282.856,236.391,283.07,234.008z"/>
<path fill-rule="evenodd" clip-rule="evenodd" d="M226.65,235.858c1.581,1.047-0.324,6.398-3.7,5.549
	C221.813,237.188,226.192,238.485,226.65,235.858z"/>
<path fill-rule="evenodd" clip-rule="evenodd" d="M217.398,239.558c-0.488,0.743-0.963,1.502-0.924,2.773
	c-0.743-0.489-1.5-0.963-2.775-0.924c-0.898,0.024-0.716,1.133-0.923,1.85c-2.35-1.235-0.583-6.046,2.774-4.625
	C214.224,241.322,214.842,239.672,217.398,239.558z"/>
<path fill-rule="evenodd" clip-rule="evenodd" d="M229.423,238.632c3.048,0.44,2.617,8.841-0.924,8.325
	C229.704,242.331,226.693,243.039,229.423,238.632z"/>
<path fill-rule="evenodd" clip-rule="evenodd" d="M252.546,257.131c2.623,2.685-1.134,6.836-2.774,8.323
	C246.491,262.113,251.463,259.177,252.546,257.131z"/>
<path fill-rule="evenodd" clip-rule="evenodd" d="M165.603,281.179c3.714,2.185-5.376,6.724-2.774,13.875
	c-1.806-3.036-5.412-6.345-2.775-11.099C163.285,285.708,164.709,284.039,165.603,281.179z"/>
<path fill-rule="evenodd" clip-rule="evenodd" d="M104.558,304.302c2.058-0.408,5.016,2.857,5.55,0.926
	c1.255,0.287,0.768,2.317,0.924,3.7C108.958,307.302,104.385,308.177,104.558,304.302z"/>
<path fill-rule="evenodd" clip-rule="evenodd" d="M209.076,322.8c5.113-2.665,11.831,2.917,9.249,8.325
	c-2.827,0.67-3.37-0.945-5.549-0.926C214.986,327.312,213.227,322.216,209.076,322.8z"/>
<path fill-rule="evenodd" clip-rule="evenodd" d="M236.823,337.603c3.457-0.99,2.636,2.295,5.549,1.848
	C241.425,341.513,236.182,340.18,236.823,337.603z"/>
<path fill-rule="evenodd" clip-rule="evenodd" d="M110.107,344.075c-9.01,1.663-14.11-0.579-20.348-0.926
	C94.84,337.741,105.787,339.702,110.107,344.075z"/>
<path fill-rule="evenodd" clip-rule="evenodd" d="M176.701,350.549c2.033,1.945,0.193,4.113-0.923,5.551
	C172.995,356.059,173.09,349.532,176.701,350.549z"/>
<path fill-rule="evenodd" clip-rule="evenodd" d="M454.181,357.948c8.545,12.897,13.967,23.849,14.802,43.473
	c-5.393-6.941-6.864-17.802-10.177-26.823c-0.899,0.026-0.719,1.133-0.927,1.848C458.365,371.564,456.34,364.898,454.181,357.948z"
	/>
<path fill-rule="evenodd" clip-rule="evenodd" d="M448.633,369.972c3.429-1.546,5.605,6.09,6.474,10.177
	C449.812,379.893,452.623,371.533,448.633,369.972z"/>
<path fill-rule="evenodd" clip-rule="evenodd" d="M235.899,385.696c0.423,2.891-1.976,2.958-4.626,2.773
	C232.118,386.852,232.993,385.26,235.899,385.696z"/>
<path fill-rule="evenodd" clip-rule="evenodd" d="M397.762,392.169c2.784,1.751,1.396,5.672,0.926,9.252
	C395.673,401.108,396.564,393.833,397.762,392.169z"/>
<path fill-rule="evenodd" clip-rule="evenodd" d="M146.18,419.918c1.629,0.84,1.527,3.406,3.699,3.7
	c-4.104,2.163,1.882,2.235,0.926,6.478C148.26,428.01,143.863,423.896,146.18,419.918z"/>
<path fill-rule="evenodd" clip-rule="evenodd" d="M381.111,424.544c-0.786,0.169-0.869-0.361-0.922-0.926
	c-0.899,0.026-0.719,1.133-0.926,1.852c-0.745-0.489-1.502-0.968-2.777-0.926C376.836,422.067,381.405,420.208,381.111,424.544z"/>
<path fill-rule="evenodd" clip-rule="evenodd" d="M172.078,444.894c-1.302,1.37-2.953,1.987,0.923,1.848
	c-2.681,2.955,3.508,2.646,4.625,4.626c-3.613,2.34-6.627-3.828-11.098-3.7c0.568-0.824,1.118-1.652,0-1.848
	C167.063,442.767,170.021,444.49,172.078,444.894z"/>
<path fill-rule="evenodd" clip-rule="evenodd" d="M366.312,447.667c2.826-0.67,3.373,0.945,5.552,0.926
	c0.896,4.595-1.392,6.007-5.552,5.547C368.398,452.142,365.55,450.986,366.312,447.667z"/>
<path fill-rule="evenodd" clip-rule="evenodd" d="M178.553,450.44c0.218,3.481,5.318,2.082,5.55,5.551
	c-2.058-0.719-3.608-1.941-6.477-1.852C178.347,453.319,178.621,452.052,178.553,450.44z"/>
<path fill-rule="evenodd" clip-rule="evenodd" d="M364.466,462.465c2.472,2.236,0.259,7.606-3.7,6.478
	C359.46,464.245,362.82,464.215,364.466,462.465z"/>
<path fill-rule="evenodd" clip-rule="evenodd" d="M117.507,472.643c4.369,2.25,8.677-0.354,13.874,0
	c-0.021,2.179,1.594,2.72,0.926,5.547c-4.648-0.813-6.194,0.241-12.024,0C119.46,476.236,117.465,475.457,117.507,472.643z"/>
<path fill-rule="evenodd" clip-rule="evenodd" d="M235.899,479.115c1.541,1.234,5.886-0.335,5.549,2.773
	C238.636,481.927,235.361,482.427,235.899,479.115z"/>
<path fill-rule="evenodd" clip-rule="evenodd" d="M242.372,480.041c2.217,0.557,4.221,1.328,7.4,0.922
	C249.327,485.559,242.511,483.492,242.372,480.041z"/>
<path fill-rule="evenodd" clip-rule="evenodd" d="M133.231,495.766c8.417,3.259,14.542,3.24,22.199,0.921
	c0.393,1.766,2.642,1.676,1.85,4.626C149.474,502.348,133.939,506.461,133.231,495.766z"/>
<path fill-rule="evenodd" clip-rule="evenodd" d="M280.293,542.011c1.543,0,3.086,0,4.626,0c-0.783,1.988-2.277,3.271-5.547,2.774
	C279.86,544.04,280.335,543.283,280.293,542.011z"/>
<path fill-rule="evenodd" clip-rule="evenodd" d="M95.31,563.284c2.058,0.388,0.723,4.906,0,5.55
	C91.651,567.849,95.544,566.026,95.31,563.284z"/>
<path fill-rule="evenodd" clip-rule="evenodd" d="M191.502,579.935c-0.403,2.061-1.635,3.297-3.7,3.697
	c0.117-1.659-1.133-1.949-0.926-3.697C188.092,578.745,190.286,578.745,191.502,579.935z"/>
<path fill-rule="evenodd" clip-rule="evenodd" d="M0.966,0C173.618,0,346.275,0,518.93,0c0,213.969,0,427.931,0,641.903
	c-172.967,0-345.924,0.001-518.889,0.001c0-213.048,0-426.083,0-639.128C-0.039,1.462-0.112,0.156,0.966,0z M199.825,77.694
	c9.432-0.237,14.719-2.208,20.349-0.925c2.604-1.39-2.349-3.896,0-4.624c0.252,0.841,4.095,2.456,3.7,0.924
	c0.821-3.208,6.694-5.597,10.175-7.4c-1.242-0.607-1.724-1.978-1.85-3.699c1.934,2.015,2.64-0.463,5.549,0
	c4.458,8.372,15.982-0.625,19.424-0.926c1.142,2.995-2.994,0.708-1.85,3.7c1.074,1.701,4.908,0.642,3.7,4.626
	c2.827-1.873,3.722-2.095,5.55,0.926c1.882-3.359,5.101-5.38,7.4-8.325c9.601-0.98,20.496,6.477,29.596-1.85
	c2.684,0.076,4.445,2.123,6.474,0.924c-1.02-0.624-4.799-3.073-2.773-3.7c2.992-0.526,4.651,0.281,5.551,1.85
	c1.833-1.864,3.681-3.714,5.548-5.549c0.963,2.621,0.963,3.854,0,6.475c5.63,0.215,6.003-13.056,12.024-6.475
	c-1.769,0.389-3.981,0.334-3.7,2.775c3.87-1.592,5.48,0.061,9.251-0.925c0.155-2.315-1.422-2.895-2.777-3.7
	c-1.648,2.488,4.077,1.788,0.926,2.775c-5.581-5.361-14.647-5.613-21.271-5.547c0.271-1.889,2.499-1.816,2.774-3.703
	c-1.345,0.506-4.78-1.081-4.626,0.926c4.219,2.285-2.8,0.516-3.699,1.85c3.715,2.768,5.954,2.873,2.773,7.399
	c-4.434,0.348-7.526-2.202-7.399,0.925c-4.117-1.123-6.721-3.759-7.398-8.324c5.182-0.542,5.434-0.917,9.25-1.85
	c-1.904-4.731-16.743,0.128-12.95-7.399c-7.229,0.854-6.672-9.978,0-9.249c0.203,2.977-1.637,3.912-0.926,7.398
	c5.777-2.045,8.656-5.959,13.876-4.625c-4.952-2.443-16.499-10.894-23.122-2.774c-6.778-1.589-10.444,4.004-15.726,0.924
	c0.587,2.983,1.039,5.467,0,7.399c-1.893-2.345-5.846-5.243-1.851-8.323c-4.583-4.247-17.665-3.594-17.572,1.85
	c-5.112-0.287-2.025-3.35-5.552-5.55c-0.114,2.042-3.923,0.391-5.549,0.924c-2.806,6.751-13.847,5.269-17.574,11.098
	c-9.064-4.96-18.467,5.512-21.273,12.951c-9.356,0.508-16.007,3.724-18.498,11.099c5.019,0.856-1.749,7.668,0.923,9.249
	c3.457,0.99,2.637-2.296,5.552-1.85c-0.898-10.42,9.939-5.868,14.798-6.476c-0.688,4.189,2.539-1.414,1.849,2.775
	c5.874-0.478,6.709-0.931,11.1-3.699c1.093,0.448,2.098,0.986,2.775,1.85c-3.346,1.718,0.41,5.73-2.775,6.476
	c-1.89-0.886-3.66-1.89-5.549-2.776c-1.199,2.809-0.599,7.416-2.774,9.25c-3.886-6.163-8.837-10.115-19.424-7.399
	c1.029,6.147-0.328,7.085,3.7,11.098c2.252-2.811,1.457-3.861,3.7-5.549C193.552,75.335,199.697,73.508,199.825,77.694z
	 M323.766,45.321c1.499-5.815-8.795-10.743-12.946-5.55c4.269,0.339,5.322,1.141,9.248,0c0.943,1.217,0.906,3.41,1.852,4.625
	c-4.272-0.731-2.646,1.028-3.7,1.85c-2.612,0.171-2.318-3.641-3.699,0C318.385,48.569,319.998,45.594,323.766,45.321z
	 M308.968,65.67c0.67,2.827-0.944,3.37-0.926,5.55c2.322,0.551,3.098,0.743,6.478,1.85c1.212-3.411,6.379-2.868,6.473-7.399
	c-1.923-0.542-2.988-1.943-4.625-2.775C315.396,65.314,312.61,65.92,308.968,65.67z M182.253,84.168
	c-0.343-0.589-2.796,0.894-2.775,0.926c-2.061-2.963-2.053-4.449-6.476-7.399c1.75,0.208,2.042-1.042,3.7-0.925
	c0.767-2.614-1.302-2.396-0.923-4.624c-2.516,1.211-7.436,2.501-9.249,4.624c-2.748,3.212-1.432,8.932-3.7,12.95
	c-2.523,4.466-10.194,4.739-5.549,10.173c0.221-1.619,3.438,1.387,4.624,1.849c-1.816,3.472,0.873,2.018,1.85,4.625
	c-3.559-0.549,0.843,3.903,0.926,5.55c0.005-2.769,1.662-3.888,3.699-4.626c0.934,1.843,1.6,3.952,3.7,4.626
	c0.102-1.746,3.058-0.642,2.773-2.774c-4.366-0.259-3.052-6.197-4.623-9.25c-3.45-0.982-1.464,3.47-4.625,2.775
	c0.369-3.759-3.937-2.847-4.624-5.549c0.127-2.956,4.126-2.041,5.549-3.7c-1.319-0.33-3.16-4.714-0.926-5.551
	c1.14,4.65,3.814,2.971,6.475,4.625c-2.497,4.044,1.485,4.65,0.923,9.249c2.622-0.963,3.856-0.963,6.476,0
	c0.948-2.133,1.244-4.92,4.626-4.623c0.184,3.207,0.77,6.012,4.623,5.549c-0.294-2.145,0.148-3.551,0.926-4.625
	c-1.549-1.228-3.099-2.451-6.475-1.85C178.666,91.343,182.274,84.206,182.253,84.168z M189.652,178.513
	c-2.181-1.358-1.722-1.954-4.625-0.926c-1.857,4.942,3.957,2.209,2.775,6.476c-2.853-1.909-4.903-1.886-7.399-5.55
	c2.275,6.972,6.064,12.434,10.173,17.572c1.331-2.061,3.317-3.464,7.401-2.774c2.264,5.124-3.399,8.831,1.848,10.175
	c-3.855,0.982-4.079,0.239-8.323,0c-0.204,3.497-2.908,4.492-3.7,7.399c6.63,3.555,8.396,1.207,12.023,7.399
	c3.068-0.497,7.918-1.291,9.25-1.85c-2.571,2.979-1.206,9.893-6.476,10.175c-0.107-2.36-0.173-4.759-2.775-4.625
	c-1.918,2.281,3.261,5.333,3.701,8.325c0.258-1.901,2.469-1.846,3.7-2.776c-0.554,3.327,0.333,5.216,2.774,5.549
	c-1.203-2.295,2.713-3.836,0-4.623c0.673,3.041-1.837,1.415-1.85,0c1.29-1.179,0.403-4.531,2.776-4.625
	c3.248,0.664,7.646,0.295,11.099,2.776c0,0.924,0,1.85,0,2.774c-3.323-0.439-5.939,1.796-10.175,2.775
	c0.854,6.174-2.563,10.632-1.85,13.875c-2.472-6.227-5.138-10.444-9.249-16.649c-1.095,8.294,1.537,20.581,0.926,31.448
	c-4.907,0.028-9.786,0.081-12.024,2.775c-0.207-0.719-0.027-1.825-0.926-1.852c-12.804,7.854-28.748,12.567-37.922,24.049
	c-15.476-5.913-26.002,6.63-40.697,7.399c-9.482-3.901-20.765,1.377-20.348,12.948c2.968,6.044,13.486,1.964,14.798,8.325
	c2.665-0.111,6.056,0.506,7.4-0.924c-0.052,1.182-1.186,1.28-0.927,2.774c12.995,10.88,35.095,5.976,45.323-3.7
	c-1.163-0.378-1.891-1.193-1.85-2.774c4.723-1.633,4.428-4.655,8.325-5.551c1.133-4.593-1.125-7.473,1.85-9.249
	c0.103,1.129,0.276,2.19,1.85,1.85c5.453-14.841,18.759-41.371,36.071-32.373c0.129,8.453,0.792,17.44-6.475,18.498
	c1.244,6.896-4.356,10.666,0.926,9.252c-2.083,1.271-1.331,8.992-3.7,4.623c-0.146,5.645-1.336,13.848,0,22.198
	c3.236-0.153,5.92,0.245,7.399,1.85c-3.448-0.869-8.175-0.459-10.175-2.775c0.604,3.686-3.518,2.649-6.473,2.775
	c-0.402-12.632,3.477-23.866,8.322-35.147c-6.352,4.13-5.996,14.968-11.098,20.348c-1.007-2.352,4.332-3.587,0-3.7
	c-3.245,5.032-2.625,14.736-0.924,17.574c-5.764-3.833-19.784,0.667-19.424,5.551c4.217-1.765,7.036-2.955,10.172-1.852
	c-0.939,5.536-8.271,4.678-12.021,7.399c1.076,0.158,1.002,1.464,0.923,2.777c4.813-1.261,6.743,0.174,10.175-1.852
	c21.204,4.911,43.361,7.372,63.82,11.099c6.443,1.174,13.101,2.235,17.574,5.551c-19.088,5.19-45.066-2.932-62.896-3.699
	c6.196,3.67,15.596,4.136,21.273,8.321c-13.378-2.349-26.236-10.139-38.848-10.173c23.21,13.173,50.109,22.652,71.22,37.922
	c-18.512-8.4-31.592-12.668-49.021-22.197c-0.64,1.824-2.467,2.465-4.625,2.772c-10.992-6.808-19.038-25.659-36.073-20.345
	c0.317,1.911,4.377,4.771,2.776,5.547c-4.027-0.33-4.252-0.139-6.476-0.926c2.242,4.403,10.51,7.143,14.799,6.478
	c8.649,4.271,14.31,15.517,25.899,13.872c9.066,3.579,18.936,11.271,24.973,14.799c-0.643-1.224-2.773-4.234-0.926-6.474
	c2.57,2.055,7.405,1.845,7.401,6.474c4.18-1.408,0.833,0.591,4.625,1.852c-1.073,0.775-2.481,1.22-4.625,0.926
	c-0.739-4.362-1.196-0.96-1.851-4.626c-3.794,3,0.441,3.824,1.851,6.474c-1.23,0.136-3.441-3.108-3.701-0.927
	c10.029,12.059,35.975,5.541,48.098,7.399c-2.5-1.606,5.938-1.188,5.55,0.927c-1.344,0.508-4.779-1.081-4.625,0.926
	c13.451,1.476,35.382,2.668,42.547-7.399c6.771,5.924,15.043-0.157,20.35-4.625c0.306,4.603,7.888,1.091,12.024,3.699
	c12.138-8.912,10.063-27.429,19.424-37.922c1.001-2.371-2.812-4.41,0-5.552c1.242,6.979,3.323-14.06,2.773-14.798
	c-5.021,5.484-3.921,12.823-12.024,13.877c-2.495,11.233-5.796,23.28-5.552,33.296c-1.885,0.516-1.813,2.781-3.699,0.926
	c-0.274,1.818,1.25,1.833,1.852,2.773c-2.498,0.331-9.333,5.168-5.551,0.926c-4.174-0.474-7.328,0.068-8.325,2.774
	c-0.038-1.272,0.437-2.032,0.926-2.774c-1.746-0.206-2.039,1.043-3.699,0.927c-7.109-11.946,12.818-20.418,7.399-30.527
	c-0.765,3.274-3.685,4.942-6.474,3.7c1.02,6.263-5.491,4.99-6.473,9.251c-1.254-12.314,16.465-14.422,21.271-25.897
	c-16.707,3.952-21.182,20.131-42.548,19.424c1.483-3.639-3.993-0.324-3.699-2.777c0.067-6.714,5.656-7.907,8.325-12.021
	c1.234,0,2.465,0,3.699,0c10.919-13.748,24.662-24.67,38.848-35.15c-4.753,2.949-21.215,7.764-17.576-3.7
	c-3.764,6.298-9.88,8.581-14.798,14.8c-3.819,4.833-7.682,13.77-12.025,19.423c-3.244,4.224-7.462,6.613-8.32,10.173
	c-0.809,3.346,1.378,7.271,0.921,10.177c-1.343,8.559-7.519,12.521-12.023,19.42c0.719,0.211,1.825,0.026,1.852,0.926
	c-6.515-1.426-9.929,7.004-18.498,6.478c-1.084-4.158-4.374-6.112-9.25-6.478c-0.822,1.953-3.942,1.607-3.7,4.626
	c2.308,0.466,3.802,1.75,5.549,2.772c-4.665-0.172-8.204-0.04-9.249-5.547c-6.48-3.387-14.702-5.031-15.723-13.876
	c13.082-3.836,35.542-0.836,37-14.798c3.417,1.058,6.781,0.436,14.798,0.926c2.326-2.436-2.322-3.116-2.777-5.552
	c5.25-4.584,1.095-10.836,0-16.646c-7.083-0.794-17.215-1.753-21.271,4.626c7.061,1.614,10.951-2.442,15.725,1.848
	c-2.612,0.095-3.93,3.485-6.474,0.926c-3.516,3.033-2.47,7.489-3.7,11.099c-6.913-2.028-16.827-1.058-20.349-6.473
	c3.845-0.415,6.745,4.915,10.173,1.848c-2.531-3.195,0.724-8.491,0.926-12.024c-5.482-2.653-20.252-0.125-23.123-3.7
	c3.699-0.308,9.204,1.189,9.248-2.773c-2.979-1.031-4.474-3.541-5.549-6.475c-11.661-0.23-19.544,0.897-26.823-2.774
	c4.496-0.295,10.411,2.894,12.949-0.926c-0.709,0.406,1.246-4.216,1.849-5.55c0.673,2.719,2.883,3.899,6.476,3.7
	c1.379-4.202,2.076-10.981,5.549-14.799c-6.575-3.908-7.802-13.164-13.874-17.574c6.08,2.889,7.156-7.664,4.625-11.098
	c2.108-1.27,3.476,2.384,3.7,0c-0.63-1.786-0.862-6.378,3.7-7.401c-0.362,1.321-1.111,1.56,0,2.776
	c2.813-0.886,6.31-1.089,7.398-3.7c-2.171-2.185-4.544,0.151-7.398,0c0.923-2.776,2.774-4.626,5.549-5.55
	c0.734,2.041,4.347,1.201,4.625,3.7c-0.503,4.596-2.322,11.741,0.923,14.799c-0.257-2.108,0.224-3.478,1.85-3.7
	c0.104,1.748,3.059,0.642,2.776,2.776c-1.855,1.537-4.3,2.481-4.626,5.549c0.616,2.467,2.779,3.387,4.626,4.624
	c0.295-2.144-0.148-3.551-0.926-4.624c3.465,0.986,4.048-8.052,7.399-10.174c-2.971,0.758-5.705-0.884-8.323-0.924
	c1.803-3.131,4.963-4.904,8.323-6.475c-7.601-2.304,4.74-5.517,4.627-9.249c-3.255,0.564-6.379,4.742-9.25,2.773
	c1.032-3.59,4.514-4.732,5.547-8.323c-1.373-0.785-1.335-2.979-1.847-4.625c1.249-2.245,1.847-0.576,2.774-1.85
	c-2.07-1.609-0.264-6.424,0-6.476c5.528,1.28,5.968,0.003,11.099-1.849c1.005,2.369-2.809,4.409,0,5.549
	c1.188-1.584,1.916-3.636,4.625-3.7c-0.274,1.82,1.249,1.835,1.853,2.776c-6.745,4.278-15.276,18.417-11.1,26.823
	c0.716,1.445,3.575,2.667,4.622,4.625c-2.239-4.181,0.843,5.459,1.852,4.624c1.969-4.707,10.041,2.177,10.173-4.624
	c-6.53,0.499-6.365-6.838-12.024-4.625c0.324-3.882-3.488-6.33,0-8.325c1.291,1.179,0.402,4.532,2.777,4.625
	c0.508-4.569,0.475,0.962,1.848,0.924c4.776-5.01,0.844-7.348,4.625-12.948c-5.054-0.119-3.119,6.745-7.398,7.398
	c0.654-4.046-0.482-6.3-2.773-7.398c3.209-2.362,5.735-8.162,11.098-5.55c1.283-2.284,4.25-6.174,6.474-4.625
	c2.04-4.567,0.223-10.624-2.773-12.948c-0.549,1.916,1.144,6.076-0.926,6.476c1.683-9.037-7.858-9.942-11.099-14.801
	c-2.179-0.021-2.726,1.594-5.551,0.926c0.007-1.64,5.193-2.679,1.851-4.625c-4.938,2.655-13.051-2.574-15.724,2.775
	c4.383,0.683,6.36-1.04,10.174-0.926c-1.19,1.587-1.913,3.638-4.627,3.7c-1.919-1.779-6.326-1.071-8.323-2.774
	c0.078-14.271,17.683-5.942,23.125-13.874c-13.369-0.704-24.333-1.276-32.374,6.475c-1.432,4.219,0.73,3.912,0.926,8.323
	c-2.483,1.449-4.917-0.731-7.401,1.85c-1.282-0.566-0.14-3.56-1.85-3.7c-1.282,0.568-0.14,3.562-1.85,3.7
	c-0.102-3.274-3.058,1.966-2.774-0.924c1.217-3.534-0.262-4.975,1.85-8.324c1.763,1.736,1.672-0.548,4.624,0
	c-0.339-4.269-1.139-5.322,0-9.25c5.125,2.09,1.933-1.716,2.775-2.775c6.398,0.54,6.474-5.241,10.174-7.4c0,1.235,0,2.468,0,3.7
	c5.732,0.162,7.853-6.043,13.874-2.773c0.369-2.405,2.76-2.791,2.774-5.549c-3.816-5.124-15.232-2.65-15.725-11.101
	c7.085-3.09,12.115-8.235,22.198-8.324c6.868-11.244-3.768-26.528,0.926-45.321c9.582-5.732,27.244-7.729,36.073-6.474
	c-1.588-7.362-6.988-11.541-6.478-18.5c-3.951-2.394-9.672-7.343-9.246-11.099c-9.609-1.244-17.565,3.959-24.975,0.924
	c0.052-1.182,1.186-1.28,0.925-2.774c-8.208,0.215-19.685-2.954-29.598-7.398c-6.164,7.454-11.855,10.758-19.423,17.574
	c-2.775,0-5.55,0-8.324,0c-10.673,17.189-14.406,31.235-20.35,52.719c0.26-2.107-0.222-3.475-1.849-3.699
	c-4.272,5.821-3.083,11.194-0.924,17.574c0.103-1.129,0.276-2.19,1.85-1.85c5.796,2.375-2.85,6.17-1.85,12.024
	c4.416,0.86,4.019-2.264,8.325-3.7c0.425,6.592-3.387,8.947-7.401,11.1c0.295-1.133-0.148-5.713-0.924-2.776
	C189.189,175.873,191.667,176.578,189.652,178.513z M292.318,233.082c-0.674-2.1,1.667-7.214-1.849-6.473
	C290.827,229.023,290.944,231.682,292.318,233.082z M193.352,81.394c0.4,2.057,2.125,5.015-0.926,5.549
	c-0.784-1.372-2.328-1.989-4.623-1.85c1.79,3.317-0.355,3.389-0.926,6.476c3.161-0.695,1.176,3.757,4.625,2.774
	c-0.128-4.443,6.396-2.236,9.249-3.7c1.063-2.712-4.438-3.435-1.851-4.626c2.594,2.812,9.829-2.067,7.399-0.924
	C199.051,86.77,199.722,77.774,193.352,81.394z M349.663,98.043c4.419,0.721,3.146-7.599,0.926-8.324
	C349.422,91.342,351.526,95.297,349.663,98.043z M343.19,92.493c0.391,1.769,0.334,3.981,2.772,3.7
	c-1.617-3.274,0.618-2.273,0.926-5.549C344.368,89.97,345.026,92.481,343.19,92.493z M188.727,106.367
	c2.171,0.913,4.543,1.622,7.398,1.85c1.888-2.119,1.313-2.171,3.7-4.625c-4.505,0.808-6.135-1.264-9.249-1.85
	C191.366,104.691,189.771,105.253,188.727,106.367z M166.529,129.49c3.383,0.608,3.547-2.001,6.473-1.85
	c-0.695-4.305-5.285-6.87-1.85-10.174c-3.47-0.696-2.015,3.534-4.623,3.7c0.257-2.108-0.225-3.476-1.85-3.7
	c-1.585,3.344-0.357,3.742-3.7,1.85c-0.311,2.158-0.948,3.985-2.775,4.625c-1.384-0.158-3.415,0.33-3.7-0.926
	c1.148-4.708,8.942-2.773,9.249-8.323c-1.118-0.196-0.568-1.028,0-1.85c-3.112-0.287-4.219,6.191-7.399,2.774
	c-0.003-3.396,3.239-3.543,4.625-5.55c-2.67-0.414-2.187-3.98-4.625-4.625c-0.293,6.647-5.29,12.994-1.85,20.35
	c4.172,0.779,4.618-2.165,7.399-2.776c0.958,9.944-5.771,12.849-2.773,24.049c3.819,1.884,8.539,0.211,9.248-3.7
	c-1.369-2.974-8.065-5.462-5.549-9.248c1.752,2.562,3.383,5.248,6.474,6.474c0.82-2.262,5.166-1.002,4.625-4.624
	c-6.316-0.994-2.294,0.03-6.474,1.85c-0.08-2.388-3.96-0.973-2.774-4.625C169.091,134.625,165.908,133.516,166.529,129.49z
	 M189.652,110.991c0.158-5.915-4.396-4.693-7.399-5.55C181.536,110.475,186.431,109.896,189.652,110.991z M179.478,113.767
	c2.297,0.649,3.917-3.954,1.85-4.624C180.934,110.906,178.685,110.816,179.478,113.767z M191.502,119.316
	c-4.943-3.964-6.982,1.102-12.949,0.926c0.817,3.048-4.529,4.621-1.852,6.473c0.924-2.776,2.774-4.625,5.552-5.549
	C184.349,123.202,191.481,122.424,191.502,119.316z M295.096,128.564c3.646-1.746,7.621,2.251,9.246-1.85
	C302.08,124.043,295.189,124.104,295.096,128.564z M174.852,135.04c0.926,0,1.85,0,2.775,0c-1.07-3.125,0.654-3.946-0.926-5.55
	C175.963,131.218,175.157,132.878,174.852,135.04z M293.244,146.138c2.231-0.596,8.317-2.092,7.398-2.774
	c-2.83,0.67-2.721-1.595-5.547-0.925C296.235,145.433,292.1,143.147,293.244,146.138z M175.778,155.39
	c-0.062-2.713-2.115-3.436-3.7-4.625C171.837,153.779,173.176,155.216,175.778,155.39z M291.396,163.713
	c4.189,0.688-1.415-2.539,2.774-1.85c-0.496,3.271,0.782,4.765,2.773,5.548c1.283-3.691,2.33,1.426,5.551-1.849
	c-0.293,1.251-1.316,1.767-0.926,3.699c5.902,0.712,1.476-7.079,7.399-3.699c-0.161-3.843,1.6-5.087-0.926-7.399
	c-0.143,1.087,0.158,2.625-0.926,2.775c-6.406-2.535-10.462-7.418-16.646-10.175c-1.23,0.931-3.443,0.875-3.699,2.774
	c3.658,2.563,1.287,8.312,5.548,6.476C292.525,161.761,291.275,162.055,291.396,163.713z M296.017,235.858
	c0.151-2.922,0.035-5.583-1.847-6.475C294.843,231.485,292.502,236.599,296.017,235.858z M293.244,238.632
	c-1.896-1.623-4.261,1.891-4.626,4.625c3.116-0.016,6.598-4.439,4.626-6.476C293.244,237.398,293.244,238.017,293.244,238.632z
	 M286.771,267.306c3.384,0.202,3.549,1.27,6.474,0C293.688,262.713,287.504,265.163,286.771,267.306z M274.746,280.254
	c5.536-0.32,8.369-3.344,9.247-8.324c-4.704,1.407-4.558,3.526-8.321,0C274.606,277.161,274.746,277.063,274.746,280.254z
	 M291.396,282.104c2.714-1.022,7.716-4.567,5.548-7.399c-0.135,2.063-2.329-1.201-4.625,0
	C292.521,277.682,290.685,278.62,291.396,282.104z M234.049,280.254c1.215,0.943,3.41,0.907,4.623,1.85
	c-0.792-2.95,1.457-2.86,1.851-4.626c-1.272,0.042-2.031-0.434-2.774-0.924C237.743,279.014,235.174,278.915,234.049,280.254z
	 M266.421,282.104c2.759,0.205,3.146-3.416,5.552-0.926c-0.041-1.272,0.433-2.031,0.922-2.774
	C269.872,278.772,266.914,279.208,266.421,282.104z M370.013,405.12c-0.082-1.457-2.359-0.723-1.849-2.773
	c5.13-20.277,8.168-48.192,19.425-62.896c9.751-2.631-1.051,0.346-4.626-1.848c4.656-18.777,19.653-27.211,31.448-38.851
	c-5.596-2.728-13.872-2.779-21.275-3.699c1.189-1.216,1.189-3.41,0-4.624c-28.166,1.881-12.611,38.075-21.271,54.571
	c-1.145,2.992,2.992,0.704,1.848,3.699c-7.033,26.962-12.796,72.912-16.646,117.465c-4.1,0.185-5.16,4.824-12.025,6.478
	c4.002,11.948-16.879,10.263-12.024,23.123c-1.731,1.655-1.106,5.675-3.699,6.473c-1.088,0.143-2.627-0.158-2.777,0.926
	c6.628,2.88-9.789,12.455-12.021,14.799c2.607,2.694,1.151-2.767,4.621-1.852c-1.396,2.92-4.689,3.942-6.473,6.478
	c1.438,0.239,0.639,2.027,0,2.773c2.743,0.232,4.561-3.659,5.551,0c-2.3,2.186-5.446,0.006-8.325,0
	c-14.919,8.122-31.561,2.123-46.247-2.773c-18.954-6.32-38.024-15.718-49.948-24.977c6.419,0.058,9.324,3.625,14.801,4.626
	c-4.629-8.63-15.61-10.907-23.123-16.649c-7.287,4.278-8.437-1.227-15.724-2.774c2.521,5.187,8.707,6.71,10.173,12.951
	c16.734,6.386,31.833,14.414,44.398,24.972c-11.349,3.251-17.544-6.894-25.899-2.774c-1.143-2.992,2.992-0.709,1.849-3.698
	c-2.847-0.69-1.778,2.535-4.625,1.847c-1.54-2.044-2.503-2.315-2.774-3.7c-1.948,2.48-9.228-2.405-7.399-3.699
	c2.023,0.207,4.979,4.173,6.473,1.852c-10.846-5.187-18.607-13.458-28.672-19.424c1.761-1.219-2.133-3.037,0-5.551
	c-4.353-0.271-4.216-5.032-9.25-4.626c-2.841-8.269-11.789-8.479-17.573-12.946c-3.143-2.428-4.608-7.045-7.4-10.177
	c-7.66-8.592-16.079-16.481-22.199-26.823c0.256-1.618-2.604-4.614,0-5.547c3.969,4.358,4.16,12.491,11.102,13.872
	c-4.056,3.154,1.887,4.848,3.699,7.399c0.156-1.381-0.331-3.413,0.924-3.699c1.678,6.338,7.067,8.965,12.024,12.023
	c-0.038,2.812-0.539,6.09,2.775,5.552c0.253-2.714-3.707-3.437,0-4.626c4.564,13.319,20.732,19.962,31.447,24.05
	c-1.363-6.149-4.925-6.368-8.323-11.099c19.322,0.226,28.379,12.473,49.02,16.646c6.758,12.385,25.694,11.083,37.923,9.251
	c-0.274-4.919,5.54-1.642,1.849-4.626c9.032-6.213,26.453-1.386,40.698-3.699c13.346-2.168,27.659-13.437,36.069-17.572
	c0.207,0.716,0.026,1.821,0.926,1.848c-1.459-4.234,3.839-1.709,3.7-4.625c-2.194-2.556,2.942-5.649,2.774-9.248
	c-4.837,1.325-6.098,6.232-10.173,8.326c-2.267-1.23,1.016-3.443-0.927-3.704c-6.541,1.502-15.084,12.353-23.123,6.478
	c-10.376-0.67-19.189,1.336-25.896,5.547c-0.765,2.616,1.302,2.398,0.926,4.626c2.209,0.564,6.71-1.159,7.398,0.926
	c0,1.234,0,2.465,0,3.699c-5.713,4.987-13.838-0.711-21.275,3.7c-2.577-3.372-5.017-2.259-10.173-1.852
	c-0.289-1.25-1.317-1.766-0.925-3.7c-4.476,0.775-6.542-0.858-9.25-1.848c-4.136,3.937-13.103-2.781-20.347-1.852
	c1.308-3.41-7.138-5.167-10.175-7.399c-20.121-14.776-34.038-39.577-51.796-53.646c0.934,0.012,1.164,1.622,0,1.852
	c-5.261-7.185-15.722-13.695-16.647-24.049c-0.518-5.766,1.4-8.747-2.775-12.024c-17.302-1.017-18.64-23.387-16.648-36.074
	c1.843,0.934,2.112,3.439,3.7,4.626c-2.646-10.06,0.628-12.544-7.398-15.725c-3.16,5.476-4.935,12.333-12.026,13.876
	c2.305-5.095,3.123-11.678,5.55-16.649c-5.688,1.253-7.815,10.471-13.874,8.325c1.695-3.854,6.929-4.17,7.399-9.251
	c-2.85-0.693-1.127,3.191-4.624,1.852c0.29-1.249,1.315-1.769,0.924-3.7c-2.699-0.823-3.192-1.181-4.623,0.923
	c-0.293-1.249-1.318-1.766-0.926-3.7c-4.173,2.627-4.425-1.709-6.474-3.699c-0.591,3.421,1.196,9.217-0.926,11.103
	c-3.271-4.174-6.046,0.688-9.249,1.848c0.961-3.967,0.527-3.571-0.926-6.474c1.037-1.753,6.771,2.127,7.398-1.852
	c-3.55-5.855-9.843-5.807-17.573-4.625c-22.396,3.432-40.712,16.849-51.796,34.226c-3.522,6.703-4.502,15.279-6.473,23.124
	c-3.152,12.536-12.492,20.567-15.724,32.369c1.924,0.542,2.988,1.946,4.623,2.774c11.155-19.676,18.133-43.53,35.147-57.345
	c-2.469,3.556,2.368-0.162,4.626,0c-7.787,9.479-18.309,21.15-20.35,33.299c3.54-5.295,6.53-13.183,11.101-15.724
	c-6.823,10.749-8.447,26.698-16.65,36.069c-2.908-6.495,5.629-13.115,2.776-19.423c-6.91,11.005-4.029,27.801-7.399,37.926
	c6.31,0.424,1.906,7.703,0.924,11.098c2.899-1.023,2.608-0.599,3.699,1.849c-2.213,3.338-3.242,7.858-10.174,6.477
	c-0.207-1.75,1.042-2.044,0.926-3.699c-3.915-0.832-0.941,5.224-4.625,4.621c-1.47-2.367,1.5-7.173-0.924-10.173
	c-4.784,1.72-3.193,0.81-5.549,3.7c3.596,2.477-1.919,6.304,0.924,11.098c4.188,0.689-1.413-2.536,2.775-1.847
	c0.822,3.917-2.427,6.549,0,9.246c6.088-0.384,6.499-6.446,12.024-7.399c-2.893-4.478,6.18-7.12,6.474-14.798
	c1.75-0.207,2.041,1.043,3.699,0.926c1.811-4.986,9.301-9.184,9.251-12.95c-0.012,0.934-1.622,1.163-1.852,0
	c2.548-11.328,6.571-21.178,15.724-25.896c0.501-8.751,7.208-11.291,10.175-17.576c3.779,2.875,5.249-2.954,8.324-3.699
	c0.07-1.611-0.207-2.876-0.926-3.7c8.169-7.144,16.431-13.71,28.673-12.946c0.753,3.831-2.692,3.47-3.7,5.547
	c-20.014,6.286-28.2,19.104-34.221,39.773c-4.323,3.384-7.596,7.821-12.026,11.099c-3.68,5.266-4.567,21.324-11.098,26.823
	c-0.093-1.038,1.345-1.441,0-1.848c-1.306,2.652-3.793,14.004,0.926,17.571c-0.632,5.353-6,14.934,2.774,15.725
	c0.553-1.648-2.712-3.843,0-4.625c1.639,0.827,1.178,3.756,4.625,2.773c-0.603-6.078-6.203-1.528-5.549-8.321
	c2.922,2.811,1.499-3.937,3.7-4.625c0.986,0.861,0.288,3.409,2.774,2.773c4.085-3.022-0.139-5.229,4.625-9.251
	c0.143-2.3-1.453-2.86-1.85-4.621c5.958-3.05-0.35-8.126,4.624-12.951c3.694,7.584-2.655,14.08-2.774,23.123
	c3.837,0.914,1.005,3.711,5.55,4.626c2.145-1.354-1.807-2.932,1.85-2.773c2.144,0.255,2.126,2.468,0.926,3.699
	c8.822-1.693,7.96,2.251,15.722,0.922c-1.727-4.438-8.8-3.53-12.022-6.474c-0.663-2.51,4.36,0.662,3.699-1.852
	c-3.587-0.978-0.987-7.207,1.851-7.399c0.813-2.969-3.048-1.265-2.776-3.699c3.394-4.742,1.799-11.788,3.7-18.498
	c0.731-2.569,4.303-3.428,6.476-6.473c2.548-3.571,3.965-12.767,8.325-8.325c-1.329-3.542-0.348-6.939,1.851-7.399
	c2.548,7.188-3.542,13.715-2.776,22.197c-3.483-0.398-4.211,1.954-5.549,3.7c2.876,0.206,1.564,4.603,1.85,7.399
	c1.818,0.278,1.834-1.25,2.776-1.849c2.75,6.939,0.14,23.985-5.552,24.972c1.647,3.421,1.853,3.47,3.702,5.552
	c3.222-3.919,2.519-9.951,4.625-12.951c2.502-0.268,5.055,1.174,6.474,3.699c-2.939-2.352-6.1,3.93-3.7,6.478
	c1.476-3.406-0.21,3.741,2.774,1.848c-0.049-1.731,0.713-1.957,1.851-0.926c0.692-2.85-3.188-1.125-1.851-4.621
	c1.92,1.907,4.481-3.12,6.476,0.922c-4.228,1.758-2.382,5.209,0.924,6.478c-1.625,0.53-5.432-1.118-5.549,0.921
	c2.322,1.378,5.096,2.308,6.475,4.626c0.808,12.333,2.526,26.066,4.626,43.473c6.533-0.354,7.82,9.421,12.022,8.326
	c-0.322-1.043-4.562-2.658-1.85-3.701c3.53,2.018,2.744,8.356,7.398,9.249c-0.468-2.923-2.72-4.062-2.773-7.399
	c1.147-1.556,2.689-4.724,4.625-2.774c-4.006,3.895,3.489,4.331,1.851,11.099c4.134,0.794,4.386,0.098,4.623,2.771
	c0.103-1.771,3.097,1.09,5.549,0c3.506-5.877,4.544-8.85,12.024-11.096c1.855,1.884,0.24,2.464-0.924,3.698
	c1.626-0.531,5.433,1.117,5.549-0.925c-3.534,0.684-1.056-3.407,0-3.7c3.728,1.825,4,7.1,9.249,7.401
	c1.127-2.882,2.153-5.862,1.85-10.176c-3.995-4.553-7.23-9.958-11.099-16.649c10.288,15.882,25.235,11.857,46.247,16.649
	c0.277-1.818-1.249-1.833-1.85-2.773c2.865-1.22,5.129,2.741,6.473,0c-1.722-0.128-3.091-0.61-3.7-1.852
	c9.337-0.396,14.554,3.33,22.199,4.625c0.209-3.602-6.317-0.467-5.549-4.625c2.854,2.386,8.77,1.712,11.099,4.625
	c-1.639,0.211-4.633-0.933-3.7,1.852c15.486,3.772,24.913-1.591,39.773-0.925c4.521,6.27,15.841,5.737,24.044,8.324
	c-18.226,4.896-34.406,18.509-49.944,19.423c-7.118,0.42-12.393-0.628-13.874,5.548c8.873,5.333,21.128-6.183,28.67-1.847
	c0.146-1.088-0.158-2.628,0.927-2.774c5.962,1.275-1.705,5.845,2.776,7.399c3.636-3.534,20.508-4.765,19.421-12.952
	c1.37,1.074,2.333,1.074,3.703,0c0.207-1.749-1.043-2.038-0.926-3.698c3.443,0.979,2.984-1.945,4.625-2.774
	c3.207-0.74,3.553,1.378,6.474,0.923c1.806-7.568,10.703-7.229,15.725-11.099c2.751-2.12,4.264-5.821,6.474-8.324
	c5.942-6.72,13.763-14.348,13.875-25.898c4.427-6.98,12.221-10.594,22.198-12.023c-1.89,7.361-2.812,15.687-6.478,21.274
	c17.32-16.017,33.921-34.372,40.699-58.271c-4.644-0.696,1.58,3.756-2.773,2.774c0.207-3.147,1.956-8.363,3.699-4.626
	c-0.015-2.45,0.512-5.445-1.853-5.548c-1.008,2.875-3.454,4.31-1.847,7.399c-3.986-1.208-2.929,2.623-4.626,3.699
	c-0.271-1.927-2.503,1.374-2.773-1.852c9.966-13.737,12.688-32.024,18.498-48.094c4.109,33.714-7.693,64.157-15.725,89.719
	c-0.278,1.817,1.25,1.833,1.848,2.774c-19.646,18.584-33.854,42.606-57.345,57.345c-3.466,7.319-10.564,11.017-22.197,10.172
	c-1.092,2.608-2.707,4.693-4.626,6.478c23.203-3.194,37.888-17.075,49.946-28.673c0.207,0.718,0.026,1.824,0.926,1.85
	c0-1.541,0-3.086,0-4.625c13.636-11.645,22.656-27.906,35.147-40.699c9.62-22.558,18.412-49.441,24.972-72.143
	c1.321,0.361,1.562,1.11,2.777,0c3.012-26.959,12.474-60.24,12.947-89.72c-2.146,0.629-1.348,4.204-3.699,4.626
	c-0.904-7.43-4.707-16.861-3.7-23.124c3.719,4.917,2.931,14.332,7.399,18.498c1.042-8.238-0.723-15.828-1.848-21.271
	c-5.276-1.268-5.589,2.425-10.178,1.85c4.874,20.728,0.042,45.133-0.922,63.82c-0.334,6.447,2.322,13.475-2.777,17.572
	c-0.504-1.343,1.083-4.78-0.922-4.626c0.14,2.3-0.479,3.839-1.852,4.626c-1.788-8.077-2.134-17.595-1.848-27.749
	c-2.492-2.879-4.329,3.787-4.626,3.7c0.294,0.087-0.55-3.678-0.926-2.774c-1.205,2.906,1.728,3.071-0.926,6.474
	c-1.836-24.343,10.078-34.933,11.099-56.419c-2.901,0.028-4.618,2.95-5.547,4.625c-5.255,9.465-7.844,21.667-12.025,32.374
	c3.997,0.071,1.683,1.182,3.7,3.7c-2.3,0.101-2.864,1.73-4.626,0c-3.339,9.146-7.997,21.385-11.099,27.744
	c-0.184,5.071-2.401,16.09-8.325,18.502c0.832,6.631-1.885,16.36-6.474,17.572C367.396,415.512,368.492,412.971,370.013,405.12z
	 M26.864,465.243c3.277-1.829,1.827-1.209,5.548,0c0.378-2.232-1.688-2.014-0.923-4.626c-3.574,0.181-6.815,0.03-9.25-0.926
	c-0.376,1.558-4.356,4.155-1.85,5.552c0.45-1.648,0.989,0.398,1.85,0.922c-0.156-2.315,1.422-2.895,2.775-3.7
	c0.837,3.609,3.404-3.063,3.7,0C27.412,462.706,27.659,464.494,26.864,465.243z M37.038,479.115c1.929,3.579-3.871,4-0.926,5.548
	c0.608-2.454,9.945-0.558,9.25-6.474C40.347,477.956,40.445,482.435,37.038,479.115z M88.834,316.327
	c1.344-0.506,4.78,1.081,4.625-0.924c-2.042-0.734-1.203-4.349-3.7-4.625C90.428,313.604,88.813,314.147,88.834,316.327z
	 M147.104,333.902c3.004,0.535,4.302-0.632,6.474-0.926c-0.001,0.512,0.751,1.05,0.926,0c-0.721-0.203-1.075-0.775-0.926-1.852
	c0.514,0.003,1.05-0.749,0-0.926C149.587,332.995,150.396,330.996,147.104,333.902z M460.658,356.1
	c-5.337-7.437-12.758-16.217-19.425-17.575c-3.131,7.131,2.823,17.605,5.548,28.674c1.758,7.144,3.37,15.126,4.625,22.197
	c7.242,40.681,2.477,88.135,9.252,125.794c-0.569-1.285-3.56-0.14-3.7-1.853c3.829,0.979,2.516-1.944,0.921-2.773
	c-0.566,4.783-1.83-2.157-3.698-1.852c-2.172,5.607-5.243,11.768-0.923,16.65c21.084-1.442,8.349-19.74,12.026-34.223
	c-5.433,2.901-3.489-6.913-4.626-11.099c0.644-2.439,4.211-1.957,4.626-4.626c-2.907-0.466-3.785,2.18-4.626-0.925
	c1.38-1.084,3.782-1.148,4.626-2.774c-1.198-3.342-3.829,0.501-4.626-2.773c1.438-2.074,4.61-1.513,0.922-4.626
	c5.529-0.526,5.378-8.354,1.853-10.177c0.925,0,1.852,0,2.772,0c-0.658-20.602-2.408-38.938-7.399-55.493
	c-1.572-5.227-7.131-10.553-3.699-17.575c4.312,12.596,9.805,25.26,13.876,38.847c3.447,1.849,6.658-1.78,8.322,1.852
	c-3.812,8.073,13.756,18.89,3.699,31.449c-0.926-1.231-0.873-3.444-2.774-3.7c-1.411,10.809,1.576,17.576,2.774,24.972
	c-1.23,0.925-2.789,1.523-3.699,2.772c7.944,0.754-0.008,8.853,4.625,13.877c0.604-3.229-0.666-7.103,3.699-8.325
	c-0.982-16.793,12.83-32.833,1.852-49.021c3.258-0.113,0.252-1.347,1.848-3.698c-8.599-13.91-8.709-37.128-17.571-46.247
	C473.745,383.878,466.793,364.65,460.658,356.1z M456.958,350.549c2.439,0.282,2.387-1.931,2.773-3.7
	c-0.985-0.662-4.26-3.609-5.551-0.926C457.184,345.626,459.106,348.414,456.958,350.549z M176.701,377.371
	c-3.605-4.384-7.667-4.261-10.172-8.325c-0.504,5.148,0.19,3.377-2.775,4.626c3.285,3.5,6.05,7.516,9.248,11.098
	c0.006-3.887-3.877-3.884-1.85-7.398c-2.963,0.81-2.892-1.422-3.699-2.773C170.582,374.898,173.618,380.097,176.701,377.371z
	 M204.451,399.572c12.156,2.936,18.241,25.747,32.372,17.572c-2.946-0.79-3.51,0.806-4.624,1.852
	c-1.056-3.229,0.339-5.119-2.776-8.325c2.523-0.086,1.863,1.54,3.7,0c-18.548-11.667-37.06-28.302-55.496-36.999
	c6.635,7.899,18.89,14.968,23.124,22.201C204.3,393.991,206.329,396.023,204.451,399.572z M188.727,402.347
	c-4.044-5.206-6.767-11.731-12.949-14.798C177.949,394.018,185.512,399.998,188.727,402.347z M209.076,412.519
	c1.621-0.843,4.614-0.315,5.549-1.848c-3.141-1.178-3.504-5.13-7.399-5.551C208.145,409.268,208.414,409.248,209.076,412.519z
	 M227.573,426.396c10.197,5.498,23.567,13.714,32.372,19.424c16.073,0.451,28.602,5.98,45.323,4.621
	c1.196-2.194,4.651-2.13,4.625-5.547c-14.278-1.325-22.966,1.941-31.447-1.852c-3.278-1.465-4.928-6.127-8.326-7.399
	c-3.774-1.411-9.27-0.817-13.874,0c1.182-3.646-2.531-2.401-3.7-3.7c-1.381,4.426,6.232,7.136,11.1,8.325
	c-22.633-0.489-28.802-17.448-44.397-24.975C215.886,422.967,223.848,424.381,227.573,426.396z M223.874,431.017
	c0.104-1.746,3.058-0.64,2.776-2.773c-2.995-0.527-4.654,0.282-5.55,1.853c-6.168-3.393-11.802-7.316-18.5-10.178
	c6.242,14.396,16.765,24.118,33.299,25.901c-0.207-1.751,1.042-2.044,0.924-3.7c-5.008,1.106-8.207-8.39-9.25-11.103
	C226.735,432.62,224.169,433.573,223.874,431.017z M243.298,428.243c1.206-4.163-2.3-5.867-6.475-8.325
	C235.321,423.738,238.646,427.818,243.298,428.243z M20.388,441.193c0.706-2.197,2.247,4.464,4.625,0.926
	c-3.688-4.12,1.272-10.29,1.851-15.724C22.042,428.063,20.622,438.014,20.388,441.193z M476.383,436.568
	c-0.311-2.156-0.949-3.985-2.779-4.626C473.423,434.593,473.492,436.99,476.383,436.568z M421.811,467.091
	c-8.832,23.123-20.022,45.972-32.375,65.671c-2.434,3.883-5.31,8.086-5.547,12.948c-3.692-0.355-6.751,7.25-11.103,9.248
	c-1.501-0.275-2.491,1.25-0.922,1.852c9.736-0.64,18.626-13.688,21.271-21.273c0.662,1.5-4.361,1.5-3.7,0
	c4.932,0.98,0.23-1.949,2.774-2.774c1.822-0.279,1.837,1.248,2.777,1.85c1.717-1.986,2.474-4.929,2.774-8.324
	c8.354-13.187,17.34-30.495,23.124-49.024c3.985-12.766,7.917-27.537,6.473-40.694C426.108,446.112,423.715,455.954,421.811,467.091
	z M320.067,446.741c2.92-2.627,8.769-2.329,9.25-7.399C325.347,440.332,319.468,444.265,320.067,446.741z M33.338,462.465
	c1.542,0,3.083,0,4.624,0c0.06-4.564,2.717-6.533,2.776-11.098c-1.583-0.886-1.863-3.067-3.7-3.7
	C34.125,452.123,32.593,459.346,33.338,462.465z M85.134,453.219c2.454,0.723,5.623-4.965,1.85-4.626
	C87.674,451.442,83.794,449.718,85.134,453.219z M245.147,456.917c0.243-3.018-2.876-2.672-3.699-4.625
	C239.271,454.581,243.268,455.909,245.147,456.917z M256.246,463.391c2.02,0.49,5.982,2.239,6.476-0.926
	C261.266,460.997,257.769,462.206,256.246,463.391z M274.746,473.563c2.054-0.715,5.017-0.534,5.547-2.773
	c-6.544-2.646-11.265-1.562-17.571-4.625C264.11,471.249,274.256,467.58,274.746,473.563z M67.561,471.717
	c1.457,1.471,4.953,0.259,6.475-0.927C71.277,471.039,68.404,468.201,67.561,471.717z M19.464,474.49
	c3.272,0.737,3.387,4.628,6.475,5.551c-0.596-4.147,0.007-4.133-1.85-7.398C22.441,473.153,20.247,473.116,19.464,474.49z
	 M86.058,480.963c5.697-0.847,2.966,2.556,1.85,4.626c3.824,0.391,3.722-7.941,2.776-9.247c-0.695,4.354-3.347,1.415-5.55,0
	C84.757,478.569,86.824,478.351,86.058,480.963z M99.932,479.115c4.433,0.256-1.072,4.708,2.776,5.548
	c1.541-1.231,0.309-5.239,1.849-6.474C102.624,477.692,101.083,476.567,99.932,479.115z M80.509,485.589
	c0.361-1.317,1.11-1.559,0-2.774c2.615,0.765,2.397-1.303,4.625-0.926c0.258-2.107-0.221-3.478-1.85-3.699
	C84.238,481.788,77.483,481.237,80.509,485.589z M271.973,481.889c2.382,1.317,7.35,0.049,8.32,2.774
	c1.235-1.849,6.048-0.12,4.626-4.622C280.587,482.194,275.036,476.221,271.973,481.889z M69.411,484.663
	c2.476,0.542,4.71-3.802,2.775-4.622C71.153,481.476,69.179,481.969,69.411,484.663z M97.158,486.515c0-1.852,0-3.7,0-5.552
	C93.012,481.385,94.306,485.34,97.158,486.515z M45.361,493.914c3.668-0.339,2.169-5.849,5.551-6.474c-1.234,0-2.468,0-3.7,0
	C46.6,491.516,47.365,491.23,45.361,493.914z M420.886,511.49c-4.082,0.484-9.515,11.812-10.174,15.72
	c2.521,0.086,1.859-1.54,3.699,0c1.024-2.364,1.728-5.055,3.7-6.473c1.223,0.011,0.841,1.621,1.848,1.852
	c2.499-4.901,7.692-7.111,7.399-14.803c-0.57-1.28-3.56-0.136-3.699-1.849c1.994-1.132,4.281-6.755,3.699-7.399
	C424.024,501.677,420.832,504.963,420.886,511.49z M457.879,508.712c-0.247-1.98,0.721-9.868-0.921-7.399
	C457.206,503.292,456.24,511.181,457.879,508.712z M58.312,505.938c3.352,0.885,0.94-3.993,2.773-4.625
	C58.197,500.891,58.129,503.289,58.312,505.938z M74.036,511.49c3.049-0.036,3.536-2.632,3.7-5.553
	c-1.183-0.048-1.282-1.185-2.776-0.926C75.414,507.933,73.294,508.279,74.036,511.49z M296.017,507.786
	c-4.554-2.164-13.028,0.52-19.423,0c-3.865-0.312-9.947-4.855-9.247-0.923C272.055,508.456,288.683,514.106,296.017,507.786z
	 M302.494,517.037c-0.571,2.973,3.328,1.268,0.922,3.7c2.214-0.562,6.711,1.163,7.403-0.928c-1.016-0.662,0.707-6.375,0.923-6.473
	c0.564-0.053,1.095-0.14,0.926-0.926C307.771,512.452,306.688,516.3,302.494,517.037z M75.885,521.662
	c1.612,0.067,2.876-0.208,3.7-0.925c-0.32-2.455-2.427-3.121-4.625-3.7C74.665,519.182,75.108,520.59,75.885,521.662z
	 M42.587,526.287c3.721,0.636,5.281-0.888,8.325-0.925C49.823,520.978,42.855,522.441,42.587,526.287z M66.637,536.461
	c0.088,4.693,4.241,4.919,0.923,8.324c1.631,3.301,4.603,5.266,8.324,6.473c2.637-6.302,4.645-13.234,8.323-18.496
	c-0.376-2.707-3.163-3-4.624-4.625c-1.145,2.863-4.183,3.835-7.398,4.625c-0.365,1.591,1.372,2.37,0,2.774
	C70.951,532.903,68.073,536.248,66.637,536.461z M136.006,546.632c-1.148-1.083-2.477-6.672-4.625-3.698
	C132.805,543.743,134.719,548.749,136.006,546.632z M92.534,565.136c0.549,3.458,1.112,6.9,4.625,7.399
	c0.163-4.679,2.129-2.191,4.625-3.701c0-1.542,0-3.082,0-4.625c3.583,0.496,3.809-2.356,6.475-2.773
	c0.692-2.854-3.189-1.129-1.85-4.625c1.093,0.132,2.097,1.645,2.776,0c-4.452-0.667,1.484-4.693,0-8.327
	c-4.018,1.511-4.123-4.098-5.552,0C105.525,552.369,95.099,559.579,92.534,565.136z M102.708,565.136
	c0.002,5.04,5.716,2.117,5.549-0.927C105.431,563.54,104.888,565.153,102.708,565.136z M111.031,550.337
	c2.318-1.228,2.248,4.305,3.702,0.921c-0.564-0.051-1.095-0.135-0.926-0.921c1.089-0.146,2.625,0.156,2.776-0.926
	C115.146,547.887,112.265,549.017,111.031,550.337z M202.6,554.036c1.274,0.038,2.031-0.436,2.776-0.927
	c0.207,0.718,0.024,1.826,0.923,1.849C207.595,550.845,202.057,549.949,202.6,554.036z M208.15,553.109
	c2.787,4.137,18.906,7.794,21.273,0.927C224.725,550.504,214.473,552.643,208.15,553.109z M177.627,598.431
	c-2.944,1.938-3.605,4.735-6.475,4.625c-1.48,3.642,3.995,0.32,3.7,2.775c-0.566,1.281-3.561,0.139-3.7,1.852
	c4.499,0.343,2.159,2.159,4.626,3.698c-1.088,0.144-2.625-0.16-2.776,0.923c0.633,1.837,5.512-0.576,4.625,2.778
	c6.689-2.235,9.144,2.927,14.798,0.921c0.004,0.931-0.749,1.104-0.923,1.853c4.964-0.672,6.257-1.728,9.249,1.852
	c-1.927,0.3-7.562,1.587-4.626,3.699c4.426,0.26,8.19,3.465,16.65,2.773c-0.35-2.815,3.362-1.57,3.699-3.698
	c6.179,4.552,22.77-2.949,27.75,1.847c-1.238-0.102-5.1-1.731-2.775,0c8.526-0.522,19.85,0.2,26.824-5.548
	c-0.824-0.542-5.276-1.946-2.776-2.777c2.78,1.299,6.717,1.352,7.398-1.848c-1.092-0.447-2.097-0.985-2.774-1.852
	c15.175-0.881,19.722-0.674,33.296,0c0,1.541,0,3.085,0,4.625c8.11,0.829,9.639-1.588,18.503-0.926
	c0.653-2.213,0.433-3.403,0.921-7.399c3.165-1.185,5.939,0.644,8.325-2.772c-1.343-0.506-4.779,1.079-4.625-0.928
	c0.173-3.898,1.731-4.677,0.926-7.398c-6.379-1.229-11.317,1.593-13.872-2.773c-11.167,7.549-36.436,1.886-47.173,4.626
	c0.934,0.011,1.163,1.621,0,1.847c-2.172-0.292-3.47-1.46-6.476-0.921c-0.466,2.306-1.747,3.797-2.773,5.548
	c-2.166-3.282-1.182,4.278-5.55,1.852c2.856-4.006-4.815-4.054-7.399-5.552c1.232,0,2.465,0,3.7,0
	c-2.133-5.408-4.565-4.777-11.101-5.548c-0.311,4.009,2.515,4.881,4.625,6.473c-1.628,0.222-2.108,1.593-1.85,3.7
	c0.617,0,1.233,0,1.85,0c0.052,0.566,0.137,1.095,0.924,0.927c-1.173-3.705,6.25-3.534,7.4-1.852c0,2.158,0,4.317,0,6.473
	c-7.671,5.68-15.342-1.021-24.973,2.778c-0.292-1.254-1.317-1.771-0.926-3.701c4.645-1.43,9.613,3.045,11.1-0.925
	c-5.198-2.01-9.567-3.507-14.799-1.853c2.855,3.62-1.128,10.944,7.399,10.177c1.18-2.313-0.47-2.897,0.926-3.698
	c1.626,0.53,5.435-1.119,5.549,0.921c-0.785,3.305-2.279,0.114-5.549,0.926c-1.306,4.079,5.534,0.016,5.549,2.778
	c-7.544-0.333-20.329,3.552-25.899-0.927c4.712,0.395,8.547-0.086,10.175-2.777c-4.867-1.336-8.615-0.632-12.025-0.921
	c0.487-2.364,1.227-3.236-0.923-4.626c-1.491,2.517-1.435,6.582-5.551,6.473c0.893-5.002-2.056-11.692-3.7-14.798
	c5.012-4.039,7.996-5.029,15.725-2.773c0.158,1.384-0.329,3.413,0.926,3.698c0-1.852,0-3.698,0-5.551
	c-1.383-1.079-3.784-1.147-4.625-2.773c5.258-2.909,6.622,4.135,9.249,0c-2.107,0.26-3.475-0.223-3.7-1.852
	c0.292-1.248,1.318-1.765,0.926-3.699c6.367-1.641,5.086-2.756,9.249-7.399c3.71,0.84,4.488,0.647,6.476-1.847
	c4.725,0.835-1.031-2.595-2.776-3.701c-2.662-1.688-6.606-3.364-8.324-3.698c-0.625-2.149-3.073-2.477-3.7-4.626
	c-5.913-0.121-8.932-4.271-13.873-2.773c1.068-3.898-3.639-6.774-5.552-4.626c0.823,0.271,4.049,2.503,1.852,2.774
	c-3.105-3.043-4.802,3.167-7.401,3.698c1.139-3.073-6.252-2.262-6.473-0.926c4.344,1.295-4.222,1.366-4.626,1.853
	c-0.277,1.817,1.249,1.832,1.85,2.774c-2.377,0.089-1.323,3.611-3.7,3.698c-0.447-1.091-0.986-2.097-1.849-2.773
	c-1.663,1.728-3.044,3.737-4.626,5.552c2.28,0.119,4.458,0.138,5.549-0.927c-0.803,3.578,2.26,3.289,2.776,5.548
	c1.747,0.207,2.041-1.043,3.7-0.922c-1.186,4.723,2.694,0.975,2.775,2.772c0.224,9.343-8.83,7.099-12.025,11.1
	c1.623,0.256,4.615-2.604,5.55,0c-0.734,2.848-4.347,0.471-4.626,1.852C175.945,597.03,176.951,597.568,177.627,598.431z
	 M205.376,608.604c0.514-2.655-5.947-6.16-6.476-1.848C200.135,608.297,204.141,607.064,205.376,608.604z M109.184,568.834
	c0.167,3.546-0.759,0.336-2.776,0.923c-1.933,4.369-1.062,7.771-0.926,12.951c2.451-1.25,4.335-3.064,6.477-4.625
	c-1.005,5.745,2.57,4.854,0.926,9.249c3.159,3.673,7.133-2.803,9.248,0c-0.172,1.371-2.235,0.848-3.7,0.925
	c2.825,6.791,10.251,5.907,13.875,10.174c-0.532-6.135,14.153-7.471,6.474-12.025c6.242,3.031,8.012-7.561,14.798-3.697
	c1.44-3.29-3.141-0.559-2.773-2.773c1.343,0.502,4.779-1.081,4.625,0.925c-2.166,0.3-0.899,4.033-2.776,4.621
	c-0.014-1.212-2.564-1.177-2.775,0c1.039,0.196,1.442,1.026,1.85,1.852c-1.23,2.27-2.79-1.667-3.7,0.925
	c4.071-0.149,0.428,2.778-0.924,2.774c0.734,3.585,2.033,6.602,4.624,8.326c0.591-3.236,0.825-3.185,2.776,0
	c0.305-2.165,1.112-3.825,1.85-5.553c-1.088-0.142-2.625,0.16-2.776-0.925c0.926,0,1.852,0,2.776,0
	c-3.314-3.326,3.786-5.511-1.85-9.248c4.435,1.661,2.98-2.57,4.626-3.697c1.382,0.157,3.412-0.333,3.699,0.925
	c-4.049,0.406,1.747,1.949-0.926,4.621c2.708-0.827,2.841-0.827,5.55,0c-1.116-5.121,4.543-3.471,5.548-6.473
	c-2.992-0.527-4.651,0.281-5.548,1.852c1.379-4.133,0.544-5.98-1.85-8.324c-4.01,3.123-4.833-1.416-6.473,2.773
	c-2.035-2.503-3.074-0.252-5.552-1.849c-0.156,1.382,0.331,3.409-0.924,3.7c-2.531-3.783-9.905,2.825-10.174,7.397
	c-4.5-1.418-3.481,2.685-6.474,2.774c-1.316-4.994-8.333,1.66-4.625-4.624c-5.384,0.999-10.462,1.271-12.949-3.7
	c1.75,0.207,2.041-1.043,3.7-0.925c-0.638,2.487,1.913,1.786,2.775,2.776c0.588-4.94-8.111-4.365-5.55-8.324
	c-1.541,0-3.083,0-4.624,0c-1.222,2.313,3.656,2.893,0.925,3.698C113.133,574.135,113.768,568.873,109.184,568.834z
	 M132.307,579.935c-2.413-1.699,4.486,0.258,5.55,0.925c-1.642-3.089-1.831-2.453,0.923-4.626c-2.813-1.328-5.532-0.17-8.326,0.927
	C129.663,579.045,131.911,582.257,132.307,579.935z M246.998,593.805c0.423,1.236,3.998-1.105,4.625,1.852
	c0.203-0.722,0.773-1.076,1.85-0.925c-0.506-1.344,1.08-4.78-0.926-4.626C251.83,592.474,246.585,590.313,246.998,593.805z
	 M143.406,598.431c0.792,2.95-1.457,2.86-1.85,4.625c2.228-0.378,2.01,1.691,4.624,0.927c0.858-6.102-3.568-6.913-5.55-10.178
	c-3.109-0.021-4.893,1.276-6.473,2.778c2.722,3.775,4.519-3.286,5.549-0.927c-0.395,1.763-2.644,1.671-1.849,4.627
	c3.287,1.438,0.557-3.143,2.773-2.778C141.72,597.652,143.255,597.348,143.406,598.431z M250.696,600.283
	c-0.339,2.805,3.013,1.919,4.626,2.772c-0.158-1.384,0.329-3.412-0.926-3.698C254.676,603.136,253.117,599.2,250.696,600.283z
	 M338.564,603.056c1.75,0.104,0.644,3.056,2.777,2.775c0.482-1.37,1.366-2.331,1.849-3.7
	C340.826,601.645,339.953,600.902,338.564,603.056z M308.968,619.707c0,0.923,0,1.848,0,2.774c4.452-4.239,3.268,1.81,7.399-0.927
	C313.062,620.252,313.281,618.182,308.968,619.707z M300.643,620.63c-0.067,4.142,3.429-0.562,6.474,0.925
	C307.398,617.622,302.187,620.613,300.643,620.63z M271.046,623.406c0.787-2.714,2.326,1.2,4.626,0
	C275.796,619.857,267.448,620.619,271.046,623.406z"/>
<path fill-rule="evenodd" clip-rule="evenodd" d="M245.147,249.732c-0.775-1.603-3.633,2.458-5.549,2.774
	c-1.647-0.677-0.134-1.681,0-2.774c-0.785-2.183-2.279,2.548-5.549,0.924c-0.993,5.146,0.213,7.405-1.85,12.024
	c-2.954-0.438-2.041-4.742-5.549-4.625c1.016,2.684,2.954,4.445,4.623,6.476c-2.427,0.384-6.093-3.928-6.473-5.55
	c-1.513-6.429,5.913-7.171,7.399-12.948c4.907-0.821,4.987-0.717,7.399-3.702c-2.625-0.297-0.915-1.191-0.926-5.549
	c4.131,1.627,2.245,6.844,1.851,11.101c2.333,0.406,3.823-7.539,4.625-2.776c1.425-1.966,3.338-3.444,4.625-5.549
	c2.271,0.826,2.507,6.47,0.924,8.325c1.974,0.431,1.761-1.323,1.85-2.776c1.541,0,3.084,0,4.626,0
	c-1.274,4.275-4.067,7.034-6.476,10.174C250.161,252.689,241.39,253.551,245.147,249.732z"/>
<path fill-rule="evenodd" clip-rule="evenodd" d="M216.474,254.355c-2.131,2.908,5.038,8.984,5.55,2.776
	c-0.151,7.55,5.183,9.616,7.399,14.799c-2.601,0.172-3.94,1.608-3.699,4.625c-8.553-5.63-8.831-19.535-14.798-27.748
	c1.638-1.443,1.624-4.541,4.624-4.624c0,1.541,0,3.083,0,4.624c1.889-1.195,1.682-4.484,5.55-3.7
	c-0.789,1.883,0.806,5.747,1.851,2.776c2.996,2.762-6.118,6.142-3.701,8.322C218.323,259.061,217.724,254.199,216.474,254.355z"/>
<path fill-rule="evenodd" clip-rule="evenodd" d="M191.502,431.942c0.244,4.46-5.323,4.133-8.325,2.773
	c2.685,1.325,4.416,3.603,4.625,7.403c9.36,8.468,20.423,12.224,27.747,24.046c4.501,1.667,10.777,1.558,11.101,7.398
	c-3.457,0.99-2.637-2.295-5.55-1.848c-1.144,2.992,2.992,0.708,1.851,3.699c-4.317,1.367-11.057-5.897-11.101,0
	c-2.591-1.724-3.891-4.742-4.624-8.324c-14.708-6.259-26.326-15.604-34.225-28.675c-2.049-0.508-1.314,1.769-2.773,1.852
	c-3.042,0.674-1.417-1.836,0-1.852c-4.374-8.882-12.902-13.613-16.65-23.123c1.693,2.13,12.008-0.885,9.251,2.777
	c11.101,1.848,13.842,12.055,23.124,15.724C189.407,434.78,188.589,431.495,191.502,431.942z"/>
<path fill-rule="evenodd" clip-rule="evenodd" d="M124.906,365.347c0.581-1.886,4.673-0.26,3.699-3.7
	c2.595,0.927,0.095,4.28-0.924,4.626c-0.169,0.786,0.361,0.873,0.924,0.926C127.77,369.705,126.537,365.084,124.906,365.347z"/>
<path fill-rule="evenodd" clip-rule="evenodd" d="M312.668,368.124c-0.121-2.281-0.14-4.456,0.926-5.551
	c1.072-0.15,1.645,0.202,1.848,0.925c1.787-3.356,1.772,0.502,4.626,0.927c-0.403,4.211-5.929,0.644-2.774,5.547
	C317.071,371.591,314.564,367.872,312.668,368.124z"/>
<path fill-rule="evenodd" clip-rule="evenodd" d="M211.85,371.823c2.239-1.271,6.988,2.846,10.175,3.7
	C219.269,377.311,215.124,372.588,211.85,371.823z"/>
<path fill-rule="evenodd" clip-rule="evenodd" d="M126.755,414.37c8.194,8.762,17.544,16.372,26.823,24.046
	C143.582,435.153,132.822,424.646,126.755,414.37z"/>
<path fill-rule="evenodd" clip-rule="evenodd" d="M159.13,437.494c2.393,3.91,7.434,4.192,11.098,4.625
	C165.334,446.361,160.998,443.094,159.13,437.494z"/>
<path fill-rule="evenodd" clip-rule="evenodd" d="M181.327,496.687c3.562,0.141,5.322,2.078,6.475,4.626
	C186.705,498.712,180.894,500.823,181.327,496.687z"/>
<path fill-rule="evenodd" clip-rule="evenodd" d="M154.504,513.337c-2.311-2.821,5.649,2.204,6.475-0.926
	c2.924,2.988-4.219,3.753-3.7,7.399c-3.222,0.447-3.231-2.318-4.626-3.699C153.055,515.087,159.229,513.805,154.504,513.337z"/>
<path fill-rule="evenodd" clip-rule="evenodd" d="M271.973,552.185c-2.263,0.823-4.013,2.157-7.4,1.852
	c2.884-2.051,6.605-3.259,11.1-3.699c-2.119,0.963-2.57,3.593-4.626,4.621C267.896,553.972,273.62,554.672,271.973,552.185z"/>
<path fill-rule="evenodd" clip-rule="evenodd" d="M304.342,610.456c1.882-2.412,5.507,1.216,4.626,4.626
	C305.671,615.297,308.02,609.861,304.342,610.456z"/>
<path fill-rule="evenodd" clip-rule="evenodd" d="M239.598,47.172c2.217,3.043,2.729-3.366,6.475-1.852
	c-1.036,2.915-0.084,2.095,0,5.551c5.13-0.378,5.618-0.905,8.323,1.85c-0.01,1.836-2.523,1.176-1.85,3.699
	c-10.169-1.854-18.055-5.993-19.423-16.65c-0.608-1.24-1.976-1.721-3.7-1.85c1.779-2.847,4.424-4.824,6.476-7.398
	c3.375,0.63,1.676,6.363,0,7.398c1.549,0.229,4.864,2.751,10.174,1.85c-0.611,2.781-3.194,3.589-6.475,3.702
	c0.228,1.003,1.838,0.627,1.85,1.848C241.788,46.896,240.728,47.067,239.598,47.172z"/>
<path fill-rule="evenodd" clip-rule="evenodd" d="M279.372,44.396c-2.391-2.328-4.118,3.852-5.552,5.55
	c1.728,2.833,6.575,4.932,9.25,1.85c1.863,2.491,3.128,1.265,3.7,3.7c0.944-0.903,1.87-1.828,2.773-2.774
	c2.18-0.021,2.725,1.591,5.552,0.924c-0.953,8.125-10.609,2.681-16.649,4.625c0.673-2.522-1.838-1.862-1.853-3.7
	c-2.308,0.641,1.717,2.468,0.926,4.624c-8.911-2.116-8.961-12.889-11.099-19.424c3.278,2.171,3.402-6.182,12.025-3.7
	c2.694,1.93,3.349,5.902,8.324,5.55c-0.685,3.389,2.273,5.14,0,7.402C284.67,47.69,276.744,47.385,279.372,44.396z"/>
<path fill-rule="evenodd" clip-rule="evenodd" d="M146.18,299.678c4.39,0.894,4.523,2.39,8.325,0
	c-1.802,1.718-0.634,3.737,0.926,4.624c-1.793,3.758-6.526,4.575-9.25,7.401c-1.333-0.52-2.256-1.443-2.774-2.776
	c-0.168-2.017,0.756-2.943,2.774-2.775c-2.912-2.061,1.319-2.222-1.85-5.55C145.405,300.753,145.976,300.399,146.18,299.678z"/>
</svg>
