<!DOCTYPE svg PUBLIC "-//W3C//DTD SVG 1.1//EN" "http://www.w3.org/Graphics/SVG/1.1/DTD/svg11.dtd" [
	<!ENTITY ns_flows "http://ns.adobe.com/Flows/1.0/">
]><svg xmlns="http://www.w3.org/2000/svg" width="640" height="640" viewBox="-60.055 1.638 640 640"><path fill-rule="evenodd" clip-rule="evenodd" d="M251.623 37.921h4.624c.726 3.903-4.961 3.16-4.624 0zM211.85 46.247c2.599 1.483-2.004 3.457-1.85 5.55 2.846.688 1.777-2.539 4.625-1.85-2.91 8.14-11.503.629-15.725-.923.678-.866 1.683-1.403 2.776-1.851 3.555.727 7.603 2.914 10.174-.926zM234.973 49.023c-2.017 3.195.65 4.561 2.775 4.623.333 5.376-4.592 4.626-8.325 3.699-3.178 2.411-4.394 3.796-4.624 7.399-1.786-.373-.081-4.233-3.7-2.773.638-1.828 2.467-2.465 4.625-2.776-3.636-4.416 1.696-11.279 9.249-10.172zM222.95 51.796c-.128 6.347-4.471 8.479-5.552 13.874-2.545-2.243-1.669-5.847-4.623-9.249 1.455-5.093 4.461-5.498 10.175-4.625zM201.677 51.796c-.841 1.934-2.73 2.82-5.552 2.774.842-1.933 2.731-2.819 5.552-2.774zM175.778 84.168c.592 2.492 3.57 2.597 3.7 5.551-2.976-.418-4.771-2.013-5.55-4.625 1.074.151 1.645-.205 1.85-.926zM262.722 121.166c-.843 1.607-3.241 2.391-4.625.925 6.221 5.934-8.926 8.282-5.55 16.649-5.992-.134-9.522 2.194-15.724 1.85-2.943-1.274 3.269-.915 4.625-.924.156-2.006-3.28-.42-4.625-.926 1.951-2.366 4.343-4.291 4.625-8.325-4.625-2.049-8.21.344-13.875-.924 2.992-3.099 11.701-3.571 16.65-1.85-7.918-12.854-26.678-.871-28.674 9.25-.333-15.755 22.757-31.275 36.997-19.424 5.011-2.893 6.197 2.835 10.176 3.699zM160.979 143.364h3.7c.728 3.561-4.429 3.561-3.7 0zM199.825 183.137c4.207.15 3.171 7.082-.925 6.475-1.224-2.754-.947-4.693.925-6.475zM193.352 184.986c2.354.113 3.586 1.347 3.7 3.699-2.897.429-4.13-.803-3.7-3.699zM206.3 203.486c.674 2.523-1.838 1.861-1.849 3.7 2.846.688 1.777-2.539 4.625-1.85.165 2.546-6.277 6.55-1.85 7.398-.557 1.91-1.43 3.502-4.626 2.774 2.016-5.007-1.569-6.902-1.849-12.022 2.162-.286 3.821-1.813 5.549 0zM220.174 208.11c.134 2.6-2.265 2.668-4.625 2.775.847-1.622 1.72-3.214 4.625-2.775zM219.249 216.434c.095 5.173-8.083 4.402-9.249 5.55-4.495-5.764 6.261-4.195 9.249-5.55zM228.5 224.759c4.29.508-.183 5.997-.926 7.399-3.138-2.314 2.536-3.557.926-7.399zM255.322 233.082c2.377 3.616 1.575 7.511-.926 10.175-3.697-.576 1.764-6.451.926-10.175zM283.07 234.008c2.632 1.233-.715 4.112-.926 5.55-3.845-1.105.712-3.167.926-5.55zM226.65 235.858c1.581 1.047-.324 6.398-3.7 5.549-1.137-4.219 3.242-2.922 3.7-5.549zM217.398 239.558c-.488.743-.963 1.502-.924 2.773-.743-.489-1.5-.963-2.775-.924-.898.024-.716 1.133-.923 1.85-2.35-1.235-.583-6.046 2.774-4.625-1.326 2.69-.708 1.04 1.848.926zM229.423 238.632c3.048.44 2.617 8.841-.924 8.325 1.205-4.626-1.806-3.918.924-8.325zM252.546 257.131c2.623 2.685-1.134 6.836-2.774 8.323-3.281-3.341 1.691-6.277 2.774-8.323zM165.603 281.179c3.714 2.185-5.376 6.724-2.774 13.875-1.806-3.036-5.412-6.345-2.775-11.099 3.231 1.753 4.655.084 5.549-2.776zM104.558 304.302c2.058-.408 5.016 2.857 5.55.926 1.255.287.768 2.317.924 3.7-2.074-1.626-6.647-.751-6.474-4.626zM209.076 322.8c5.113-2.665 11.831 2.917 9.249 8.325-2.827.67-3.37-.945-5.549-.926 2.21-2.887.451-7.983-3.7-7.399zM236.823 337.603c3.457-.99 2.636 2.295 5.549 1.848-.947 2.062-6.19.729-5.549-1.848zM110.107 344.075c-9.01 1.663-14.11-.579-20.348-.926 5.081-5.408 16.028-3.447 20.348.926zM176.701 350.549c2.033 1.945.193 4.113-.923 5.551-2.783-.041-2.688-6.568.923-5.551zM454.181 357.948c8.545 12.897 13.967 23.849 14.802 43.473-5.393-6.941-6.864-17.802-10.177-26.823-.899.026-.719 1.133-.927 1.848.486-4.882-1.539-11.548-3.698-18.498zM448.633 369.972c3.429-1.546 5.605 6.09 6.474 10.177-5.295-.256-2.484-8.616-6.474-10.177zM235.899 385.696c.423 2.891-1.976 2.958-4.626 2.773.845-1.617 1.72-3.209 4.626-2.773zM397.762 392.169c2.784 1.751 1.396 5.672.926 9.252-3.015-.313-2.124-7.588-.926-9.252zM146.18 419.918c1.629.84 1.527 3.406 3.699 3.7-4.104 2.163 1.882 2.235.926 6.478-2.545-2.086-6.942-6.2-4.625-10.178zM381.111 424.544c-.786.169-.869-.361-.922-.926-.899.026-.719 1.133-.926 1.852-.745-.489-1.502-.968-2.777-.926.35-2.477 4.919-4.336 4.625 0zM172.078 444.894c-1.302 1.37-2.953 1.987.923 1.848-2.681 2.955 3.508 2.646 4.625 4.626-3.613 2.34-6.627-3.828-11.098-3.7.568-.824 1.118-1.652 0-1.848.535-3.053 3.493-1.33 5.55-.926zM366.312 447.667c2.826-.67 3.373.945 5.552.926.896 4.595-1.392 6.007-5.552 5.547 2.086-1.998-.762-3.154 0-6.473zM178.553 450.44c.218 3.481 5.318 2.082 5.55 5.551-2.058-.719-3.608-1.941-6.477-1.852.721-.82.995-2.087.927-3.699zM364.466 462.465c2.472 2.236.259 7.606-3.7 6.478-1.306-4.698 2.054-4.728 3.7-6.478zM117.507 472.643c4.369 2.25 8.677-.354 13.874 0-.021 2.179 1.594 2.72.926 5.547-4.648-.813-6.194.241-12.024 0-.823-1.954-2.818-2.733-2.776-5.547zM235.899 479.115c1.541 1.234 5.886-.335 5.549 2.773-2.812.039-6.087.539-5.549-2.773zM242.372 480.041c2.217.557 4.221 1.328 7.4.922-.445 4.596-7.261 2.529-7.4-.922zM133.231 495.766c8.417 3.259 14.542 3.24 22.199.921.393 1.766 2.642 1.676 1.85 4.626-7.806 1.035-23.341 5.148-24.049-5.547zM280.293 542.011h4.626c-.783 1.988-2.277 3.271-5.547 2.774.488-.745.963-1.502.921-2.774zM95.31 563.284c2.058.388.723 4.906 0 5.55-3.659-.985.234-2.808 0-5.55zM191.502 579.935c-.403 2.061-1.635 3.297-3.7 3.697.117-1.659-1.133-1.949-.926-3.697 1.216-1.19 3.41-1.19 4.626 0z"/><path fill-rule="evenodd" clip-rule="evenodd" d="M.966 0H518.93v641.903l-518.889.001V2.776C-.039 1.462-.112.156.966 0zm198.859 77.694c9.432-.237 14.719-2.208 20.349-.925 2.604-1.39-2.349-3.896 0-4.624.252.841 4.095 2.456 3.7.924.821-3.208 6.694-5.597 10.175-7.4-1.242-.607-1.724-1.978-1.85-3.699 1.934 2.015 2.64-.463 5.549 0 4.458 8.372 15.982-.625 19.424-.926 1.142 2.995-2.994.708-1.85 3.7 1.074 1.701 4.908.642 3.7 4.626 2.827-1.873 3.722-2.095 5.55.926 1.882-3.359 5.101-5.38 7.4-8.325 9.601-.98 20.496 6.477 29.596-1.85 2.684.076 4.445 2.123 6.474.924-1.02-.624-4.799-3.073-2.773-3.7 2.992-.526 4.651.281 5.551 1.85a460.722 460.722 0 0 1 5.548-5.549c.963 2.621.963 3.854 0 6.475 5.63.215 6.003-13.056 12.024-6.475-1.769.389-3.981.334-3.7 2.775 3.87-1.592 5.48.061 9.251-.925.155-2.315-1.422-2.895-2.777-3.7-1.648 2.488 4.077 1.788.926 2.775-5.581-5.361-14.647-5.613-21.271-5.547.271-1.889 2.499-1.816 2.774-3.703-1.345.506-4.78-1.081-4.626.926 4.219 2.285-2.8.516-3.699 1.85 3.715 2.768 5.954 2.873 2.773 7.399-4.434.348-7.526-2.202-7.399.925-4.117-1.123-6.721-3.759-7.398-8.324 5.182-.542 5.434-.917 9.25-1.85-1.904-4.731-16.743.128-12.95-7.399-7.229.854-6.672-9.978 0-9.249.203 2.977-1.637 3.912-.926 7.398 5.777-2.045 8.656-5.959 13.876-4.625-4.952-2.443-16.499-10.894-23.122-2.774-6.778-1.589-10.444 4.004-15.726.924.587 2.983 1.039 5.467 0 7.399-1.893-2.345-5.846-5.243-1.851-8.323-4.583-4.247-17.665-3.594-17.572 1.85-5.112-.287-2.025-3.35-5.552-5.55-.114 2.042-3.923.391-5.549.924-2.806 6.751-13.847 5.269-17.574 11.098-9.064-4.96-18.467 5.512-21.273 12.951-9.356.508-16.007 3.724-18.498 11.099 5.019.856-1.749 7.668.923 9.249 3.457.99 2.637-2.296 5.552-1.85-.898-10.42 9.939-5.868 14.798-6.476-.688 4.189 2.539-1.414 1.849 2.775 5.874-.478 6.709-.931 11.1-3.699 1.093.448 2.098.986 2.775 1.85-3.346 1.718.41 5.73-2.775 6.476-1.89-.886-3.66-1.89-5.549-2.776-1.199 2.809-.599 7.416-2.774 9.25-3.886-6.163-8.837-10.115-19.424-7.399 1.029 6.147-.328 7.085 3.7 11.098 2.252-2.811 1.457-3.861 3.7-5.549 3.898.416 10.043-1.411 10.171 2.775zm123.941-32.373c1.499-5.815-8.795-10.743-12.946-5.55 4.269.339 5.322 1.141 9.248 0 .943 1.217.906 3.41 1.852 4.625-4.272-.731-2.646 1.028-3.7 1.85-2.612.171-2.318-3.641-3.699 0 3.864 2.323 5.477-.652 9.245-.925zM308.968 65.67c.67 2.827-.944 3.37-.926 5.55 2.322.551 3.098.743 6.478 1.85 1.212-3.411 6.379-2.868 6.473-7.399-1.923-.542-2.988-1.943-4.625-2.775-.972 2.418-3.758 3.024-7.4 2.774zM182.253 84.168c-.343-.589-2.796.894-2.775.926-2.061-2.963-2.053-4.449-6.476-7.399 1.75.208 2.042-1.042 3.7-.925.767-2.614-1.302-2.396-.923-4.624-2.516 1.211-7.436 2.501-9.249 4.624-2.748 3.212-1.432 8.932-3.7 12.95-2.523 4.466-10.194 4.739-5.549 10.173.221-1.619 3.438 1.387 4.624 1.849-1.816 3.472.873 2.018 1.85 4.625-3.559-.549.843 3.903.926 5.55.005-2.769 1.662-3.888 3.699-4.626.934 1.843 1.6 3.952 3.7 4.626.102-1.746 3.058-.642 2.773-2.774-4.366-.259-3.052-6.197-4.623-9.25-3.45-.982-1.464 3.47-4.625 2.775.369-3.759-3.937-2.847-4.624-5.549.127-2.956 4.126-2.041 5.549-3.7-1.319-.33-3.16-4.714-.926-5.551 1.14 4.65 3.814 2.971 6.475 4.625-2.497 4.044 1.485 4.65.923 9.249 2.622-.963 3.856-.963 6.476 0 .948-2.133 1.244-4.92 4.626-4.623.184 3.207.77 6.012 4.623 5.549-.294-2.145.148-3.551.926-4.625-1.549-1.228-3.099-2.451-6.475-1.85-4.512-4.85-.904-11.987-.925-12.025zm7.399 94.345c-2.181-1.358-1.722-1.954-4.625-.926-1.857 4.942 3.957 2.209 2.775 6.476-2.853-1.909-4.903-1.886-7.399-5.55 2.275 6.972 6.064 12.434 10.173 17.572 1.331-2.061 3.317-3.464 7.401-2.774 2.264 5.124-3.399 8.831 1.848 10.175-3.855.982-4.079.239-8.323 0-.204 3.497-2.908 4.492-3.7 7.399 6.63 3.555 8.396 1.207 12.023 7.399 3.068-.497 7.918-1.291 9.25-1.85-2.571 2.979-1.206 9.893-6.476 10.175-.107-2.36-.173-4.759-2.775-4.625-1.918 2.281 3.261 5.333 3.701 8.325.258-1.901 2.469-1.846 3.7-2.776-.554 3.327.333 5.216 2.774 5.549-1.203-2.295 2.713-3.836 0-4.623.673 3.041-1.837 1.415-1.85 0 1.29-1.179.403-4.531 2.776-4.625 3.248.664 7.646.295 11.099 2.776v2.774c-3.323-.439-5.939 1.796-10.175 2.775.854 6.174-2.563 10.632-1.85 13.875-2.472-6.227-5.138-10.444-9.249-16.649-1.095 8.294 1.537 20.581.926 31.448-4.907.028-9.786.081-12.024 2.775-.207-.719-.027-1.825-.926-1.852-12.804 7.854-28.748 12.567-37.922 24.049-15.476-5.913-26.002 6.63-40.697 7.399-9.482-3.901-20.765 1.377-20.348 12.948 2.968 6.044 13.486 1.964 14.798 8.325 2.665-.111 6.056.506 7.4-.924-.052 1.182-1.186 1.28-.927 2.774 12.995 10.88 35.095 5.976 45.323-3.7-1.163-.378-1.891-1.193-1.85-2.774 4.723-1.633 4.428-4.655 8.325-5.551 1.133-4.593-1.125-7.473 1.85-9.249.103 1.129.276 2.19 1.85 1.85 5.453-14.841 18.759-41.371 36.071-32.373.129 8.453.792 17.44-6.475 18.498 1.244 6.896-4.356 10.666.926 9.252-2.083 1.271-1.331 8.992-3.7 4.623-.146 5.645-1.336 13.848 0 22.198 3.236-.153 5.92.245 7.399 1.85-3.448-.869-8.175-.459-10.175-2.775.604 3.686-3.518 2.649-6.473 2.775-.402-12.632 3.477-23.866 8.322-35.147-6.352 4.13-5.996 14.968-11.098 20.348-1.007-2.352 4.332-3.587 0-3.7-3.245 5.032-2.625 14.736-.924 17.574-5.764-3.833-19.784.667-19.424 5.551 4.217-1.765 7.036-2.955 10.172-1.852-.939 5.536-8.271 4.678-12.021 7.399 1.076.158 1.002 1.464.923 2.777 4.813-1.261 6.743.174 10.175-1.852 21.204 4.911 43.361 7.372 63.82 11.099 6.443 1.174 13.101 2.235 17.574 5.551-19.088 5.19-45.066-2.932-62.896-3.699 6.196 3.67 15.596 4.136 21.273 8.321-13.378-2.349-26.236-10.139-38.848-10.173 23.21 13.173 50.109 22.652 71.22 37.922-18.512-8.4-31.592-12.668-49.021-22.197-.64 1.824-2.467 2.465-4.625 2.772-10.992-6.808-19.038-25.659-36.073-20.345.317 1.911 4.377 4.771 2.776 5.547-4.027-.33-4.252-.139-6.476-.926 2.242 4.403 10.51 7.143 14.799 6.478 8.649 4.271 14.31 15.517 25.899 13.872 9.066 3.579 18.936 11.271 24.973 14.799-.643-1.224-2.773-4.234-.926-6.474 2.57 2.055 7.405 1.845 7.401 6.474 4.18-1.408.833.591 4.625 1.852-1.073.775-2.481 1.22-4.625.926-.739-4.362-1.196-.96-1.851-4.626-3.794 3 .441 3.824 1.851 6.474-1.23.136-3.441-3.108-3.701-.927 10.029 12.059 35.975 5.541 48.098 7.399-2.5-1.606 5.938-1.188 5.55.927-1.344.508-4.779-1.081-4.625.926 13.451 1.476 35.382 2.668 42.547-7.399 6.771 5.924 15.043-.157 20.35-4.625.306 4.603 7.888 1.091 12.024 3.699 12.138-8.912 10.063-27.429 19.424-37.922 1.001-2.371-2.812-4.41 0-5.552 1.242 6.979 3.323-14.06 2.773-14.798-5.021 5.484-3.921 12.823-12.024 13.877-2.495 11.233-5.796 23.28-5.552 33.296-1.885.516-1.813 2.781-3.699.926-.274 1.818 1.25 1.833 1.852 2.773-2.498.331-9.333 5.168-5.551.926-4.174-.474-7.328.068-8.325 2.774-.038-1.272.437-2.032.926-2.774-1.746-.206-2.039 1.043-3.699.927-7.109-11.946 12.818-20.418 7.399-30.527-.765 3.274-3.685 4.942-6.474 3.7 1.02 6.263-5.491 4.99-6.473 9.251-1.254-12.314 16.465-14.422 21.271-25.897-16.707 3.952-21.182 20.131-42.548 19.424 1.483-3.639-3.993-.324-3.699-2.777.067-6.714 5.656-7.907 8.325-12.021h3.699c10.919-13.748 24.662-24.67 38.848-35.15-4.753 2.949-21.215 7.764-17.576-3.7-3.764 6.298-9.88 8.581-14.798 14.8-3.819 4.833-7.682 13.77-12.025 19.423-3.244 4.224-7.462 6.613-8.32 10.173-.809 3.346 1.378 7.271.921 10.177-1.343 8.559-7.519 12.521-12.023 19.42.719.211 1.825.026 1.852.926-6.515-1.426-9.929 7.004-18.498 6.478-1.084-4.158-4.374-6.112-9.25-6.478-.822 1.953-3.942 1.607-3.7 4.626 2.308.466 3.802 1.75 5.549 2.772-4.665-.172-8.204-.04-9.249-5.547-6.48-3.387-14.702-5.031-15.723-13.876 13.082-3.836 35.542-.836 37-14.798 3.417 1.058 6.781.436 14.798.926 2.326-2.436-2.322-3.116-2.777-5.552 5.25-4.584 1.095-10.836 0-16.646-7.083-.794-17.215-1.753-21.271 4.626 7.061 1.614 10.951-2.442 15.725 1.848-2.612.095-3.93 3.485-6.474.926-3.516 3.033-2.47 7.489-3.7 11.099-6.913-2.028-16.827-1.058-20.349-6.473 3.845-.415 6.745 4.915 10.173 1.848-2.531-3.195.724-8.491.926-12.024-5.482-2.653-20.252-.125-23.123-3.7 3.699-.308 9.204 1.189 9.248-2.773-2.979-1.031-4.474-3.541-5.549-6.475-11.661-.23-19.544.897-26.823-2.774 4.496-.295 10.411 2.894 12.949-.926-.709.406 1.246-4.216 1.849-5.55.673 2.719 2.883 3.899 6.476 3.7 1.379-4.202 2.076-10.981 5.549-14.799-6.575-3.908-7.802-13.164-13.874-17.574 6.08 2.889 7.156-7.664 4.625-11.098 2.108-1.27 3.476 2.384 3.7 0-.63-1.786-.862-6.378 3.7-7.401-.362 1.321-1.111 1.56 0 2.776 2.813-.886 6.31-1.089 7.398-3.7-2.171-2.185-4.544.151-7.398 0 .923-2.776 2.774-4.626 5.549-5.55.734 2.041 4.347 1.201 4.625 3.7-.503 4.596-2.322 11.741.923 14.799-.257-2.108.224-3.478 1.85-3.7.104 1.748 3.059.642 2.776 2.776-1.855 1.537-4.3 2.481-4.626 5.549.616 2.467 2.779 3.387 4.626 4.624.295-2.144-.148-3.551-.926-4.624 3.465.986 4.048-8.052 7.399-10.174-2.971.758-5.705-.884-8.323-.924 1.803-3.131 4.963-4.904 8.323-6.475-7.601-2.304 4.74-5.517 4.627-9.249-3.255.564-6.379 4.742-9.25 2.773 1.032-3.59 4.514-4.732 5.547-8.323-1.373-.785-1.335-2.979-1.847-4.625 1.249-2.245 1.847-.576 2.774-1.85-2.07-1.609-.264-6.424 0-6.476 5.528 1.28 5.968.003 11.099-1.849 1.005 2.369-2.809 4.409 0 5.549 1.188-1.584 1.916-3.636 4.625-3.7-.274 1.82 1.249 1.835 1.853 2.776-6.745 4.278-15.276 18.417-11.1 26.823.716 1.445 3.575 2.667 4.622 4.625-2.239-4.181.843 5.459 1.852 4.624 1.969-4.707 10.041 2.177 10.173-4.624-6.53.499-6.365-6.838-12.024-4.625.324-3.882-3.488-6.33 0-8.325 1.291 1.179.402 4.532 2.777 4.625.508-4.569.475.962 1.848.924 4.776-5.01.844-7.348 4.625-12.948-5.054-.119-3.119 6.745-7.398 7.398.654-4.046-.482-6.3-2.773-7.398 3.209-2.362 5.735-8.162 11.098-5.55 1.283-2.284 4.25-6.174 6.474-4.625 2.04-4.567.223-10.624-2.773-12.948-.549 1.916 1.144 6.076-.926 6.476 1.683-9.037-7.858-9.942-11.099-14.801-2.179-.021-2.726 1.594-5.551.926.007-1.64 5.193-2.679 1.851-4.625-4.938 2.655-13.051-2.574-15.724 2.775 4.383.683 6.36-1.04 10.174-.926-1.19 1.587-1.913 3.638-4.627 3.7-1.919-1.779-6.326-1.071-8.323-2.774.078-14.271 17.683-5.942 23.125-13.874-13.369-.704-24.333-1.276-32.374 6.475-1.432 4.219.73 3.912.926 8.323-2.483 1.449-4.917-.731-7.401 1.85-1.282-.566-.14-3.56-1.85-3.7-1.282.568-.14 3.562-1.85 3.7-.102-3.274-3.058 1.966-2.774-.924 1.217-3.534-.262-4.975 1.85-8.324 1.763 1.736 1.672-.548 4.624 0-.339-4.269-1.139-5.322 0-9.25 5.125 2.09 1.933-1.716 2.775-2.775 6.398.54 6.474-5.241 10.174-7.4v3.7c5.732.162 7.853-6.043 13.874-2.773.369-2.405 2.76-2.791 2.774-5.549-3.816-5.124-15.232-2.65-15.725-11.101 7.085-3.09 12.115-8.235 22.198-8.324 6.868-11.244-3.768-26.528.926-45.321 9.582-5.732 27.244-7.729 36.073-6.474-1.588-7.362-6.988-11.541-6.478-18.5-3.951-2.394-9.672-7.343-9.246-11.099-9.609-1.244-17.565 3.959-24.975.924.052-1.182 1.186-1.28.925-2.774-8.208.215-19.685-2.954-29.598-7.398-6.164 7.454-11.855 10.758-19.423 17.574h-8.324c-10.673 17.189-14.406 31.235-20.35 52.719.26-2.107-.222-3.475-1.849-3.699-4.272 5.821-3.083 11.194-.924 17.574.103-1.129.276-2.19 1.85-1.85 5.796 2.375-2.85 6.17-1.85 12.024 4.416.86 4.019-2.264 8.325-3.7.425 6.592-3.387 8.947-7.401 11.1.295-1.133-.148-5.713-.924-2.776-.464 2.909 2.014 3.614-.001 5.549zm102.666 54.569c-.674-2.1 1.667-7.214-1.849-6.473.358 2.414.475 5.073 1.849 6.473zM193.352 81.394c.4 2.057 2.125 5.015-.926 5.549-.784-1.372-2.328-1.989-4.623-1.85 1.79 3.317-.355 3.389-.926 6.476 3.161-.695 1.176 3.757 4.625 2.774-.128-4.443 6.396-2.236 9.249-3.7 1.063-2.712-4.438-3.435-1.851-4.626 2.594 2.812 9.829-2.067 7.399-.924-7.248 1.677-6.577-7.319-12.947-3.699zm156.311 16.649c4.419.721 3.146-7.599.926-8.324-1.167 1.623.937 5.578-.926 8.324zm-6.473-5.55c.391 1.769.334 3.981 2.772 3.7-1.617-3.274.618-2.273.926-5.549-2.52-.674-1.862 1.837-3.698 1.849zm-154.463 13.874c2.171.913 4.543 1.622 7.398 1.85 1.888-2.119 1.313-2.171 3.7-4.625-4.505.808-6.135-1.264-9.249-1.85.79 2.949-.805 3.511-1.849 4.625zm-22.198 23.123c3.383.608 3.547-2.001 6.473-1.85-.695-4.305-5.285-6.87-1.85-10.174-3.47-.696-2.015 3.534-4.623 3.7.257-2.108-.225-3.476-1.85-3.7-1.585 3.344-.357 3.742-3.7 1.85-.311 2.158-.948 3.985-2.775 4.625-1.384-.158-3.415.33-3.7-.926 1.148-4.708 8.942-2.773 9.249-8.323-1.118-.196-.568-1.028 0-1.85-3.112-.287-4.219 6.191-7.399 2.774-.003-3.396 3.239-3.543 4.625-5.55-2.67-.414-2.187-3.98-4.625-4.625-.293 6.647-5.29 12.994-1.85 20.35 4.172.779 4.618-2.165 7.399-2.776.958 9.944-5.771 12.849-2.773 24.049 3.819 1.884 8.539.211 9.248-3.7-1.369-2.974-8.065-5.462-5.549-9.248 1.752 2.562 3.383 5.248 6.474 6.474.82-2.262 5.166-1.002 4.625-4.624-6.316-.994-2.294.03-6.474 1.85-.08-2.388-3.96-.973-2.774-4.625 4.411 1.434 1.228.325 1.849-3.701zm23.123-18.499c.158-5.915-4.396-4.693-7.399-5.55-.717 5.034 4.178 4.455 7.399 5.55zm-10.174 2.776c2.297.649 3.917-3.954 1.85-4.624-.394 1.763-2.643 1.673-1.85 4.624zm12.024 5.549c-4.943-3.964-6.982 1.102-12.949.926.817 3.048-4.529 4.621-1.852 6.473.924-2.776 2.774-4.625 5.552-5.549 2.096 2.036 9.228 1.258 9.249-1.85zm103.594 9.248c3.646-1.746 7.621 2.251 9.246-1.85-2.262-2.671-9.153-2.61-9.246 1.85zm-120.244 6.476h2.775c-1.07-3.125.654-3.946-.926-5.55-.738 1.728-1.544 3.388-1.849 5.55zm118.392 11.098c2.231-.596 8.317-2.092 7.398-2.774-2.83.67-2.721-1.595-5.547-.925 1.14 2.994-2.995.708-1.851 3.699zm-117.466 9.252c-.062-2.713-2.115-3.436-3.7-4.625-.241 3.014 1.098 4.451 3.7 4.625zm115.618 8.323c4.189.688-1.415-2.539 2.774-1.85-.496 3.271.782 4.765 2.773 5.548 1.283-3.691 2.33 1.426 5.551-1.849-.293 1.251-1.316 1.767-.926 3.699 5.902.712 1.476-7.079 7.399-3.699-.161-3.843 1.6-5.087-.926-7.399-.143 1.087.158 2.625-.926 2.775-6.406-2.535-10.462-7.418-16.646-10.175-1.23.931-3.443.875-3.699 2.774 3.658 2.563 1.287 8.312 5.548 6.476.207 1.748-1.043 2.042-.922 3.7zm4.621 72.145c.151-2.922.035-5.583-1.847-6.475.673 2.102-1.668 7.216 1.847 6.475zm-2.773 2.774c-1.896-1.623-4.261 1.891-4.626 4.625 3.116-.016 6.598-4.439 4.626-6.476v1.851zm-6.473 28.674c3.384.202 3.549 1.27 6.474 0 .443-4.593-5.741-2.143-6.474 0zm-12.025 12.948c5.536-.32 8.369-3.344 9.247-8.324-4.704 1.407-4.558 3.526-8.321 0-1.066 5.231-.926 5.133-.926 8.324zm16.65 1.85c2.714-1.022 7.716-4.567 5.548-7.399-.135 2.063-2.329-1.201-4.625 0 .202 2.977-1.634 3.915-.923 7.399zm-57.347-1.85c1.215.943 3.41.907 4.623 1.85-.792-2.95 1.457-2.86 1.851-4.626-1.272.042-2.031-.434-2.774-.924-.006 2.46-2.575 2.361-3.7 3.7zm32.372 1.85c2.759.205 3.146-3.416 5.552-.926-.041-1.272.433-2.031.922-2.774-3.023.368-5.981.804-6.474 3.7zM370.013 405.12c-.082-1.457-2.359-.723-1.849-2.773 5.13-20.277 8.168-48.192 19.425-62.896 9.751-2.631-1.051.346-4.626-1.848 4.656-18.777 19.653-27.211 31.448-38.851-5.596-2.728-13.872-2.779-21.275-3.699 1.189-1.216 1.189-3.41 0-4.624-28.166 1.881-12.611 38.075-21.271 54.571-1.145 2.992 2.992.704 1.848 3.699-7.033 26.962-12.796 72.912-16.646 117.465-4.1.185-5.16 4.824-12.025 6.478 4.002 11.948-16.879 10.263-12.024 23.123-1.731 1.655-1.106 5.675-3.699 6.473-1.088.143-2.627-.158-2.777.926 6.628 2.88-9.789 12.455-12.021 14.799 2.607 2.694 1.151-2.767 4.621-1.852-1.396 2.92-4.689 3.942-6.473 6.478 1.438.239.639 2.027 0 2.773 2.743.232 4.561-3.659 5.551 0-2.3 2.186-5.446.006-8.325 0-14.919 8.122-31.561 2.123-46.247-2.773-18.954-6.32-38.024-15.718-49.948-24.977 6.419.058 9.324 3.625 14.801 4.626-4.629-8.63-15.61-10.907-23.123-16.649-7.287 4.278-8.437-1.227-15.724-2.774 2.521 5.187 8.707 6.71 10.173 12.951 16.734 6.386 31.833 14.414 44.398 24.972-11.349 3.251-17.544-6.894-25.899-2.774-1.143-2.992 2.992-.709 1.849-3.698-2.847-.69-1.778 2.535-4.625 1.847-1.54-2.044-2.503-2.315-2.774-3.7-1.948 2.48-9.228-2.405-7.399-3.699 2.023.207 4.979 4.173 6.473 1.852-10.846-5.187-18.607-13.458-28.672-19.424 1.761-1.219-2.133-3.037 0-5.551-4.353-.271-4.216-5.032-9.25-4.626-2.841-8.269-11.789-8.479-17.573-12.946-3.143-2.428-4.608-7.045-7.4-10.177-7.66-8.592-16.079-16.481-22.199-26.823.256-1.618-2.604-4.614 0-5.547 3.969 4.358 4.16 12.491 11.102 13.872-4.056 3.154 1.887 4.848 3.699 7.399.156-1.381-.331-3.413.924-3.699 1.678 6.338 7.067 8.965 12.024 12.023-.038 2.812-.539 6.09 2.775 5.552.253-2.714-3.707-3.437 0-4.626 4.564 13.319 20.732 19.962 31.447 24.05-1.363-6.149-4.925-6.368-8.323-11.099 19.322.226 28.379 12.473 49.02 16.646 6.758 12.385 25.694 11.083 37.923 9.251-.274-4.919 5.54-1.642 1.849-4.626 9.032-6.213 26.453-1.386 40.698-3.699 13.346-2.168 27.659-13.437 36.069-17.572.207.716.026 1.821.926 1.848-1.459-4.234 3.839-1.709 3.7-4.625-2.194-2.556 2.942-5.649 2.774-9.248-4.837 1.325-6.098 6.232-10.173 8.326-2.267-1.23 1.016-3.443-.927-3.704-6.541 1.502-15.084 12.353-23.123 6.478-10.376-.67-19.189 1.336-25.896 5.547-.765 2.616 1.302 2.398.926 4.626 2.209.564 6.71-1.159 7.398.926v3.699c-5.713 4.987-13.838-.711-21.275 3.7-2.577-3.372-5.017-2.259-10.173-1.852-.289-1.25-1.317-1.766-.925-3.7-4.476.775-6.542-.858-9.25-1.848-4.136 3.937-13.103-2.781-20.347-1.852 1.308-3.41-7.138-5.167-10.175-7.399-20.121-14.776-34.038-39.577-51.796-53.646.934.012 1.164 1.622 0 1.852-5.261-7.185-15.722-13.695-16.647-24.049-.518-5.766 1.4-8.747-2.775-12.024-17.302-1.017-18.64-23.387-16.648-36.074 1.843.934 2.112 3.439 3.7 4.626-2.646-10.06.628-12.544-7.398-15.725-3.16 5.476-4.935 12.333-12.026 13.876 2.305-5.095 3.123-11.678 5.55-16.649-5.688 1.253-7.815 10.471-13.874 8.325 1.695-3.854 6.929-4.17 7.399-9.251-2.85-.693-1.127 3.191-4.624 1.852.29-1.249 1.315-1.769.924-3.7-2.699-.823-3.192-1.181-4.623.923-.293-1.249-1.318-1.766-.926-3.7-4.173 2.627-4.425-1.709-6.474-3.699-.591 3.421 1.196 9.217-.926 11.103-3.271-4.174-6.046.688-9.249 1.848.961-3.967.527-3.571-.926-6.474 1.037-1.753 6.771 2.127 7.398-1.852-3.55-5.855-9.843-5.807-17.573-4.625-22.396 3.432-40.712 16.849-51.796 34.226-3.522 6.703-4.502 15.279-6.473 23.124-3.152 12.536-12.492 20.567-15.724 32.369 1.924.542 2.988 1.946 4.623 2.774 11.155-19.676 18.133-43.53 35.147-57.345-2.469 3.556 2.368-.162 4.626 0-7.787 9.479-18.309 21.15-20.35 33.299 3.54-5.295 6.53-13.183 11.101-15.724-6.823 10.749-8.447 26.698-16.65 36.069-2.908-6.495 5.629-13.115 2.776-19.423-6.91 11.005-4.029 27.801-7.399 37.926 6.31.424 1.906 7.703.924 11.098 2.899-1.023 2.608-.599 3.699 1.849-2.213 3.338-3.242 7.858-10.174 6.477-.207-1.75 1.042-2.044.926-3.699-3.915-.832-.941 5.224-4.625 4.621-1.47-2.367 1.5-7.173-.924-10.173-4.784 1.72-3.193.81-5.549 3.7 3.596 2.477-1.919 6.304.924 11.098 4.188.689-1.413-2.536 2.775-1.847.822 3.917-2.427 6.549 0 9.246 6.088-.384 6.499-6.446 12.024-7.399-2.893-4.478 6.18-7.12 6.474-14.798 1.75-.207 2.041 1.043 3.699.926 1.811-4.986 9.301-9.184 9.251-12.95-.012.934-1.622 1.163-1.852 0 2.548-11.328 6.571-21.178 15.724-25.896.501-8.751 7.208-11.291 10.175-17.576 3.779 2.875 5.249-2.954 8.324-3.699.07-1.611-.207-2.876-.926-3.7 8.169-7.144 16.431-13.71 28.673-12.946.753 3.831-2.692 3.47-3.7 5.547-20.014 6.286-28.2 19.104-34.221 39.773-4.323 3.384-7.596 7.821-12.026 11.099-3.68 5.266-4.567 21.324-11.098 26.823-.093-1.038 1.345-1.441 0-1.848-1.306 2.652-3.793 14.004.926 17.571-.632 5.353-6 14.934 2.774 15.725.553-1.648-2.712-3.843 0-4.625 1.639.827 1.178 3.756 4.625 2.773-.603-6.078-6.203-1.528-5.549-8.321 2.922 2.811 1.499-3.937 3.7-4.625.986.861.288 3.409 2.774 2.773 4.085-3.022-.139-5.229 4.625-9.251.143-2.3-1.453-2.86-1.85-4.621 5.958-3.05-.35-8.126 4.624-12.951 3.694 7.584-2.655 14.08-2.774 23.123 3.837.914 1.005 3.711 5.55 4.626 2.145-1.354-1.807-2.932 1.85-2.773 2.144.255 2.126 2.468.926 3.699 8.822-1.693 7.96 2.251 15.722.922-1.727-4.438-8.8-3.53-12.022-6.474-.663-2.51 4.36.662 3.699-1.852-3.587-.978-.987-7.207 1.851-7.399.813-2.969-3.048-1.265-2.776-3.699 3.394-4.742 1.799-11.788 3.7-18.498.731-2.569 4.303-3.428 6.476-6.473 2.548-3.571 3.965-12.767 8.325-8.325-1.329-3.542-.348-6.939 1.851-7.399 2.548 7.188-3.542 13.715-2.776 22.197-3.483-.398-4.211 1.954-5.549 3.7 2.876.206 1.564 4.603 1.85 7.399 1.818.278 1.834-1.25 2.776-1.849 2.75 6.939.14 23.985-5.552 24.972 1.647 3.421 1.853 3.47 3.702 5.552 3.222-3.919 2.519-9.951 4.625-12.951 2.502-.268 5.055 1.174 6.474 3.699-2.939-2.352-6.1 3.93-3.7 6.478 1.476-3.406-.21 3.741 2.774 1.848-.049-1.731.713-1.957 1.851-.926.692-2.85-3.188-1.125-1.851-4.621 1.92 1.907 4.481-3.12 6.476.922-4.228 1.758-2.382 5.209.924 6.478-1.625.53-5.432-1.118-5.549.921 2.322 1.378 5.096 2.308 6.475 4.626.808 12.333 2.526 26.066 4.626 43.473 6.533-.354 7.82 9.421 12.022 8.326-.322-1.043-4.562-2.658-1.85-3.701 3.53 2.018 2.744 8.356 7.398 9.249-.468-2.923-2.72-4.062-2.773-7.399 1.147-1.556 2.689-4.724 4.625-2.774-4.006 3.895 3.489 4.331 1.851 11.099 4.134.794 4.386.098 4.623 2.771.103-1.771 3.097 1.09 5.549 0 3.506-5.877 4.544-8.85 12.024-11.096 1.855 1.884.24 2.464-.924 3.698 1.626-.531 5.433 1.117 5.549-.925-3.534.684-1.056-3.407 0-3.7 3.728 1.825 4 7.1 9.249 7.401 1.127-2.882 2.153-5.862 1.85-10.176-3.995-4.553-7.23-9.958-11.099-16.649 10.288 15.882 25.235 11.857 46.247 16.649.277-1.818-1.249-1.833-1.85-2.773 2.865-1.22 5.129 2.741 6.473 0-1.722-.128-3.091-.61-3.7-1.852 9.337-.396 14.554 3.33 22.199 4.625.209-3.602-6.317-.467-5.549-4.625 2.854 2.386 8.77 1.712 11.099 4.625-1.639.211-4.633-.933-3.7 1.852 15.486 3.772 24.913-1.591 39.773-.925 4.521 6.27 15.841 5.737 24.044 8.324-18.226 4.896-34.406 18.509-49.944 19.423-7.118.42-12.393-.628-13.874 5.548 8.873 5.333 21.128-6.183 28.67-1.847.146-1.088-.158-2.628.927-2.774 5.962 1.275-1.705 5.845 2.776 7.399 3.636-3.534 20.508-4.765 19.421-12.952 1.37 1.074 2.333 1.074 3.703 0 .207-1.749-1.043-2.038-.926-3.698 3.443.979 2.984-1.945 4.625-2.774 3.207-.74 3.553 1.378 6.474.923 1.806-7.568 10.703-7.229 15.725-11.099 2.751-2.12 4.264-5.821 6.474-8.324 5.942-6.72 13.763-14.348 13.875-25.898 4.427-6.98 12.221-10.594 22.198-12.023-1.89 7.361-2.812 15.687-6.478 21.274 17.32-16.017 33.921-34.372 40.699-58.271-4.644-.696 1.58 3.756-2.773 2.774.207-3.147 1.956-8.363 3.699-4.626-.015-2.45.512-5.445-1.853-5.548-1.008 2.875-3.454 4.31-1.847 7.399-3.986-1.208-2.929 2.623-4.626 3.699-.271-1.927-2.503 1.374-2.773-1.852 9.966-13.737 12.688-32.024 18.498-48.094 4.109 33.714-7.693 64.157-15.725 89.719-.278 1.817 1.25 1.833 1.848 2.774-19.646 18.584-33.854 42.606-57.345 57.345-3.466 7.319-10.564 11.017-22.197 10.172-1.092 2.608-2.707 4.693-4.626 6.478 23.203-3.194 37.888-17.075 49.946-28.673.207.718.026 1.824.926 1.85v-4.625c13.636-11.645 22.656-27.906 35.147-40.699 9.62-22.558 18.412-49.441 24.972-72.143 1.321.361 1.562 1.11 2.777 0 3.012-26.959 12.474-60.24 12.947-89.72-2.146.629-1.348 4.204-3.699 4.626-.904-7.43-4.707-16.861-3.7-23.124 3.719 4.917 2.931 14.332 7.399 18.498 1.042-8.238-.723-15.828-1.848-21.271-5.276-1.268-5.589 2.425-10.178 1.85 4.874 20.728.042 45.133-.922 63.82-.334 6.447 2.322 13.475-2.777 17.572-.504-1.343 1.083-4.78-.922-4.626.14 2.3-.479 3.839-1.852 4.626-1.788-8.077-2.134-17.595-1.848-27.749-2.492-2.879-4.329 3.787-4.626 3.7.294.087-.55-3.678-.926-2.774-1.205 2.906 1.728 3.071-.926 6.474-1.836-24.343 10.078-34.933 11.099-56.419-2.901.028-4.618 2.95-5.547 4.625-5.255 9.465-7.844 21.667-12.025 32.374 3.997.071 1.683 1.182 3.7 3.7-2.3.101-2.864 1.73-4.626 0-3.339 9.146-7.997 21.385-11.099 27.744-.184 5.071-2.401 16.09-8.325 18.502.832 6.631-1.885 16.36-6.474 17.572.158-9.037 1.254-11.578 2.775-19.429zM26.864 465.243c3.277-1.829 1.827-1.209 5.548 0 .378-2.232-1.688-2.014-.923-4.626-3.574.181-6.815.03-9.25-.926-.376 1.558-4.356 4.155-1.85 5.552.45-1.648.989.398 1.85.922-.156-2.315 1.422-2.895 2.775-3.7.837 3.609 3.404-3.063 3.7 0-1.302.241-1.055 2.029-1.85 2.778zm10.174 13.872c1.929 3.579-3.871 4-.926 5.548.608-2.454 9.945-.558 9.25-6.474-5.015-.233-4.917 4.246-8.324.926zm51.796-162.788c1.344-.506 4.78 1.081 4.625-.924-2.042-.734-1.203-4.349-3.7-4.625.669 2.826-.946 3.369-.925 5.549zm58.27 17.575c3.004.535 4.302-.632 6.474-.926-.001.512.751 1.05.926 0-.721-.203-1.075-.775-.926-1.852.514.003 1.05-.749 0-.926-3.991 2.797-3.182.798-6.474 3.704zM460.658 356.1c-5.337-7.437-12.758-16.217-19.425-17.575-3.131 7.131 2.823 17.605 5.548 28.674 1.758 7.144 3.37 15.126 4.625 22.197 7.242 40.681 2.477 88.135 9.252 125.794-.569-1.285-3.56-.14-3.7-1.853 3.829.979 2.516-1.944.921-2.773-.566 4.783-1.83-2.157-3.698-1.852-2.172 5.607-5.243 11.768-.923 16.65 21.084-1.442 8.349-19.74 12.026-34.223-5.433 2.901-3.489-6.913-4.626-11.099.644-2.439 4.211-1.957 4.626-4.626-2.907-.466-3.785 2.18-4.626-.925 1.38-1.084 3.782-1.148 4.626-2.774-1.198-3.342-3.829.501-4.626-2.773 1.438-2.074 4.61-1.513.922-4.626 5.529-.526 5.378-8.354 1.853-10.177h2.772c-.658-20.602-2.408-38.938-7.399-55.493-1.572-5.227-7.131-10.553-3.699-17.575 4.312 12.596 9.805 25.26 13.876 38.847 3.447 1.849 6.658-1.78 8.322 1.852-3.812 8.073 13.756 18.89 3.699 31.449-.926-1.231-.873-3.444-2.774-3.7-1.411 10.809 1.576 17.576 2.774 24.972-1.23.925-2.789 1.523-3.699 2.772 7.944.754-.008 8.853 4.625 13.877.604-3.229-.666-7.103 3.699-8.325-.982-16.793 12.83-32.833 1.852-49.021 3.258-.113.252-1.347 1.848-3.698-8.599-13.91-8.709-37.128-17.571-46.247 1.987.029-4.965-19.199-11.1-27.749zm-3.7-5.551c2.439.282 2.387-1.931 2.773-3.7-.985-.662-4.26-3.609-5.551-.926 3.004-.297 4.926 2.491 2.778 4.626zm-280.257 26.822c-3.605-4.384-7.667-4.261-10.172-8.325-.504 5.148.19 3.377-2.775 4.626 3.285 3.5 6.05 7.516 9.248 11.098.006-3.887-3.877-3.884-1.85-7.398-2.963.81-2.892-1.422-3.699-2.773 3.129.299 6.165 5.498 9.248 2.772zm27.75 22.201c12.156 2.936 18.241 25.747 32.372 17.572-2.946-.79-3.51.806-4.624 1.852-1.056-3.229.339-5.119-2.776-8.325 2.523-.086 1.863 1.54 3.7 0-18.548-11.667-37.06-28.302-55.496-36.999 6.635 7.899 18.89 14.968 23.124 22.201 3.549-1.882 5.578.15 3.7 3.699zm-15.724 2.775c-4.044-5.206-6.767-11.731-12.949-14.798 2.171 6.469 9.734 12.449 12.949 14.798zm20.349 10.172c1.621-.843 4.614-.315 5.549-1.848-3.141-1.178-3.504-5.13-7.399-5.551.919 4.148 1.188 4.128 1.85 7.399zm18.497 13.877c10.197 5.498 23.567 13.714 32.372 19.424 16.073.451 28.602 5.98 45.323 4.621 1.196-2.194 4.651-2.13 4.625-5.547-14.278-1.325-22.966 1.941-31.447-1.852-3.278-1.465-4.928-6.127-8.326-7.399-3.774-1.411-9.27-.817-13.874 0 1.182-3.646-2.531-2.401-3.7-3.7-1.381 4.426 6.232 7.136 11.1 8.325-22.633-.489-28.802-17.448-44.397-24.975-3.363 7.674 4.599 9.088 8.324 11.103zm-3.699 4.621c.104-1.746 3.058-.64 2.776-2.773-2.995-.527-4.654.282-5.55 1.853-6.168-3.393-11.802-7.316-18.5-10.178 6.242 14.396 16.765 24.118 33.299 25.901-.207-1.751 1.042-2.044.924-3.7-5.008 1.106-8.207-8.39-9.25-11.103-.838 1.603-3.404 2.556-3.699 0zm19.424-2.774c1.206-4.163-2.3-5.867-6.475-8.325-1.502 3.82 1.823 7.9 6.475 8.325zm-222.91 12.95c.706-2.197 2.247 4.464 4.625.926-3.688-4.12 1.272-10.29 1.851-15.724-4.822 1.668-6.242 11.619-6.476 14.798zm455.995-4.625c-.311-2.156-.949-3.985-2.779-4.626-.181 2.651-.112 5.048 2.779 4.626zm-54.572 30.523c-8.832 23.123-20.022 45.972-32.375 65.671-2.434 3.883-5.31 8.086-5.547 12.948-3.692-.355-6.751 7.25-11.103 9.248-1.501-.275-2.491 1.25-.922 1.852 9.736-.64 18.626-13.688 21.271-21.273.662 1.5-4.361 1.5-3.7 0 4.932.98.23-1.949 2.774-2.774 1.822-.279 1.837 1.248 2.777 1.85 1.717-1.986 2.474-4.929 2.774-8.324 8.354-13.187 17.34-30.495 23.124-49.024 3.985-12.766 7.917-27.537 6.473-40.694-1.249 9.541-3.642 19.383-5.546 30.52zm-101.744-20.35c2.92-2.627 8.769-2.329 9.25-7.399-3.97.99-9.849 4.923-9.25 7.399zM33.338 462.465h4.624c.06-4.564 2.717-6.533 2.776-11.098-1.583-.886-1.863-3.067-3.7-3.7-2.913 4.456-4.445 11.679-3.7 14.798zm51.796-9.246c2.454.723 5.623-4.965 1.85-4.626.69 2.849-3.19 1.125-1.85 4.626zm160.013 3.698c.243-3.018-2.876-2.672-3.699-4.625-2.177 2.289 1.82 3.617 3.699 4.625zm11.099 6.474c2.02.49 5.982 2.239 6.476-.926-1.456-1.468-4.953-.259-6.476.926zm18.5 10.172c2.054-.715 5.017-.534 5.547-2.773-6.544-2.646-11.265-1.562-17.571-4.625 1.388 5.084 11.534 1.415 12.024 7.398zm-207.185-1.846c1.457 1.471 4.953.259 6.475-.927-2.759.249-5.632-2.589-6.475.927zm-48.097 2.773c3.272.737 3.387 4.628 6.475 5.551-.596-4.147.007-4.133-1.85-7.398-1.648.51-3.842.473-4.625 1.847zm66.594 6.473c5.697-.847 2.966 2.556 1.85 4.626 3.824.391 3.722-7.941 2.776-9.247-.695 4.354-3.347 1.415-5.55 0-.377 2.227 1.69 2.009.924 4.621zm13.874-1.848c4.433.256-1.072 4.708 2.776 5.548 1.541-1.231.309-5.239 1.849-6.474-1.933-.497-3.474-1.622-4.625.926zm-19.423 6.474c.361-1.317 1.11-1.559 0-2.774 2.615.765 2.397-1.303 4.625-.926.258-2.107-.221-3.478-1.85-3.699.954 3.598-5.801 3.047-2.775 7.399zm191.464-3.7c2.382 1.317 7.35.049 8.32 2.774 1.235-1.849 6.048-.12 4.626-4.622-4.332 2.153-9.883-3.82-12.946 1.848zm-202.562 2.774c2.476.542 4.71-3.802 2.775-4.622-1.033 1.435-3.007 1.928-2.775 4.622zm27.747 1.852v-5.552c-4.146.422-2.852 4.377 0 5.552zm-51.797 7.399c3.668-.339 2.169-5.849 5.551-6.474h-3.7c-.612 4.076.153 3.79-1.851 6.474zm375.525 17.576c-4.082.484-9.515 11.812-10.174 15.72 2.521.086 1.859-1.54 3.699 0 1.024-2.364 1.728-5.055 3.7-6.473 1.223.011.841 1.621 1.848 1.852 2.499-4.901 7.692-7.111 7.399-14.803-.57-1.28-3.56-.136-3.699-1.849 1.994-1.132 4.281-6.755 3.699-7.399-3.334 3.139-6.526 6.425-6.472 12.952zm36.993-2.778c-.247-1.98.721-9.868-.921-7.399.248 1.979-.718 9.868.921 7.399zm-399.567-2.774c3.352.885.94-3.993 2.773-4.625-2.888-.422-2.956 1.976-2.773 4.625zm15.724 5.552c3.049-.036 3.536-2.632 3.7-5.553-1.183-.048-1.282-1.185-2.776-.926.454 2.922-1.666 3.268-.924 6.479zm221.981-3.704c-4.554-2.164-13.028.52-19.423 0-3.865-.312-9.947-4.855-9.247-.923 4.708 1.593 21.336 7.243 28.67.923zm6.477 9.251c-.571 2.973 3.328 1.268.922 3.7 2.214-.562 6.711 1.163 7.403-.928-1.016-.662.707-6.375.923-6.473.564-.053 1.095-.14.926-.926-4.897.042-5.98 3.89-10.174 4.627zm-226.609 4.625c1.612.067 2.876-.208 3.7-.925-.32-2.455-2.427-3.121-4.625-3.7-.295 2.145.148 3.553.925 4.625zm-33.298 4.625c3.721.636 5.281-.888 8.325-.925-1.089-4.384-8.057-2.921-8.325.925zm24.05 10.174c.088 4.693 4.241 4.919.923 8.324 1.631 3.301 4.603 5.266 8.324 6.473 2.637-6.302 4.645-13.234 8.323-18.496-.376-2.707-3.163-3-4.624-4.625-1.145 2.863-4.183 3.835-7.398 4.625-.365 1.591 1.372 2.37 0 2.774-1.234-2.633-4.112.712-5.548.925zm69.369 10.171c-1.148-1.083-2.477-6.672-4.625-3.698 1.424.809 3.338 5.815 4.625 3.698zm-43.472 18.504c.549 3.458 1.112 6.9 4.625 7.399.163-4.679 2.129-2.191 4.625-3.701v-4.625c3.583.496 3.809-2.356 6.475-2.773.692-2.854-3.189-1.129-1.85-4.625 1.093.132 2.097 1.645 2.776 0-4.452-.667 1.484-4.693 0-8.327-4.018 1.511-4.123-4.098-5.552 0 1.892 3.885-8.534 11.095-11.099 16.652zm10.174 0c.002 5.04 5.716 2.117 5.549-.927-2.826-.669-3.369.944-5.549.927zm8.323-14.799c2.318-1.228 2.248 4.305 3.702.921-.564-.051-1.095-.135-.926-.921 1.089-.146 2.625.156 2.776-.926-1.437-1.524-4.318-.394-5.552.926zm91.569 3.699c1.274.038 2.031-.436 2.776-.927.207.718.024 1.826.923 1.849 1.296-4.113-4.242-5.009-3.699-.922zm5.55-.927c2.787 4.137 18.906 7.794 21.273.927-4.698-3.532-14.95-1.393-21.273-.927zm-30.523 45.322c-2.944 1.938-3.605 4.735-6.475 4.625-1.48 3.642 3.995.32 3.7 2.775-.566 1.281-3.561.139-3.7 1.852 4.499.343 2.159 2.159 4.626 3.698-1.088.144-2.625-.16-2.776.923.633 1.837 5.512-.576 4.625 2.778 6.689-2.235 9.144 2.927 14.798.921.004.931-.749 1.104-.923 1.853 4.964-.672 6.257-1.728 9.249 1.852-1.927.3-7.562 1.587-4.626 3.699 4.426.26 8.19 3.465 16.65 2.773-.35-2.815 3.362-1.57 3.699-3.698 6.179 4.552 22.77-2.949 27.75 1.847-1.238-.102-5.1-1.731-2.775 0 8.526-.522 19.85.2 26.824-5.548-.824-.542-5.276-1.946-2.776-2.777 2.78 1.299 6.717 1.352 7.398-1.848-1.092-.447-2.097-.985-2.774-1.852 15.175-.881 19.722-.674 33.296 0v4.625c8.11.829 9.639-1.588 18.503-.926.653-2.213.433-3.403.921-7.399 3.165-1.185 5.939.644 8.325-2.772-1.343-.506-4.779 1.079-4.625-.928.173-3.898 1.731-4.677.926-7.398-6.379-1.229-11.317 1.593-13.872-2.773-11.167 7.549-36.436 1.886-47.173 4.626.934.011 1.163 1.621 0 1.847-2.172-.292-3.47-1.46-6.476-.921-.466 2.306-1.747 3.797-2.773 5.548-2.166-3.282-1.182 4.278-5.55 1.852 2.856-4.006-4.815-4.054-7.399-5.552h3.7c-2.133-5.408-4.565-4.777-11.101-5.548-.311 4.009 2.515 4.881 4.625 6.473-1.628.222-2.108 1.593-1.85 3.7h1.85c.052.566.137 1.095.924.927-1.173-3.705 6.25-3.534 7.4-1.852v6.473c-7.671 5.68-15.342-1.021-24.973 2.778-.292-1.254-1.317-1.771-.926-3.701 4.645-1.43 9.613 3.045 11.1-.925-5.198-2.01-9.567-3.507-14.799-1.853 2.855 3.62-1.128 10.944 7.399 10.177 1.18-2.313-.47-2.897.926-3.698 1.626.53 5.435-1.119 5.549.921-.785 3.305-2.279.114-5.549.926-1.306 4.079 5.534.016 5.549 2.778-7.544-.333-20.329 3.552-25.899-.927 4.712.395 8.547-.086 10.175-2.777-4.867-1.336-8.615-.632-12.025-.921.487-2.364 1.227-3.236-.923-4.626-1.491 2.517-1.435 6.582-5.551 6.473.893-5.002-2.056-11.692-3.7-14.798 5.012-4.039 7.996-5.029 15.725-2.773.158 1.384-.329 3.413.926 3.698v-5.551c-1.383-1.079-3.784-1.147-4.625-2.773 5.258-2.909 6.622 4.135 9.249 0-2.107.26-3.475-.223-3.7-1.852.292-1.248 1.318-1.765.926-3.699 6.367-1.641 5.086-2.756 9.249-7.399 3.71.84 4.488.647 6.476-1.847 4.725.835-1.031-2.595-2.776-3.701-2.662-1.688-6.606-3.364-8.324-3.698-.625-2.149-3.073-2.477-3.7-4.626-5.913-.121-8.932-4.271-13.873-2.773 1.068-3.898-3.639-6.774-5.552-4.626.823.271 4.049 2.503 1.852 2.774-3.105-3.043-4.802 3.167-7.401 3.698 1.139-3.073-6.252-2.262-6.473-.926 4.344 1.295-4.222 1.366-4.626 1.853-.277 1.817 1.249 1.832 1.85 2.774-2.377.089-1.323 3.611-3.7 3.698-.447-1.091-.986-2.097-1.849-2.773-1.663 1.728-3.044 3.737-4.626 5.552 2.28.119 4.458.138 5.549-.927-.803 3.578 2.26 3.289 2.776 5.548 1.747.207 2.041-1.043 3.7-.922-1.186 4.723 2.694.975 2.775 2.772.224 9.343-8.83 7.099-12.025 11.1 1.623.256 4.615-2.604 5.55 0-.734 2.848-4.347.471-4.626 1.852 1.093.444 2.099.982 2.775 1.845zm27.749 10.173c.514-2.655-5.947-6.16-6.476-1.848 1.235 1.541 5.241.308 6.476 1.848zm-96.192-39.77c.167 3.546-.759.336-2.776.923-1.933 4.369-1.062 7.771-.926 12.951 2.451-1.25 4.335-3.064 6.477-4.625-1.005 5.745 2.57 4.854.926 9.249 3.159 3.673 7.133-2.803 9.248 0-.172 1.371-2.235.848-3.7.925 2.825 6.791 10.251 5.907 13.875 10.174-.532-6.135 14.153-7.471 6.474-12.025 6.242 3.031 8.012-7.561 14.798-3.697 1.44-3.29-3.141-.559-2.773-2.773 1.343.502 4.779-1.081 4.625.925-2.166.3-.899 4.033-2.776 4.621-.014-1.212-2.564-1.177-2.775 0 1.039.196 1.442 1.026 1.85 1.852-1.23 2.27-2.79-1.667-3.7.925 4.071-.149.428 2.778-.924 2.774.734 3.585 2.033 6.602 4.624 8.326.591-3.236.825-3.185 2.776 0 .305-2.165 1.112-3.825 1.85-5.553-1.088-.142-2.625.16-2.776-.925h2.776c-3.314-3.326 3.786-5.511-1.85-9.248 4.435 1.661 2.98-2.57 4.626-3.697 1.382.157 3.412-.333 3.699.925-4.049.406 1.747 1.949-.926 4.621 2.708-.827 2.841-.827 5.55 0-1.116-5.121 4.543-3.471 5.548-6.473-2.992-.527-4.651.281-5.548 1.852 1.379-4.133.544-5.98-1.85-8.324-4.01 3.123-4.833-1.416-6.473 2.773-2.035-2.503-3.074-.252-5.552-1.849-.156 1.382.331 3.409-.924 3.7-2.531-3.783-9.905 2.825-10.174 7.397-4.5-1.418-3.481 2.685-6.474 2.774-1.316-4.994-8.333 1.66-4.625-4.624-5.384.999-10.462 1.271-12.949-3.7 1.75.207 2.041-1.043 3.7-.925-.638 2.487 1.913 1.786 2.775 2.776.588-4.94-8.111-4.365-5.55-8.324h-4.624c-1.222 2.313 3.656 2.893.925 3.698-2.528-2.098-1.893-7.36-6.477-7.399zm23.123 11.101c-2.413-1.699 4.486.258 5.55.925-1.642-3.089-1.831-2.453.923-4.626-2.813-1.328-5.532-.17-8.326.927-.791 1.884 1.457 5.096 1.853 2.774zm114.691 13.87c.423 1.236 3.998-1.105 4.625 1.852.203-.722.773-1.076 1.85-.925-.506-1.344 1.08-4.78-.926-4.626-.717 2.368-5.962.207-5.549 3.699zm-103.592 4.626c.792 2.95-1.457 2.86-1.85 4.625 2.228-.378 2.01 1.691 4.624.927.858-6.102-3.568-6.913-5.55-10.178-3.109-.021-4.893 1.276-6.473 2.778 2.722 3.775 4.519-3.286 5.549-.927-.395 1.763-2.644 1.671-1.849 4.627 3.287 1.438.557-3.143 2.773-2.778 1.09.147 2.625-.157 2.776.926zm107.29 1.852c-.339 2.805 3.013 1.919 4.626 2.772-.158-1.384.329-3.412-.926-3.698.28 3.779-1.279-.157-3.7.926zm87.868 2.773c1.75.104.644 3.056 2.777 2.775.482-1.37 1.366-2.331 1.849-3.7-2.364-.486-3.237-1.229-4.626.925zm-29.596 16.651v2.774c4.452-4.239 3.268 1.81 7.399-.927-3.305-1.302-3.086-3.372-7.399-1.847zm-8.325.923c-.067 4.142 3.429-.562 6.474.925.281-3.933-4.93-.942-6.474-.925zm-29.597 2.776c.787-2.714 2.326 1.2 4.626 0 .124-3.549-8.224-2.787-4.626 0z"/><path fill-rule="evenodd" clip-rule="evenodd" d="M245.147 249.732c-.775-1.603-3.633 2.458-5.549 2.774-1.647-.677-.134-1.681 0-2.774-.785-2.183-2.279 2.548-5.549.924-.993 5.146.213 7.405-1.85 12.024-2.954-.438-2.041-4.742-5.549-4.625 1.016 2.684 2.954 4.445 4.623 6.476-2.427.384-6.093-3.928-6.473-5.55-1.513-6.429 5.913-7.171 7.399-12.948 4.907-.821 4.987-.717 7.399-3.702-2.625-.297-.915-1.191-.926-5.549 4.131 1.627 2.245 6.844 1.851 11.101 2.333.406 3.823-7.539 4.625-2.776 1.425-1.966 3.338-3.444 4.625-5.549 2.271.826 2.507 6.47.924 8.325 1.974.431 1.761-1.323 1.85-2.776h4.626c-1.274 4.275-4.067 7.034-6.476 10.174-.536-2.592-9.307-1.73-5.55-5.549z"/><path fill-rule="evenodd" clip-rule="evenodd" d="M216.474 254.355c-2.131 2.908 5.038 8.984 5.55 2.776-.151 7.55 5.183 9.616 7.399 14.799-2.601.172-3.94 1.608-3.699 4.625-8.553-5.63-8.831-19.535-14.798-27.748 1.638-1.443 1.624-4.541 4.624-4.624v4.624c1.889-1.195 1.682-4.484 5.55-3.7-.789 1.883.806 5.747 1.851 2.776 2.996 2.762-6.118 6.142-3.701 8.322-.927 2.856-1.526-2.006-2.776-1.85zM191.502 431.942c.244 4.46-5.323 4.133-8.325 2.773 2.685 1.325 4.416 3.603 4.625 7.403 9.36 8.468 20.423 12.224 27.747 24.046 4.501 1.667 10.777 1.558 11.101 7.398-3.457.99-2.637-2.295-5.55-1.848-1.144 2.992 2.992.708 1.851 3.699-4.317 1.367-11.057-5.897-11.101 0-2.591-1.724-3.891-4.742-4.624-8.324-14.708-6.259-26.326-15.604-34.225-28.675-2.049-.508-1.314 1.769-2.773 1.852-3.042.674-1.417-1.836 0-1.852-4.374-8.882-12.902-13.613-16.65-23.123 1.693 2.13 12.008-.885 9.251 2.777 11.101 1.848 13.842 12.055 23.124 15.724 3.454.988 2.636-2.297 5.549-1.85zM124.906 365.347c.581-1.886 4.673-.26 3.699-3.7 2.595.927.095 4.28-.924 4.626-.169.786.361.873.924.926-.835 2.506-2.068-2.115-3.699-1.852zM312.668 368.124c-.121-2.281-.14-4.456.926-5.551 1.072-.15 1.645.202 1.848.925 1.787-3.356 1.772.502 4.626.927-.403 4.211-5.929.644-2.774 5.547-.223 1.619-2.73-2.1-4.626-1.848zM211.85 371.823c2.239-1.271 6.988 2.846 10.175 3.7-2.756 1.788-6.901-2.935-10.175-3.7zM126.755 414.37c8.194 8.762 17.544 16.372 26.823 24.046-9.996-3.263-20.756-13.77-26.823-24.046zM159.13 437.494c2.393 3.91 7.434 4.192 11.098 4.625-4.894 4.242-9.23.975-11.098-4.625zM181.327 496.687c3.562.141 5.322 2.078 6.475 4.626-1.097-2.601-6.908-.49-6.475-4.626zM154.504 513.337c-2.311-2.821 5.649 2.204 6.475-.926 2.924 2.988-4.219 3.753-3.7 7.399-3.222.447-3.231-2.318-4.626-3.699.402-1.024 6.576-2.306 1.851-2.774zM271.973 552.185c-2.263.823-4.013 2.157-7.4 1.852 2.884-2.051 6.605-3.259 11.1-3.699-2.119.963-2.57 3.593-4.626 4.621-3.151-.987 2.573-.287.926-2.774zM304.342 610.456c1.882-2.412 5.507 1.216 4.626 4.626-3.297.215-.948-5.221-4.626-4.626zM239.598 47.172c2.217 3.043 2.729-3.366 6.475-1.852-1.036 2.915-.084 2.095 0 5.551 5.13-.378 5.618-.905 8.323 1.85-.01 1.836-2.523 1.176-1.85 3.699-10.169-1.854-18.055-5.993-19.423-16.65-.608-1.24-1.976-1.721-3.7-1.85 1.779-2.847 4.424-4.824 6.476-7.398 3.375.63 1.676 6.363 0 7.398 1.549.229 4.864 2.751 10.174 1.85-.611 2.781-3.194 3.589-6.475 3.702.228 1.003 1.838.627 1.85 1.848.34 1.576-.72 1.747-1.85 1.852zM279.372 44.396c-2.391-2.328-4.118 3.852-5.552 5.55 1.728 2.833 6.575 4.932 9.25 1.85 1.863 2.491 3.128 1.265 3.7 3.7a86.35 86.35 0 0 0 2.773-2.774c2.18-.021 2.725 1.591 5.552.924-.953 8.125-10.609 2.681-16.649 4.625.673-2.522-1.838-1.862-1.853-3.7-2.308.641 1.717 2.468.926 4.624-8.911-2.116-8.961-12.889-11.099-19.424 3.278 2.171 3.402-6.182 12.025-3.7 2.694 1.93 3.349 5.902 8.324 5.55-.685 3.389 2.273 5.14 0 7.402-2.099-1.333-10.025-1.638-7.397-4.627zM146.18 299.678c4.39.894 4.523 2.39 8.325 0-1.802 1.718-.634 3.737.926 4.624-1.793 3.758-6.526 4.575-9.25 7.401-1.333-.52-2.256-1.443-2.774-2.776-.168-2.017.756-2.943 2.774-2.775-2.912-2.061 1.319-2.222-1.85-5.55 1.074.151 1.645-.203 1.849-.924z"/></svg>