<?xml version="1.0" encoding="utf-8"?>
<!-- Generator: Adobe Illustrator 14.0.0, SVG Export Plug-In  -->
<!DOCTYPE svg PUBLIC "-//W3C//DTD SVG 1.1//EN" "http://www.w3.org/Graphics/SVG/1.1/DTD/svg11.dtd" [
	<!ENTITY ns_flows "http://ns.adobe.com/Flows/1.0/">
]>
<svg version="1.1"
	 xmlns="http://www.w3.org/2000/svg" xmlns:xlink="http://www.w3.org/1999/xlink" xmlns:a="http://ns.adobe.com/AdobeSVGViewerExtensions/3.0/"
	 x="0px" y="0px" width="640px" height="640px" viewBox="-124.661 -10.684 640 640"
	 enable-background="new -124.661 -10.684 640 640" xml:space="preserve">
<defs>
</defs>
<path fill-rule="evenodd" clip-rule="evenodd" d="M169.479,0.276C153.108,4.303,150.335-1.261,169.479,0.276L169.479,0.276z"/>
<path fill-rule="evenodd" clip-rule="evenodd" d="M122.183,19.983c-0.656,1.686-3.326,7.855-1.314,7.883
	c-3.746,4.403-2.644-6.104-3.941-5.255C117.792,20.848,119.736,20.164,122.183,19.983z"/>
<path fill-rule="evenodd" clip-rule="evenodd" d="M119.555,30.494c2.714,1.129,1.386,9.145,0,10.51
	C117.807,38.53,118.445,35.005,119.555,30.494z"/>
<path fill-rule="evenodd" clip-rule="evenodd" d="M261.445,117.204c1.386-3.274,7.531,3.159,3.941,5.255
	C261.758,123.021,264.153,117.561,261.445,117.204z"/>
<path fill-rule="evenodd" clip-rule="evenodd" d="M64.376,172.383c1.652,0.325,1.325,2.612,0,2.627
	c0.036,1.278,1.608,1.019,2.627,1.314c-1.929,3.097-2.773,2.444-1.313,6.569c-2.401-2.112-5.195-6.338-6.569,0
	c-2.849,0.221-0.595-4.66-1.313-6.569C61.164,176.178,62.405,173.917,64.376,172.383z"/>
<path fill-rule="evenodd" clip-rule="evenodd" d="M124.811,228.876c1.057,0.695,2.133,1.37,3.941,1.313
	c-3.305,3.182,2.647,2.921,5.255,3.941C131.843,236.632,123.171,234.532,124.811,228.876z"/>
<path fill-rule="evenodd" clip-rule="evenodd" d="M119.555,243.328c-2.627,0-5.255,0-7.883,0c0.036-1.278,1.608-1.019,2.628-1.314
	c-0.036-1.278-1.608-1.019-2.628-1.314C112.224,236.247,119.308,239.722,119.555,243.328z"/>
<path fill-rule="evenodd" clip-rule="evenodd" d="M206.265,17.356c0.251-1.491,1.318-0.729,1.314,0
	c4.134-1.712-3.236-9.696,0-10.511c-1.209-2.294-4.107-2.899-7.883-2.627c0.406,1.783,3.289,1.091,5.255,1.314
	c-1.02,1.17-1.412,2.966-1.313,5.255c-1.237-3.577-3.427-4.634-6.569-1.313c-2.849,0.221-0.595-4.66-1.313-6.569
	c-4.147,0.233-7.836,0.923-7.883,5.255c-5.973-7.249,13.416-9.479,21.021-5.255c-0.995,13.285,15.218,13.635,10.511,21.021
	c-2.197-5.938-4.652-3.449-7.883-7.883C209.765,17.698,208.941,19.991,206.265,17.356z"/>
<path fill-rule="evenodd" clip-rule="evenodd" d="M139.262,5.532c1.916,6.325-12.929,7.192-15.766,13.138
	C122.507,13.271,135.924,10.974,139.262,5.532z"/>
<path fill-rule="evenodd" clip-rule="evenodd" d="M212.834,6.845c2.264-2.599,5.522,4.914,9.196,5.255
	C218.264,16.204,216.242,7.454,212.834,6.845z"/>
<path fill-rule="evenodd" clip-rule="evenodd" d="M183.931,8.159c-16.556,0.047-29.3,2.202-43.355,9.197
	c4.254,2.542,1.641,3.433-1.314,5.255c1.128,2.783,8.748-0.918,11.824,1.314c-11.771,4.181-16.606,14.765-17.08,23.648
	c8.073-4.339,9.329-13.463,15.766-13.138c3.387,0.315-1.804,2.261,0,5.255c6.391-4.996,9.228-13.545,18.393-15.766
	c-4.481-3.107-10.592,3.377-13.138,6.569c0.939-12.172,31.853-19.276,39.414-10.51c-0.761,4.265,0.895,6.112,1.314,9.196
	c2.393-4.616,11.854,0.177,7.883,6.569c3.502-4.38,9.719-6.046,7.883-15.766c4.203,2.958,4.76,12.219,1.313,15.766
	c3.697-1.12,5.901-3.734,5.255-9.197c5.299,9.253,16.012,6.674,22.336,13.138c1.808-1.316-0.562-2.166,2.626-3.941
	c-2.688-5.784-10.614-10.5-19.706-10.511c1.195-2.281,4.604-3.396,6.569-1.313c-2.073-3.182-4.701-5.81-7.884-7.883
	c0.317-3.387,2.261,1.804,5.256,0c0.64,10.987,24.594,15.149,24.962,26.276c6.569,1.518,14.985,12.017,23.648,15.766
	c-1.344,2.926-6.041-1.718-10.511,0c3.099-5.087-6.188-7.336-7.882-11.824c-3.249,1.842-2.32,4.526-1.314,7.883
	c-3.961-4.25-4.476,1.2-7.883-1.314c-8.166,5.665-2.717,18.5,0,27.59c3.229-9.805,7.148-2.774,7.883-14.452
	c2.15,3.772-0.552,6.14,0,13.138c4.267-6.387,5.021-11.673,3.94-21.021c5.158,2.658,0.698,5.169,5.256,9.196
	c-3.086,8.278-6.732,15.418-3.941,26.276c-10.239-1.458-15.135-12.939-21.02-22.334c-9.092,3.271-22.146-8.314-28.904-3.941
	c-3.148,0.521,0.729-5.984-3.941-3.941c2.23,5.268-15.731-1.024-13.138,0c-3.267-4.652,2.781,0.803,3.941-3.941
	c-5.582-3.043-5.65-3.674-11.824-5.255c0.037-5.292-3.002-7.508-6.569-9.197c-4.354,0.418,5.124,4.067,0,5.255
	c0.736,2.967,2.049-1.594,3.941,1.313c-1.037,4.611-4.595,1.517-6.569,0c-0.191,3.718-1.647,6.074-2.628,11.824
	c-4.114-0.264-5.371-3.387-7.882-5.255c-3.935,0.865,1.256,2.808,0,5.255c-4.127,1.129-13.583-3.071-11.824,3.941
	c-2.611-2.189-1.671,0.118-5.255,0c2.948-4.688-0.922-0.158-5.255-1.314c0.212,1.54,2.396,1.109,3.941,1.314
	c-7.567,1.837-10.425,9.913-19.707,13.138c-4.13-1.833,1.806-6.484-1.314-7.883c-1.491,0.249-0.729,1.317,0,1.313
	c-0.297,1.673-3.921,1.722-3.941,0c-3.106,1.712-2.533,7.102-3.941,10.511c-5.434,0.236-5.285-3.088-3.941,2.627
	c-6.299,1.482-4.624-5.01-7.883-6.569c-2.779,3.936-5.652,15.216-13.138,18.393c2.3-4.652-0.875-3.231-1.314-7.883
	c-2.482,0.984-0.912,3.921-3.941,1.313c-0.387,4.868,0.744,11.255-5.255,10.511c4.306-12.398,3.386-18.993,2.627-32.845
	c6.249,3.8,4.591,9.702,7.883,14.452c-5.72-3.15,1.795,4.311,1.314,7.882c5.084-7.575,8.081-22.901,6.569-32.845
	c7.25,1.509,3.753,13.764,9.196,17.08c0.613,0.982-2.376-24.753-6.569-18.393c-1.818-7.801-1.577-19.141,3.941-22.334
	c1.378-0.172-8.8,17.451,3.941,17.079c-0.76,8.633,0.209,4.952-1.314,14.452c1.616-0.573,2.698-1.681,2.628-3.941
	c0.965,3.436,3.746,9.005,2.627,10.51c5.483-10.308-4.721-24.774,7.883-34.158c-7.133-21.673,22.966-24.262,30.217-31.531
	C162.477,5.12,176.083,7.227,183.931,8.159z M176.048,55.456c-3.259-0.192-6.376-0.244-6.569,2.628
	c2.484-0.295,2.898,1.48,5.255,1.313C174.677,57.588,175.353,56.513,176.048,55.456z M194.441,35.749
	c-3.485-7.734-6.736-7.631-10.51-14.452c-3.996,1.26-13.324-2.813-13.138,2.628c4.516,0.575,7.364-0.519,10.511-1.314
	c3.647,4.235,6.223,9.543,10.51,13.138C192.498,30.558,193.757,40.94,194.441,35.749z M130.065,29.18
	c6.483,1.11-0.142,8.635-1.313,10.511c4.221,0.808,1.8-4.729,5.255-1.314c-2.551-7.426,4.634-11.932,2.628-14.452
	C134.174,30.988,132.526,25.083,130.065,29.18z M128.752,35.749c1.004-3.356,1.935-6.041-1.314-7.883
	C125.631,29.552,125.151,35.722,128.752,35.749z M218.089,43.632c1.229,5.777,6.897,7.117,14.451,6.569
	c0.52-2.261-1.948-3.368,0-3.941c4.739-0.361,3.563,5.196,7.885,5.255c-0.956-9.993-12.005-9.893-18.395-14.452
	c-1.265,4.857,8.969,4.927,5.256,7.883C225.454,42.935,220.486,41.214,218.089,43.632z M252.249,50.201
	c1.524-6.83-8.044-9.407-10.511-7.883C246.127,44.06,250.377,45.939,252.249,50.201z M139.262,50.201
	c0.587-3.792,5.653-3.106,6.569-6.569c-8.135-0.253-7.638,8.126-13.138,10.51c-0.294-2.484,1.48-2.898,1.313-5.255
	c-5.845-1.465-5.283,3.476-9.196,3.941c1.089-2.474,4.85-6.828,0-7.883c-1.146,4.593-5.046,13.287-1.314,18.393
	c0.637-1.552,1.401-2.979,2.627-3.941c-1.231,3.327-0.959,7.449,2.628,9.197c0.029-3.095-2.263-3.868-1.314-7.883
	c1.752,0,3.503,0,5.255,0c-3.53,4.489,0.565,10.133,2.627,13.138c0.188-7.594-0.866-13.43-1.314-17.079
	c4.591-2.013,12.734-7.363,11.824-10.51C143.86,47.792,142.619,50.054,139.262,50.201z M193.127,54.142
	c0.964-3.416,6.25-2.51,6.569-6.569c-1.752,0-3.504,0-5.255,0C196.627,51.699,189.555,52.941,193.127,54.142z M199.697,56.77
	c6.105,2.374,10.31-8.912,7.883-6.569C204.859,52.297,200.797,53.054,199.697,56.77z"/>
<path fill-rule="evenodd" clip-rule="evenodd" d="M97.221,30.494c2.413,3.356-6.228,6.859-7.883,10.51
	c5.658,0.316,14.905-8.043,18.393-10.51c-2.379,9.017-21.102,13.048-24.962,24.962c-4.044-0.92-2.525-0.92-6.569,0
	c2.599-3.532,5.788-6.474,5.255-13.138C87.6,39.266,93.432,35.9,97.221,30.494z"/>
<path fill-rule="evenodd" clip-rule="evenodd" d="M77.514,59.397c2.83,2.073-4.847,4.701-5.255,7.883
	c10.656-3.876,16.05-9.407,27.589-14.452c-8.021,9.496-16.809,18.225-26.275,26.276c-4.998,1.932-0.258-5.874-5.255-3.941
	c-0.295-5.55,2.025-8.486,2.627-13.138C73.284,61.298,76.401,61.35,77.514,59.397z"/>
<path fill-rule="evenodd" clip-rule="evenodd" d="M67.003,55.456c7.377-0.641-6.996,7.593,1.314,7.883
	c-2.247,2.132-4.782,3.978-9.197,3.941C62.961,64.551,66.06,61.081,67.003,55.456z"/>
<path fill-rule="evenodd" clip-rule="evenodd" d="M286.408,75.163c-1.492-0.249-0.73-1.319,0-1.314
	c-6.596-0.445-12.392-8.587-18.394-5.255c-3.334-1.749,1.928-5.833,1.312-9.197c1.751-0.196,3.967,5.342,5.256,1.314
	c3.245,1.133,3.888,4.87,6.569,6.569c1.652-0.325,1.324-2.612,0-2.627C282.708,62.831,289.733,71.909,286.408,75.163z"/>
<path fill-rule="evenodd" clip-rule="evenodd" d="M51.238,72.535c0.875,0,1.752,0,2.627,0c1.484,8.93-7.568,7.321-9.197,13.138
	c-1.45-4.944,6.827-7.624,7.883-11.824c-1.117-0.241-1.239,0.513-1.313,1.314C49.328,74.58,51.372,74.009,51.238,72.535z"/>
<path fill-rule="evenodd" clip-rule="evenodd" d="M289.035,177.638c4.015-0.949,4.788,1.343,7.882,1.314
	c0.03-3.095-2.263-3.868-1.312-7.883c-1.784,0.407-1.091,3.29-1.313,5.255c-2.629,0-5.256,0-7.883,0
	c3.841-4.932-1.761-7.76-1.314-17.08c-1.752,0-3.504,0-5.255,0c-0.823-12.04-1.737-17.541-13.138-24.962
	c-0.958-3.584,2.609-2.644,2.626-5.255c-6.199,1.779-3.515-8.799,3.942-10.511c-1.461-7.297-3.903-13.614-9.196-17.079
	c4.069-8.193,7.421-17.103,9.196-27.59c1.751,0,3.505,0,5.255,0c-5.236,7.968-10.82,18.581-7.883,28.904
	c-1.193-4.192,5.385,0.727,1.314,5.255c4.25,1.625,1.005-4.252,5.256-2.627c-3.518-4.475,0.715-9.982,1.312-14.452
	c2.256,5.577-2.42,20.279,1.314,27.589c3.795-0.583-1.168-9.926,2.627-10.51c4.427,0.829,3.423,7.087,3.942,11.824
	c3.119-0.821-0.205-8.087,2.627-9.197c1.438-18.204,0.254,9.425,3.941,9.197c1.12-4.326,1.409-7.731,5.255-11.824
	c3.378,4.505,4.131,11.636,5.256,18.393c3.85-3.785,0.702-25.397,3.94-7.883c0.726,3.918,0.342,10.503,1.314,15.766
	c4.909-4.362,4.208-24.986-3.941-24.962c2.904-12.309-9.642-10.695-10.51-22.334c3.052,0.889,3.516,4.366,6.568,5.255
	c-1.875-5.132-5.377-8.637-10.511-10.51c-0.644-4.845,7.252,0.56,3.942-2.627c10.13,5.863,13.551,25.396,18.393,40.728
	c1.881,5.962,5.297,10.71,5.255,17.079c-0.113,16.823-11.479,31.002-15.766,44.669c-0.957,3.585,2.611,2.645,2.628,5.255
	c-5.407,24.372-2.926,56.632-21.021,68.317c-1.924,37.009-17.375,59.11-10.51,98.534c-1.241-2.264-4.856-2.15-3.942-6.569
	c-16.794-2.096-14.755,7.357-27.589,7.883c10.371,0.38-6.146,8.322-7.883,7.883c-0.636,4.138,6.021,0.984,6.57,3.941
	c3.708,1.918-6.961-0.813-9.197-1.313c-2.431,0.197-0.807,4.449-2.628,5.255c-2.882-1.497-5.368-3.391-10.511-2.627
	c1.112,1.952,4.23,1.901,6.569,2.627c-0.865,5.266-4.139,8.123-10.511,7.883c0.215,1.527-0.29,2.338-1.313,2.628
	c1.988,1.952,5.766,2.117,9.196,2.627c-6.724,3.348-10.986,9.158-18.393,11.824c2.1,3.686,5.913-1.845,10.51,0
	c-0.808,1.171-1.587,2.35,0,2.628c-0.908,4.118-3.504,1.713-6.568,1.313c-2.539,0.101,2.271,6.121-2.628,2.628
	c-2.146,1.75,1.033,10.342-5.255,9.196c0.573,1.617,1.681,2.698,3.941,2.628c-1.554,3.538-6.851-0.005-9.197,0
	c-0.483,2.234,1.024,2.479,2.627,2.627c-2.413,3.171-7.745-1.801-13.138,0c1.656,1.756,3.949,2.581,1.313,5.256
	c3.239-0.174,6.331-0.199,7.883,1.313c-2.791,4.403-9.671-2.117-11.824,1.313c0.212,1.54,2.395,1.109,3.941,1.314
	c-0.163,2.902-5.573,0.558-7.882,1.313c-1.692-2.827,1.412-4.646-5.255-3.941c6.123-7.408-7.232-4.42-7.883-9.196
	c3.503,0,7.007,0,10.51,0c-10.228-2.162-27.416-5.78-6.569-5.255c-1.691-5.593-6.529,0.128-11.824-1.314
	c-0.458-4.538,6.17,0.715,7.883-3.941c-2.642-2.823-11.352-5.17-13.138-1.313c-0.599-0.978-0.327-7.093,2.627-6.569
	c-0.864-3.935-2.809,1.257-5.255,0c-2.188-2.61,0.119-1.67,0-5.255c-3.456-0.021-8.728,0.729-5.255-2.628
	c-3.095-0.029-3.868,2.264-7.883,1.314c-4.25-1.513,3.528-1.487,5.255-1.314c-2.628-7.112-10.947-0.333-15.766-5.255
	c0.337-2.729,5.772-0.359,6.569-2.628c0.562-0.565-10.179-0.247-2.627-2.627c-2.518-2.738-10.502-0.009-10.51-5.255
	c-3.289-0.224-4.113,2.018-5.255,3.941c-1.022-3.267,2.634-4.66-6.569-3.941c0.361-2.705,4.894-1.237,5.255-3.941
	c-2.374-2.006-4.024-4.734-9.196-3.941c-0.483-2.235,1.024-2.479,2.627-2.628c-3.543-2.662-5.1,0.055-9.196,0
	c1.889-2.311,1.205-2.994-2.628-2.628c0.808-1.17,1.588-2.349,0-2.627c0.212-1.54,2.396-1.108,3.941-1.314
	c-7.84-1.968-6.361-7.521-13.138-5.255c0.838-27.755-14.543-66.128-15.766-95.907c-0.212-1.54-2.396-1.108-3.941-1.314
	c-6.852-13.73-12.9-28.264-19.707-42.041c-0.792-24.3-3.808-55.033-17.079-70.945c-2.867-13.882,7.03-20.297,2.627-31.531
	c3.977-5.658,5.129-14.139,9.197-19.707c4.048,4.01-6.52,13.026-1.314,15.765c-0.419,3.084-4.066,2.941-5.255,5.255
	c8.956,4.816,3.329-14.339,10.51-10.51c-3.537-6.051,3.181-0.163,0-6.569c4.526,3.87,3.093-6.634,7.883-6.569
	c0.451,7.821-9.31,11.212-6.569,17.08c1.492-0.249,0.729-1.319,0-1.314c2.216-4.614,3.872,3.064,1.314,3.941
	c5.505,1.126,2.877-5.881,5.255-7.883c1.931,1.174-0.356,9.191-1.314,11.824c3.463-0.128,4.857-9.039,3.941-9.197
	c0.387-2.738,3.555,1.95,3.941-2.627c3.831,2.248-2.977,4.782-1.314,9.196c4.266-3.179,4.964-9.925,7.883-14.452
	c2.896,2.604-2.157,9.148,1.314,13.138c-4.235-7.033-12.996,13.908-23.648,15.766c-0.916,0.159-6.035-3.27-7.883,0
	c1.516,4.445,2.61,2.068,1.314,7.883c2.905-1.037,3.288-4.596,5.255-6.569c2.055,0.88-1.01,7.644-2.627,9.197
	c5.561,1.182,1.336-7.422,6.569-6.569c-1.824,1.679-0.804,6.203-2.627,7.882c4.462,0.365,6.306-13.895,9.197-6.569
	c2.901-0.164,0.558-5.573,1.313-7.883c1.527,0.213,2.338-0.29,2.628-1.313c3.356,0.146,2.607,4.399,2.627,7.883
	c2.227-2.589,1.775-7.86,6.569-7.883c0-3.066,0-6.13,0-9.197c3.15,2.982,6.108,6.153,5.255,13.138
	c1.427-0.325,0.891-2.612,2.627-2.628c0-11.824,0-23.648,0-35.472c2.514-9.335,1.526,13.929,1.314,11.824
	c0.223,2.21,5.03,6.407,2.627,9.196c6.178-4.203-1.439-14.377,3.941-19.707c6.141,5.433-4.296,19.296,6.569,19.707
	c-2.13,8.907-7.496,16.148-3.941,19.707c-0.407,1.783-3.29,1.09-5.255,1.314c-0.719,1.909,1.535,6.79-1.314,6.569
	c0.854,1.337,3.021,1.358,2.627,3.941c-2.679-2.639-2.576,0.58-5.255,1.313c0.297,1.893,3.921,0.458,3.941,2.628
	c1.324,3.952-2.927,2.327-5.255,2.627c0.957,2.984,3.954,3.93,6.569,5.255c-1.433,4.255-8.484-3.534-10.51,1.313
	c2.287,0.051,5.919,3.859,13.138,2.627c-7.26,4.065-10.61-0.604-18.393,1.314c0-2.189,0-4.38,0-6.569
	c-3.833,6.859,4.114,18.425,0,22.334c-2.562-0.19-4.459,3.678-9.196,1.314c3.012,7.698,0.085,13.181,3.941,19.707
	c7.816-3.719,7.218,3.768,9.196,9.197c3.509-3.626,2.855,1.551,6.569,1.313c0.978,4.044-3.606,2.525-2.628,6.569
	c2.945,3.004,2.63-8.342,5.255,0c3.513,0.39-3.492-5.098,2.627-3.941c-2.473,2.317,1.796,4.068-2.627,5.255
	c0.198,2.43,4.449,0.806,5.255,2.628c1.156,4.221-4.331,1.8-3.941,5.255c4.018,0.952,3.864-2.266,7.882-1.313
	c-3.579,2.207,3.645,7.713-3.941,6.569c7.144,1.313,7.209,3.125,13.138,3.941c-1.785,4.657-2.13,2.595-2.627,7.883
	c2.803,0.613,2.502-1.877,2.627-3.941c2.776,4.508,4.554,1.847,6.569,6.569c1.813-1.69,0.35-2.717,0-6.569
	c5.299,0.394,2.32,9.065,7.883,9.196c0.022,1.923-5.541,4.165,0,3.941c-5.97,1.56,4.793,5.274-3.941,5.255
	c0.297,1.892,3.921,0.458,3.941,2.627c3.821-1.142,1.478-1.967,1.314-5.255c5.237-0.419,9.707-0.072,11.824,2.628
	c4.355-0.024,1.333-7.425,3.941-9.197c3.436-1.536,5.651,4.054,5.255-1.314c2.866-0.238,4.18,1.075,3.941,3.941
	c2.063-0.564,1.123-4.132,5.255-2.627c-3.222-1.75,2.368-3.964-1.314-5.255c7.158-0.544,3.383-6.931,9.196-6.569
	c-0.582-1.17-1.153-2.35-2.627-2.627c4.739-3.374,14.022-4.734,21.021-6.569c-0.052-4.329-6.492-2.267-5.255-7.883
	c2.235,0.482,2.479-1.024,2.627-2.627c1.325,4.854,11.966,5.753,10.51,9.196c4.817,0,9.635,0,14.452,0
	c-0.405-5.205-4.562,1.469-3.941-3.941c5.382,2.355,4.524-8.924,5.255,0c2.618-2.881,1.984-5.006,10.51-3.941
	c1.248,8.825,11.639,8.506,13.138,17.08c5.284-0.905,7.5,1.258,11.824,1.313c-0.864,1.763-2.809,2.447-5.255,2.628
	c2.596,0.996,7.382,6.512,10.511,2.627c0.647-3.314-6.52,3.664-5.256-2.627c5.028-0.21,10.418-0.784,10.511,3.941
	c2.26-0.406-1.706-4.562,3.942-3.941c0.22-2.849-4.661-0.596-6.57-1.314c-1.484-2.253,22.442-1.882,7.883-3.941
	c-4.217-1.912,11.228-0.885,2.628-3.941c1.896-3.621,12.692,1.666,7.883-5.255c9.248-1.364,10.976-0.672,17.078,2.627
	c0.5-5.339,3.579-13.366-2.626-14.452c4.177-0.639,2.125-7.508,7.882-6.569c-1.882,3.921,1.075,4.468-1.313,7.883
	c3.401,1.417,3.07,6.564,9.196,5.255c-6.376-3.97,2.69-9.231-1.313-14.452c2.429-4.013,6.241,1.517,10.51,0
	c-2.605,0.898,0.82,7.826-3.941,6.569c0.267,1.763,5.457,2.447,0,2.627c0.251,1.065,1.318,1.31,1.314,2.628
	c9.312-4.199,6.823-18.807,3.941-22.334c0.298-1.893,3.921-0.458,3.94-2.628C294.126,175.788,290.725,185.534,289.035,177.638z
	 M77.514,110.635c-0.936-3.276,5.782-5.398,1.313-7.882C77.885,104.151,73.698,108.803,77.514,110.635z M52.552,181.58
	c-0.224,1.966,0.469,4.849-1.313,5.255c-0.408-3.972,1.458-10.218-2.628-10.51c1.028,2.66-0.756,17.957,3.941,11.824
	c1.648,5.15,1.004,4.069-1.313,5.255c0.801,0.075,1.555,0.196,1.313,1.314c0.075,0.8,0.196,1.555,1.314,1.313
	c0.018-7.046,6.481,5.195,7.883-2.627C53.864,194.281,56.652,184.487,52.552,181.58z M292.976,163.187
	c0.586-2.584,4.874-8.124,1.314-10.51C292.414,153.97,289.56,160.945,292.976,163.187z M289.035,214.425
	c0.404-3.098,4.562-2.444,3.941-6.569c-1.314,0-2.628,0-3.941,0C290.744,211.118,285.18,213.309,289.035,214.425z M136.635,318.214
	c4.968-1.901,2.521,3.61,6.569,2.628c0.125-2.064-0.176-4.555,2.627-3.941c1.256,2.446-3.935,4.391,0,5.255
	c1.128-4.833,8.217,0.62,9.197,3.941c11.168-3.693,12.656,4.747,21.021,1.314c-1.474-0.279-2.045-1.458-2.627-2.628
	c8.239-0.604,9.6-1.492,19.707-1.313c0.035-5.656,6.283-5.138,1.314-9.197c10.032,1.453,4.807,2.727,13.138,6.569
	c16.451-1.187,19.25-5.723,23.648-14.452c-1.021-0.295-2.592-0.036-2.628-1.314c3.142-5.051,6.744-10.541,0-18.393
	c0.512-1.875,1.577-2.216,0-3.941c4.192,0.78,4.063-2.466,6.569,0c1.347-3.033,1.767-6.992,6.568-6.569
	c4.453-22.412-15.146-23.991-18.393-36.786c-5.065,0.121-6.626-13.546-11.824-14.452c-4.693,6.837-2.159,16.114-14.452,17.079
	c0,1.752,0,3.502,0,5.255c3.307,0.536,6.035,4.496,3.941,6.569c18.362,1.604,15.68,8.065,30.218,13.138
	c-1.505,4.133,2.062,3.192,2.627,5.255c-5.508-0.989,1.783,5.019-3.94,5.255c-8.821-4.2-15.968-0.657-21.021-1.313
	c-8.395-1.091-20.67-6.538-24.962,2.627c12.416,1.198,23.611-2.492,31.531,1.314c-5.391,2.674-0.233,7.174-1.314,9.196
	c-8.12,15.191-29.865,6.646-49.924,11.824c-3.333-4.111-7.498-7.393-10.51-11.824c3.941,0,7.883,0,11.824,0
	c-4.201,4.357,5.658,2.062,9.196,2.628c-0.419-3.046,0.211-5.045,1.314-6.569c-3.605,0.193-6.773,0.244-3.941-2.627
	c-4.252-0.566-11.363,1.729-11.824-2.627c6.31-1.873,16.219-1.104,22.334,0c0.419-3.046-0.211-5.045-1.313-6.569
	c-15.15,1.196-25.369-0.422-40.728,9.196c-11.333-14.399,10.92-25.48,21.021-23.648c0.057-1.809-0.619-2.884-1.314-3.941
	c4.47-0.09,9.168-0.41,10.51,2.627c-2.332,5.845-11.048,1.861-14.452,3.941c4.409,3.651-7.885,1.662-5.255,7.883
	c2.484-0.295,2.898,1.48,5.255,1.313c9.062-7.642,19.525-6.761,26.276-2.627c3.992-7.957,20.084,2.858,23.648-6.569
	c-13.292-1.87-12.738,2.758-22.334-2.627c-1.084,4.165-10.429,4.833-11.824,1.313c1.38-5.217,7.431-10.958,2.627-14.452
	c-2.626,3.562-0.171,6.069-6.569,3.941c-0.393,2.583,1.774,2.604,2.627,3.941c-2.309-0.756-7.719,1.588-7.882-1.314
	c5.247,1.287,2.517-4.075,5.255-7.883c-1.505,2.696,2.063,6.264,2.627,2.628c-2.957-0.547,0.197-7.204-3.941-6.569
	c-3.145,4.451-7.151-5.692-10.511-1.313c-0.201-4.179-2.979-5.78-2.627-10.51c-1.965,0.223-4.849-0.47-5.255,1.313
	c1.784,11.096-14.036,22.602-13.138,32.845c-5.356-0.976-4.524,4.234-10.51,2.628c1.196,3.64,2.129,8.803-1.314,3.941
	c-0.35,3.852-1.813,4.879,0,6.569c1.629-2.402,5.071,2.27,2.627,5.255c4.844,0.739,3.349,2.594,9.197,3.941
	c-1.02,0.295-2.592,0.036-2.627,1.314c0.806,1.822,5.058,0.198,5.255,2.627c-7.192,1.201,2.891,0.452,2.628,2.628
	c-5.457,0.181-0.266,0.865,0,2.627c-8.095-1.142,0.853,3.208-2.628,3.941c-0.796-0.757-6.231-3.074-6.569,0
	c5.734-0.03,0.222,2.263-2.627,1.314c1.211,6.292,0.352,4.978,1.313,13.138C138.39,312.615,136.454,316.176,136.635,318.214z
	 M86.71,268.29c-0.801-0.074-1.555-0.196-1.314-1.314c2.17-0.021,0.735-3.644,2.628-3.941c2.189,0,4.379,0,6.569,0
	c0.561,12.053,21.831,6.189,18.393,18.393c3.356-0.146,4.598-2.408,6.569-3.941c-0.233-5.382-10.51-9.019-5.255-11.824
	c-1.909-0.719-6.791,1.534-6.569-1.314c0.016-1.737,2.303-1.201,2.628-2.627c-2.458,0.07-2.782-1.011-1.314-2.627
	c-6.712,0.144-13.824,0.685-17.079-2.628c-0.057,1.809,0.618,2.884,1.313,3.941c-3.775-1.834-6.674,3.581-7.883,0
	c2.933-0.571,4.685-2.322,5.255-5.255c-9.577,0.133-14.057-13.531-13.138-17.08c-3.279-0.662-4.388-3.495-7.883-3.941
	c0,0.875,0,1.752,0,2.627c-0.801,0.075-1.555,0.196-1.314,1.314c3.592,5.239,4.244,18.063,3.941,24.962
	c2.26,0.519,3.368-1.95,3.941,0c-1.474,0.277-2.045,1.458-2.627,2.628c2.446,1.256,4.391-3.935,5.255,0
	c-0.806,1.822-5.058,0.197-5.255,2.627c8.174,4.401,2.975,8.078,9.196,14.452c4.195-0.185,4.345-4.414,7.883-5.255
	c-3.356-0.146-4.598-2.408-6.569-3.941c3.288,0.164,4.113,2.507,5.255-1.314c-1.965-0.223-4.848,0.47-5.255-1.314
	c4.068-0.312,5.103-3.656,7.883-5.255C87.833,264.158,88.773,267.726,86.71,268.29z M84.083,286.683c1.313,0,2.627,0,3.941,0
	c2.907-1.891-1.654-3.205,1.313-3.941c0.801-0.074,1.555-0.196,1.314-1.314C87.452,282.169,83.894,282.552,84.083,286.683z
	 M256.19,251.211c3.175,3.052-2.052,3.517-2.628,6.569c1.553,0.636,2.978,1.401,3.942,2.627c-1.554,0.636-2.979,1.401-3.942,2.627
	c3.585,0.118,2.645-2.188,5.256,0c1.814-5.319-2.853-4.154-2.628-7.882c2.608,2.725,3.005-1.401,5.255-2.628
	c-4.105,0.403,3.34-3.795-1.314-3.941C260.346,255.362,253.447,248.538,256.19,251.211z M95.907,274.859
	c3.404,2.733,4.884-2.929,9.196,0C106.179,270.098,95.187,271.684,95.907,274.859z M98.535,278.8c0,1.752,0,3.502,0,5.255
	c4.559-1.147,4.507,2.022,2.627,3.941c4.538,1.034,5.779-1.228,6.569-3.941c-3.343-0.161-5.095-1.912-5.255-5.255
	c1.974-2.545,5.532,2.297,6.569-2.627C104.231,275.739,101.745,277.631,98.535,278.8z M88.024,307.704
	c6.995,2.054,20.142,1.588,22.334-5.255C105.932,301.997,90.568,301.902,88.024,307.704z M140.576,335.293
	c-3.296,2.315-0.923,2.171-2.628,5.256c4.102-3.216,6.021,6.604,11.824,0c-1.909-0.719-6.79,1.535-6.569-1.314
	c1.892-0.734,3.206-2.049,3.941-3.941c-2.484-0.293-2.899,1.481-5.255,1.314c1.206-5.057-5.8-8.925-10.51-6.569
	c5.158,1.949,0.252,2.044-1.314,3.941C133.727,337.192,138.06,332.12,140.576,335.293z M215.462,341.862c2.627,0,5.255,0,7.883,0
	c-2.042-4.146,1.595-7.835-2.628-7.883C220.293,337.516,220.448,340.304,215.462,341.862z M151.086,340.549
	c3.775-0.272,6.674,0.333,7.883,2.627c-1.966,0.225-4.849-0.469-5.255,1.314c4.65,2.124,6.53,4.883,10.51,1.313
	c0.512,1.875,1.577,2.216,0,3.941c1.752,0,3.503,0,5.255,0c-2.546-4.842,6.889-3.09,5.255-5.255
	C164.895,343.972,158.221,335.095,151.086,340.549z M176.048,343.176c2.543,1.398,3.433,4.45,5.255,6.569
	c4.815-8.153,11.838-0.224,14.452-6.569c-2.447-0.181-4.391-0.864-5.255-2.627c8.167-1.435,7.416,3.128,10.51,3.941
	c1.851-6.607,12.253,1.918,13.138-3.941C201.886,336.801,186.18,340.465,176.048,343.176z M160.283,357.628
	c-6.881-0.454-19.326-2.57-15.766,5.255C145.519,354.894,159.633,361.271,160.283,357.628z M182.617,361.569
	c5.738,3.383,26.599-0.339,7.883,0c-3.408-0.993-8.69-4.062-11.824-1.313c-3.387,0.316,1.804,2.261,0,5.255
	C184.086,366.132,177.412,361.975,182.617,361.569z M151.086,365.511c7.378-0.504,13.741-2.023,22.334-1.313
	c-3.418-6.573-13.005,0.135-21.021-2.628c4.843,3.119-7.47-1.806-2.627,1.313C150.796,363.173,151.3,363.982,151.086,365.511z"/>
<path fill-rule="evenodd" clip-rule="evenodd" d="M248.307,169.756c-5.475,24.431-39.116,6.73-60.435-7.883
	c0.14-17.639-1.429-22.576,10.51-36.786c1.528,1.65,8.573,3.004,6.569-2.628c1.54,0.213,1.108,2.396,1.313,3.941
	c1.54-0.213,1.109-2.396,1.314-3.941c2.79,6.282,16.863-3.897,18.393,5.255c31.854-10.377,44.22,20.838,49.925,42.042
	C260.472,173.964,263.995,168.793,248.307,169.756z M244.366,142.166c1.492-5.509-6.408-8.382-9.196-5.255
	C239.236,137.661,237.772,143.941,244.366,142.166z M216.776,156.618c6.808-3.495,14.953-2.355,22.335,0
	C237.236,144.342,221.04,150.317,216.776,156.618z M240.425,168.442c-7.534,7.586-20.206-3.704-28.904,1.314
	C215.595,169.817,240.376,176.586,240.425,168.442z"/>
<path fill-rule="evenodd" clip-rule="evenodd" d="M169.479,163.187c0.221,2.849-4.66,0.596-6.569,1.314
	c0.854,1.337,3.021,1.359,2.627,3.941c-6.897-3.377-12.08,5.105-15.766,9.196c-2.866,0.239-4.18-1.075-3.941-3.941
	c-1.756,1.656-2.58,3.949-5.255,1.313c-2.04,5.542,7.294-0.287,5.255,5.255c-9.785,0.475-17.649,5.363-30.217,2.627
	c-0.982-4.048,4.53-1.601,2.628-6.569c-2.281,3.263-3.396,2.147-1.314-1.314c-3.505,0.754-8.963-2.869-15.766-2.627
	c-2.405-8.106-11.022-9.999-15.766-15.766c0.407-1.783,3.29-1.09,5.255-1.314c-0.574-1.616-1.681-2.698-3.941-2.627
	c1.143-3.821,1.967-1.478,5.255-1.314c0.167-2.356-1.608-2.771-1.314-5.255c6.761,0.977-0.166-4.234,7.883-2.627
	c-0.854-1.337-3.021-1.359-2.627-3.941c4.554-0.701,12.461,1.951,13.138-2.628c-0.212-1.54-2.396-1.108-3.941-1.313
	c7.049-13.115,24.058-5.709,34.159-11.824c1.785,3.033,3.265,6.369,9.196,5.255c3.387-0.316-1.804-2.261,0-5.255
	c3.064-1.124,5.661,4.594,6.569,1.314C165.305,130.585,177.422,150.618,169.479,163.187z M119.555,136.911
	c4.044-0.92,2.525-0.92,6.569,0c-0.206-1.546,0.226-3.728-1.313-3.941C125.229,136.454,117.451,131.74,119.555,136.911z
	 M118.242,159.245c6.755-2.441,11.817-6.577,22.334-5.255C136.871,143.28,118.666,150.701,118.242,159.245z M148.458,169.756
	c-6.735,0.174-22.054,0.941-31.531,0C128.083,173.682,139.001,176.386,148.458,169.756z"/>
<path fill-rule="evenodd" clip-rule="evenodd" d="M286.408,186.835c1.142-1.982,1.966,0.362,5.254-1.314c0,1.314,0,2.628,0,3.941
	c-1.507-3.215-6.684,1.962-1.313,1.314c4.251,1.513-3.527,1.487-5.255,1.313C283.355,188.798,291.209,188.9,286.408,186.835z"/>
<path fill-rule="evenodd" clip-rule="evenodd" d="M394.138,435.142c-5.873,27.409-22.281,44.284-39.414,60.435
	c-6.9,29.251-24.863,50.86-43.355,72.259c-18.244,21.112-48.612,49.048-73.572,55.179c-12.815,3.148-27.338,0.262-40.728,1.314
	c0.036-1.278,1.607-1.021,2.628-1.314c-14.226-1.156-47.3,1.008-55.18-6.568c-1.652,0.324-1.325,2.611,0,2.627
	c-26.962,1.981-59.555,6.771-77.514-5.255c-11.593-7.764-21.233-25.927-32.845-42.041c-14.144-19.63-26.256-33.382-30.217-55.18
	c10.469,30.259,31.972,49.482,45.983,76.2c11.086,2.73,8.028,11.486,19.707,13.138c-0.984,2.481-3.922,0.912-1.314,3.941
	c6.212-2.393,16.606,2.375,27.59,2.628c-0.146,2.481-4.344,0.912-3.941,3.941c43.416-4.202,86.381,0.35,123.497,3.941
	c-4.011-2.735-9.977,2.345-14.452-1.314c5.891,6.169,20.161,2.075,22.335,0c-0.534-4.437-5.094,3.496-3.941-2.627
	c8.025,0.144,12.611-3.155,19.707-3.941c-1.577,1.726-0.513,2.066,0,3.941c1.981-1.143-0.362-1.967,1.314-5.256
	c50.917-24.276,99.624-75.77,112.985-126.124c2.315-2.13,9.081-6.596,7.882-7.883C377.521,473.531,382.029,447.247,394.138,435.142z
	"/>
<path fill-rule="evenodd" clip-rule="evenodd" d="M0,499.518c3.969,3.039,3.513,10.5,5.255,15.766
	C0.865,512.667,2.415,504.109,0,499.518z"/>
</svg>
