<!DOCTYPE svg PUBLIC "-//W3C//DTD SVG 1.1//EN" "http://www.w3.org/Graphics/SVG/1.1/DTD/svg11.dtd" [
	<!ENTITY ns_flows "http://ns.adobe.com/Flows/1.0/">
]><svg xmlns="http://www.w3.org/2000/svg" width="640" height="640" viewBox="-124.661 -10.684 640 640"><path fill-rule="evenodd" clip-rule="evenodd" d="M169.479.276c-16.371 4.027-19.144-1.537 0 0zM122.183 19.983c-.656 1.686-3.326 7.855-1.314 7.883-3.746 4.403-2.644-6.104-3.941-5.255.864-1.763 2.808-2.447 5.255-2.628zM119.555 30.494c2.714 1.129 1.386 9.145 0 10.51-1.748-2.474-1.11-5.999 0-10.51zM261.445 117.204c1.386-3.274 7.531 3.159 3.941 5.255-3.628.562-1.233-4.898-3.941-5.255zM64.376 172.383c1.652.325 1.325 2.612 0 2.627.036 1.278 1.608 1.019 2.627 1.314-1.929 3.097-2.773 2.444-1.313 6.569-2.401-2.112-5.195-6.338-6.569 0-2.849.221-.595-4.66-1.313-6.569 3.356-.146 4.597-2.407 6.568-3.941zM124.811 228.876c1.057.695 2.133 1.37 3.941 1.313-3.305 3.182 2.647 2.921 5.255 3.941-2.164 2.502-10.836.402-9.196-5.254zM119.555 243.328h-7.883c.036-1.278 1.608-1.019 2.628-1.314-.036-1.278-1.608-1.019-2.628-1.314.552-4.453 7.636-.978 7.883 2.628zM206.265 17.356c.251-1.491 1.318-.729 1.314 0 4.134-1.712-3.236-9.696 0-10.511-1.209-2.294-4.107-2.899-7.883-2.627.406 1.783 3.289 1.091 5.255 1.314-1.02 1.17-1.412 2.966-1.313 5.255-1.237-3.577-3.427-4.634-6.569-1.313-2.849.221-.595-4.66-1.313-6.569-4.147.233-7.836.923-7.883 5.255-5.973-7.249 13.416-9.479 21.021-5.255-.995 13.285 15.218 13.635 10.511 21.021-2.197-5.938-4.652-3.449-7.883-7.883-1.757 1.655-2.581 3.948-5.257 1.313zM139.262 5.532c1.916 6.325-12.929 7.192-15.766 13.138-.989-5.399 12.428-7.696 15.766-13.138zM212.834 6.845c2.264-2.599 5.522 4.914 9.196 5.255-3.766 4.104-5.788-4.646-9.196-5.255z"/><path fill-rule="evenodd" clip-rule="evenodd" d="M183.931 8.159c-16.556.047-29.3 2.202-43.355 9.197 4.254 2.542 1.641 3.433-1.314 5.255 1.128 2.783 8.748-.918 11.824 1.314-11.771 4.181-16.606 14.765-17.08 23.648 8.073-4.339 9.329-13.463 15.766-13.138 3.387.315-1.804 2.261 0 5.255 6.391-4.996 9.228-13.545 18.393-15.766-4.481-3.107-10.592 3.377-13.138 6.569.939-12.172 31.853-19.276 39.414-10.51-.761 4.265.895 6.112 1.314 9.196 2.393-4.616 11.854.177 7.883 6.569 3.502-4.38 9.719-6.046 7.883-15.766 4.203 2.958 4.76 12.219 1.313 15.766 3.697-1.12 5.901-3.734 5.255-9.197 5.299 9.253 16.012 6.674 22.336 13.138 1.808-1.316-.562-2.166 2.626-3.941-2.688-5.784-10.614-10.5-19.706-10.511 1.195-2.281 4.604-3.396 6.569-1.313a26.7 26.7 0 0 0-7.884-7.883c.317-3.387 2.261 1.804 5.256 0 .64 10.987 24.594 15.149 24.962 26.276 6.569 1.518 14.985 12.017 23.648 15.766-1.344 2.926-6.041-1.718-10.511 0 3.099-5.087-6.188-7.336-7.882-11.824-3.249 1.842-2.32 4.526-1.314 7.883-3.961-4.25-4.476 1.2-7.883-1.314-8.166 5.665-2.717 18.5 0 27.59 3.229-9.805 7.148-2.774 7.883-14.452 2.15 3.772-.552 6.14 0 13.138 4.267-6.387 5.021-11.673 3.94-21.021 5.158 2.658.698 5.169 5.256 9.196-3.086 8.278-6.732 15.418-3.941 26.276-10.239-1.458-15.135-12.939-21.02-22.334-9.092 3.271-22.146-8.314-28.904-3.941-3.148.521.729-5.984-3.941-3.941 2.23 5.268-15.731-1.024-13.138 0-3.267-4.652 2.781.803 3.941-3.941-5.582-3.043-5.65-3.674-11.824-5.255.037-5.292-3.002-7.508-6.569-9.197-4.354.418 5.124 4.067 0 5.255.736 2.967 2.049-1.594 3.941 1.313-1.037 4.611-4.595 1.517-6.569 0-.191 3.718-1.647 6.074-2.628 11.824-4.114-.264-5.371-3.387-7.882-5.255-3.935.865 1.256 2.808 0 5.255-4.127 1.129-13.583-3.071-11.824 3.941-2.611-2.189-1.671.118-5.255 0 2.948-4.688-.922-.158-5.255-1.314.212 1.54 2.396 1.109 3.941 1.314-7.567 1.837-10.425 9.913-19.707 13.138-4.13-1.833 1.806-6.484-1.314-7.883-1.491.249-.729 1.317 0 1.313-.297 1.673-3.921 1.722-3.941 0-3.106 1.712-2.533 7.102-3.941 10.511-5.434.236-5.285-3.088-3.941 2.627-6.299 1.482-4.624-5.01-7.883-6.569-2.779 3.936-5.652 15.216-13.138 18.393 2.3-4.652-.875-3.231-1.314-7.883-2.482.984-.912 3.921-3.941 1.313-.387 4.868.744 11.255-5.255 10.511 4.306-12.398 3.386-18.993 2.627-32.845 6.249 3.8 4.591 9.702 7.883 14.452-5.72-3.15 1.795 4.311 1.314 7.882 5.084-7.575 8.081-22.901 6.569-32.845 7.25 1.509 3.753 13.764 9.196 17.08.613.982-2.376-24.753-6.569-18.393-1.818-7.801-1.577-19.141 3.941-22.334 1.378-.172-8.8 17.451 3.941 17.079-.76 8.633.209 4.952-1.314 14.452 1.616-.573 2.698-1.681 2.628-3.941.965 3.436 3.746 9.005 2.627 10.51 5.483-10.308-4.721-24.774 7.883-34.158-7.133-21.673 22.966-24.262 30.217-31.531 7.451-3.038 21.057-.931 28.905.001zm-7.883 47.297c-3.259-.192-6.376-.244-6.569 2.628 2.484-.295 2.898 1.48 5.255 1.313-.057-1.809.619-2.884 1.314-3.941zm18.393-19.707c-3.485-7.734-6.736-7.631-10.51-14.452-3.996 1.26-13.324-2.813-13.138 2.628 4.516.575 7.364-.519 10.511-1.314 3.647 4.235 6.223 9.543 10.51 13.138.684-5.191 1.943 5.191 2.627 0zm-64.376-6.569c6.483 1.11-.142 8.635-1.313 10.511 4.221.808 1.8-4.729 5.255-1.314-2.551-7.426 4.634-11.932 2.628-14.452-2.461 7.063-4.109 1.158-6.57 5.255zm-1.313 6.569c1.004-3.356 1.935-6.041-1.314-7.883-1.807 1.686-2.287 7.856 1.314 7.883zm89.337 7.883c1.229 5.777 6.897 7.117 14.451 6.569.52-2.261-1.948-3.368 0-3.941 4.739-.361 3.563 5.196 7.885 5.255-.956-9.993-12.005-9.893-18.395-14.452-1.265 4.857 8.969 4.927 5.256 7.883-1.832-2.011-6.8-3.732-9.197-1.314zm34.16 6.569c1.524-6.83-8.044-9.407-10.511-7.883 4.389 1.742 8.639 3.621 10.511 7.883zm-112.987 0c.587-3.792 5.653-3.106 6.569-6.569-8.135-.253-7.638 8.126-13.138 10.51-.294-2.484 1.48-2.898 1.313-5.255-5.845-1.465-5.283 3.476-9.196 3.941 1.089-2.474 4.85-6.828 0-7.883-1.146 4.593-5.046 13.287-1.314 18.393.637-1.552 1.401-2.979 2.627-3.941-1.231 3.327-.959 7.449 2.628 9.197.029-3.095-2.263-3.868-1.314-7.883h5.255c-3.53 4.489.565 10.133 2.627 13.138.188-7.594-.866-13.43-1.314-17.079 4.591-2.013 12.734-7.363 11.824-10.51-1.969 1.532-3.21 3.794-6.567 3.941zm53.865 3.941c.964-3.416 6.25-2.51 6.569-6.569h-5.255c2.186 4.126-4.886 5.368-1.314 6.569zm6.57 2.628c6.105 2.374 10.31-8.912 7.883-6.569-2.721 2.096-6.783 2.853-7.883 6.569zM97.221 30.494c2.413 3.356-6.228 6.859-7.883 10.51 5.658.316 14.905-8.043 18.393-10.51-2.379 9.017-21.102 13.048-24.962 24.962-4.044-.92-2.525-.92-6.569 0 2.599-3.532 5.788-6.474 5.255-13.138C87.6 39.266 93.432 35.9 97.221 30.494z"/><path fill-rule="evenodd" clip-rule="evenodd" d="M77.514 59.397c2.83 2.073-4.847 4.701-5.255 7.883 10.656-3.876 16.05-9.407 27.589-14.452-8.021 9.496-16.809 18.225-26.275 26.276-4.998 1.932-.258-5.874-5.255-3.941-.295-5.55 2.025-8.486 2.627-13.138 2.339-.727 5.456-.675 6.569-2.628zM67.003 55.456c7.377-.641-6.996 7.593 1.314 7.883-2.247 2.132-4.782 3.978-9.197 3.941 3.841-2.729 6.94-6.199 7.883-11.824zM286.408 75.163c-1.492-.249-.73-1.319 0-1.314-6.596-.445-12.392-8.587-18.394-5.255-3.334-1.749 1.928-5.833 1.312-9.197 1.751-.196 3.967 5.342 5.256 1.314 3.245 1.133 3.888 4.87 6.569 6.569 1.652-.325 1.324-2.612 0-2.627 1.557-1.822 8.582 7.256 5.257 10.51zM51.238 72.535h2.627c1.484 8.93-7.568 7.321-9.197 13.138-1.45-4.944 6.827-7.624 7.883-11.824-1.117-.241-1.239.513-1.313 1.314-1.91-.583.134-1.154 0-2.628z"/><path fill-rule="evenodd" clip-rule="evenodd" d="M289.035 177.638c4.015-.949 4.788 1.343 7.882 1.314.03-3.095-2.263-3.868-1.312-7.883-1.784.407-1.091 3.29-1.313 5.255h-7.883c3.841-4.932-1.761-7.76-1.314-17.08h-5.255c-.823-12.04-1.737-17.541-13.138-24.962-.958-3.584 2.609-2.644 2.626-5.255-6.199 1.779-3.515-8.799 3.942-10.511-1.461-7.297-3.903-13.614-9.196-17.079 4.069-8.193 7.421-17.103 9.196-27.59h5.255c-5.236 7.968-10.82 18.581-7.883 28.904-1.193-4.192 5.385.727 1.314 5.255 4.25 1.625 1.005-4.252 5.256-2.627-3.518-4.475.715-9.982 1.312-14.452 2.256 5.577-2.42 20.279 1.314 27.589 3.795-.583-1.168-9.926 2.627-10.51 4.427.829 3.423 7.087 3.942 11.824 3.119-.821-.205-8.087 2.627-9.197 1.438-18.204.254 9.425 3.941 9.197 1.12-4.326 1.409-7.731 5.255-11.824 3.378 4.505 4.131 11.636 5.256 18.393 3.85-3.785.702-25.397 3.94-7.883.726 3.918.342 10.503 1.314 15.766 4.909-4.362 4.208-24.986-3.941-24.962 2.904-12.309-9.642-10.695-10.51-22.334 3.052.889 3.516 4.366 6.568 5.255-1.875-5.132-5.377-8.637-10.511-10.51-.644-4.845 7.252.56 3.942-2.627 10.13 5.863 13.551 25.396 18.393 40.728 1.881 5.962 5.297 10.71 5.255 17.079-.113 16.823-11.479 31.002-15.766 44.669-.957 3.585 2.611 2.645 2.628 5.255-5.407 24.372-2.926 56.632-21.021 68.317-1.924 37.009-17.375 59.11-10.51 98.534-1.241-2.264-4.856-2.15-3.942-6.569-16.794-2.096-14.755 7.357-27.589 7.883 10.371.38-6.146 8.322-7.883 7.883-.636 4.138 6.021.984 6.57 3.941 3.708 1.918-6.961-.813-9.197-1.313-2.431.197-.807 4.449-2.628 5.255-2.882-1.497-5.368-3.391-10.511-2.627 1.112 1.952 4.23 1.901 6.569 2.627-.865 5.266-4.139 8.123-10.511 7.883.215 1.527-.29 2.338-1.313 2.628 1.988 1.952 5.766 2.117 9.196 2.627-6.724 3.348-10.986 9.158-18.393 11.824 2.1 3.686 5.913-1.845 10.51 0-.808 1.171-1.587 2.35 0 2.628-.908 4.118-3.504 1.713-6.568 1.313-2.539.101 2.271 6.121-2.628 2.628-2.146 1.75 1.033 10.342-5.255 9.196.573 1.617 1.681 2.698 3.941 2.628-1.554 3.538-6.851-.005-9.197 0-.483 2.234 1.024 2.479 2.627 2.627-2.413 3.171-7.745-1.801-13.138 0 1.656 1.756 3.949 2.581 1.313 5.256 3.239-.174 6.331-.199 7.883 1.313-2.791 4.403-9.671-2.117-11.824 1.313.212 1.54 2.395 1.109 3.941 1.314-.163 2.902-5.573.558-7.882 1.313-1.692-2.827 1.412-4.646-5.255-3.941 6.123-7.408-7.232-4.42-7.883-9.196h10.51c-10.228-2.162-27.416-5.78-6.569-5.255-1.691-5.593-6.529.128-11.824-1.314-.458-4.538 6.17.715 7.883-3.941-2.642-2.823-11.352-5.17-13.138-1.313-.599-.978-.327-7.093 2.627-6.569-.864-3.935-2.809 1.257-5.255 0-2.188-2.61.119-1.67 0-5.255-3.456-.021-8.728.729-5.255-2.628-3.095-.029-3.868 2.264-7.883 1.314-4.25-1.513 3.528-1.487 5.255-1.314-2.628-7.112-10.947-.333-15.766-5.255.337-2.729 5.772-.359 6.569-2.628.562-.565-10.179-.247-2.627-2.627-2.518-2.738-10.502-.009-10.51-5.255-3.289-.224-4.113 2.018-5.255 3.941-1.022-3.267 2.634-4.66-6.569-3.941.361-2.705 4.894-1.237 5.255-3.941-2.374-2.006-4.024-4.734-9.196-3.941-.483-2.235 1.024-2.479 2.627-2.628-3.543-2.662-5.1.055-9.196 0 1.889-2.311 1.205-2.994-2.628-2.628.808-1.17 1.588-2.349 0-2.627.212-1.54 2.396-1.108 3.941-1.314-7.84-1.968-6.361-7.521-13.138-5.255.838-27.755-14.543-66.128-15.766-95.907-.212-1.54-2.396-1.108-3.941-1.314-6.852-13.73-12.9-28.264-19.707-42.041-.792-24.3-3.808-55.033-17.079-70.945-2.867-13.882 7.03-20.297 2.627-31.531 3.977-5.658 5.129-14.139 9.197-19.707 4.048 4.01-6.52 13.026-1.314 15.765-.419 3.084-4.066 2.941-5.255 5.255 8.956 4.816 3.329-14.339 10.51-10.51-3.537-6.051 3.181-.163 0-6.569 4.526 3.87 3.093-6.634 7.883-6.569.451 7.821-9.31 11.212-6.569 17.08 1.492-.249.729-1.319 0-1.314 2.216-4.614 3.872 3.064 1.314 3.941 5.505 1.126 2.877-5.881 5.255-7.883 1.931 1.174-.356 9.191-1.314 11.824 3.463-.128 4.857-9.039 3.941-9.197.387-2.738 3.555 1.95 3.941-2.627 3.831 2.248-2.977 4.782-1.314 9.196 4.266-3.179 4.964-9.925 7.883-14.452 2.896 2.604-2.157 9.148 1.314 13.138-4.235-7.033-12.996 13.908-23.648 15.766-.916.159-6.035-3.27-7.883 0 1.516 4.445 2.61 2.068 1.314 7.883 2.905-1.037 3.288-4.596 5.255-6.569 2.055.88-1.01 7.644-2.627 9.197 5.561 1.182 1.336-7.422 6.569-6.569-1.824 1.679-.804 6.203-2.627 7.882 4.462.365 6.306-13.895 9.197-6.569 2.901-.164.558-5.573 1.313-7.883 1.527.213 2.338-.29 2.628-1.313 3.356.146 2.607 4.399 2.627 7.883 2.227-2.589 1.775-7.86 6.569-7.883v-9.197c3.15 2.982 6.108 6.153 5.255 13.138 1.427-.325.891-2.612 2.627-2.628V83.045c2.514-9.335 1.526 13.929 1.314 11.824.223 2.21 5.03 6.407 2.627 9.196 6.178-4.203-1.439-14.377 3.941-19.707 6.141 5.433-4.296 19.296 6.569 19.707-2.13 8.907-7.496 16.148-3.941 19.707-.407 1.783-3.29 1.09-5.255 1.314-.719 1.909 1.535 6.79-1.314 6.569.854 1.337 3.021 1.358 2.627 3.941-2.679-2.639-2.576.58-5.255 1.313.297 1.893 3.921.458 3.941 2.628 1.324 3.952-2.927 2.327-5.255 2.627.957 2.984 3.954 3.93 6.569 5.255-1.433 4.255-8.484-3.534-10.51 1.313 2.287.051 5.919 3.859 13.138 2.627-7.26 4.065-10.61-.604-18.393 1.314v-6.569c-3.833 6.859 4.114 18.425 0 22.334-2.562-.19-4.459 3.678-9.196 1.314 3.012 7.698.085 13.181 3.941 19.707 7.816-3.719 7.218 3.768 9.196 9.197 3.509-3.626 2.855 1.551 6.569 1.313.978 4.044-3.606 2.525-2.628 6.569 2.945 3.004 2.63-8.342 5.255 0 3.513.39-3.492-5.098 2.627-3.941-2.473 2.317 1.796 4.068-2.627 5.255.198 2.43 4.449.806 5.255 2.628 1.156 4.221-4.331 1.8-3.941 5.255 4.018.952 3.864-2.266 7.882-1.313-3.579 2.207 3.645 7.713-3.941 6.569 7.144 1.313 7.209 3.125 13.138 3.941-1.785 4.657-2.13 2.595-2.627 7.883 2.803.613 2.502-1.877 2.627-3.941 2.776 4.508 4.554 1.847 6.569 6.569 1.813-1.69.35-2.717 0-6.569 5.299.394 2.32 9.065 7.883 9.196.022 1.923-5.541 4.165 0 3.941-5.97 1.56 4.793 5.274-3.941 5.255.297 1.892 3.921.458 3.941 2.627 3.821-1.142 1.478-1.967 1.314-5.255 5.237-.419 9.707-.072 11.824 2.628 4.355-.024 1.333-7.425 3.941-9.197 3.436-1.536 5.651 4.054 5.255-1.314 2.866-.238 4.18 1.075 3.941 3.941 2.063-.564 1.123-4.132 5.255-2.627-3.222-1.75 2.368-3.964-1.314-5.255 7.158-.544 3.383-6.931 9.196-6.569-.582-1.17-1.153-2.35-2.627-2.627 4.739-3.374 14.022-4.734 21.021-6.569-.052-4.329-6.492-2.267-5.255-7.883 2.235.482 2.479-1.024 2.627-2.627 1.325 4.854 11.966 5.753 10.51 9.196h14.452c-.405-5.205-4.562 1.469-3.941-3.941 5.382 2.355 4.524-8.924 5.255 0 2.618-2.881 1.984-5.006 10.51-3.941 1.248 8.825 11.639 8.506 13.138 17.08 5.284-.905 7.5 1.258 11.824 1.313-.864 1.763-2.809 2.447-5.255 2.628 2.596.996 7.382 6.512 10.511 2.627.647-3.314-6.52 3.664-5.256-2.627 5.028-.21 10.418-.784 10.511 3.941 2.26-.406-1.706-4.562 3.942-3.941.22-2.849-4.661-.596-6.57-1.314-1.484-2.253 22.442-1.882 7.883-3.941-4.217-1.912 11.228-.885 2.628-3.941 1.896-3.621 12.692 1.666 7.883-5.255 9.248-1.364 10.976-.672 17.078 2.627.5-5.339 3.579-13.366-2.626-14.452 4.177-.639 2.125-7.508 7.882-6.569-1.882 3.921 1.075 4.468-1.313 7.883 3.401 1.417 3.07 6.564 9.196 5.255-6.376-3.97 2.69-9.231-1.313-14.452 2.429-4.013 6.241 1.517 10.51 0-2.605.898.82 7.826-3.941 6.569.267 1.763 5.457 2.447 0 2.627.251 1.065 1.318 1.31 1.314 2.628 9.312-4.199 6.823-18.807 3.941-22.334.298-1.893 3.921-.458 3.94-2.628-2.783-5.789-6.184 3.957-7.874-3.939zM77.514 110.635c-.936-3.276 5.782-5.398 1.313-7.882-.942 1.398-5.129 6.05-1.313 7.882zM52.552 181.58c-.224 1.966.469 4.849-1.313 5.255-.408-3.972 1.458-10.218-2.628-10.51 1.028 2.66-.756 17.957 3.941 11.824 1.648 5.15 1.004 4.069-1.313 5.255.801.075 1.555.196 1.313 1.314.075.8.196 1.555 1.314 1.313.018-7.046 6.481 5.195 7.883-2.627-7.885.877-5.097-8.917-9.197-11.824zm240.424-18.393c.586-2.584 4.874-8.124 1.314-10.51-1.876 1.293-4.73 8.268-1.314 10.51zm-3.941 51.238c.404-3.098 4.562-2.444 3.941-6.569h-3.941c1.709 3.262-3.855 5.453 0 6.569zm-152.4 103.789c4.968-1.901 2.521 3.61 6.569 2.628.125-2.064-.176-4.555 2.627-3.941 1.256 2.446-3.935 4.391 0 5.255 1.128-4.833 8.217.62 9.197 3.941 11.168-3.693 12.656 4.747 21.021 1.314-1.474-.279-2.045-1.458-2.627-2.628 8.239-.604 9.6-1.492 19.707-1.313.035-5.656 6.283-5.138 1.314-9.197 10.032 1.453 4.807 2.727 13.138 6.569 16.451-1.187 19.25-5.723 23.648-14.452-1.021-.295-2.592-.036-2.628-1.314 3.142-5.051 6.744-10.541 0-18.393.512-1.875 1.577-2.216 0-3.941 4.192.78 4.063-2.466 6.569 0 1.347-3.033 1.767-6.992 6.568-6.569 4.453-22.412-15.146-23.991-18.393-36.786-5.065.121-6.626-13.546-11.824-14.452-4.693 6.837-2.159 16.114-14.452 17.079v5.255c3.307.536 6.035 4.496 3.941 6.569 18.362 1.604 15.68 8.065 30.218 13.138-1.505 4.133 2.062 3.192 2.627 5.255-5.508-.989 1.783 5.019-3.94 5.255-8.821-4.2-15.968-.657-21.021-1.313-8.395-1.091-20.67-6.538-24.962 2.627 12.416 1.198 23.611-2.492 31.531 1.314-5.391 2.674-.233 7.174-1.314 9.196-8.12 15.191-29.865 6.646-49.924 11.824-3.333-4.111-7.498-7.393-10.51-11.824h11.824c-4.201 4.357 5.658 2.062 9.196 2.628-.419-3.046.211-5.045 1.314-6.569-3.605.193-6.773.244-3.941-2.627-4.252-.566-11.363 1.729-11.824-2.627 6.31-1.873 16.219-1.104 22.334 0 .419-3.046-.211-5.045-1.313-6.569-15.15 1.196-25.369-.422-40.728 9.196-11.333-14.399 10.92-25.48 21.021-23.648.057-1.809-.619-2.884-1.314-3.941 4.47-.09 9.168-.41 10.51 2.627-2.332 5.845-11.048 1.861-14.452 3.941 4.409 3.651-7.885 1.662-5.255 7.883 2.484-.295 2.898 1.48 5.255 1.313 9.062-7.642 19.525-6.761 26.276-2.627 3.992-7.957 20.084 2.858 23.648-6.569-13.292-1.87-12.738 2.758-22.334-2.627-1.084 4.165-10.429 4.833-11.824 1.313 1.38-5.217 7.431-10.958 2.627-14.452-2.626 3.562-.171 6.069-6.569 3.941-.393 2.583 1.774 2.604 2.627 3.941-2.309-.756-7.719 1.588-7.882-1.314 5.247 1.287 2.517-4.075 5.255-7.883-1.505 2.696 2.063 6.264 2.627 2.628-2.957-.547.197-7.204-3.941-6.569-3.145 4.451-7.151-5.692-10.511-1.313-.201-4.179-2.979-5.78-2.627-10.51-1.965.223-4.849-.47-5.255 1.313 1.784 11.096-14.036 22.602-13.138 32.845-5.356-.976-4.524 4.234-10.51 2.628 1.196 3.64 2.129 8.803-1.314 3.941-.35 3.852-1.813 4.879 0 6.569 1.629-2.402 5.071 2.27 2.627 5.255 4.844.739 3.349 2.594 9.197 3.941-1.02.295-2.592.036-2.627 1.314.806 1.822 5.058.198 5.255 2.627-7.192 1.201 2.891.452 2.628 2.628-5.457.181-.266.865 0 2.627-8.095-1.142.853 3.208-2.628 3.941-.796-.757-6.231-3.074-6.569 0 5.734-.03.222 2.263-2.627 1.314 1.211 6.292.352 4.978 1.313 13.138 8.324-.342 6.388 3.219 6.569 5.257zM86.71 268.29c-.801-.074-1.555-.196-1.314-1.314 2.17-.021.735-3.644 2.628-3.941h6.569c.561 12.053 21.831 6.189 18.393 18.393 3.356-.146 4.598-2.408 6.569-3.941-.233-5.382-10.51-9.019-5.255-11.824-1.909-.719-6.791 1.534-6.569-1.314.016-1.737 2.303-1.201 2.628-2.627-2.458.07-2.782-1.011-1.314-2.627-6.712.144-13.824.685-17.079-2.628-.057 1.809.618 2.884 1.313 3.941-3.775-1.834-6.674 3.581-7.883 0 2.933-.571 4.685-2.322 5.255-5.255-9.577.133-14.057-13.531-13.138-17.08-3.279-.662-4.388-3.495-7.883-3.941v2.627c-.801.075-1.555.196-1.314 1.314 3.592 5.239 4.244 18.063 3.941 24.962 2.26.519 3.368-1.95 3.941 0-1.474.277-2.045 1.458-2.627 2.628 2.446 1.256 4.391-3.935 5.255 0-.806 1.822-5.058.197-5.255 2.627 8.174 4.401 2.975 8.078 9.196 14.452 4.195-.185 4.345-4.414 7.883-5.255-3.356-.146-4.598-2.408-6.569-3.941 3.288.164 4.113 2.507 5.255-1.314-1.965-.223-4.848.47-5.255-1.314 4.068-.312 5.103-3.656 7.883-5.255-4.131-1.505-3.191 2.063-5.254 2.627zm-2.627 18.393h3.941c2.907-1.891-1.654-3.205 1.313-3.941.801-.074 1.555-.196 1.314-1.314-3.199.741-6.757 1.124-6.568 5.255zm172.107-35.472c3.175 3.052-2.052 3.517-2.628 6.569 1.553.636 2.978 1.401 3.942 2.627-1.554.636-2.979 1.401-3.942 2.627 3.585.118 2.645-2.188 5.256 0 1.814-5.319-2.853-4.154-2.628-7.882 2.608 2.725 3.005-1.401 5.255-2.628-4.105.403 3.34-3.795-1.314-3.941.215 6.779-6.684-.045-3.941 2.628zM95.907 274.859c3.404 2.733 4.884-2.929 9.196 0 1.076-4.761-9.916-3.175-9.196 0zm2.628 3.941v5.255c4.559-1.147 4.507 2.022 2.627 3.941 4.538 1.034 5.779-1.228 6.569-3.941-3.343-.161-5.095-1.912-5.255-5.255 1.974-2.545 5.532 2.297 6.569-2.627-4.814-.434-7.3 1.458-10.51 2.627zm-10.511 28.904c6.995 2.054 20.142 1.588 22.334-5.255-4.426-.452-19.79-.547-22.334 5.255zm52.552 27.589c-3.296 2.315-.923 2.171-2.628 5.256 4.102-3.216 6.021 6.604 11.824 0-1.909-.719-6.79 1.535-6.569-1.314 1.892-.734 3.206-2.049 3.941-3.941-2.484-.293-2.899 1.481-5.255 1.314 1.206-5.057-5.8-8.925-10.51-6.569 5.158 1.949.252 2.044-1.314 3.941 3.662 3.212 7.995-1.86 10.511 1.313zm74.886 6.569h7.883c-2.042-4.146 1.595-7.835-2.628-7.883-.424 3.537-.269 6.325-5.255 7.883zm-64.376-1.313c3.775-.272 6.674.333 7.883 2.627-1.966.225-4.849-.469-5.255 1.314 4.65 2.124 6.53 4.883 10.51 1.313.512 1.875 1.577 2.216 0 3.941h5.255c-2.546-4.842 6.889-3.09 5.255-5.255-9.839-.517-16.513-9.394-23.648-3.94zm24.962 2.627c2.543 1.398 3.433 4.45 5.255 6.569 4.815-8.153 11.838-.224 14.452-6.569-2.447-.181-4.391-.864-5.255-2.627 8.167-1.435 7.416 3.128 10.51 3.941 1.851-6.607 12.253 1.918 13.138-3.941-12.262-3.748-27.968-.084-38.1 2.627zm-15.765 14.452c-6.881-.454-19.326-2.57-15.766 5.255 1.002-7.989 15.116-1.612 15.766-5.255zm22.334 3.941c5.738 3.383 26.599-.339 7.883 0-3.408-.993-8.69-4.062-11.824-1.313-3.387.316 1.804 2.261 0 5.255 5.41.621-1.264-3.536 3.941-3.942zm-31.531 3.942c7.378-.504 13.741-2.023 22.334-1.313-3.418-6.573-13.005.135-21.021-2.628 4.843 3.119-7.47-1.806-2.627 1.313 1.024.29 1.528 1.099 1.314 2.628z"/><path fill-rule="evenodd" clip-rule="evenodd" d="M248.307 169.756c-5.475 24.431-39.116 6.73-60.435-7.883.14-17.639-1.429-22.576 10.51-36.786 1.528 1.65 8.573 3.004 6.569-2.628 1.54.213 1.108 2.396 1.313 3.941 1.54-.213 1.109-2.396 1.314-3.941 2.79 6.282 16.863-3.897 18.393 5.255 31.854-10.377 44.22 20.838 49.925 42.042-15.424 4.208-11.901-.963-27.589 0zm-3.941-27.59c1.492-5.509-6.408-8.382-9.196-5.255 4.066.75 2.602 7.03 9.196 5.255zm-27.59 14.452c6.808-3.495 14.953-2.355 22.335 0-1.875-12.276-18.071-6.301-22.335 0zm23.649 11.824c-7.534 7.586-20.206-3.704-28.904 1.314 4.074.061 28.855 6.83 28.904-1.314zM169.479 163.187c.221 2.849-4.66.596-6.569 1.314.854 1.337 3.021 1.359 2.627 3.941-6.897-3.377-12.08 5.105-15.766 9.196-2.866.239-4.18-1.075-3.941-3.941-1.756 1.656-2.58 3.949-5.255 1.313-2.04 5.542 7.294-.287 5.255 5.255-9.785.475-17.649 5.363-30.217 2.627-.982-4.048 4.53-1.601 2.628-6.569-2.281 3.263-3.396 2.147-1.314-1.314-3.505.754-8.963-2.869-15.766-2.627-2.405-8.106-11.022-9.999-15.766-15.766.407-1.783 3.29-1.09 5.255-1.314-.574-1.616-1.681-2.698-3.941-2.627 1.143-3.821 1.967-1.478 5.255-1.314.167-2.356-1.608-2.771-1.314-5.255 6.761.977-.166-4.234 7.883-2.627-.854-1.337-3.021-1.359-2.627-3.941 4.554-.701 12.461 1.951 13.138-2.628-.212-1.54-2.396-1.108-3.941-1.313 7.049-13.115 24.058-5.709 34.159-11.824 1.785 3.033 3.265 6.369 9.196 5.255 3.387-.316-1.804-2.261 0-5.255 3.064-1.124 5.661 4.594 6.569 1.314 10.278 5.498 22.395 25.531 14.452 38.1zm-49.924-26.276c4.044-.92 2.525-.92 6.569 0-.206-1.546.226-3.728-1.313-3.941.418 3.484-7.36-1.23-5.256 3.941zm-1.313 22.334c6.755-2.441 11.817-6.577 22.334-5.255-3.705-10.71-21.91-3.289-22.334 5.255zm30.216 10.511c-6.735.174-22.054.941-31.531 0 11.156 3.926 22.074 6.63 31.531 0zM286.408 186.835c1.142-1.982 1.966.362 5.254-1.314v3.941c-1.507-3.215-6.684 1.962-1.313 1.314 4.251 1.513-3.527 1.487-5.255 1.313-1.739-3.291 6.115-3.189 1.314-5.254zM394.138 435.142c-5.873 27.409-22.281 44.284-39.414 60.435-6.9 29.251-24.863 50.86-43.355 72.259-18.244 21.112-48.612 49.048-73.572 55.179-12.815 3.148-27.338.262-40.728 1.314.036-1.278 1.607-1.021 2.628-1.314-14.226-1.156-47.3 1.008-55.18-6.568-1.652.324-1.325 2.611 0 2.627-26.962 1.981-59.555 6.771-77.514-5.255-11.593-7.764-21.233-25.927-32.845-42.041-14.144-19.63-26.256-33.382-30.217-55.18 10.469 30.259 31.972 49.482 45.983 76.2 11.086 2.73 8.028 11.486 19.707 13.138-.984 2.481-3.922.912-1.314 3.941 6.212-2.393 16.606 2.375 27.59 2.628-.146 2.481-4.344.912-3.941 3.941 43.416-4.202 86.381.35 123.497 3.941-4.011-2.735-9.977 2.345-14.452-1.314 5.891 6.169 20.161 2.075 22.335 0-.534-4.437-5.094 3.496-3.941-2.627 8.025.144 12.611-3.155 19.707-3.941-1.577 1.726-.513 2.066 0 3.941 1.981-1.143-.362-1.967 1.314-5.256 50.917-24.276 99.624-75.77 112.985-126.124 2.315-2.13 9.081-6.596 7.882-7.883 16.228-3.652 20.736-29.936 32.845-42.041zM0 499.518c3.969 3.039 3.513 10.5 5.255 15.766-4.39-2.617-2.84-11.175-5.255-15.766z"/></svg>