<!DOCTYPE svg PUBLIC "-//W3C//DTD SVG 1.1//EN" "http://www.w3.org/Graphics/SVG/1.1/DTD/svg11.dtd" [
	<!ENTITY ns_flows "http://ns.adobe.com/Flows/1.0/">
]><svg xmlns="http://www.w3.org/2000/svg" width="640" height="640" viewBox="-66.027 -15.731 640 640"><path fill-rule="evenodd" clip-rule="evenodd" d="M288.096 0c.145 4.343-2.651 3.206 0 6.368 1.622-1.036 1.648-3.66 4.777-3.184-.443 4.159-.541 7.967 4.776 6.368-5.815 6.674-14.753-2.593-20.695-1.592 1.957-4.409 7.139-5.597 11.142-7.96zM240.339 1.592c3.405 2.487-2.992 8.575-6.368 9.551-1.349-6.655 4.31-6.302 6.368-9.551zM230.788 12.735c15.501 2.13 14.581 12.911 23.878 19.103-9.317 3.299-19.745 2.578-33.43 1.592-2.492-9.847 3.213-5.979 3.184-17.511 2.965-.219 5.321-1.046 6.368-3.184zM127.314 17.511c-3.27 1.505-1.35 8.202-6.368 7.959-.413-5.189 1.889-7.661 6.368-7.959zM315.157 35.022c3.518.199.677 6.753 1.594 9.551-7.412.555-4.371-7.476-1.594-9.551zM98.66 49.349c1.047-4.768 3.402 1.521 6.368 0-1.43 2.813-3.844 4.646-4.776 7.959-5.431-.662 2.406-8.728-1.592-7.959zM214.869 52.533c6.71-4 .626 18.433 4.775 22.287-8.418-4.088-.415-15.795-4.775-22.287zM146.417 66.86c.415 4.659-3.599 4.891-3.184 9.551-5.701-.972-2.116-10.181 3.184-9.551zM397.936 76.411c3.194 2.646 7.4 4.275 7.96 9.55-3.191-2.644-7.401-4.272-7.96-9.55zM296.056 81.187c8.27 1.454-1.971 7.448 0 12.733-4.71-2.787.92-8.48 0-12.733zM388.388 92.33c1.267 6.222 7.068 14.399 4.775 19.103-3.575-4.76-6.529-13.707-4.775-19.103zM334.26 103.474c2.584 4.317 2.052 11.745 3.187 17.511-3.44-3.139-6.825-12.316-3.187-17.511zM409.082 141.678c8.997 2.713 1.524 12.989 12.733 14.329.485 7.381-.017 13.781-3.185 17.509-3.76-10.074-13.563-18.837-9.548-31.838zM439.327 141.678c13.656.821 4.772 16.101 20.695 15.919-.918 2.801 1.924 9.354-1.593 9.553-7.874-.549 1.324-4.179 0-7.96-5.637-.862-3.914 5.639-9.55 4.776-2.138-8.477-7.299-13.927-9.552-22.288zM348.589 151.23c9.892 26.192 24.311 47.857 47.758 60.493 2.639-10.624-10.665-19.033-11.143-31.838 5.397-4.542 2.572 3.472 3.184 4.776 3.71 7.952 13.909 20.191 11.142 28.653 2.546 2.762 7.167 3.448 12.735 3.185-4.581 14.015 21.684 13.068 12.736 31.838-6.06-7.741-13.4-14.195-17.512-23.879-19.984 3.374-37.334-7.802-49.352-17.511-6.006-19.154-1.961-38.512-9.548-55.717zM409.082 194.212c5.216 8.047 16.319 10.209 19.102 20.695-14.018.751-15.103-11.429-19.102-20.695zM154.376 235.602c-18.358 3.945-31.739-16.252-36.613-25.471 14.007-1.945 27.093 13.674 36.613 25.471zM179.846 214.907c7.374.123.347 7.213 1.593 11.144-3.56-.687-.645-7.845-1.593-11.144zM358.138 227.642c16.712 13.006 41.819 17.613 63.678 25.469.496 5.998 7.356 18.873-6.366 23.878-10.343-7.093-13.07-17.85-27.062-22.285-16.154-5.122-32.018-4.074-30.25-27.062zM178.255 230.826c4.286 8.981 11.972 14.559 15.919 23.878-9.659 2.805-19.357-13.728-15.919-23.878zM367.691 256.296c9.859 4.996 21.865 7.851 23.878 20.693-2.091-.561-2.503-2.801-4.775-3.182.719 6.771 9.81 11.661 6.369 17.511 8.04 14.038 22.397-1.348 33.428-3.184 1.154 4.867-2.745 4.681-1.59 9.551-4.484-12.267-13.971 11.216-7.958 19.101-7.596 3.553-8.152 14.14-17.514 15.919 4.356-7.313 7.361-15.988 6.366-28.652-7.859 2.222-13.568 6.593-25.469 4.774-3.116-18.636-6.791-36.716-12.735-52.531zM404.306 337.483c4.412 3.493-5.045 6.525-4.776 11.142.563 2.092 2.802 2.504 3.183 4.777 1.622-1.033 1.648-3.66 4.777-3.184-1.797 8.286-8.539 11.625-11.143 19.104 5.584 5.91 15.104.003 17.509-6.366 6.939 5.806-1.229 11.745 0 23.878-7.086 4.058-10.634 11.652-22.286 11.142 1.337-3.967 2.084-8.529 1.594-14.328-1.488 1.169-2.413 2.895-3.187 4.775-2.457-4.547-1.426-9.603 0-14.325.633-3.816-7.249.883-4.772-4.775-1.283.842-2.585 1.658-4.777 1.593 1.034 1.617 3.661 1.644 3.184 4.772-3.96.175-4.928 2.985-7.96 0 3.614-6.241 2.366-8.562 7.96-11.143-.685-3.032-3.428-3.999-3.184-7.96 4.065-.835 5.57-2.109 7.961 1.594a22.448 22.448 0 0 0 7.959-7.96c-11.634-2.879-18.679 3.296-28.655 7.96v-6.369c13.088-5.17 27.626-2.991 36.613-14.327zM270.583 405.935c-13.049 4.415-25.613-18.85-31.836-31.838-4.923-3.592-16.267-17.244-19.104-22.288 21.924 2.433 37.714 38.681 50.94 54.126zM425.001 391.606c.062 10.784-21.71 24.722-36.613 15.919 13.707-3.801 31.203-3.813 36.613-15.919zM426.591 407.526c3.854 5.001-7.306 8.55-6.365 15.919-10.836-5.858-12.623 22.93-30.249 20.694 1.186-11.795-2.573-18.647-1.589-30.245 13.959 5.446 30.71 3.067 38.203-6.368z"/><path fill-rule="evenodd" clip-rule="evenodd" d="M1.554 487.121c30.653-7.553 57.148-19.262 93.922-20.691-2.573-21.812-10.466-41.477-14.327-60.494-3.475-17.111 1.15-32.673-3.183-44.573-5.848-16.056-28.218-24.197-23.878-54.125 1.395-5.11-4.13-3.3-4.777-6.369-8.269-38.961-9.236-78.019-25.47-106.656-.223-29.864-2.598-74.457 19.103-84.373v-6.366h6.367c-1.364-5.079 2.505-4.923 3.183-7.959-2.806-2.949-4.928.409-6.366 3.184-2.08-4.79 6.454-12.606 14.325-12.737-1.883 3.955-2.305 9.371-3.183 14.329 5.414-5.729 8.586-13.7 12.736-20.694 2.417 6.179-5.996 15.194-6.369 23.878 11.003-8.1 16.735-21.471 23.879-33.432 4.129 5.094-4.18 6.402 1.592 11.145-5.007-1.825-3.87 2.5-6.368 3.184 1.208 1.617 12.716.072 12.735-4.775 12.427 20.559-18.252 33.173-22.287 52.533.303 1.29 1.597 1.587 1.591 3.184 24.041-.902 16.099-33.781 31.839-42.981-.585 2.708 1.241 3.003 3.185 3.184-11.764 5.363-14.856 27.396-12.736 41.389 16.821-8.343 14.534-31.125 25.47-47.757.768 9.578-.486 29.988 3.185 41.389 4.148-17.605 9.999-33.514 14.326-50.94 6.221 6.775.455 16.921-3.183 22.285 4.93 6.377-.037 18.122 3.183 28.656 3.664-3.768.571-14.287 1.594-20.696 5.818 4.796 2.639 18.588 12.734 19.104 4.379-4.11 3.84-13.143 4.775-20.694 11.611 4.308 9.74 22.098 15.919 31.838 3.061-6.256-7.975-28.46 3.184-33.43-4.77 23.569 5.607 35.576 22.287 47.757.925-4.16-5.362-14.763-3.183-25.471 7.144 8.774 14.11 17.727 22.285 25.471 4.31-3.902-4.856-7.789-3.183-14.327 2.924 2.381 3.968 6.643 7.959 7.959 9.024-14.979 2.089-45.144 9.551-60.492-3.5 8.636-.745 20.959 7.959 22.285-2.742 3.097-6.529 5.146-4.774 12.737 3.451.267.72-5.648 1.591-7.96 5.793 29.859 16.66 71.289 50.942 62.084-11.745-5.237-24.26-9.704-30.248-20.695 7.054-.606-3.946-13.281-1.592-23.878 5.652 3.369 4.017 14.025 9.551 17.509 2.262.138 4.509.264 4.776-1.59 13.412 19.265 39.549 23.849 63.677 28.654-.394 1.727-3.163 1.079-3.183 3.184 14.736 6.076 26.676 29.027 12.735 38.206 7.715-13.491-5.636-29.347-17.514-33.43 7.723 8.881 20.343 20.838 15.92 36.612-3.96.247-4.928-2.5-7.959-3.183.159 4.935-.724 8.83-3.183 11.142-10.39-12.25-14.719-26.545-31.84-30.245-18.01-3.891-41.5 2.958-55.716-7.959-2.021-12.424-13.863-19.134-23.879-19.103-11.272.036-24.582 11.033-36.614 11.144-9.669.088-21.797-14.539-33.43-6.368-11.157-8.394-26.625-6.504-31.838 6.368 1.279 4.026 6.553 4.061 9.551 6.366-9.697 5.516-24.53-3.726-31.838 3.186-5.616 9.876-9.92 15.429-20.695 22.287-.202-2.856 1.948-3.358 1.593-6.368-5.702-.926-4.84 4.71-4.776 9.551.561 2.231 2.802.139 3.183-1.592.352 12.535 11.582 23.386 22.287 15.919.532 3.714 1.632 6.857 4.776 7.959 4.768-1.047-1.523-3.403 0-6.368 14.162 6.812 31.268 18.231 49.349 15.919.585 2.707-1.242 3.003-3.183 3.182 7.84 1.267 25.081 4.026 23.878-11.142 7.862 19.713-3.409 44.316-6.369 66.858-.889 6.777 1.196 15.6 0 20.696-4.066 17.337-34.684 48.001 1.592 52.532 9.559 25.065 41.56-.023 58.899 1.591-8.968 15.837-38.045 18.721-38.204 38.207-5.025.777-5.622-2.868-11.144-1.594-4.553.223-2.912 6.644-3.184 11.144 17.091 12.184 43.722 5.838 66.86 12.735 2.156-1.558 2.063-5.366 4.776-6.366 13.687 3.293 19.68 14.284 23.876 27.062-24.539-16.712-65.191-12.927-97.103-11.144-4.438 3.37-1.104 4.622-3.185 9.55 13.359 8.491 34.735 2.148 52.533 7.96-2.197 6.843-5.509 5.34-3.185 14.328-8.506 3.366-16.09-4.122-25.47-4.775-11.048 9.654-28.014 5.001-46.166 6.366-5.812 18.725 9.592 22.013 14.328 33.432 2.161-.494 1.321-3.988 1.591-6.366 2.415 4.48 6.506 7.291 6.369 14.325 14.152 5.192 24.589 10.183 31.838-4.777 18.668 4.493 22.724 20.801 46.165 12.737 20.594-7.086 51.962-26.938 62.083-42.981 27.75.155 33.51-21.679 44.573-38.207 7.117.474 8.229-4.147 14.331-7.96-17.209 39.102-53.362 65.744-74.823 95.515 6.171 6.299.16 10.819-1.589 17.512-10.84 3.949-23.91-2.945-35.023 1.594-10.389 4.239-9.417 16.326-20.693 20.691.771 10.715.361 18.923 6.366 27.065 6.244-.124 15.196 3.563 20.696 3.183 3.365 3.832-5.313 5.274-6.368 9.55-32.371 1.061-68.979-2.119-98.698 1.594H70.002c-3.037-4.392-16.536 1.674-17.513-4.777v4.777h-25.47c.268-3.451-5.646-.724-7.959-1.594-.308-7.12-1.731-13.125-6.368-15.921 1.319 5.715-3.589 7.705 0 11.148-4.982-.738-7.104 1.384-6.366 6.366-.238-.199-1.428.244-1.593 0-11.434-17.032 2.136-111.764-3.179-136.906zm39.797-374.096c-6.997-.085-9.6 11.885-4.776 14.327 1.02-5.123 9.02-8.923 4.776-14.327zm14.327 4.774c-2.652-3.161.145-2.023 0-6.366-5.11 1.324-3.301 1.355-6.368-1.594-4.129 5.954-3.88 16.285-6.367 23.879 6.733-1.225 3.268-12.65 12.735-11.142-4.129 4.989-1.051 7.344-6.368 11.142 9.755 4.925 4.872-9.771 12.736-7.959.355-3.01-1.795-3.51-1.594-6.366 6.496-4.648 16.299-5.987 15.919-17.513-11.295.91-14.27 10.141-20.693 15.919zm4.775 95.514c10.167-4.16 10.688-17.966 12.736-30.244-8.364-1.465-6.518 7.28-12.736 7.959.28-7.908 6.075-15.927-1.591-19.103-8.327 6.654-10.094 36.681 1.591 41.388zm90.739 79.595c-2.7-3.874-15.482-3.656-11.144-9.55-12.753 5.975-11.665.529-23.878 7.959 2.382.272 5.876-.567 6.368 1.59-7.412 1.054-11.325-7.167-15.919 0 4.683 4.77 6.024 4.361 12.735 1.594 1.335 1.847 2.099 4.267 1.592 7.959-9.137 1.073-10.066 7.078-12.736 11.144-10.424-2.313-14.78-10.689-22.285-15.919-5.579 7.806-7.804 17.725-7.959 27.061 6.302 22.044 25.68 23.914 38.204 41.391 6.079.77 10.162-.45 12.736-3.182 1.522-2.967-4.766-5.321 0-6.371.181 1.943.476 3.77 3.183 3.184-1.627-4.477-1.807-6.782 4.776-6.366-3.639-17.455 6.279-29.782 6.368-38.204-.381 1.729-2.621 3.82-3.185 1.589 2.175-9.5 11.724-11.623 11.144-23.879zM14.29 603.33c-2.056-4.314.189-19.832-3.185-20.696.519 6.219-6.33 20.003 3.185 20.696zm7.959-3.183c.313-4.56.197-8.687-4.776-7.959.185 4.061.299 8.187 4.776 7.959zM175.071 50.941c3.786.468-1.77 4.308-3.185 4.775 1.182 5.718 10.219 3.576 14.328 6.366-1.466 4.34-4.977-2.223-9.551 0 7.471 4.505-8.062 5.828-12.736 7.959 3.21-6.808 3.107-14.228 11.144-19.1zM276.954 79.595c7.53-2.021 6.518-12.584 11.142-17.513 2.367 1.35 2.305 5.127 3.184 7.959-11.582 4.423-11.726 32.682-1.59 36.615-10.26 3.017-11.345-15.995-12.736-27.061z"/><path fill-rule="evenodd" clip-rule="evenodd" d="M289.689 117.799c4.695 2.2 6.444 7.353 11.142 9.553-.407 3.727-6.995.917-7.958 0-5.523 15.324 6.377 26.335 14.325 33.43-10.416-2.32-26.556-26.101-17.509-42.983zM429.773 197.394c8.277.215 10.883 6.102 20.696 4.777-.696 5.472.629 8.923 1.593 12.735-7.797-1.427-7.479 5.258-15.919 3.184-6.338-5.837-1.823-15.497-6.37-20.696zm9.554 14.329c3.695-.549 7.462-1.031 6.365-6.369-5.029 2.195-9.607-3.938-11.142 0 1.213 2.503 5.052 2.378 4.777 6.369zM198.95 203.763c.694-2.363 2.037.627 4.775 0v9.55c-3.432-1.341-1.343-8.205-4.775-9.55zM439.327 294.502c6.062 3.874 5.938-12.056 12.735-12.735.262 11.406-8.666 13.62-12.735 20.695.388-.067-2.483-11.92-4.776-3.184-5.589-14.735 2.521-35.753 3.183-60.493 4.943.164 4.542-5.009 11.146-3.184 1.624-8.231.021-9.792 0-19.103 5.662.25 6.972 8.252 11.143 1.592 4.08 3.164-4.038 7.531-6.37 9.552-1.187 4.9 4.373 3.06 3.187 7.959-1.282-.843-2.584-1.66-4.776-1.592-1.099 8.906 6.705-.978 6.367 6.368-6.076-.236-7.664 4.007-12.737 4.774.902 3.314 4.552 5.146 1.594 7.959h6.366c.312 8.799-4.386 12.597-3.183 22.288-3.28-.854-.378-7.53-4.777-3.184-4.132 8.963-2.329 14.414-6.367 22.288zM339.036 288.134c-6.401 2.256-11.729-.468-20.695 0-10.695-13.182-19.157-28.598-42.98-28.654 10.567 8.654 34.659 11.877 33.432 27.062-11.189-9.113-26.564-24.402-44.574-12.735.618 6.274 1.131 4.867 3.183 11.142-6.156-1.404-4.994 5.706-11.143 7.959 2.97-3.143-10.188-3.164-9.551-12.733-3.698.466-7.459 4-6.368-3.186-7.106 4.325-23.055-6.594-33.43 3.186-2.99-8.684-1.208-22.139-9.551-25.471 11.465-6.087-4.217-23.205 3.183-35.021 2.806 21.632 5.589 37.828 30.246 39.797 1.096-4.281-3.291-3.077-4.776-4.776 23.616-.538 50.25-4.878 68.45-11.143 16.669 10.581 33.413 12.967 46.168 25.469-7.435 4.962-7.741 17.058-1.594 19.104zM396.347 447.323c.532 5.348-2.208 21.111-9.553 23.879-.276-9.892 1.787-12.31 0-20.691 4.573.325 8.087-.405 9.553-3.188zM460.022 622.432h-54.127c-7.416-20.206-2.91-40.704-11.143-52.529-.479-6.506 2.203.267 6.37-1.594 3.625-17.61-18.205-20.646-23.879-22.285-2.297-17.556 2.756-40.466 6.366-57.31 20.303 1.573 28.531 9.211 52.533 15.919 1.31 12.486 6.922 20.668 17.509 23.878-.253-10.661-16.129-11.314-12.731-23.878 24.52.948 29.56 21.378 46.163 30.244v50.944c-24.69-20.948-47.43-43.84-79.595-57.311 6.73 11.243 18.236 12.624 27.062 20.695 18.963 17.339 24.691 51.906 25.472 73.227zM343.812 354.996c2.515 8.911-12.071 14.435-12.735 25.468-2.092-2.04-5.869-2.04-7.96 0 .043 1.551 1.952 1.235 3.183 1.593-1.045 2.138-3.4 2.967-6.365 3.185 5.224-5.415-4.381-4.976-7.96-6.366-.337-11.432 11.329-7.832 15.918-19.106.035 3.75-2.743 4.688-1.593 9.554 4.54-1.299 9.113-2.562 7.96-9.554 2.044-2.734 9.521-.033 9.552-4.774z"/></svg>