<!DOCTYPE svg PUBLIC "-//W3C//DTD SVG 1.1//EN" "http://www.w3.org/Graphics/SVG/1.1/DTD/svg11.dtd" [
	<!ENTITY ns_flows "http://ns.adobe.com/Flows/1.0/">
]><svg xmlns="http://www.w3.org/2000/svg" width="640" height="640" viewBox="-68.437 0.081 640 640"><path fill-rule="evenodd" clip-rule="evenodd" d="M200.539 83.424c-2.123 4.293-10.117 2.717-12.833 6.417-3.77-3.874 5.984-7.84 12.833-6.417zM327.28 109.093c-4.865 7.972-21.574 4.097-27.273 11.23v-9.626c9.694 6.511 14.903-6.202 27.273-1.604zM317.652 123.532c1.633 1.042 1.661 3.688 4.812 3.208.005 5.352-5.217 5.478-4.812 11.23-4.953-5.809 4.019-7.695 0-14.438zM349.738 128.345c4.14 2.203.355 9.83 0 12.834-4.898-2.966 1.853-7.622 0-12.834zM107.489 152.409c-4.507-3.072 2.204-8.363 1.603-12.834 4.508 3.072-2.203 8.364-1.603 12.834zM409.099 182.891c5.466-1.188 2.646 5.911 6.418 6.417-2.682 4.616-6.496-2.978-6.418-6.417zM293.588 553.486c1.371 5.045 8.831 4.006 9.627 9.624-4.156-2.26-10.858-1.978-9.627-9.624zM324.071 588.781c.496-2.178 4.016-1.332 6.416-1.605-.262 1.867.354 2.857 1.605 3.21-1.961 4.856-6.122-1.135-8.021-1.605zM316.05 622.472c2.877-.203 3.384 1.963 6.415 1.605-.984 1.428-1.938 2.867 0 3.206-1.611 4.037-7.092-1.277-6.415-4.811zM149.2 633.702v3.208h-8.021c1.804-1.054 6.218-7.435 8.021-3.208z"/><path fill-rule="evenodd" clip-rule="evenodd" d="M393.056 641.724c1.01-4.145.979-7.704 4.812-8.021-3.669-7.479 4.312-12.789 6.419-19.252.161 1.799-2.333 2.499 0 3.209 4.627-1.254 1.787-9.976 6.415-11.23-2.828-3.02-4.967 2.193-6.415-3.21 6.723 1.911 2.863-6.761 6.415-8.021-.159 3.021 1.963 11.693 3.209 8.021-.705-7.316-4.191-11.85-6.416-17.646 2.813-.443 8.004 4.518 9.625 0-.974-2.77-7.608.123-8.021-3.208 3.956-.212 7.73-.243 9.625 1.605 2.497-5.702-5.446-.97-4.812-4.815 4.105-9.189 4.395-4.771 11.23-11.228 1.889.479 4.026 8.493 6.418 3.205-1.952-2.398-7.563-6.694-1.605-8.021.18 5.929 2.943 4.645 4.812 1.606.443 2.812-4.517 8.004 0 9.626-.607-7.696 2.781-1.363 4.814-6.416 1.889 4.96 4.026-.251 6.415 3.205-1.845 3.502-.317 10.378-4.812 11.232-.36-1.246-.044-3.165-1.604-3.21-1.857 2.376-1.857 4.045 0 6.418-10.11-3.151-12.387 14.942-9.627 22.462-1.167-2.624 3.188-6.979 3.209-3.21-3.561 5.688-6.489 7.417 0 8.021-3.783 2.356-2.984 3.388-8.021 1.604.407 4.76-6.345 7.913 0 9.627.455-7.817 34.235-19.093 25.668-35.296 8.266-1.74 3.48-13.788 11.229-16.043-2.175-7.451-3.548-15.703-4.812-24.064-24.521-30.337-61.227-53.873-86.633-85.027-4.651-5.706-11.341-13.101-12.835-19.253-3.738-15.416 3.171-35.53-8.021-49.735-5.869 26.073-22.897 42.668-43.316 56.151-7.355 4.859-16.709 6.446-22.458 11.231-6.38 5.308-1.28 6.087-3.21 11.23-1.167 3.106-11.666 7.522-4.812 11.229 1.451-2.777 5.903-4.431 6.415 0-2.491 2.322-7.486 2.139-9.625 4.813 1.872 2.408 4.632 3.921 4.812 8.021-9.996 5.413-5.304 7.306-16.043 11.229-2.494 5.703 5.449.971 4.812 4.813-.984 2.225-6.176.239-6.416 3.208 9.973-.336 5.29 5.678 0 6.416 5.112-1.367 6.09 1.4 8.021 3.21v-6.415c2.981 3.122 6.481 1.098 8.022-1.606.623 2.289 1.924 2.704 0 4.812 5.154 1.413 2.197-5.287 6.415-4.812 4.24 4.655 16.842 5.814 8.021 14.439 4.016 2.118 5.023-6.343 6.418-1.606-3.822 5.651-1.362 8.041-9.625 8.021-1.984 5.192 5.191 1.229 3.207 6.419-2.841.365-8.032-1.616-6.415 3.209 7.877-.933 1.72 4.324 6.415 8.021-8.032-4.081-4.449 11.907-12.834 8.021 2.087 9.181-.724 13.253-6.416 12.834 2.914 1.896 1.262 8.363 3.207 11.23-6.709 2.632-15.573 11.749-19.25 19.253-2.397-6.316-1.891.298-6.418 0-1.746-4.084 7.513-6.223 0-6.418-3.496 7.734-12.579 9.883-17.647 16.043-4.349-15.438-10.951-28.621-24.064-35.295 2.996 12.144-14.222 9.938-6.417 17.648-7.608 3.697-7.557-2.196-17.647-1.605.761-5.04-2-6.555-4.813-8.021-4.837 7.741-13.165-4.189-20.856 3.209 1.376-7.438-2.525-1.682-3.208-4.813-1.373-3.741 5.61-6.911 1.605-8.021-4.439-.462.492-17.289-4.813-22.46 5.896-10.842-3.386-28.494 1.604-43.318 9.118-27.082-3.172-65.482-1.604-104.28 4.697-1.441 4.93-1.441 9.625 0-21.136-35.025-19.605-77.51-22.46-128.343 6.192 1.189 8.949-4.467 16.043-6.417.747 3.069-4.945 6.906 1.605 6.417-1.551-8.498-.87-6.914 4.812-9.626-4.316-1.939-10.442-10.572-4.812-12.834-2.837-2.978-4.685.697-8.021 1.604-2.371-3.929-6.928-12.697-11.231-19.252-14.465 17.601-6.116 46.723-6.417 70.59-2.378 2.97-8.292 2.403-8.022 8.021 5.632.942 5.276-7.583 9.627-3.208 11.392 57.592 14.32 123.649 16.043 190.912-15.056 28.263-48.201 38.432-64.172 65.777-1.196 4.937 4.402 3.083 3.208 8.021-6.098-3.453-17.439 11.47-8.021 6.417-18.873 16.294-1.053 29.838-3.208 52.942H0V0h505.356v641.724h-112.3zm28.877-486.106c-7.223-45.739-61.903-92.826-101.071-104.28-33.551-9.812-74.27-10.296-109.092-6.417-49.731 5.54-102.848 54.7-113.907 89.841.359-1.244.045-3.165 1.605-3.208-4.112 10.345-12.872 24.541-9.626 36.899 4.49-7.274 6.813-16.717 12.834-22.46-5.072 8.911 5.605 5.828 8.021 8.021-.266 4.121-6.807 10.163-3.208 12.834 1.567-5.317 3.171 1.792 4.812 1.604 4.059-5.6 15.61-12.155 12.833-19.252-3.882 3.652-9.348 14.116-12.833 12.834 3.648-2.767 11.409-16.739 8.021-16.043-1.951 5.537-6.494 8.48-9.626 12.834 1.123-10.934 4.681-10.583 1.604-17.647 6.672-.28 5.961-7.943 9.625-11.23 5.617-.567 12.128 16.62 4.813 9.625 2.397 3.743-.541 6.913 1.604 8.021.384-1.742 2.642-3.853 3.209-1.604-2.193 4.803-6.799 12.197-1.605 11.23-2.151 13.906-22.635 17.989-20.857 30.482 8.844-13.616 21.733-23.188 28.878-38.503 2.051.088 2.222 2.056 4.813 1.604-.469.984-3.991 6.176 0 6.417 1.263-2.096 6.277-8.492 3.208-9.626-4.83 3.152-8.672-8.386-12.835-11.23 5.15-10.384 6.454-31.547 19.252-32.086-5.072 5.118-16.17 12.668-12.833 20.856-.021-5.368 4.062-6.634 6.417-9.626.25 1.888-.275 4.554 1.605 4.813.384-1.742 2.641-3.851 3.208-1.604-2.459 1.927-8.65 8.319-4.813 11.23 10.928-14.635 6.184-16.69 19.251-30.482-1.103 6.383-6.164 8.81-8.021 14.438 3.696 4.602 8.148 1.09 11.231 3.208.264 4.133-8.163 7.71-4.812 9.626 16.864-5.884 24.477-28.81 32.086-33.69.018 2.12 2.811 1.467 3.208 3.209-7.386 4.935-18.564 14.562-16.043 24.064 3.354-5.203 6.316-10.798 12.835-12.834.459 2.828-7.556 4.966-3.209 6.417 11.161-6.781 21.374 1.29 28.877-8.021v8.021c6.39 1.042 1.231-9.464 8.021-8.021-2.603 6.984 8.08 9.964 11.231 16.043-.043-8.065 3.122-12.92 8.021-16.043.562 7.831-3.742 9.208 3.209 14.439.564-4.782.926-9.769 4.812-11.23-.339 9.129-1.044 9.278-3.209 17.647 8.483-.073 2.538-14.575 9.627-16.043.554 4.426-4.606 11.268 0 14.439 1.847-5.191 1.815 4.308 1.604 6.417 8.622-.183 4.687-16.967 6.418-19.251 5.053 2.967 2.771 13.273 6.416 17.647 3.449-6.245-1.045-15.25 1.605-19.252 2.079 4.873 1.04 12.866 4.813 16.043 3.164-1.114-.396-8.952 3.208-9.626 4.79 22.332 1.354 1.213 1.604-6.417 5.419 5.814 2.575 19.886 9.625 24.064 4.006-8.686 5.151 4.329 11.23 3.209 1.483-2.795-.055-8.611 4.812-8.021-1.139 9.704.987 16.966 1.606 17.647-1.053-1.156 7.156-14.633 9.624-12.834-.655 3.215-3.974 11.899 0 14.439-1.146-2.601 7.565-2.601 6.419 0 .239 3.984-.83 6.659-3.209 8.021-15.072-.437-24.691-6.326-35.296-11.23-12.669 13.959-44.452-4.644-60.963-1.604-7.988 1.47-9.701.041-16.043-3.208-6.539-3.35-14.612 4.034-14.438-4.813.359 3.033-1.808 3.539-1.604 6.417 4.764-.948 15.172 4.319 9.626 12.834 3.356 2.983 6.029 4.156 8.021 4.812-5.582 17.784 12.165 21.828 12.834 33.69.339-1.8 1.78-2.497 3.208-3.208 1.955 8.333 5.107 12.17 3.208 20.856 4.968-1.607 6.231 8.539 9.626 3.209 1.931-3.142 14.344-7.204 17.647-3.209v4.813c-2.41-.448-6.755-6.898-8.021-3.208 7.157 3.378 3.839 7.548 9.625 11.23-10.967-2.708 3.854 15.628-8.021 14.439.997 22.1.772 27.63-1.604 48.129-3.061.683-2.904 4.584-8.021 3.208 1.095 8.583-6.66 8.314-6.417 16.043 10.979-.041 20.468 1.937 25.669 11.23 3.385-3.445 22.679 2.262 24.065 11.23-4.369 12.209-29.274 3.88-25.671 24.064-1.496 1.712-5.917.498-4.812 4.812 20.498 1.986 33.679 2.421 49.734 6.417-5.061-18.476-24.231-31.378-16.043-57.755 2.969 3.369 2.402 7.782 8.021 4.813 4.915 12.733 8.135 27.161 17.646 35.293-2.318 5.522-.24 18.096 4.812 12.838-1.219-2.522-5.089-2.397-4.812-6.419 8.607-2.33 11.737 1.151 12.834 4.812 5.324-4.135-5.938-7.711 1.606-9.626 2.647.023.896 4.449 3.207 4.813 11.825-19.659 26.239-23.122 33.69-44.921.331 12.629-5.412 19.188-4.812 32.086 3.766.513 6.021 2.533 11.229 1.604 9.832-20.116 26.929-32.967 32.086-57.755-6.372-1.561-.658 8.966-6.415 8.021-.246-8.8-.172-17.286 1.603-24.065-13.047-5.231-19.234 13.95-11.23 22.46-5.192 15.302-7.992 21.723-19.249 20.856-2.9-18.283 12.031-43.097 14.437-60.964-4.93-.417-7.214-3.481-11.23-4.813-1.149 6.742-5.232 4.041-6.417 0-2.026 13.538-17.322 6.778-16.042 16.043-3.987-.917-9.053-9.005-11.23-6.417 1.799.338 2.496 1.78 3.209 3.209-5.026 3.367-5.157 2.336-12.834 1.604-2.572 6.314 6.928.558 6.415 4.813-13.646 3.845-29.854-1.719-35.295-11.23-4.551-.273-3.131 5.425-9.625 3.208-1.407-3.727-1.407-4.294 0-8.021-8.546 1.061-11.998-2.974-16.043-6.417-1.337-12.568-1.07-26.737-9.625-32.086 5.053.774 1.202-7.356 4.813-8.021 4.498 6.567 3.119-.936 8.021-1.604 4.328 10.789 15.193 19.238 24.064 22.46-2.017-.657-3.28-2.068-3.21-4.813 19.929 7.448 47.683 1.557 68.984 17.647 3.89-22.346 4.552-62.651 22.463-35.295-.594 6.361 1.47 15.374-1.606 19.251 5.961.613 4.195-6.501 11.23-4.812.635 2.76-2.382 4.112 0 4.812 3.576-3.376 8.564-5.341 8.021-12.834-1.452-2.827-5.902-2.651-6.416-6.417 5.889-3.329 6.146 1.778 9.625 4.813-1.029-11.884 8.238-28.087 4.82-49.726zm-219.79-35.295c3.72-.512 6.16.257 8.021 1.604-.031-2.4 5.96-6.561 1.605-8.021-2.676 2.673-7.721 2.973-9.626 6.417zM186.1 152.409c4.512 3.256 10.381-7.603 9.627 1.604.503-2.17 2.283-3.064 1.603-6.417-3.803 1.329-11.788-3.617-8.021 0 6.316 4.768-8.948 3.422-3.209 4.813zm-91.446 46.525c6.252-10.398.967-22.488 8.021-32.086-2.761-.633-4.113 2.381-4.813 0 .223-5.662 4.59-7.172 4.813-12.834-13.008 13.229-16.86 26.743-8.021 44.92zm77.008-32.086v-4.813h-4.813c1.838 5.046-2.519 3.898-3.208 6.417 2.835 2.98 4.682-.697 8.021-1.604zm40.108 38.504c-.07-2.209.754-3.523 1.603-4.813-7.076 2.24-9.192 1.142-12.833-3.208-.419 2.496-3.519 1.112-4.812 0-.252 1.888.275 4.553-1.605 4.813-6.42-7.66-12.305 3.042-20.857-1.604-2.013 5.7-8.915 4.846-14.438 4.813-.834 2.525-6.177 8.592-1.605 11.23 2.841-7.24 45.943-10.317 41.712-6.417 10.386-2.308 18.976-1.429 22.46 4.813.444-5.382 1.795-5.129 8.021-3.209.402-7.937-10.959-12.505-14.438-11.23 1.275.177 4.863 5.303 1.604 4.813-.419-2.499-3.519-1.114-4.812-.001zm182.889 0c1.898-7.324-8.906-10.237-12.834-6.417 6.003.415 9.114 3.717 12.834 6.417zm-181.287 27.273c-3.376-5.465-17.575-6.815-22.459-1.604 6.881.988 38.222 7.277 22.459 1.604zm137.973 16.043c-.496-11.539-20.534-17.066-27.273-8.021 11.42-.701 23.724 6.183 27.273 8.021zm-147.597-6.418h9.624c.87-6.437-9.307-2.386-9.624 0zm190.911 12.835c5.845-.497 10.443.254 14.439 1.604 1.948 2.865.292 9.334 3.21 11.23 2.039-14.338-5.745-18.855-14.44-22.46-.925 3.354-3.976 4.58-3.209 9.626zm-195.725 4.813c9.736-1.203 21.398 1.208 20.857-8.021-3.301 5.295-21.323 4.292-20.857 8.021zm-83.423 57.755c-.276-4.539 1.379-11.006-3.209-11.23.538 6.471-7.553 11.537 3.209 11.23zm141.178 41.714c.36-5.71-1.081-9.615-4.812-11.232-1.28 6.116-2.506 10.554 4.812 11.232zm86.634 3.205c-2.267 5.051-6.131 11.467-16.043 12.838-.713 3.031 2.181 9.666-3.209 8.021 2.072 9.313.334 18.573 6.416 19.248-.27 2.592-5.385 8.272-1.604 9.628 3.785-10.631 22.179-11.641 17.646-25.671 1.367-8.501 10.719-23.489 6.418-27.27.089 9.706-5.856 7.756-9.624 3.206zm-86.634 6.419c-.979 6.812 5.82 4.289 0 8.021 8.316.772 17.484.697 24.064 3.208-4.919 5.108 2.713 6.714 1.604 12.835-18.14-4.195-32.522-3.016-44.92 3.209 2.912 20.78 25.365 12.108 30.483 30.479.181-1.955.479-3.796 3.209-3.205 12.11 13.557 29.736-6.071 41.711-14.44-9.661-3.826-7.204-14.283-4.812-19.252-3.781.036-4.724-2.764-9.628-1.604-2.984-16.862-22.25-23.979-41.711-19.251z"/><path fill-rule="evenodd" clip-rule="evenodd" d="M157.222 89.841c-4.28 6.948-14.62 7.84-20.855 12.834-1.593-6.445 13.319-10.18 20.855-12.834zM232.625 89.841c2.837 1.441 4.683 3.873 8.021 4.813-3.606 2.276-9.395 2.369-9.626 8.021-2.494-2.319-6.251-3.375-9.626-4.813 3.274-3.142 10.036-2.798 11.231-8.021zM303.215 96.259c-6.913 6.857-17.508.445-19.251 12.834-2.538-2.318.161-3.583 0-9.625 4.858 3.581 12.773-8.408 19.251-3.209zM120.323 118.719c-1.602 4.814-6.16 6.676-8.021 11.23-1.785-1.891 2.924-10.9 8.021-11.23zM362.573 154.014c-3.257.492.329-4.634 1.605-4.813-8.332-7.385-15.147 8.322-25.67 0 4.771-3.469 12.136 2.815 12.836-6.417 2.504 5.973 5.541-3.077 11.229-3.208 3.267 1.548 3.465 6.161 3.208 11.23 1.301-.304 1.602-1.611 3.211-1.604 3.932-.472-5.385 2.361-6.419 4.812zM407.495 198.934c-3.652 5.474-6.217-7.319-9.627-1.604-5.397-13.319-23.294-14.138-22.458-33.69 7.146 11.17 11.172 22.125 24.063 24.064 3.959-3.353-4.629-7.661 0-12.834 10.352 6.317.53 17.424 8.022 24.064zM333.695 272.732c1.823.306.891 1.611 0 1.604.259 1.88 2.925 1.354 4.813 1.604-13.474 8.661-28.671-5.853-35.294-14.438 13.12 1.254 26.048 10.695 30.481 11.23zM149.2 641.724c-1.849-1.979 3.972-6.771 9.627-9.624-2.534 6.275 4.166 3.321 4.813 6.415-5.422.096-6.846-2.894-9.626 1.606 7.89.4 15.431.456 19.251-3.211-2.494 5.703 5.45.97 4.813 4.813l-28.878.001zM340.114 368.991c1.289.849 2.604 1.673 4.812 1.603-5.335 5.604-4.56 10.113-11.231 16.043-.752-5.125 1.586-11.931 6.419-17.646zM437.976 596.803c.473-3.345 4.343 2.382 4.812-3.208 2.387 1.359 2.324 5.165 3.208 8.021-4.677.403-5.535-3.021-8.02-4.813zM328.884 603.219c1.71-2.652 4.866 4.1 9.625 0 5.974 2.225-4.722.242-3.207 3.21.19 2.679 6.842-1.828 6.415 4.812-8.768-4.235-.67 6.815-6.415 11.231-2.856-1.175-.232-2.917 0-4.812-3.731 1.616-5.175 5.522-4.814 11.229h-6.416c2.775-2.57 5.838-4.856 4.812-11.229-3.494 5.668-7.442 4.551-12.834 1.603 3.496-3.353-.803-4.576 0-9.624 4.438-.271 5.507 2.464 3.208 4.812 7.826.271 1.975-5.644 4.813-8.021 2.986.221 5.36 1.055 6.416 3.209 2.658.684-.141-5.984-1.603-6.42z"/></svg>