<?xml version="1.0" encoding="utf-8"?>
<!-- Generator: Adobe Illustrator 14.0.0, SVG Export Plug-In  -->
<!DOCTYPE svg PUBLIC "-//W3C//DTD SVG 1.1//EN" "http://www.w3.org/Graphics/SVG/1.1/DTD/svg11.dtd" [
	<!ENTITY ns_flows "http://ns.adobe.com/Flows/1.0/">
]>
<svg version="1.1"
	 xmlns="http://www.w3.org/2000/svg" xmlns:xlink="http://www.w3.org/1999/xlink" xmlns:a="http://ns.adobe.com/AdobeSVGViewerExtensions/3.0/"
	 x="0px" y="0px" width="640px" height="640px" viewBox="-68.437 0.081 640 640" enable-background="new -68.437 0.081 640 640"
	 xml:space="preserve">
<defs>
</defs>
<path fill-rule="evenodd" clip-rule="evenodd" d="M200.539,83.424c-2.123,4.293-10.117,2.717-12.833,6.417
	C183.936,85.967,193.69,82.001,200.539,83.424z"/>
<path fill-rule="evenodd" clip-rule="evenodd" d="M327.28,109.093c-4.865,7.972-21.574,4.097-27.273,11.23c0-3.209,0-6.417,0-9.626
	C309.701,117.208,314.91,104.495,327.28,109.093z"/>
<path fill-rule="evenodd" clip-rule="evenodd" d="M317.652,123.532c1.633,1.042,1.661,3.688,4.812,3.208
	c0.005,5.352-5.217,5.478-4.812,11.23C312.699,132.161,321.671,130.275,317.652,123.532z"/>
<path fill-rule="evenodd" clip-rule="evenodd" d="M349.738,128.345c4.14,2.203,0.355,9.83,0,12.834
	C344.84,138.213,351.591,133.557,349.738,128.345z"/>
<path fill-rule="evenodd" clip-rule="evenodd" d="M107.489,152.409c-4.507-3.072,2.204-8.363,1.603-12.834
	C113.6,142.647,106.889,147.939,107.489,152.409z"/>
<path fill-rule="evenodd" clip-rule="evenodd" d="M409.099,182.891c5.466-1.188,2.646,5.911,6.418,6.417
	C412.835,193.924,409.021,186.33,409.099,182.891z"/>
<path fill-rule="evenodd" clip-rule="evenodd" d="M293.588,553.486c1.371,5.045,8.831,4.006,9.627,9.624
	C299.059,560.85,292.357,561.132,293.588,553.486z"/>
<path fill-rule="evenodd" clip-rule="evenodd" d="M324.071,588.781c0.496-2.178,4.016-1.332,6.416-1.605
	c-0.262,1.867,0.354,2.857,1.605,3.21C330.131,595.242,325.97,589.251,324.071,588.781z"/>
<path fill-rule="evenodd" clip-rule="evenodd" d="M316.05,622.472c2.877-0.203,3.384,1.963,6.415,1.605
	c-0.984,1.428-1.938,2.867,0,3.206C320.854,631.32,315.373,626.006,316.05,622.472z"/>
<path fill-rule="evenodd" clip-rule="evenodd" d="M149.2,633.702c0,1.07,0,2.139,0,3.208c-2.673,0-5.347,0-8.021,0
	C142.983,635.856,147.397,629.475,149.2,633.702z"/>
<path fill-rule="evenodd" clip-rule="evenodd" d="M393.056,641.724c1.01-4.145,0.979-7.704,4.812-8.021
	c-3.669-7.479,4.312-12.789,6.419-19.252c0.161,1.799-2.333,2.499,0,3.209c4.627-1.254,1.787-9.976,6.415-11.23
	c-2.828-3.02-4.967,2.193-6.415-3.21c6.723,1.911,2.863-6.761,6.415-8.021c-0.159,3.021,1.963,11.693,3.209,8.021
	c-0.705-7.316-4.191-11.85-6.416-17.646c2.813-0.443,8.004,4.518,9.625,0c-0.974-2.77-7.608,0.123-8.021-3.208
	c3.956-0.212,7.73-0.243,9.625,1.605c2.497-5.702-5.446-0.97-4.812-4.815c4.105-9.189,4.395-4.771,11.23-11.228
	c1.889,0.479,4.026,8.493,6.418,3.205c-1.952-2.398-7.563-6.694-1.605-8.021c0.18,5.929,2.943,4.645,4.812,1.606
	c0.443,2.812-4.517,8.004,0,9.626c-0.607-7.696,2.781-1.363,4.814-6.416c1.889,4.96,4.026-0.251,6.415,3.205
	c-1.845,3.502-0.317,10.378-4.812,11.232c-0.36-1.246-0.044-3.165-1.604-3.21c-1.857,2.376-1.857,4.045,0,6.418
	c-10.11-3.151-12.387,14.942-9.627,22.462c-1.167-2.624,3.188-6.979,3.209-3.21c-3.561,5.688-6.489,7.417,0,8.021
	c-3.783,2.356-2.984,3.388-8.021,1.604c0.407,4.76-6.345,7.913,0,9.627c0.455-7.817,34.235-19.093,25.668-35.296
	c8.266-1.74,3.48-13.788,11.229-16.043c-2.175-7.451-3.548-15.703-4.812-24.064c-24.521-30.337-61.227-53.873-86.633-85.027
	c-4.651-5.706-11.341-13.101-12.835-19.253c-3.738-15.416,3.171-35.53-8.021-49.735c-5.869,26.073-22.897,42.668-43.316,56.151
	c-7.355,4.859-16.709,6.446-22.458,11.231c-6.38,5.308-1.28,6.087-3.21,11.23c-1.167,3.106-11.666,7.522-4.812,11.229
	c1.451-2.777,5.903-4.431,6.415,0c-2.491,2.322-7.486,2.139-9.625,4.813c1.872,2.408,4.632,3.921,4.812,8.021
	c-9.996,5.413-5.304,7.306-16.043,11.229c-2.494,5.703,5.449,0.971,4.812,4.813c-0.984,2.225-6.176,0.239-6.416,3.208
	c9.973-0.336,5.29,5.678,0,6.416c5.112-1.367,6.09,1.4,8.021,3.21c0-2.138,0-4.276,0-6.415c2.981,3.122,6.481,1.098,8.022-1.606
	c0.623,2.289,1.924,2.704,0,4.812c5.154,1.413,2.197-5.287,6.415-4.812c4.24,4.655,16.842,5.814,8.021,14.439
	c4.016,2.118,5.023-6.343,6.418-1.606c-3.822,5.651-1.362,8.041-9.625,8.021c-1.984,5.192,5.191,1.229,3.207,6.419
	c-2.841,0.365-8.032-1.616-6.415,3.209c7.877-0.933,1.72,4.324,6.415,8.021c-8.032-4.081-4.449,11.907-12.834,8.021
	c2.087,9.181-0.724,13.253-6.416,12.834c2.914,1.896,1.262,8.363,3.207,11.23c-6.709,2.632-15.573,11.749-19.25,19.253
	c-2.397-6.316-1.891,0.298-6.418,0c-1.746-4.084,7.513-6.223,0-6.418c-3.496,7.734-12.579,9.883-17.647,16.043
	c-4.349-15.438-10.951-28.621-24.064-35.295c2.996,12.144-14.222,9.938-6.417,17.648c-7.608,3.697-7.557-2.196-17.647-1.605
	c0.761-5.04-2-6.555-4.813-8.021c-4.837,7.741-13.165-4.189-20.856,3.209c1.376-7.438-2.525-1.682-3.208-4.813
	c-1.373-3.741,5.61-6.911,1.605-8.021c-4.439-0.462,0.492-17.289-4.813-22.46c5.896-10.842-3.386-28.494,1.604-43.318
	c9.118-27.082-3.172-65.482-1.604-104.28c4.697-1.441,4.93-1.441,9.625,0c-21.136-35.025-19.605-77.51-22.46-128.343
	c6.192,1.189,8.949-4.467,16.043-6.417c0.747,3.069-4.945,6.906,1.605,6.417c-1.551-8.498-0.87-6.914,4.812-9.626
	c-4.316-1.939-10.442-10.572-4.812-12.834c-2.837-2.978-4.685,0.697-8.021,1.604c-2.371-3.929-6.928-12.697-11.231-19.252
	c-14.465,17.601-6.116,46.723-6.417,70.59c-2.378,2.97-8.292,2.403-8.022,8.021c5.632,0.942,5.276-7.583,9.627-3.208
	c11.392,57.592,14.32,123.649,16.043,190.912c-15.056,28.263-48.201,38.432-64.172,65.777c-1.196,4.937,4.402,3.083,3.208,8.021
	c-6.098-3.453-17.439,11.47-8.021,6.417c-18.873,16.294-1.053,29.838-3.208,52.942c-25.136,0-50.27,0-75.403,0
	C0,427.816,0,213.906,0,0c168.453,0,336.905,0,505.356,0c0,213.907,0,427.816,0,641.724
	C467.924,641.724,430.489,641.724,393.056,641.724z M421.933,155.618c-7.223-45.739-61.903-92.826-101.071-104.28
	c-33.551-9.812-74.27-10.296-109.092-6.417c-49.731,5.54-102.848,54.7-113.907,89.841c0.359-1.244,0.045-3.165,1.605-3.208
	c-4.112,10.345-12.872,24.541-9.626,36.899c4.49-7.274,6.813-16.717,12.834-22.46c-5.072,8.911,5.605,5.828,8.021,8.021
	c-0.266,4.121-6.807,10.163-3.208,12.834c1.567-5.317,3.171,1.792,4.812,1.604c4.059-5.6,15.61-12.155,12.833-19.252
	c-3.882,3.652-9.348,14.116-12.833,12.834c3.648-2.767,11.409-16.739,8.021-16.043c-1.951,5.537-6.494,8.48-9.626,12.834
	c1.123-10.934,4.681-10.583,1.604-17.647c6.672-0.28,5.961-7.943,9.625-11.23c5.617-0.567,12.128,16.62,4.813,9.625
	c2.397,3.743-0.541,6.913,1.604,8.021c0.384-1.742,2.642-3.853,3.209-1.604c-2.193,4.803-6.799,12.197-1.605,11.23
	c-2.151,13.906-22.635,17.989-20.857,30.482c8.844-13.616,21.733-23.188,28.878-38.503c2.051,0.088,2.222,2.056,4.813,1.604
	c-0.469,0.984-3.991,6.176,0,6.417c1.263-2.096,6.277-8.492,3.208-9.626c-4.83,3.152-8.672-8.386-12.835-11.23
	c5.15-10.384,6.454-31.547,19.252-32.086c-5.072,5.118-16.17,12.668-12.833,20.856c-0.021-5.368,4.062-6.634,6.417-9.626
	c0.25,1.888-0.275,4.554,1.605,4.813c0.384-1.742,2.641-3.851,3.208-1.604c-2.459,1.927-8.65,8.319-4.813,11.23
	c10.928-14.635,6.184-16.69,19.251-30.482c-1.103,6.383-6.164,8.81-8.021,14.438c3.696,4.602,8.148,1.09,11.231,3.208
	c0.264,4.133-8.163,7.71-4.812,9.626c16.864-5.884,24.477-28.81,32.086-33.69c0.018,2.12,2.811,1.467,3.208,3.209
	c-7.386,4.935-18.564,14.562-16.043,24.064c3.354-5.203,6.316-10.798,12.835-12.834c0.459,2.828-7.556,4.966-3.209,6.417
	c11.161-6.781,21.374,1.29,28.877-8.021c0,2.674,0,5.349,0,8.021c6.39,1.042,1.231-9.464,8.021-8.021
	c-2.603,6.984,8.08,9.964,11.231,16.043c-0.043-8.065,3.122-12.92,8.021-16.043c0.562,7.831-3.742,9.208,3.209,14.439
	c0.564-4.782,0.926-9.769,4.812-11.23c-0.339,9.129-1.044,9.278-3.209,17.647c8.483-0.073,2.538-14.575,9.627-16.043
	c0.554,4.426-4.606,11.268,0,14.439c1.847-5.191,1.815,4.308,1.604,6.417c8.622-0.183,4.687-16.967,6.418-19.251
	c5.053,2.967,2.771,13.273,6.416,17.647c3.449-6.245-1.045-15.25,1.605-19.252c2.079,4.873,1.04,12.866,4.813,16.043
	c3.164-1.114-0.396-8.952,3.208-9.626c4.79,22.332,1.354,1.213,1.604-6.417c5.419,5.814,2.575,19.886,9.625,24.064
	c4.006-8.686,5.151,4.329,11.23,3.209c1.483-2.795-0.055-8.611,4.812-8.021c-1.139,9.704,0.987,16.966,1.606,17.647
	c-1.053-1.156,7.156-14.633,9.624-12.834c-0.655,3.215-3.974,11.899,0,14.439c-1.146-2.601,7.565-2.601,6.419,0
	c0.239,3.984-0.83,6.659-3.209,8.021c-15.072-0.437-24.691-6.326-35.296-11.23c-12.669,13.959-44.452-4.644-60.963-1.604
	c-7.988,1.47-9.701,0.041-16.043-3.208c-6.539-3.35-14.612,4.034-14.438-4.813c0.359,3.033-1.808,3.539-1.604,6.417
	c4.764-0.948,15.172,4.319,9.626,12.834c3.356,2.983,6.029,4.156,8.021,4.812c-5.582,17.784,12.165,21.828,12.834,33.69
	c0.339-1.8,1.78-2.497,3.208-3.208c1.955,8.333,5.107,12.17,3.208,20.856c4.968-1.607,6.231,8.539,9.626,3.209
	c1.931-3.142,14.344-7.204,17.647-3.209c0,1.604,0,3.209,0,4.813c-2.41-0.448-6.755-6.898-8.021-3.208
	c7.157,3.378,3.839,7.548,9.625,11.23c-10.967-2.708,3.854,15.628-8.021,14.439c0.997,22.1,0.772,27.63-1.604,48.129
	c-3.061,0.683-2.904,4.584-8.021,3.208c1.095,8.583-6.66,8.314-6.417,16.043c10.979-0.041,20.468,1.937,25.669,11.23
	c3.385-3.445,22.679,2.262,24.065,11.23c-4.369,12.209-29.274,3.88-25.671,24.064c-1.496,1.712-5.917,0.498-4.812,4.812
	c20.498,1.986,33.679,2.421,49.734,6.417c-5.061-18.476-24.231-31.378-16.043-57.755c2.969,3.369,2.402,7.782,8.021,4.813
	c4.915,12.733,8.135,27.161,17.646,35.293c-2.318,5.522-0.24,18.096,4.812,12.838c-1.219-2.522-5.089-2.397-4.812-6.419
	c8.607-2.33,11.737,1.151,12.834,4.812c5.324-4.135-5.938-7.711,1.606-9.626c2.647,0.023,0.896,4.449,3.207,4.813
	c11.825-19.659,26.239-23.122,33.69-44.921c0.331,12.629-5.412,19.188-4.812,32.086c3.766,0.513,6.021,2.533,11.229,1.604
	c9.832-20.116,26.929-32.967,32.086-57.755c-6.372-1.561-0.658,8.966-6.415,8.021c-0.246-8.8-0.172-17.286,1.603-24.065
	c-13.047-5.231-19.234,13.95-11.23,22.46c-5.192,15.302-7.992,21.723-19.249,20.856c-2.9-18.283,12.031-43.097,14.437-60.964
	c-4.93-0.417-7.214-3.481-11.23-4.813c-1.149,6.742-5.232,4.041-6.417,0c-2.026,13.538-17.322,6.778-16.042,16.043
	c-3.987-0.917-9.053-9.005-11.23-6.417c1.799,0.338,2.496,1.78,3.209,3.209c-5.026,3.367-5.157,2.336-12.834,1.604
	c-2.572,6.314,6.928,0.558,6.415,4.813c-13.646,3.845-29.854-1.719-35.295-11.23c-4.551-0.273-3.131,5.425-9.625,3.208
	c-1.407-3.727-1.407-4.294,0-8.021c-8.546,1.061-11.998-2.974-16.043-6.417c-1.337-12.568-1.07-26.737-9.625-32.086
	c5.053,0.774,1.202-7.356,4.813-8.021c4.498,6.567,3.119-0.936,8.021-1.604c4.328,10.789,15.193,19.238,24.064,22.46
	c-2.017-0.657-3.28-2.068-3.21-4.813c19.929,7.448,47.683,1.557,68.984,17.647c3.89-22.346,4.552-62.651,22.463-35.295
	c-0.594,6.361,1.47,15.374-1.606,19.251c5.961,0.613,4.195-6.501,11.23-4.812c0.635,2.76-2.382,4.112,0,4.812
	c3.576-3.376,8.564-5.341,8.021-12.834c-1.452-2.827-5.902-2.651-6.416-6.417c5.889-3.329,6.146,1.778,9.625,4.813
	C416.084,193.46,425.351,177.257,421.933,155.618z M202.143,120.323c3.72-0.512,6.16,0.257,8.021,1.604
	c-0.031-2.4,5.96-6.561,1.605-8.021C209.093,116.579,204.048,116.879,202.143,120.323z M186.1,152.409
	c4.512,3.256,10.381-7.603,9.627,1.604c0.503-2.17,2.283-3.064,1.603-6.417c-3.803,1.329-11.788-3.617-8.021,0
	C195.625,152.364,180.361,151.018,186.1,152.409z M94.654,198.934c6.252-10.398,0.967-22.488,8.021-32.086
	c-2.761-0.633-4.113,2.381-4.813,0c0.223-5.662,4.59-7.172,4.813-12.834C89.667,167.243,85.815,180.757,94.654,198.934z
	 M171.662,166.848c0-1.604,0-3.208,0-4.813c-1.605,0-3.209,0-4.813,0c1.838,5.046-2.519,3.898-3.208,6.417
	C166.476,171.432,168.323,167.755,171.662,166.848z M211.77,205.352c-0.07-2.209,0.754-3.523,1.603-4.813
	c-7.076,2.24-9.192,1.142-12.833-3.208c-0.419,2.496-3.519,1.112-4.812,0c-0.252,1.888,0.275,4.553-1.605,4.813
	c-6.42-7.66-12.305,3.042-20.857-1.604c-2.013,5.7-8.915,4.846-14.438,4.813c-0.834,2.525-6.177,8.592-1.605,11.23
	c2.841-7.24,45.943-10.317,41.712-6.417c10.386-2.308,18.976-1.429,22.46,4.813c0.444-5.382,1.795-5.129,8.021-3.209
	c0.402-7.937-10.959-12.505-14.438-11.23c1.275,0.177,4.863,5.303,1.604,4.813C216.163,202.854,213.063,204.239,211.77,205.352z
	 M394.659,205.352c1.898-7.324-8.906-10.237-12.834-6.417C387.828,199.35,390.939,202.652,394.659,205.352z M213.372,232.625
	c-3.376-5.465-17.575-6.815-22.459-1.604C197.794,232.009,229.135,238.298,213.372,232.625z M351.345,248.668
	c-0.496-11.539-20.534-17.066-27.273-8.021C335.492,239.946,347.796,246.83,351.345,248.668z M203.748,242.25
	c3.208,0,6.417,0,9.624,0C214.242,235.813,204.065,239.864,203.748,242.25z M394.659,255.085c5.845-0.497,10.443,0.254,14.439,1.604
	c1.948,2.865,0.292,9.334,3.21,11.23c2.039-14.338-5.745-18.855-14.44-22.46C396.943,248.813,393.892,250.039,394.659,255.085z
	 M198.934,259.898c9.736-1.203,21.398,1.208,20.857-8.021C216.49,257.172,198.468,256.169,198.934,259.898z M115.511,317.653
	c-0.276-4.539,1.379-11.006-3.209-11.23C112.84,312.894,104.749,317.96,115.511,317.653z M256.689,359.367
	c0.36-5.71-1.081-9.615-4.812-11.232C250.597,354.251,249.371,358.689,256.689,359.367z M343.323,362.572
	c-2.267,5.051-6.131,11.467-16.043,12.838c-0.713,3.031,2.181,9.666-3.209,8.021c2.072,9.313,0.334,18.573,6.416,19.248
	c-0.27,2.592-5.385,8.272-1.604,9.628c3.785-10.631,22.179-11.641,17.646-25.671c1.367-8.501,10.719-23.489,6.418-27.27
	C353.036,369.072,347.091,367.122,343.323,362.572z M256.689,368.991c-0.979,6.812,5.82,4.289,0,8.021
	c8.316,0.772,17.484,0.697,24.064,3.208c-4.919,5.108,2.713,6.714,1.604,12.835c-18.14-4.195-32.522-3.016-44.92,3.209
	c2.912,20.78,25.365,12.108,30.483,30.479c0.181-1.955,0.479-3.796,3.209-3.205c12.11,13.557,29.736-6.071,41.711-14.44
	c-9.661-3.826-7.204-14.283-4.812-19.252c-3.781,0.036-4.724-2.764-9.628-1.604C295.416,371.38,276.15,364.263,256.689,368.991z"/>
<path fill-rule="evenodd" clip-rule="evenodd" d="M157.222,89.841c-4.28,6.948-14.62,7.84-20.855,12.834
	C134.774,96.23,149.686,92.495,157.222,89.841z"/>
<path fill-rule="evenodd" clip-rule="evenodd" d="M232.625,89.841c2.837,1.441,4.683,3.873,8.021,4.813
	c-3.606,2.276-9.395,2.369-9.626,8.021c-2.494-2.319-6.251-3.375-9.626-4.813C224.668,94.72,231.43,95.064,232.625,89.841z"/>
<path fill-rule="evenodd" clip-rule="evenodd" d="M303.215,96.259c-6.913,6.857-17.508,0.445-19.251,12.834
	c-2.538-2.318,0.161-3.583,0-9.625C288.822,103.049,296.737,91.06,303.215,96.259z"/>
<path fill-rule="evenodd" clip-rule="evenodd" d="M120.323,118.719c-1.602,4.814-6.16,6.676-8.021,11.23
	C110.517,128.058,115.226,119.049,120.323,118.719z"/>
<path fill-rule="evenodd" clip-rule="evenodd" d="M362.573,154.014c-3.257,0.492,0.329-4.634,1.605-4.813
	c-8.332-7.385-15.147,8.322-25.67,0c4.771-3.469,12.136,2.815,12.836-6.417c2.504,5.973,5.541-3.077,11.229-3.208
	c3.267,1.548,3.465,6.161,3.208,11.23c1.301-0.304,1.602-1.611,3.211-1.604C372.924,148.73,363.607,151.563,362.573,154.014z"/>
<path fill-rule="evenodd" clip-rule="evenodd" d="M407.495,198.934c-3.652,5.474-6.217-7.319-9.627-1.604
	c-5.397-13.319-23.294-14.138-22.458-33.69c7.146,11.17,11.172,22.125,24.063,24.064c3.959-3.353-4.629-7.661,0-12.834
	C409.825,181.187,400.003,192.294,407.495,198.934z"/>
<path fill-rule="evenodd" clip-rule="evenodd" d="M333.695,272.732c1.823,0.306,0.891,1.611,0,1.604
	c0.259,1.88,2.925,1.354,4.813,1.604c-13.474,8.661-28.671-5.853-35.294-14.438C316.334,262.756,329.262,272.197,333.695,272.732z"
	/>
<path fill-rule="evenodd" clip-rule="evenodd" d="M149.2,641.724c-1.849-1.979,3.972-6.771,9.627-9.624
	c-2.534,6.275,4.166,3.321,4.813,6.415c-5.422,0.096-6.846-2.894-9.626,1.606c7.89,0.4,15.431,0.456,19.251-3.211
	c-2.494,5.703,5.45,0.97,4.813,4.813C168.453,641.724,158.827,641.724,149.2,641.724z"/>
<path fill-rule="evenodd" clip-rule="evenodd" d="M340.114,368.991c1.289,0.849,2.604,1.673,4.812,1.603
	c-5.335,5.604-4.56,10.113-11.231,16.043C332.943,381.512,335.281,374.706,340.114,368.991z"/>
<path fill-rule="evenodd" clip-rule="evenodd" d="M437.976,596.803c0.473-3.345,4.343,2.382,4.812-3.208
	c2.387,1.359,2.324,5.165,3.208,8.021C441.319,602.019,440.461,598.595,437.976,596.803z"/>
<path fill-rule="evenodd" clip-rule="evenodd" d="M328.884,603.219c1.71-2.652,4.866,4.1,9.625,0
	c5.974,2.225-4.722,0.242-3.207,3.21c0.19,2.679,6.842-1.828,6.415,4.812c-8.768-4.235-0.67,6.815-6.415,11.231
	c-2.856-1.175-0.232-2.917,0-4.812c-3.731,1.616-5.175,5.522-4.814,11.229c-2.139,0-4.277,0-6.416,0
	c2.775-2.57,5.838-4.856,4.812-11.229c-3.494,5.668-7.442,4.551-12.834,1.603c3.496-3.353-0.803-4.576,0-9.624
	c4.438-0.271,5.507,2.464,3.208,4.812c7.826,0.271,1.975-5.644,4.813-8.021c2.986,0.221,5.36,1.055,6.416,3.209
	C333.145,610.323,330.346,603.655,328.884,603.219z"/>
</svg>
