<?xml version="1.0" encoding="utf-8"?>
<!-- Generator: Adobe Illustrator 14.0.0, SVG Export Plug-In  -->
<!DOCTYPE svg PUBLIC "-//W3C//DTD SVG 1.1//EN" "http://www.w3.org/Graphics/SVG/1.1/DTD/svg11.dtd" [
	<!ENTITY ns_flows "http://ns.adobe.com/Flows/1.0/">
]>
<svg version="1.1"
	 xmlns="http://www.w3.org/2000/svg" xmlns:xlink="http://www.w3.org/1999/xlink" xmlns:a="http://ns.adobe.com/AdobeSVGViewerExtensions/3.0/"
	 x="0px" y="0px" width="640px" height="640px" viewBox="-66.027 -15.731 640 640" enable-background="new -66.027 -15.731 640 640"
	 xml:space="preserve">
<defs>
</defs>
<path fill-rule="evenodd" clip-rule="evenodd" d="M288.096,0c0.145,4.343-2.651,3.206,0,6.368c1.622-1.036,1.648-3.66,4.777-3.184
	c-0.443,4.159-0.541,7.967,4.776,6.368c-5.815,6.674-14.753-2.593-20.695-1.592C278.911,3.551,284.093,2.363,288.096,0z"/>
<path fill-rule="evenodd" clip-rule="evenodd" d="M240.339,1.592c3.405,2.487-2.992,8.575-6.368,9.551
	C232.622,4.488,238.281,4.841,240.339,1.592z"/>
<path fill-rule="evenodd" clip-rule="evenodd" d="M230.788,12.735c15.501,2.13,14.581,12.911,23.878,19.103
	c-9.317,3.299-19.745,2.578-33.43,1.592c-2.492-9.847,3.213-5.979,3.184-17.511C227.385,15.7,229.741,14.873,230.788,12.735z"/>
<path fill-rule="evenodd" clip-rule="evenodd" d="M127.314,17.511c-3.27,1.505-1.35,8.202-6.368,7.959
	C120.533,20.281,122.835,17.809,127.314,17.511z"/>
<path fill-rule="evenodd" clip-rule="evenodd" d="M315.157,35.022c3.518,0.199,0.677,6.753,1.594,9.551
	C309.339,45.128,312.38,37.097,315.157,35.022z"/>
<path fill-rule="evenodd" clip-rule="evenodd" d="M98.66,49.349c1.047-4.768,3.402,1.521,6.368,0
	c-1.43,2.813-3.844,4.646-4.776,7.959C94.821,56.646,102.658,48.58,98.66,49.349z"/>
<path fill-rule="evenodd" clip-rule="evenodd" d="M214.869,52.533c6.71-4,0.626,18.433,4.775,22.287
	C211.226,70.732,219.229,59.025,214.869,52.533z"/>
<path fill-rule="evenodd" clip-rule="evenodd" d="M146.417,66.86c0.415,4.659-3.599,4.891-3.184,9.551
	C137.532,75.439,141.117,66.23,146.417,66.86z"/>
<path fill-rule="evenodd" clip-rule="evenodd" d="M397.936,76.411c3.194,2.646,7.4,4.275,7.96,9.55
	C402.705,83.317,398.495,81.689,397.936,76.411z"/>
<path fill-rule="evenodd" clip-rule="evenodd" d="M296.056,81.187c8.27,1.454-1.971,7.448,0,12.733
	C291.346,91.133,296.976,85.44,296.056,81.187z"/>
<path fill-rule="evenodd" clip-rule="evenodd" d="M388.388,92.33c1.267,6.222,7.068,14.399,4.775,19.103
	C389.588,106.673,386.634,97.726,388.388,92.33z"/>
<path fill-rule="evenodd" clip-rule="evenodd" d="M334.26,103.474c2.584,4.317,2.052,11.745,3.187,17.511
	C334.007,117.846,330.622,108.669,334.26,103.474z"/>
<path fill-rule="evenodd" clip-rule="evenodd" d="M409.082,141.678c8.997,2.713,1.524,12.989,12.733,14.329
	c0.485,7.381-0.017,13.781-3.185,17.509C414.87,163.442,405.067,154.679,409.082,141.678z"/>
<path fill-rule="evenodd" clip-rule="evenodd" d="M439.327,141.678c13.656,0.821,4.772,16.101,20.695,15.919
	c-0.918,2.801,1.924,9.354-1.593,9.553c-7.874-0.549,1.324-4.179,0-7.96c-5.637-0.862-3.914,5.639-9.55,4.776
	C446.741,155.489,441.58,150.039,439.327,141.678z"/>
<path fill-rule="evenodd" clip-rule="evenodd" d="M348.589,151.23c9.892,26.192,24.311,47.857,47.758,60.493
	c2.639-10.624-10.665-19.033-11.143-31.838c5.397-4.542,2.572,3.472,3.184,4.776c3.71,7.952,13.909,20.191,11.142,28.653
	c2.546,2.762,7.167,3.448,12.735,3.185c-4.581,14.015,21.684,13.068,12.736,31.838c-6.06-7.741-13.4-14.195-17.512-23.879
	c-19.984,3.374-37.334-7.802-49.352-17.511C352.131,187.793,356.176,168.435,348.589,151.23z"/>
<path fill-rule="evenodd" clip-rule="evenodd" d="M409.082,194.212c5.216,8.047,16.319,10.209,19.102,20.695
	C414.166,215.658,413.081,203.478,409.082,194.212z"/>
<path fill-rule="evenodd" clip-rule="evenodd" d="M154.376,235.602c-18.358,3.945-31.739-16.252-36.613-25.471
	C131.77,208.186,144.856,223.805,154.376,235.602z"/>
<path fill-rule="evenodd" clip-rule="evenodd" d="M179.846,214.907c7.374,0.123,0.347,7.213,1.593,11.144
	C177.879,225.364,180.794,218.206,179.846,214.907z"/>
<path fill-rule="evenodd" clip-rule="evenodd" d="M358.138,227.642c16.712,13.006,41.819,17.613,63.678,25.469
	c0.496,5.998,7.356,18.873-6.366,23.878c-10.343-7.093-13.07-17.85-27.062-22.285C372.234,249.582,356.37,250.63,358.138,227.642z"
	/>
<path fill-rule="evenodd" clip-rule="evenodd" d="M178.255,230.826c4.286,8.981,11.972,14.559,15.919,23.878
	C184.515,257.509,174.817,240.976,178.255,230.826z"/>
<path fill-rule="evenodd" clip-rule="evenodd" d="M367.691,256.296c9.859,4.996,21.865,7.851,23.878,20.693
	c-2.091-0.561-2.503-2.801-4.775-3.182c0.719,6.771,9.81,11.661,6.369,17.511c8.04,14.038,22.397-1.348,33.428-3.184
	c1.154,4.867-2.745,4.681-1.59,9.551c-4.484-12.267-13.971,11.216-7.958,19.101c-7.596,3.553-8.152,14.14-17.514,15.919
	c4.356-7.313,7.361-15.988,6.366-28.652c-7.859,2.222-13.568,6.593-25.469,4.774C377.31,290.191,373.635,272.111,367.691,256.296z"
	/>
<path fill-rule="evenodd" clip-rule="evenodd" d="M404.306,337.483c4.412,3.493-5.045,6.525-4.776,11.142
	c0.563,2.092,2.802,2.504,3.183,4.777c1.622-1.033,1.648-3.66,4.777-3.184c-1.797,8.286-8.539,11.625-11.143,19.104
	c5.584,5.91,15.104,0.003,17.509-6.366c6.939,5.806-1.229,11.745,0,23.878c-7.086,4.058-10.634,11.652-22.286,11.142
	c1.337-3.967,2.084-8.529,1.594-14.328c-1.488,1.169-2.413,2.895-3.187,4.775c-2.457-4.547-1.426-9.603,0-14.325
	c0.633-3.816-7.249,0.883-4.772-4.775c-1.283,0.842-2.585,1.658-4.777,1.593c1.034,1.617,3.661,1.644,3.184,4.772
	c-3.96,0.175-4.928,2.985-7.96,0c3.614-6.241,2.366-8.562,7.96-11.143c-0.685-3.032-3.428-3.999-3.184-7.96
	c4.065-0.835,5.57-2.109,7.961,1.594c3.329-1.978,5.98-4.628,7.959-7.96c-11.634-2.879-18.679,3.296-28.655,7.96
	c0-2.122,0-4.244,0-6.369C380.781,346.64,395.319,348.819,404.306,337.483z"/>
<path fill-rule="evenodd" clip-rule="evenodd" d="M270.583,405.935c-13.049,4.415-25.613-18.85-31.836-31.838
	c-4.923-3.592-16.267-17.244-19.104-22.288C241.567,354.242,257.357,390.49,270.583,405.935z"/>
<path fill-rule="evenodd" clip-rule="evenodd" d="M425.001,391.606c0.062,10.784-21.71,24.722-36.613,15.919
	C402.095,403.724,419.591,403.712,425.001,391.606z"/>
<path fill-rule="evenodd" clip-rule="evenodd" d="M426.591,407.526c3.854,5.001-7.306,8.55-6.365,15.919
	c-10.836-5.858-12.623,22.93-30.249,20.694c1.186-11.795-2.573-18.647-1.589-30.245C402.347,419.34,419.098,416.961,426.591,407.526
	z"/>
<path fill-rule="evenodd" clip-rule="evenodd" d="M1.554,487.121c30.653-7.553,57.148-19.262,93.922-20.691
	c-2.573-21.812-10.466-41.477-14.327-60.494c-3.475-17.111,1.15-32.673-3.183-44.573c-5.848-16.056-28.218-24.197-23.878-54.125
	c1.395-5.11-4.13-3.3-4.777-6.369c-8.269-38.961-9.236-78.019-25.47-106.656c-0.223-29.864-2.598-74.457,19.103-84.373
	c0-2.122,0-4.244,0-6.366c2.122,0,4.246,0,6.367,0c-1.364-5.079,2.505-4.923,3.183-7.959c-2.806-2.949-4.928,0.409-6.366,3.184
	c-2.08-4.79,6.454-12.606,14.325-12.737c-1.883,3.955-2.305,9.371-3.183,14.329c5.414-5.729,8.586-13.7,12.736-20.694
	c2.417,6.179-5.996,15.194-6.369,23.878c11.003-8.1,16.735-21.471,23.879-33.432c4.129,5.094-4.18,6.402,1.592,11.145
	c-5.007-1.825-3.87,2.5-6.368,3.184c1.208,1.617,12.716,0.072,12.735-4.775c12.427,20.559-18.252,33.173-22.287,52.533
	c0.303,1.29,1.597,1.587,1.591,3.184c24.041-0.902,16.099-33.781,31.839-42.981c-0.585,2.708,1.241,3.003,3.185,3.184
	c-11.764,5.363-14.856,27.396-12.736,41.389c16.821-8.343,14.534-31.125,25.47-47.757c0.768,9.578-0.486,29.988,3.185,41.389
	c4.148-17.605,9.999-33.514,14.326-50.94c6.221,6.775,0.455,16.921-3.183,22.285c4.93,6.377-0.037,18.122,3.183,28.656
	c3.664-3.768,0.571-14.287,1.594-20.696c5.818,4.796,2.639,18.588,12.734,19.104c4.379-4.11,3.84-13.143,4.775-20.694
	c11.611,4.308,9.74,22.098,15.919,31.838c3.061-6.256-7.975-28.46,3.184-33.43c-4.77,23.569,5.607,35.576,22.287,47.757
	c0.925-4.16-5.362-14.763-3.183-25.471c7.144,8.774,14.11,17.727,22.285,25.471c4.31-3.902-4.856-7.789-3.183-14.327
	c2.924,2.381,3.968,6.643,7.959,7.959c9.024-14.979,2.089-45.144,9.551-60.492c-3.5,8.636-0.745,20.959,7.959,22.285
	c-2.742,3.097-6.529,5.146-4.774,12.737c3.451,0.267,0.72-5.648,1.591-7.96c5.793,29.859,16.66,71.289,50.942,62.084
	c-11.745-5.237-24.26-9.704-30.248-20.695c7.054-0.606-3.946-13.281-1.592-23.878c5.652,3.369,4.017,14.025,9.551,17.509
	c2.262,0.138,4.509,0.264,4.776-1.59c13.412,19.265,39.549,23.849,63.677,28.654c-0.394,1.727-3.163,1.079-3.183,3.184
	c14.736,6.076,26.676,29.027,12.735,38.206c7.715-13.491-5.636-29.347-17.514-33.43c7.723,8.881,20.343,20.838,15.92,36.612
	c-3.96,0.247-4.928-2.5-7.959-3.183c0.159,4.935-0.724,8.83-3.183,11.142c-10.39-12.25-14.719-26.545-31.84-30.245
	c-18.01-3.891-41.5,2.958-55.716-7.959c-2.021-12.424-13.863-19.134-23.879-19.103c-11.272,0.036-24.582,11.033-36.614,11.144
	c-9.669,0.088-21.797-14.539-33.43-6.368c-11.157-8.394-26.625-6.504-31.838,6.368c1.279,4.026,6.553,4.061,9.551,6.366
	c-9.697,5.516-24.53-3.726-31.838,3.186c-5.616,9.876-9.92,15.429-20.695,22.287c-0.202-2.856,1.948-3.358,1.593-6.368
	c-5.702-0.926-4.84,4.71-4.776,9.551c0.561,2.231,2.802,0.139,3.183-1.592c0.352,12.535,11.582,23.386,22.287,15.919
	c0.532,3.714,1.632,6.857,4.776,7.959c4.768-1.047-1.523-3.403,0-6.368c14.162,6.812,31.268,18.231,49.349,15.919
	c0.585,2.707-1.242,3.003-3.183,3.182c7.84,1.267,25.081,4.026,23.878-11.142c7.862,19.713-3.409,44.316-6.369,66.858
	c-0.889,6.777,1.196,15.6,0,20.696c-4.066,17.337-34.684,48.001,1.592,52.532c9.559,25.065,41.56-0.023,58.899,1.591
	c-8.968,15.837-38.045,18.721-38.204,38.207c-5.025,0.777-5.622-2.868-11.144-1.594c-4.553,0.223-2.912,6.644-3.184,11.144
	c17.091,12.184,43.722,5.838,66.86,12.735c2.156-1.558,2.063-5.366,4.776-6.366c13.687,3.293,19.68,14.284,23.876,27.062
	c-24.539-16.712-65.191-12.927-97.103-11.144c-4.438,3.37-1.104,4.622-3.185,9.55c13.359,8.491,34.735,2.148,52.533,7.96
	c-2.197,6.843-5.509,5.34-3.185,14.328c-8.506,3.366-16.09-4.122-25.47-4.775c-11.048,9.654-28.014,5.001-46.166,6.366
	c-5.812,18.725,9.592,22.013,14.328,33.432c2.161-0.494,1.321-3.988,1.591-6.366c2.415,4.48,6.506,7.291,6.369,14.325
	c14.152,5.192,24.589,10.183,31.838-4.777c18.668,4.493,22.724,20.801,46.165,12.737c20.594-7.086,51.962-26.938,62.083-42.981
	c27.75,0.155,33.51-21.679,44.573-38.207c7.117,0.474,8.229-4.147,14.331-7.96c-17.209,39.102-53.362,65.744-74.823,95.515
	c6.171,6.299,0.16,10.819-1.589,17.512c-10.84,3.949-23.91-2.945-35.023,1.594c-10.389,4.239-9.417,16.326-20.693,20.691
	c0.771,10.715,0.361,18.923,6.366,27.065c6.244-0.124,15.196,3.563,20.696,3.183c3.365,3.832-5.313,5.274-6.368,9.55
	c-32.371,1.061-68.979-2.119-98.698,1.594c-29.716,0-59.432,0-89.146,0c-3.037-4.392-16.536,1.674-17.513-4.777
	c0,1.593,0,3.184,0,4.777c-8.49,0-16.98,0-25.47,0c0.268-3.451-5.646-0.724-7.959-1.594c-0.308-7.12-1.731-13.125-6.368-15.921
	c1.319,5.715-3.589,7.705,0,11.148c-4.982-0.738-7.104,1.384-6.366,6.366c-0.238-0.199-1.428,0.244-1.593,0
	C-6.701,606.995,6.869,512.263,1.554,487.121z M41.351,113.025c-6.997-0.085-9.6,11.885-4.776,14.327
	C37.595,122.229,45.595,118.429,41.351,113.025z M55.678,117.799c-2.652-3.161,0.145-2.023,0-6.366
	c-5.11,1.324-3.301,1.355-6.368-1.594c-4.129,5.954-3.88,16.285-6.367,23.879c6.733-1.225,3.268-12.65,12.735-11.142
	c-4.129,4.989-1.051,7.344-6.368,11.142c9.755,4.925,4.872-9.771,12.736-7.959c0.355-3.01-1.795-3.51-1.594-6.366
	c6.496-4.648,16.299-5.987,15.919-17.513C65.076,102.79,62.101,112.021,55.678,117.799z M60.453,213.313
	c10.167-4.16,10.688-17.966,12.736-30.244c-8.364-1.465-6.518,7.28-12.736,7.959c0.28-7.908,6.075-15.927-1.591-19.103
	C50.535,178.579,48.768,208.606,60.453,213.313z M151.192,292.908c-2.7-3.874-15.482-3.656-11.144-9.55
	c-12.753,5.975-11.665,0.529-23.878,7.959c2.382,0.272,5.876-0.567,6.368,1.59c-7.412,1.054-11.325-7.167-15.919,0
	c4.683,4.77,6.024,4.361,12.735,1.594c1.335,1.847,2.099,4.267,1.592,7.959c-9.137,1.073-10.066,7.078-12.736,11.144
	c-10.424-2.313-14.78-10.689-22.285-15.919c-5.579,7.806-7.804,17.725-7.959,27.061c6.302,22.044,25.68,23.914,38.204,41.391
	c6.079,0.77,10.162-0.45,12.736-3.182c1.522-2.967-4.766-5.321,0-6.371c0.181,1.943,0.476,3.77,3.183,3.184
	c-1.627-4.477-1.807-6.782,4.776-6.366c-3.639-17.455,6.279-29.782,6.368-38.204c-0.381,1.729-2.621,3.82-3.185,1.589
	C142.223,307.287,151.772,305.164,151.192,292.908z M14.29,603.33c-2.056-4.314,0.189-19.832-3.185-20.696
	C11.624,588.853,4.775,602.637,14.29,603.33z M22.249,600.147c0.313-4.56,0.197-8.687-4.776-7.959
	C17.658,596.249,17.772,600.375,22.249,600.147z"/>
<path fill-rule="evenodd" clip-rule="evenodd" d="M175.071,50.941c3.786,0.468-1.77,4.308-3.185,4.775
	c1.182,5.718,10.219,3.576,14.328,6.366c-1.466,4.34-4.977-2.223-9.551,0c7.471,4.505-8.062,5.828-12.736,7.959
	C167.137,63.233,167.034,55.813,175.071,50.941z"/>
<path fill-rule="evenodd" clip-rule="evenodd" d="M276.954,79.595c7.53-2.021,6.518-12.584,11.142-17.513
	c2.367,1.35,2.305,5.127,3.184,7.959c-11.582,4.423-11.726,32.682-1.59,36.615C279.43,109.673,278.345,90.661,276.954,79.595z"/>
<path fill-rule="evenodd" clip-rule="evenodd" d="M289.689,117.799c4.695,2.2,6.444,7.353,11.142,9.553
	c-0.407,3.727-6.995,0.917-7.958,0c-5.523,15.324,6.377,26.335,14.325,33.43C296.782,158.462,280.642,134.681,289.689,117.799z"/>
<path fill-rule="evenodd" clip-rule="evenodd" d="M429.773,197.394c8.277,0.215,10.883,6.102,20.696,4.777
	c-0.696,5.472,0.629,8.923,1.593,12.735c-7.797-1.427-7.479,5.258-15.919,3.184C429.805,212.253,434.32,202.593,429.773,197.394z
	 M439.327,211.723c3.695-0.549,7.462-1.031,6.365-6.369c-5.029,2.195-9.607-3.938-11.142,0
	C435.763,207.857,439.602,207.732,439.327,211.723z"/>
<path fill-rule="evenodd" clip-rule="evenodd" d="M198.95,203.763c0.694-2.363,2.037,0.627,4.775,0c0,3.184,0,6.368,0,9.55
	C200.293,211.972,202.382,205.108,198.95,203.763z"/>
<path fill-rule="evenodd" clip-rule="evenodd" d="M439.327,294.502c6.062,3.874,5.938-12.056,12.735-12.735
	c0.262,11.406-8.666,13.62-12.735,20.695c0.388-0.067-2.483-11.92-4.776-3.184c-5.589-14.735,2.521-35.753,3.183-60.493
	c4.943,0.164,4.542-5.009,11.146-3.184c1.624-8.231,0.021-9.792,0-19.103c5.662,0.25,6.972,8.252,11.143,1.592
	c4.08,3.164-4.038,7.531-6.37,9.552c-1.187,4.9,4.373,3.06,3.187,7.959c-1.282-0.843-2.584-1.66-4.776-1.592
	c-1.099,8.906,6.705-0.978,6.367,6.368c-6.076-0.236-7.664,4.007-12.737,4.774c0.902,3.314,4.552,5.146,1.594,7.959
	c2.123,0,4.243,0,6.366,0c0.312,8.799-4.386,12.597-3.183,22.288c-3.28-0.854-0.378-7.53-4.777-3.184
	C441.562,281.177,443.365,286.628,439.327,294.502z"/>
<path fill-rule="evenodd" clip-rule="evenodd" d="M339.036,288.134c-6.401,2.256-11.729-0.468-20.695,0
	c-10.695-13.182-19.157-28.598-42.98-28.654c10.567,8.654,34.659,11.877,33.432,27.062c-11.189-9.113-26.564-24.402-44.574-12.735
	c0.618,6.274,1.131,4.867,3.183,11.142c-6.156-1.404-4.994,5.706-11.143,7.959c2.97-3.143-10.188-3.164-9.551-12.733
	c-3.698,0.466-7.459,4-6.368-3.186c-7.106,4.325-23.055-6.594-33.43,3.186c-2.99-8.684-1.208-22.139-9.551-25.471
	c11.465-6.087-4.217-23.205,3.183-35.021c2.806,21.632,5.589,37.828,30.246,39.797c1.096-4.281-3.291-3.077-4.776-4.776
	c23.616-0.538,50.25-4.878,68.45-11.143c16.669,10.581,33.413,12.967,46.168,25.469
	C333.195,273.992,332.889,286.088,339.036,288.134z"/>
<path fill-rule="evenodd" clip-rule="evenodd" d="M396.347,447.323c0.532,5.348-2.208,21.111-9.553,23.879
	c-0.276-9.892,1.787-12.31,0-20.691C391.367,450.836,394.881,450.106,396.347,447.323z"/>
<path fill-rule="evenodd" clip-rule="evenodd" d="M460.022,622.432c-18.041,0-36.083,0-54.127,0
	c-7.416-20.206-2.91-40.704-11.143-52.529c-0.479-6.506,2.203,0.267,6.37-1.594c3.625-17.61-18.205-20.646-23.879-22.285
	c-2.297-17.556,2.756-40.466,6.366-57.31c20.303,1.573,28.531,9.211,52.533,15.919c1.31,12.486,6.922,20.668,17.509,23.878
	c-0.253-10.661-16.129-11.314-12.731-23.878c24.52,0.948,29.56,21.378,46.163,30.244c0,16.979,0,33.964,0,50.944
	c-24.69-20.948-47.43-43.84-79.595-57.311c6.73,11.243,18.236,12.624,27.062,20.695
	C453.513,566.544,459.241,601.111,460.022,622.432z"/>
<path fill-rule="evenodd" clip-rule="evenodd" d="M343.812,354.996c2.515,8.911-12.071,14.435-12.735,25.468
	c-2.092-2.04-5.869-2.04-7.96,0c0.043,1.551,1.952,1.235,3.183,1.593c-1.045,2.138-3.4,2.967-6.365,3.185
	c5.224-5.415-4.381-4.976-7.96-6.366c-0.337-11.432,11.329-7.832,15.918-19.106c0.035,3.75-2.743,4.688-1.593,9.554
	c4.54-1.299,9.113-2.562,7.96-9.554C336.304,357.036,343.781,359.737,343.812,354.996z"/>
</svg>
