<?xml version="1.0" encoding="utf-8"?>
<!-- Generator: Adobe Illustrator 14.0.0, SVG Export Plug-In  -->
<!DOCTYPE svg PUBLIC "-//W3C//DTD SVG 1.1//EN" "http://www.w3.org/Graphics/SVG/1.1/DTD/svg11.dtd" [
	<!ENTITY ns_flows "http://ns.adobe.com/Flows/1.0/">
]>
<svg version="1.1"
	 xmlns="http://www.w3.org/2000/svg" xmlns:xlink="http://www.w3.org/1999/xlink" xmlns:a="http://ns.adobe.com/AdobeSVGViewerExtensions/3.0/"
	 x="0px" y="0px" width="640px" height="640px" viewBox="-4.853 -78.805 640 640" enable-background="new -4.853 -78.805 640 640"
	 xml:space="preserve">
<defs>
</defs>
<path d="M229.507,0c-2.879,12.422-8.234,22.368-17.851,28.051C205.999,17.208,217.341,1.497,229.507,0z"/>
<path d="M405.463,0c10.464,4.836,19.547,11.052,17.851,28.051C410.431,25.633,409.43,11.336,405.463,0z"/>
<path d="M198.906,10.201c4.027,5.324,5.289,13.413,5.1,22.951c1.356,4.43,12.286-2.774,17.851-2.55
	c-2.719,11.729-13.891,15.009-28.051,15.301C191.494,29.989,197.608,22.502,198.906,10.201z"/>
<path d="M430.964,15.301c11.341,2.258,6.52,20.682,7.65,33.151c-13.998,0.398-20.914-6.288-28.052-12.75
	c2.347-6.95,7.972,3.561,15.301,0C433.795,35.133,430.172,23.011,430.964,15.301z"/>
<path d="M183.606,35.701c3.79,3.86,4.108,11.191,5.1,17.851c8.766,1.116,14.293-1.006,20.401-2.55
	c-1.234,11.515-16.329,9.172-28.051,10.2C180.554,51.351,180.965,42.41,183.606,35.701z"/>
<path d="M448.815,38.251c5.857,4.677,7.361,23.294,2.55,30.601c-10.2-1.699-17.475-6.326-25.501-10.201
	c1.099-5.703,12.568-1.033,17.851-2.55C449.771,54.508,443.319,40.406,448.815,38.251z"/>
<path d="M283.059,51.002c0,3.402,0,6.798,0,10.2c-5.792,1.858-19.895-4.595-17.851,5.1
	C257.164,57.257,273.333,50.738,283.059,51.002z"/>
<path d="M441.165,73.953c11.807,6.903,21.228,0.234,20.4-12.75c8.844,2.413,5.688,26.853,2.552,33.151
	C452.493,91.524,444.919,84.648,441.165,73.953z"/>
<path d="M290.709,66.302c-0.383,6.343-8.635,0.747-10.2,0C254.367,66.497,283.008,60.48,290.709,66.302z"/>
<path d="M527.868,81.603c-5.949,0-11.901,0-17.851,0c1.848,5.802,14.541,0.759,12.75,10.2c-17.574,0.573-28.475-5.528-43.352-7.65
	c4.299-11.49,17.33-0.177,28.051-2.55c-5.532-3.82-14.354-4.348-22.95-5.101C487.043,63.247,522.421,73.36,527.868,81.603z"/>
<path d="M193.806,73.953c21.794,2.241,33.328,36.199,56.102,45.901c7.801,3.25,24.208-2.107,20.4,12.75
	C243.557,129.786,202.496,101.371,193.806,73.953z"/>
<path d="M359.562,127.504c33.15-11.05,51.891-36.513,76.502-56.102C429.649,97.757,395.193,130.428,359.562,127.504z"/>
<path d="M527.868,81.603c23.488-5.81,70.349,7.354,99.453,12.75C597.043,106.675,549.55,94.617,527.868,81.603z"/>
<path d="M5.1,96.903c26.552-9.162,69.561-15.425,96.903-15.3c1.567,2.271,3.082,4.562,0,5.1
	C76.151,94.458,34.385,109.076,5.1,96.903z"/>
<path d="M512.567,96.903c-10.023,7.341-40.079-0.59-33.151-10.2C491.05,89.517,504.025,90.994,512.567,96.903z"/>
<path d="M119.854,99.454c8.367-6.933,20.984-9.618,35.701-10.201C152.097,100.101,130.886,104.417,119.854,99.454z"/>
<path d="M186.156,99.454c-1.483-9.135,7.547-7.755,15.301-7.65C201.54,99.538,192.51,98.159,186.156,99.454z"/>
<path d="M448.815,94.353c5.77,2.729,11.214,5.788,15.302,10.201c8.03-0.468,3.264-13.737,12.749-12.75
	c-2.505,5.743-1.823,21.536-7.65,30.601C460.912,114.56,449.475,109.843,448.815,94.353z"/>
<path d="M497.266,104.554c-1.098,5.703-12.568,1.033-17.851,2.55c0-3.402,0-6.798,0-10.2
	C484.879,99.939,493.663,99.658,497.266,104.554z"/>
<path d="M153.005,99.454c0,3.401,0,6.798,0,10.2c-5.951,0-11.9,0-17.851,0C136.519,101.667,144.666,100.464,153.005,99.454z"/>
<path d="M211.657,99.454c0.491,10.713-22.445,14.623-22.951,2.55C195.062,99.859,202.368,98.667,211.657,99.454z"/>
<path d="M581.419,135.155c-32.962,15.243-60.555-14.817-86.703-22.951C518.392,97.463,553.269,129.711,581.419,135.155z"/>
<path d="M89.253,142.805c13.637-15.263,40.205-17.596,56.102-30.601C156.932,131.494,111.52,148.986,89.253,142.805z"/>
<path d="M543.167,142.805c-32.297,5.076-48.541-19.434-66.302-20.4c-8.527-4.674,7.779-5.526,7.65-10.201
	C505.257,121.211,529.409,126.812,543.167,142.805z"/>
<path d="M313.66,132.604c-3.26,3.486-12.041,3.486-15.3,0c0.839-5.962,3.065-10.534,5.1-15.3
	C310.398,118.865,313.455,124.309,313.66,132.604z"/>
<path d="M321.31,117.304c9.021-0.479,12.621,12.13,7.65,17.851C315.412,137.994,318.566,124.145,321.31,117.304z"/>
<path d="M211.657,127.504c2.641-6.53,16.596-10.181,22.951-5.1C231.967,128.934,218.012,132.584,211.657,127.504z"/>
<path d="M285.609,119.854c10.5-2.535,12.171,10.477,7.65,15.301C281.818,138.631,280.879,124.884,285.609,119.854z"/>
<path d="M397.813,119.854c7.979,0.521,18.72-1.718,22.951,2.55C419.135,131.225,397.649,128.366,397.813,119.854z"/>
<path d="M275.409,122.404c10.506-1.233,3.628,12.441,0,12.75C269.441,134.5,273.939,123.951,275.409,122.404z"/>
<path d="M351.912,122.404c8.569-2.62,3.97,7.929,5.1,12.75C351.984,133.143,347.845,126.234,351.912,122.404z"/>
<path d="M443.714,135.155c-8.687,6.823-20.266-0.498-28.051-2.55C418.467,119.002,440.019,122.797,443.714,135.155z"/>
<path d="M216.757,132.604c-7.645,4.926-20.804,10.922-28.051,2.55C193.498,124.294,210.789,122.568,216.757,132.604z"/>
<path d="M385.063,124.954c10.939-0.742,16.849,3.551,22.95,7.65C404.101,142.947,385.414,134.037,385.063,124.954z"/>
<path d="M247.358,127.504c-0.272,7.523-14.278,14.426-20.4,7.65C227.755,126.603,238.512,128.007,247.358,127.504z"/>
<path d="M150.455,130.054c-2.106,7.207,3.594,6.607,2.55,12.75c-6.766,5.21-24.895,12.402-35.701,5.1
	C122.781,136.38,139.419,136.019,150.455,130.054z"/>
<path d="M372.312,130.054c10.243,0.807,17.495,4.607,20.4,12.75C385.376,147.648,373.936,138.962,372.312,130.054z"/>
<path d="M515.117,147.905c-10.115,5.539-26.216-1.833-35.701-5.1c-0.395-6.345,4.006-7.894,5.101-12.75
	C496.203,134.517,511.417,135.454,515.117,147.905z"/>
<path d="M239.708,142.805c4.547-6.504,11.672-10.429,22.951-10.2C258.922,139.403,248.885,149.489,239.708,142.805z"/>
<path d="M410.563,132.604c6.976,2.376,10.876,7.825,17.851,10.2c-3.265,10.457-19.8,2.647-25.5,0
	C403.663,137.605,409.814,137.804,410.563,132.604z"/>
<path d="M229.507,145.355c-7.742,1.424-17.294,9.483-25.501,2.55C207.58,137.613,226.767,128.64,229.507,145.355z"/>
<path d="M255.008,150.455c2.043-8.158,5.937-14.464,15.3-15.3C268.288,143.333,268.186,153.434,255.008,150.455z"/>
<path d="M295.81,135.155c2.051,1.35,4.14,2.66,7.65,2.55c1.066,8.716-0.77,14.531-10.2,12.75
	C292.923,144.169,292.874,138.168,295.81,135.155z"/>
<path d="M323.861,137.705c0,4.249,0,8.502,0,12.75c-4.119-0.717-4.391,2.411-7.65,2.55c-8.162-0.339-11.219-5.783-10.201-15.301
	C315.337,137.149,315.792,134.203,323.861,137.705z"/>
<path d="M331.511,135.155c11.662-2.231,10.21,20.131-2.551,15.3C325.916,142.845,328.258,141.784,331.511,135.155z"/>
<path d="M351.912,135.155c0.336,6.285,0.386,12.287-2.55,15.3c-7.967,1.166-8.153-5.449-7.65-12.75
	C346.286,138.028,347.09,134.582,351.912,135.155z"/>
<path d="M362.112,135.155c10.664-2.162,10.096,6.903,15.301,10.2C373.012,153.879,358.984,148.47,362.112,135.155z"/>
<path d="M221.857,158.105c-0.01-9.361,8.929-9.772,12.75-15.301c5.068,0.033,3.243,6.958,10.201,5.1
	C242.276,155.909,230.221,163.978,221.857,158.105z"/>
<path d="M395.263,142.805c8.243,1.958,13.343,7.058,15.3,15.301c-13.773,3.576-13.515-6.886-22.95-7.65
	C386.833,144.573,394.979,147.621,395.263,142.805z"/>
<path d="M260.108,153.005c-2.19,9.709-9.995,13.806-20.401,15.3c-6.054-7.914,7.389-13.378,10.201-20.401
	C254.976,147.938,253.15,154.863,260.108,153.005z"/>
<path d="M272.859,147.905c6.917,1.049,10.521,12.128,5.1,17.851C270.665,165.399,273.296,155.117,272.859,147.905z"/>
<path d="M354.461,147.905c5.703,1.099,1.033,12.566,2.55,17.851C347.997,163.724,349.486,151.118,354.461,147.905z"/>
<path d="M395.263,165.755c-13.087,0.336-20.443-5.058-22.951-15.3C383.934,144.667,391.507,156.158,395.263,165.755z"/>
<path d="M150.455,160.655c-4.876-1.073-10.976-0.924-10.2-7.65C145.027,147.997,152.539,151.531,150.455,160.655z"/>
<path d="M339.161,150.455c2.053,1.35,4.14,2.66,7.65,2.55c1.066,8.716-0.77,14.531-10.2,12.75
	C333.414,157.991,334.664,155.839,339.161,150.455z"/>
<path d="M362.112,150.455c6.913,4.988,13.908,9.892,15.301,20.401C361.071,174.462,356.95,160.959,362.112,150.455z"/>
<path d="M270.309,153.005c2.129,12.663-4.887,25.77-15.3,17.851C258.148,162.947,260.622,154.37,270.309,153.005z"/>
<path d="M311.11,168.306c-9.083,0.583-13.333-3.666-12.75-12.75C306.245,147.467,320.092,159.527,311.11,168.306z"/>
<path d="M318.76,168.306c-1.504-10.853,0.842-17.86,12.751-15.3C332.074,162.917,330.459,170.657,318.76,168.306z"/>
<path d="M415.664,155.555c9.219,3.531,14.287,11.214,25.501,12.75c0,5.1,0,10.2,0,15.3c-17.208-0.642-22.042-13.662-35.701-17.851
	C407.772,161.263,414.849,161.542,415.664,155.555z"/>
<path d="M226.958,163.206c-9.998,10.404-21.016,19.786-38.251,22.951C188.518,163.609,211.962,156.003,226.958,163.206z"/>
<path d="M280.509,165.755c5.574,0.374,5.475,6.425,5.1,12.75c-2.965-0.413-4.538,0.563-5.1,2.55
	C272.31,180.219,274.886,167.051,280.509,165.755z"/>
<path d="M354.461,178.506c-10.317,2.859-12.608-7.83-7.65-12.75C354.778,164.59,354.964,171.205,354.461,178.506z"/>
<path d="M428.414,193.807c-18.089,8.104-26.377-13.958-38.251-20.401C400.766,158.081,424.559,178.845,428.414,193.807z"/>
<path d="M242.258,170.856c-6.786,13.168-21.272,30.88-40.801,22.951C210.981,182.734,223.752,164.854,242.258,170.856z"/>
<path d="M306.01,173.406c-1.35,2.052-2.661,4.139-2.55,7.65c-5.914,0.812-9.791-0.408-12.75-2.55c0-2.55,0-5.1,0-7.65
	C296.072,165.257,302.046,170.328,306.01,173.406z"/>
<path d="M321.31,170.856c4.082,13.512-16.831,13.512-12.75,0C316.41,169.07,313.461,169.07,321.31,170.856z"/>
<path d="M339.161,168.306c5.499,14.833-16.156,17.691-12.75,2.55C329.372,168.714,333.247,167.494,339.161,168.306z"/>
<path d="M183.606,170.856c6.73,7.73-2.269,21.421-2.55,30.601c-15.303-0.847-20.586-11.715-22.951-25.501
	c5.604,2.896,8.472,8.527,15.301,10.2C180.103,184.354,178.438,174.188,183.606,170.856z"/>
<path d="M446.264,170.856c4.14,4.363,7.721,9.281,7.65,17.851c8.057-1.295,11.194-7.506,20.401-7.65
	c-3.153,13-12.146,20.157-25.501,22.951C446.668,194.252,445.483,183.537,446.264,170.856z"/>
<path d="M260.108,175.956c-7.688,12.267-16.934,35.218-35.701,28.051C231.566,189.737,241.517,171.07,260.108,175.956z"/>
<path d="M408.013,204.007c-22.709,2.309-23.199-17.602-35.701-25.501C387.891,166.799,402.128,190.201,408.013,204.007z"/>
<path d="M265.208,178.506c2.051,1.35,4.14,2.66,7.65,2.55c-0.339,19.21-8.647,30.454-28.051,30.601
	C246.656,195.654,260.397,191.545,265.208,178.506z"/>
<path d="M359.562,178.506c16.104,3.447,21.713,17.388,28.051,30.601C373.035,215.079,352.699,193.973,359.562,178.506z"/>
<path d="M298.36,191.256c-5.829,5.526-15.911,0.927-15.301-7.65C287.946,179.019,298.761,182.889,298.36,191.256z"/>
<path d="M316.21,186.156c2.057-2.191,6.985-1.514,7.65-5.1c6.99,0.052,6.057,12.028,2.55,15.3
	C319.92,196.045,316.522,192.646,316.21,186.156z"/>
<path d="M300.91,183.606c7.302-0.503,13.917-0.318,12.75,7.65C308.741,196.217,298.051,193.923,300.91,183.606z"/>
<path d="M191.256,191.256c6.526,7.949,3.191,22.129,0,33.151c-10.165-4.286-23.205-5.695-25.501-17.851
	c7.904-0.254,14.145,1.155,17.851,5.1C188.074,206.773,189.011,198.364,191.256,191.256z"/>
<path d="M436.064,191.256c7.427,3.624,6.998,15.102,10.2,22.951c5.594-2.906,10.421-6.579,20.401-5.1
	c-3.47,11.834-16.297,14.305-28.051,17.851C440.385,212.437,434.293,205.777,436.064,191.256z"/>
<path d="M321.31,196.356c2.491,10.27-15.239,10.27-12.75,0C316.41,194.571,313.461,194.571,321.31,196.356z"/>
<path d="M354.461,193.807c3.519,6.682,11.622,8.776,12.751,17.851C356.917,222.507,349.132,207.737,354.461,193.807z"/>
<path d="M272.859,198.907c7.06,2.943,7.386,20.525-5.1,17.851C264.836,206.184,273.123,206.821,272.859,198.907z"/>
<path d="M295.81,216.757c-4.454-2.346-5.628-7.974-5.1-15.3c3.62,0.219,7.222,0.42,7.65-2.55
	C307.312,203.875,299.46,210.935,295.81,216.757z"/>
<path d="M323.861,201.457c7.533,3.82,4.074,12.76-5.101,12.75C316.574,206.071,322.775,206.32,323.861,201.457z"/>
<path d="M303.46,214.207c-0.324-4.575,3.122-5.379,2.55-10.2c5.575,0.374,5.475,6.425,5.101,12.75
	C309.06,215.408,306.97,214.098,303.46,214.207z"/>
<path d="M204.006,214.207c6.908,6.617,9.755,28.28,7.65,35.702c-10.815-2.784-21.979-5.22-28.051-12.75
	c5.502-7.003,11.71,2.538,17.851-2.55C201.76,227.261,200.063,217.913,204.006,214.207z"/>
<path d="M290.709,226.958c-10.27,2.49-10.27-15.241,0-12.75C295.488,219.063,290.988,220.612,290.709,226.958z"/>
<path d="M298.36,214.207c8.829-1.788,9.146,8.94,5.1,12.75C294.63,228.746,294.314,218.018,298.36,214.207z"/>
<path d="M326.411,214.207c8.828-1.788,9.146,8.94,5.101,12.75C324.907,223.678,323.497,221.683,326.411,214.207z"/>
<path d="M425.864,214.207c3.756,4.787,4.403,20.349,2.55,22.951c8.767,1.115,14.292-1.006,20.401-2.55
	c-2.65,12.65-15.856,14.745-30.602,15.301C420.313,237.557,423.454,226.246,425.864,214.207z"/>
<path d="M290.709,226.958c8.83-1.788,9.146,8.94,5.1,12.75C290.627,237.85,285.396,232.033,290.709,226.958z"/>
<path d="M341.711,226.958c0.72,6.669-0.932,10.967-7.65,10.201C329.053,232.387,332.584,224.873,341.711,226.958z"/>
<path d="M313.66,229.508c11.528,8.873,1.974,38.827,5.1,56.102C301.417,276.899,318.28,249.478,313.66,229.508z"/>
<path d="M410.563,232.058c4.725,4.069-1.006,19.25-2.55,25.501c4.231,4.271,14.972,2.029,22.951,2.55
	c-1.017,12.583-21.237,5.962-33.151,7.65C400.799,254.595,402.549,240.196,410.563,232.058z"/>
<path d="M221.857,234.608c8.95,6.35,10.12,20.482,15.301,30.601c-10.815,7.312-28.018-0.807-35.701-5.1
	c4.077-4.423,11.478-5.523,20.4-5.101C221.857,248.208,221.857,241.406,221.857,234.608z"/>
<path d="M354.461,234.608c9.538,4.062,9.882,17.32,17.851,22.951c0.469,2.169-0.993,2.405-2.55,2.55
	c-2.169-0.469-2.406,0.993-2.55,2.55C359.53,256.742,357.911,244.758,354.461,234.608z"/>
<path d="M262.659,260.109c2.647-9.254,8.458-15.343,12.75-22.951c6.771,7.77-3.62,20.069-5.101,28.05
	C266.959,264.307,266.298,260.719,262.659,260.109z"/>
<path d="M285.609,237.158c6.825,0.956,11.952,13.557,0,12.75C285.609,245.658,285.609,241.406,285.609,237.158z"/>
<path d="M326.411,237.158c2.55,0,5.101,0,7.65,0c0.503,7.301,0.316,13.918-7.65,12.75
	C326.411,245.658,326.411,241.406,326.411,237.158z"/>
<path d="M390.163,249.909c4.54,3.067-0.212,18.318-2.55,22.95c5.935,4.267,13.739,6.662,22.95,7.65
	c-4.778,16.135-22.579,0.856-35.701,2.55C378.7,270.745,383.158,259.055,390.163,249.909z"/>
<path d="M242.258,252.458c10.472,4.829,11.188,19.414,17.851,28.051c-10.057,7.05-24.736,9.167-35.701,2.55
	c4.883-4.467,13.294-5.406,20.401-7.649C246.563,265.154,242.365,260.851,242.258,252.458z"/>
<path d="M346.811,272.859c-1.7,0-3.399,0-5.1,0c-2.107-7.207,3.594-6.606,2.55-12.75
	C346.401,261.735,352.246,272.03,346.811,272.859z"/>
<path d="M272.859,280.509c-11.921,1.721-9.478-10.922-12.75-17.851C267.563,265.403,273.461,269.707,272.859,280.509z"/>
<path d="M336.611,272.859c5.384,4.498,7.536,5.748,15.301,2.551c-1.158,14.705-12.061,1.229-15.301,5.1
	c-2.48-0.069-1.979-3.12-2.55-5.1C336.23,275.877,336.466,274.416,336.611,272.859z"/>
<path d="M262.659,285.61c2.55,0,5.1,0,7.65,0c-1.678,18.722,3.371,44.173-2.55,58.651C257.633,340.68,264.886,304.81,262.659,285.61
	z"/>
<path d="M331.511,285.61c4.243,13.646,4.243,45.005,0,58.651C321.216,334.218,325.871,296.559,331.511,285.61z"/>
<path d="M357.011,285.61c2.551,0,5.101,0,7.65,0c-1.678,18.722,3.372,44.173-2.55,58.651
	C350.557,334.567,360.16,303.714,357.011,285.61z"/>
<path d="M285.609,290.709c13.597,8.291-0.863,29.398,7.65,43.352c-1.099,5.703-12.567,1.033-17.851,2.55c0-14.451,0-28.899,0-43.351
	C278.806,296.58,283.105,294.829,285.609,290.709z"/>
<path d="M298.36,290.709c9.294,7.75,5.736,41.806,2.55,53.552C290.832,336.835,295.879,302.376,298.36,290.709z"/>
<path d="M321.31,293.26c5.362,9.938,1.278,29.323,2.551,43.351c-5.949,0-11.9,0-17.851,0
	C306.244,318.527,301.493,283.428,321.31,293.26z"/>
<path d="M341.711,293.26c9.643-3.691,4.894,7.008,12.75,5.1c0,12.751,0,25.501,0,38.251c-5.949,0-11.901,0-17.851,0
	C338.484,324.232,333.921,302.908,341.711,293.26z"/>
<path d="M402.914,295.81c-8.564,14.387-18.902,27-35.701,33.151C360.115,298.948,378.463,286.454,402.914,295.81z"/>
<path d="M244.808,323.861c-20.711,14.565-41.38-9.964-51.002-22.951C217.399,286.01,232.736,311.593,244.808,323.861z"/>
<path d="M382.512,326.411c12.835-13.335,27.732-40.778,53.552-25.501C424.701,314.925,407.552,334.295,382.512,326.411z"/>
<path d="M211.657,323.861c-20.089,9.839-37.256-5.207-45.901-15.301C181.569,289.948,200.714,314.488,211.657,323.861z"/>
<path d="M418.213,326.411c6.433-14.344,24.259-29.63,45.903-20.4C455.424,319.418,443.583,329.678,418.213,326.411z"/>
<path d="M175.956,321.311c-8.896,4.552-27.758-2.772-30.601-12.751C159.731,301.149,166.561,316.037,175.956,321.311z"/>
<path d="M471.765,306.01c6.144-1.043,5.544,4.657,12.751,2.55c-5.705,9.596-16.641,13.961-30.602,15.301
	C457.304,315.349,465.484,311.631,471.765,306.01z"/>
<path d="M130.054,311.111c8.169,2.873,8.991,0.617,17.851,5.1C144.665,321.729,128.312,319.004,130.054,311.111z"/>
<path d="M499.817,313.661c-3.706,3.944-9.947,5.354-17.852,5.1C483.674,312.505,496.803,310.951,499.817,313.661z"/>
<path d="M267.759,369.762c5.22-3.389,1.377,24.026,2.55,33.151C265.089,406.303,268.932,378.887,267.759,369.762z"/>
<path d="M316.21,104.554c-5.238-0.712-5.089-6.811-7.65-10.201c-5.037,1.763-6.798,6.804-7.65,12.75
	c-3.136-1.113-5.237-3.262-5.1-7.65c-7.638,1.678,2.438,5.451,0,10.2c6.489-0.312,9.889-3.71,10.2-10.2
	c3.447,2.505,5.097,6.803,7.65,10.2c4.485-0.613,5.812-4.388,5.1-10.2c8.325-0.675,5.406,9.896,12.751,10.2
	c4.716-0.384,1.563-8.637,5.1-10.2c5.676,5.374,7.022,15.076,15.301,17.851c-3.576,7.428-8.786-4.522-15.301-2.55
	c-2.281,8.233,8.317,3.583,10.2,7.65c0.814,5.912-0.41,9.792-2.55,12.75c-15.161-3.245-4.844-16.842-17.851-22.951
	c-3.733,2.217-8.084,3.818-7.65,10.201c-6.488-0.312-9.889-3.71-10.2-10.201c-12.253,10.459-14.942,0.598-30.601,7.65
	c20.18-19.554,15.146-45.03,7.65-71.402c37.763-15.019,54,25.157,45.902,56.102c-6.555-0.247-3.646-9.954-10.201-10.201
	C317.889,96.032,316.561,99.805,316.21,104.554z M303.46,51.002c-4.82,1.13-15.369-3.467-12.75,5.1
	C294.52,60.146,305.248,59.833,303.46,51.002z"/>
<path d="M175.956,84.153c18.242,11.56-7.257,29.281-15.3,38.251c-1.21-6.729-5.997-20-2.55-33.151
	c5.299,16.424,12.024,9.944,22.951,2.55c-14.952-0.729-18.758-16.259-12.75-35.701c6.515,0.284,5.062,8.539,5.101,15.3
	c9.61,1.96,12.19-3.11,20.4-2.55C191.932,78.029,183.354,80.502,175.956,84.153z"/>
<path d="M132.604,79.053c10.304,6.978,22.938-3.282,28.051,0c-13.171,11.037-51.457,15.637-73.953,25.501
	c8.104,5.987,26.864-13.602,35.701,0c-18.894,8.308-36.438,17.965-58.652,22.951c19.999,1.272,44.617-14.867,63.752-22.951
	c4.519,2.281,3.25,10.35,12.75,7.65c-27.125,9.807-51.247,34.939-86.703,28.051c-2.236-8.186,6.613-5.287,7.65-10.201
	c-10.8,2.553-27.886,4.528-38.251,0c13.75-13.453,40.883-13.517,61.202-20.4c-21.528-2.879-58.509,19.589-84.153,5.1
	c29.832-10.933,83.53-22.462,109.653-20.401c-4.522-4.216,5.188-11.898,20.401-10.2c-6.034-8.572-19.188,5.743-25.501-2.55
	c6.812-6.53,36.213-15.679,43.352-5.101C144.892,79.439,138.891,79.389,132.604,79.053z"/>
<path d="M453.915,109.654c0.432,5.528-9.045,1.155-12.75,2.55c4.595,2.204,7.996,5.604,10.2,10.201
	c-4.468,7.543-13.587-1.475-20.4,0c-0.718-4.119,2.41-4.391,2.55-7.65c-4.231,4.269-14.972,2.03-22.951,2.55
	c0.016-25.245,31.535,8.345,35.701-12.75C449.614,105.455,450.277,109.043,453.915,109.654z"/>
<path d="M446.264,91.803c1.851,7.8-4.4,7.501-2.55,15.3c-10.255,1.756-14.556-2.443-22.95-2.55c0.58-14.474,12.434-2.513,22.95-5.1
	c-2.002-5.648-15.786,0.485-12.75-10.201C434.928,85.054,440.901,90.125,446.264,91.803z"/>
<path d="M632.419,109.654c-34.228,21.103-78.287-8.617-112.202-12.75c25.817,13.283,60.438,17.766,89.253,28.051
	c-36.476,16.471-69.423-13.547-99.453-20.4C535.662,73.514,590.63,109.948,632.419,109.654z"/>
<path d="M186.156,104.554c-0.938,4.338,1.989,4.811,5.101,5.1c-3.555,8.016-12.585-3.506-15.301,2.55
	C171.146,118.721,179.087,102.252,186.156,104.554z"/>
<path d="M221.857,117.304c-15.567,1.434-24.903,9.097-40.801,10.2c4.248-5.068-0.23-3.242,0-10.2
	c6.333,0.383,10.583-1.317,12.75-5.101c3.137,1.113,5.237,3.263,5.1,7.65C198.688,110.906,221.428,102.619,221.857,117.304z"/>
<path d="M163.205,135.155c6.396-3.805,8.952-11.451,12.75-17.851c8.087,12.432-6.397,24.133-7.65,35.701
	c-9.148-6.151-16.14-14.461-15.3-30.601C160.614,134.487,168.683,118.933,163.205,135.155z"/>
<path d="M170.855,153.005c0.484-2.894,2.559-1.415,2.55,0c3.136-1.113,5.237-3.263,5.1-7.65c7.944,10.609-4.508,22.607-7.65,30.601
	c-8.484-5.967-16.384-12.517-17.851-25.501C158.79,157.951,175.535,168.617,170.855,153.005z"/>
<path d="M209.107,158.105c-13.023,9.202-24.571,3.646-28.051,12.75c-7.436-4.363,5.778-9.282,2.55-17.851
	C194.34,146.754,204.695,143.034,209.107,158.105z"/>
<path d="M193.806,142.805c-0.63,2.77-5.07,1.729-5.1,5.1c-4.486-0.612-5.812-4.388-5.1-10.2c-5.238,0.712-5.089,6.811-7.65,10.2
	c-8.428-3.825,5.299-6.235,2.55-12.75C188.373,132.938,187.578,141.383,193.806,142.805z"/>
<path d="M453.915,137.705c-4.484,0.613-5.812,4.388-5.1,10.2c-3.773-1.327-6.428-3.772-10.2-5.1c1.035-4.913,9.886-2.015,7.649-10.2
	c9.401,1.648,13.376,8.726,15.301,17.851c4.217,7.399-4.086-6.913-7.65-7.65c0.981,8.37,7.456,11.244,10.202,17.851
	c8.964-0.383,6.125-12.576,17.849-10.2c-2.624,12.676-11.111,19.489-17.849,28.051C456.93,168.894,447.331,153.189,453.915,137.705z
	"/>
<path d="M469.215,127.504c6.161-3.347-3.982,2.819-5.099,2.55c2.865,6.719,9.883-3.421,12.749-5.1
	c11.161,5.375-11.63,19.903,2.55,20.401c-2.309,6.988-9.386-4.976-10.2,5.1c-7.641-7.66-15.136-15.465-15.301-30.601
	C460.626,125.507,462.504,126.299,469.215,127.504z"/>
<path d="M277.959,147.905c0-4.248,0-8.502,0-12.75c11.157,3.147,19.317,20.515,15.301,30.601c-2.55,0-5.101,0-7.65,0
	c-1.97-1.743-6.639-15.19,2.55-12.75C287.776,148.289,279.524,151.441,277.959,147.905z"/>
<path d="M423.314,155.555c2.304-4.498,5.705-7.896,10.2-10.2c12.992,1.459,15.816,13.084,20.4,22.951
	C449.908,166.286,433.927,162.994,423.314,155.555z"/>
<path d="M334.061,196.356c-3.651-2.996,1.125-19.13,12.75-15.3C349.407,193.002,339.589,192.537,334.061,196.356z"/>
<path d="M351.912,181.056c5.944,4.727-4.057,24.791-10.2,17.851C346.796,194.643,350.198,188.691,351.912,181.056z"/>
<path d="M275.409,186.156c1.096-7.058,8.021-0.132,5.1,5.1c1.869,2.381,4.637,3.865,7.65,5.1c-0.63,2.77-5.07,1.729-5.1,5.101
	C277.562,199.305,280.906,188.308,275.409,186.156z"/>
<path d="M313.66,219.308c-2.429,12.526-20.747,34.665-12.75,40.801c-0.032,5.067-6.958,3.242-5.1,10.2
	c-2.601-5.316-0.199-10.387-5.1-17.851C302.643,245.675,298.521,227.446,313.66,219.308z"/>
<path d="M306.01,280.509c-7.161-1.125-3.014-5.376-7.65-12.75c5.471-3.028,5.953-11.047,10.2-15.301
	C313.385,248.763,303.333,277.32,306.01,280.509z"/>
<path d="M334.061,214.207c-2.937-3.013-2.887-9.015-2.55-15.3c14.067,6.913,14.286,21.696,20.4,40.801
	C343.397,230.84,340.406,219.148,334.061,214.207z"/>
<path d="M346.811,237.158c0,3.401,0,6.801,0,10.2c-5.18-0.635-12.374,9.329-5.1,12.751c-1.422,5.274-9.867-3.439-7.65-10.2
	C344.463,251.811,334.546,233.393,346.811,237.158z"/>
<path d="M349.362,244.808c6.171-4.054,17.695,22.771,7.649,28.051c3.644,5.922,8.188-8.611,12.751-10.2
	c7.713,3.86-2.114,11.191,0,17.851c-4.251,0-8.5,0-12.751,0C349.002,272.496,349.889,253.313,349.362,244.808z"/>
<path d="M285.609,255.008c6.295-4.627-4.004,11.085-2.55,17.851c-18.362,0.922-4.116-12.658-5.1-22.95
	C286.191,244.691,281.542,264.389,285.609,255.008z"/>
<path d="M331.511,262.659c4.054-7.561,0.714,11.717-2.551,12.751c-8.738-2.313-6.108-15.993-7.65-25.501
	C325.464,251.906,326.667,269.781,331.511,262.659z"/>
<path d="M295.81,277.959c-8.436,6.168-15.037-1.589-15.3,12.75c-2.77-0.63-1.729-5.07-5.1-5.1c0.069-2.48,3.122-1.98,5.1-2.551
	c0.415-2.963-0.563-4.537-2.55-5.1c9.796-2.932,7.266,2.799,17.851-5.101c-0.415,2.964,0.563,4.538,2.55,5.101
	C297.875,280.853,295.801,279.374,295.81,277.959z"/>
<path d="M257.558,293.26c2.369-2.89,2.562,21.636,2.55,35.701c-17.513-5.439-24.739-21.163-35.701-33.151
	C233.92,290.947,252.279,295.932,257.558,293.26z"/>
<path d="M448.815,349.362c0,7.65,0,15.301,0,22.95c4.396,6.687,13.455-16.887,17.851-10.2c0,17.002,0,34.001,0,51.002
	c-2.479,11.737-11.142-9.665-17.851-10.2c0,8.499,0,17.001,0,25.501c-89.253,0-178.506,0-267.759,0c0-7.65,0-15.301,0-22.951
	c-4.396-6.687-13.454,16.887-17.851,10.2c0-17.001,0-34,0-51.001c2.478-11.737,11.142,9.665,17.851,10.2
	c1.599-7.75-3.265-21.965,2.55-25.501C269.536,348.126,344.846,349.031,448.815,349.362z M438.615,351.912
	c-81.604,1.698-170.004-3.399-247.358,2.55c11.776-2.02,7.292,2.834,10.2,5.101c6.241-12.599,38.687,6.868,28.051-5.101
	c8.135,4.894,41.362-4.435,30.601,5.101c10.829,1.557,6.818-9.252,12.75,0c11.587-7.618,34.529-2.697,58.652-2.55
	c-1.98,0.57-5.031,0.069-5.101,2.55c7.072-1.25,20.423-9.316,10.2,0c9.688-4.121,35.024-7.732,35.701,0
	C403.834,349.812,407.697,364.425,438.615,351.912z M188.706,420.764c-1.524-19.758,3.16-59.223-2.55-66.303
	C187.68,374.22,182.996,413.684,188.706,420.764z M436.064,420.764c15.37-7.605,6.51-52.957,5.101-68.853
	C435.25,364.575,443.552,405.115,436.064,420.764z M232.058,367.212c-3.311,3.39-3.362,9.488,2.55,10.2c0-4.251,0-8.499,0-12.75
	c-11.82-4.087-19.061,0.191-25.5,7.649c-1.373,5.918,4.125,17.577,7.65,10.201c-4.107,1.091-8.558-9.509-2.55-10.201
	c0.455,17.685,3.923-10.195,12.75-7.649C226.82,369.434,228.921,370.061,232.058,367.212z M229.507,405.463
	c-5.34-4.009-16.418-2.281-17.851-10.2c0,4.251,0,8.5,0,12.75c26.457,16.621,32.095-33.965,10.2-17.85
	c1.556,0.144,3.019,0.381,2.55,2.55c10.591-0.352,0.516-1.679,0-5.101c5.621-1.075,14.065,7.638,7.65,10.2
	C227.545,383.262,232.361,408.307,229.507,405.463z M285.609,385.063c-2.304-26.604,2.853,5.145-12.75,0c0-5.101,0-10.2,0-15.301
	c8.314-0.458,12.273,5.994,12.75-5.1c-8.585,1.613-23.687-3.285-28.051,2.55c12.782,0.423,11.043,40.087,0,40.801
	c6.098-1.554,18.502,3.2,20.401-2.55c-8.569,2.617-3.97-7.932-5.1-12.75c7.589-0.912,12.938-4.062,17.851-7.65
	c0.812-5.356,0.386-22.089-5.1-12.751C289.774,371.165,289.774,386.21,285.609,385.063z M316.21,377.413
	c-0.918,2.398,2.241,8.393,2.55,7.65c0.217-0.523-3.26-11.503-2.55-12.751c0.076-0.134,21.083-3.154,22.95-2.55
	c6.482,2.1,8.694,8.545,12.751,15.301c3.317-6.333-7.481-10.584,0-12.751c2.6,0.416,2.5,15.565,5.1,7.65
	c-1.716-15.724-14.479-2.296-12.75-15.3c-18.339-2.974-41.236,6.91-30.601,30.601c0.572-1.979,0.07-5.03,2.55-5.1
	c3.197,9.996,1.947,7.901-2.55,10.2c12.166,1.566,10.92,11.921,22.951,10.2c-3.11-0.289-6.036-0.763-5.1-5.101
	c9.861,4.276,2.799,9.625,12.75,12.751c-25.695,0-55.656,0-86.703,0c-12.768,0-76.143,1.086-58.652,2.55
	c60.941,5.103,117.983-3.733,188.707,0c9.351,0,18.699,0,28.051,0c10.205,1.883,26.87-2.869,7.65-2.55c-20.4,0-40.802,0-61.202,0
	c-2.856-7.345-18.665-1.736-20.4-10.201c7.329-1.297,19.501-10.93,12.75-17.85c-3.207,12.254-21.449,14.937-35.701,12.75
	C324.68,390.522,311.874,388.749,316.21,377.413z M390.163,377.413c0.157,20.244,13.916,26.886,28.051,33.151
	c-8.758-10.203-8.746-8.171-17.851-22.951c14.441,1.517-0.737-10.763,7.65-15.301c-0.191,3.574,0.57,9.753,2.55,5.101
	c0-1.701,0-3.399,0-5.101c-5.182-2.98-10.411,1.348-5.1-7.649c-6.855,0.941-31.042-2.336-25.501,2.55
	c14.491-2.513,28.875,8.422,22.951,17.851C398.284,381.405,392.317,387.269,390.163,377.413z M377.413,408.013
	c6.096-1.554,18.5,3.2,20.4-2.55c-18.901,6.891-4.413-25.53-12.75-35.701C383.209,383.21,390.579,405.879,377.413,408.013z
	 M451.365,387.613c4.802-4.495-3.486-7.896,5.101-10.2c-5.409,2.511,5.464,16.05-2.551,20.4c-0.609-2.769-4.198-6.123-5.1-2.55
	c3.08,0.54,1.568,2.829,0,5.101c8.006-1.206,6.736,6.863,12.75,7.649c-5.486-11.378,2.62-26.337-2.55-35.701
	C456.291,375.739,442.898,381.427,451.365,387.613z M181.056,387.613c1.104-13.114-5.388-6.727-10.2-10.2
	c-7.008,22.002,2.812,40.582,7.65,15.301c-1.494,2.271-5.359,14.546-7.65,7.65C176.577,394.902,169.995,374.365,181.056,387.613z"/>
</svg>
